<svg width="182" height="80" viewBox="0 0 182 80" fill="none" xmlns="http://www.w3.org/2000/svg">
<path d="M24.4494 47.0146C24.4494 52.4149 20.0215 55.9178 13.4279 55.9178H1.68451C0.577545 55.9178 0 55.2853 0 54.215V24.2946C0 23.1757 0.625674 22.5918 1.68451 22.5918H11.8878C18.1927 22.5918 22.8611 25.8515 22.8611 31.2031C22.8611 34.6573 20.936 37.7223 16.6525 38.8413C21.8504 39.3764 24.4494 42.928 24.4494 47.0146ZM5.00539 26.7272V37.2845H10.0108C15.6418 37.2845 17.7595 34.4627 17.7595 31.5923C17.7595 28.3813 15.0162 26.7272 11.8878 26.7272H5.00539ZM19.3477 46.82C19.3477 43.8523 16.8932 41.0306 11.0696 41.0306H5.00539V51.7338H13.3317C16.845 51.7824 19.3477 49.8364 19.3477 46.82Z" fill="white"/>
<path d="M89.6157 52.2689C89.0863 51.2473 88.4125 51.15 87.3536 51.6365C86.6798 52.0257 85.9098 52.2203 84.9472 52.2203C81.3857 52.2203 79.1236 46.7714 78.8348 43.1712C83.744 42.1982 86.5836 38.0629 86.5836 33.1005C86.5836 27.4083 82.9258 22.5432 76.5247 22.5432H64.3C63.193 22.5432 62.6155 23.1757 62.6155 24.246V54.1663C62.6155 55.2853 63.2411 55.8691 64.3 55.8691H65.8882C66.9952 55.8691 67.5727 55.2367 67.5727 54.1663V43.3658H74.0701C74.407 47.3552 76.7653 56.4043 84.5622 56.4043C86.2467 56.4043 87.9312 55.9664 89.3269 55.0421C90.2413 54.4582 90.2895 53.6312 89.8563 52.6582L89.6157 52.2689ZM75.514 39.3764H67.5727V26.6785H75.514C79.0755 26.6785 81.3857 29.3057 81.3857 33.0518C81.3375 36.7493 79.1236 39.3764 75.514 39.3764Z" fill="white"/>
<path d="M111.659 38.8413C115.942 37.7223 117.867 34.6573 117.867 31.2031C117.867 25.8028 113.199 22.5918 106.894 22.5918H96.6906C95.5836 22.5918 95.0061 23.2243 95.0061 24.2946V54.215C95.0061 55.334 95.6318 55.9178 96.6906 55.9178H108.386C114.98 55.9178 119.407 52.3663 119.407 47.0146C119.455 42.928 116.857 39.3764 111.659 38.8413ZM106.846 26.7272C110.022 26.7272 112.717 28.3813 112.717 31.5923C112.717 34.4627 110.6 37.2844 104.969 37.2844H99.9633V26.7272H106.846ZM108.386 51.7824H100.06V41.0792H106.076C111.947 41.0792 114.354 43.901 114.354 46.8687C114.354 49.8364 111.851 51.7824 108.386 51.7824Z" fill="white"/>
<path d="M145.541 22.5432H127.83C126.723 22.5432 126.145 23.1757 126.145 24.246V54.1663C126.145 55.2853 126.771 55.8691 127.83 55.8691H145.541C146.6 55.8691 147.226 55.2367 147.226 54.1663V53.4366C147.226 52.3176 146.552 51.7338 145.541 51.7338H131.103V41.5657H143.472C144.579 41.5657 145.156 40.8846 145.156 39.8143V39.1818C145.156 38.0629 144.531 37.479 143.472 37.479H131.103V26.6785H145.541C146.6 26.6785 147.226 26.0461 147.226 24.9757V24.246C147.226 23.1757 146.6 22.5432 145.541 22.5432Z" fill="white"/>
<path d="M181.301 52.7068L181.06 52.2689C180.531 51.2473 179.857 51.15 178.798 51.6365C178.124 52.0257 177.354 52.2203 176.392 52.2203C172.83 52.2203 170.568 46.7714 170.279 43.1712C175.189 42.1982 178.028 38.0629 178.028 33.1005C178.028 27.4083 174.37 22.5432 167.969 22.5432H155.745C154.638 22.5432 154.06 23.1757 154.06 24.246V54.1663C154.06 55.2853 154.686 55.8691 155.745 55.8691H157.333C158.44 55.8691 159.017 55.2367 159.017 54.1663V43.3658H165.515C165.852 47.3552 168.21 56.4043 176.007 56.4043C177.691 56.4043 179.376 55.9664 180.771 55.0421C181.686 54.5069 181.734 53.6312 181.301 52.7068ZM166.959 39.3764H159.017V26.6785H166.959C170.52 26.6785 172.83 29.3057 172.83 33.0518C172.782 36.7493 170.568 39.3764 166.959 39.3764Z" fill="white"/>
<path d="M45.9148 25.5109C45.1447 27.7002 44.4228 29.9381 43.7009 32.1761L48.4656 45.02H39.9468C39.6099 46.3822 39.273 47.7444 38.9361 49.1066H49.8614L51.8828 54.5555C52.2678 55.5286 52.9416 55.9178 53.9042 55.9178H55.3962C56.6475 55.9178 57.1288 55.0907 56.6956 53.9231L45.9148 25.5109Z" fill="white"/>
<path d="M49.0431 72.0212V71.9239C50.3907 71.4861 51.1127 70.2212 51.1127 68.8103C51.1127 66.2804 49.0913 65.2588 46.2035 65.2588H41.9682V79.6595H46.5404C49.7169 79.6595 51.9309 78.2972 51.9309 75.4268C51.9309 73.5294 50.7276 72.3618 49.0431 72.0212ZM43.7971 66.7183H46.011C48.2249 66.7183 49.38 67.3507 49.38 69.0535C49.38 70.5131 48.3693 71.4374 45.9629 71.4374H43.8452V66.7183H43.7971ZM46.2998 78.2486H43.7971V72.8483H46.2998C48.8025 72.8483 50.1982 73.6754 50.1982 75.4268C50.1501 77.3729 48.7062 78.2486 46.2998 78.2486Z" fill="white"/>
<path d="M64.2037 69.3454C64.2037 66.3291 62.1341 65.3074 59.1983 65.3074H54.7223V79.7081H56.5512V73.6267H59.1502L62.5673 79.7081H64.6368L60.9791 73.3835C62.9523 72.897 64.2037 71.5834 64.2037 69.3454ZM56.5993 66.7669H59.0058C61.2197 66.7669 62.4229 67.4481 62.4229 69.3454C62.4229 71.1942 61.2197 72.1185 59.0058 72.1185H56.5993V66.7669Z" fill="white"/>
<path d="M72.3856 65.0155C68.824 65.0155 66.2732 67.8373 66.2732 72.4105C66.2732 76.9836 68.7759 79.9513 72.3856 79.9513C75.9471 79.9513 78.4979 77.0323 78.4979 72.4105C78.4979 67.8373 75.9952 65.0155 72.3856 65.0155ZM72.3856 78.3459C69.8347 78.3459 68.1502 76.0106 68.1502 72.4591C68.1502 68.9076 69.8347 66.6696 72.3856 66.6696C74.9364 66.6696 76.6209 68.9076 76.6209 72.4591C76.6209 76.0106 74.9364 78.3459 72.3856 78.3459Z" fill="white"/>
<path d="M79.7011 66.8156H84.0327V79.7081H85.8135V66.8156H90.1451V65.3074H79.7011V66.8156Z" fill="white"/>
<path d="M101.118 71.3401H94.5248V65.3074H92.6959V79.7081H94.5248V72.9456H101.118V79.7081H102.947V65.3074H101.118V71.3401Z" fill="white"/>
<path d="M108.675 72.897H114.065V71.3401H108.675V66.8156H115.076V65.3074H106.846V79.7081H115.268V78.1513H108.675V72.897Z" fill="white"/>
<path d="M127.782 69.3454C127.782 66.3291 125.712 65.3074 122.776 65.3074H118.3V79.7081H120.129V73.6267H122.728L126.145 79.7081H128.215L124.557 73.3835C126.482 72.897 127.782 71.5834 127.782 69.3454ZM120.129 66.7669H122.536C124.75 66.7669 125.953 67.4481 125.953 69.3454C125.953 71.1942 124.75 72.1185 122.536 72.1185H120.129V66.7669Z" fill="white"/>
<path d="M136.252 72.0212L134.231 71.1455C133.124 70.659 131.873 70.1725 131.873 68.7616C131.873 67.4967 132.931 66.6696 134.52 66.6696C135.819 66.6696 136.878 67.2048 137.744 68.0319L138.707 66.8642C137.696 65.8426 136.204 65.0641 134.52 65.0641C131.921 65.0641 130.044 66.6696 130.044 68.9076C130.044 71.0482 131.584 72.0212 132.931 72.605L135.001 73.5294C136.349 74.1132 137.359 74.5997 137.359 76.0593C137.359 77.4701 136.252 78.3945 134.375 78.3945C132.883 78.3945 131.488 77.6648 130.429 76.5944L129.322 77.8594C130.573 79.1729 132.306 80 134.327 80C137.311 80 139.188 78.1999 139.188 75.9133C139.188 73.724 137.889 72.751 136.252 72.0212Z" fill="white"/>
<path d="M33.9789 75.4755C33.4495 74.989 32.4388 75.0863 31.765 75.1349C31.7168 75.1349 31.7168 75.1349 31.7168 75.1349C28.0109 75.2809 18.1445 75.5728 5.24604 75.9133L34.3639 76.5944C34.3639 76.4971 34.3639 76.3998 34.3639 76.3025C34.2677 76.0106 34.2195 75.6701 33.9789 75.4755Z" fill="white"/>
<path d="M33.9307 71.6807C33.4013 71.1942 32.3906 71.2915 31.7168 71.3401C31.6687 71.3401 31.6687 71.3401 31.6687 71.3401C27.9627 71.4861 18.0964 71.778 5.19787 72.1186L34.3157 72.7997C34.3157 72.7024 34.3157 72.6051 34.3157 72.5078C34.2195 72.2159 34.1232 71.924 33.9307 71.6807Z" fill="white"/>
<path d="M147.755 75.4755C148.285 74.989 149.295 75.0863 149.969 75.1349C150.017 75.1349 150.017 75.1349 150.017 75.1349C153.723 75.2809 163.589 75.5728 176.488 75.9133L147.37 76.5944C147.37 76.4971 147.37 76.3998 147.37 76.3025C147.466 76.0106 147.514 75.6701 147.755 75.4755Z" fill="white"/>
<path d="M147.803 71.6807C148.333 71.1942 149.343 71.2915 150.017 71.3401C150.065 71.3401 150.065 71.3401 150.065 71.3401C153.771 71.4861 163.638 71.778 176.536 72.1186L147.418 72.7997C147.418 72.7024 147.418 72.6051 147.418 72.5078C147.514 72.2159 147.611 71.924 147.803 71.6807Z" fill="white"/>
<path d="M118.06 12.7157L118.108 8.62902C118.06 8.14251 117.915 7.656 117.53 7.41274C117.386 7.31544 117.193 7.26679 117.001 7.21814C116.327 7.07219 115.653 7.02354 114.931 7.12084C114.931 7.12084 56.455 7.12084 55.2036 7.12084C55.1555 5.85591 54.1929 4.59099 52.9897 4.20178C50.6795 3.47201 49.5244 5.56401 48.3694 7.21814C45.1447 7.70465 40.6206 7.12084 39.7062 4.20178C39.4174 3.37471 39.3693 2.5963 39.5137 1.91518C39.6099 0.844862 39.3693 0.261048 38.3586 0.115095L37.9254 0.0177948C36.9629 -0.0795072 36.2409 0.2124 36.0003 1.13677C35.5671 2.64495 35.6634 4.20178 36.1447 5.70996C37.5885 10.1859 41.7276 11.5481 45.4335 11.694C44.134 13.9806 42.7864 16.2672 41.487 18.5538C41.0538 19.2836 40.6688 20.062 40.2356 20.8404C36.8185 27.2137 33.7382 33.8302 31.2837 40.6414C28.8291 47.3552 26.7114 54.4583 25.1713 61.4153C24.7863 63.1181 25.1713 64.9182 26.5189 66.0858C29.166 68.3724 33.4013 67.1075 34.2195 63.6533C35.134 59.6639 35.6152 55.5286 36.5778 51.5392C37.9736 45.7497 39.8987 40.1062 41.9201 34.5113C44.3265 27.9921 46.6849 21.2783 50.1982 15.2456C50.9683 13.932 51.7865 12.6671 52.6047 11.4021C58.5726 11.3048 64.5887 11.2562 70.5567 11.1102C71.4711 11.1102 72.6744 10.7697 73.3 11.5967C73.9738 12.4238 74.2145 15.8294 74.8402 16.7051C76.1878 18.5052 78.4979 18.116 80.4231 18.116H111.418C112.573 18.116 113.728 18.2133 114.883 18.2133C115.509 18.2133 117.53 18.3592 117.819 17.6781C118.252 16.851 118.108 13.5428 118.06 12.7157ZM29.6473 63.2154C27.9628 63.2154 27.9628 60.5883 29.6473 60.5883C31.3318 60.5883 31.3318 63.2154 29.6473 63.2154ZM50.487 10.5264C48.8025 10.5264 48.8025 7.89925 50.487 7.89925C52.1715 7.94791 52.1715 10.5264 50.487 10.5264ZM84.3215 9.99125C98.4232 9.74799 109.204 9.50474 113.295 9.35878C113.343 9.35878 113.343 9.35878 113.343 9.35878C114.113 9.35878 115.172 9.21283 115.798 9.74799C116.038 9.9426 116.135 10.2345 116.183 10.5751C116.183 10.6724 116.183 10.7697 116.183 10.867L84.3215 9.99125Z" fill="white"/>
</svg>
