<svg width="168" height="120" viewBox="0 0 168 120" fill="none" xmlns="http://www.w3.org/2000/svg">
<path d="M167.49 89.3291H0.333496V90.0959H167.49V89.3291Z" fill="white"/>
<path d="M167.49 59.425H0.333496V60.1918H167.49V59.425Z" fill="white"/>
<path d="M167.49 29.5207H0.333496V30.2875H167.49V29.5207Z" fill="white"/>
<path d="M134.442 0H133.675V119.617H134.442V0Z" fill="white"/>
<path d="M101.011 0H100.244V119.617H101.011V0Z" fill="white"/>
<path d="M67.5795 0H66.8127V119.617H67.5795V0Z" fill="white"/>
<path d="M34.1481 0H33.3813V119.617H34.1481V0Z" fill="white"/>
<path d="M100.781 29.9041H33.6882V59.8083H100.781V29.9041Z" fill="#13C4A3"/>
<path d="M33.6882 57.508V89.7125L68.5764 58.6582L33.6882 57.508Z" fill="#13C4A3"/>
<path d="M100.781 58.6582V59.8083L100.344 60.1955L99.4619 60.9776C82.313 61.4952 68.4613 73.7789 67.8363 89.0109L67.0504 89.7086L67.0427 89.7125V57.508L100.781 58.6582Z" fill="#13C4A3"/>
<path d="M100.589 60.1916C100.509 60.1916 100.424 60.1916 100.344 60.1954C82.1022 60.3104 67.2765 73.4683 67.0504 89.7085C67.0427 89.8389 67.0427 89.9654 67.0427 90.0957C67.0427 106.585 82.0906 120 100.589 120C119.087 120 134.135 106.585 134.135 90.0957C134.135 73.6063 119.087 60.1916 100.589 60.1916ZM100.589 119.233C82.5161 119.233 67.8095 106.163 67.8095 90.0957C67.8095 89.7315 67.8172 89.3711 67.8363 89.0108C68.4613 73.7788 82.313 61.4951 99.4619 60.9775C99.8339 60.9622 100.209 60.9584 100.589 60.9584C118.662 60.9584 133.369 74.028 133.369 90.0957C133.369 106.163 118.662 119.233 100.589 119.233Z" fill="white"/>
<path d="M82.1865 89.7186L80.2695 89.7079C80.2704 89.5374 80.5774 72.6547 100.187 71.4838L100.301 73.3973C82.5165 74.4593 82.1916 89.0962 82.1865 89.7186Z" fill="white"/>
<path d="M119.942 89.3291C119.869 87.1439 119.356 84.9959 118.435 83.0128C117.514 81.0296 116.204 79.2519 114.583 77.7853C110.77 74.3089 105.787 72.399 100.627 72.4371H100.589C90.0575 72.4371 81.4618 79.9783 81.2357 89.3291C81.228 89.4556 81.228 89.586 81.228 89.7125C81.228 94.6045 83.5169 99.0249 87.1896 102.169C90.9397 105.319 95.6912 107.028 100.589 106.988H100.627C111.285 106.969 119.95 99.2281 119.95 89.7125C119.95 89.586 119.95 89.4556 119.942 89.3291Z" fill="white"/>
<path d="M114.583 77.7853L114.008 78.2952L87.7647 101.659L87.1896 102.169C83.5169 99.0249 81.228 94.6045 81.228 89.7125C81.228 89.586 81.228 89.4556 81.2357 89.3291C81.4618 79.9783 90.0575 72.4371 100.589 72.4371H100.627C105.787 72.399 110.77 74.3089 114.583 77.7853Z" fill="#13C4A3"/>
</svg>
