<svg width="272" height="30" viewBox="0 0 272 30" fill="none" xmlns="http://www.w3.org/2000/svg">
<path fill-rule="evenodd" clip-rule="evenodd" d="M0 0H21V9H30V30H8.01086e-07L0 0ZM18 9V3H3V18H9V9H18ZM12 21H21V12H27V27H12V21ZM9 21H3L3 27H9V21ZM12 18H18V12H12V18Z" fill="#13C4A3"/>
<path d="M77.733 14.6871C79.4298 15.0487 80.7928 15.8971 81.822 17.2323C82.8512 18.5396 83.3658 20.0417 83.3658 21.7385C83.3658 24.1864 82.5035 26.1335 80.7789 27.58C79.0821 28.9986 76.7038 29.7079 73.644 29.7079H60V0.417246H73.185C76.1613 0.417246 78.484 1.09875 80.153 2.46175C81.8498 3.82476 82.6982 5.67455 82.6982 8.01113C82.6982 9.73574 82.2392 11.1683 81.3213 12.3088C80.4312 13.4492 79.235 14.242 77.733 14.6871ZM67.1349 12.267H71.8081C72.9764 12.267 73.8665 12.0167 74.4784 11.516C75.1182 10.9875 75.4381 10.2225 75.4381 9.22114C75.4381 8.21975 75.1182 7.4548 74.4784 6.92629C73.8665 6.39778 72.9764 6.13352 71.8081 6.13352H67.1349V12.267ZM72.3922 23.9499C73.5883 23.9499 74.5063 23.6857 75.146 23.1572C75.8136 22.6008 76.1474 21.8081 76.1474 20.7789C76.1474 19.7497 75.7997 18.943 75.1043 18.3588C74.4367 17.7747 73.5049 17.4826 72.3088 17.4826H67.1349V23.9499H72.3922Z" fill="white"/>
<path d="M112.622 0.417246L102.483 20.0278V29.7079H95.3482V20.0278L85.2092 0.417246H93.3037L98.9783 12.6843L104.611 0.417246H112.622Z" fill="white"/>
<path d="M136.568 0.417246V6.13352H128.807V29.7079H121.672V6.13352H113.911V0.417246H136.568Z" fill="white"/>
<path d="M147.284 6.13352V12.0584H156.839V17.5661H147.284V23.9917H158.09V29.7079H140.149V0.417246H158.09V6.13352H147.284Z" fill="white"/>
<path d="M177.66 29.7079L171.568 18.6509H169.857V29.7079H162.722V0.417246H174.697C177.006 0.417246 178.967 0.820583 180.581 1.62726C182.222 2.43393 183.446 3.54659 184.252 4.96523C185.059 6.35605 185.462 7.91377 185.462 9.63839C185.462 11.5855 184.906 13.3241 183.793 14.854C182.709 16.3839 181.095 17.4687 178.953 18.1085L185.713 29.7079H177.66ZM169.857 13.6022H174.28C175.588 13.6022 176.561 13.2823 177.201 12.6426C177.868 12.0028 178.202 11.0987 178.202 9.93046C178.202 8.8178 177.868 7.94159 177.201 7.30181C176.561 6.66203 175.588 6.34214 174.28 6.34214H169.857V13.6022Z" fill="white"/>
<path d="M197.076 6.13352V12.0584H206.631V17.5661H197.076V23.9917H207.883V29.7079H189.941V0.417246H207.883V6.13352H197.076Z" fill="white"/>
<path d="M226.367 30C223.614 30 221.082 29.3602 218.774 28.0807C216.493 26.8011 214.671 25.0209 213.308 22.7399C211.972 20.4312 211.305 17.8442 211.305 14.9791C211.305 12.114 211.972 9.54103 213.308 7.26008C214.671 4.97914 216.493 3.19889 218.774 1.91933C221.082 0.639777 223.614 0 226.367 0C229.121 0 231.639 0.639777 233.92 1.91933C236.228 3.19889 238.036 4.97914 239.344 7.26008C240.679 9.54103 241.347 12.114 241.347 14.9791C241.347 17.8442 240.679 20.4312 239.344 22.7399C238.009 25.0209 236.201 26.8011 233.92 28.0807C231.639 29.3602 229.121 30 226.367 30ZM226.367 23.491C228.704 23.491 230.568 22.7121 231.959 21.1544C233.377 19.5967 234.087 17.5382 234.087 14.9791C234.087 12.3922 233.377 10.3338 231.959 8.80389C230.568 7.24617 228.704 6.46731 226.367 6.46731C224.003 6.46731 222.112 7.23227 220.693 8.76217C219.302 10.2921 218.607 12.3644 218.607 14.9791C218.607 17.5661 219.302 19.6384 220.693 21.1961C222.112 22.726 224.003 23.491 226.367 23.491Z" fill="white"/>
<path d="M271.519 29.7079H264.384L252.451 11.6412V29.7079H245.316V0.417246H252.451L264.384 18.5675V0.417246H271.519V29.7079Z" fill="white"/>
</svg>
