<svg width="258" height="300" viewBox="0 0 258 300" fill="none" xmlns="http://www.w3.org/2000/svg">
<path d="M200.748 148.262C200.748 148.262 200.206 148.727 199.006 149.159C197.829 149.579 195.879 149.886 193.701 149.092C192.632 148.693 191.516 148.033 190.6 147.032C189.695 146.034 188.927 144.744 188.622 143.242C188.449 142.499 188.398 141.709 188.462 140.913C188.514 140.116 188.695 139.309 189.009 138.539C189.604 136.983 190.758 135.593 192.246 134.645C193.751 133.723 195.507 133.297 197.166 133.445C197.996 133.501 198.801 133.693 199.54 133.996C200.283 134.288 200.971 134.68 201.562 135.162C202.778 136.096 203.6 137.352 204.099 138.603C204.595 139.866 204.699 141.158 204.587 142.295C204.345 144.6 203.213 146.217 202.319 147.09C201.405 147.979 200.748 148.262 200.748 148.262C200.715 148.217 201.337 147.874 202.193 146.968C203.03 146.077 204.077 144.483 204.269 142.266C204.356 141.173 204.239 139.94 203.75 138.742C203.258 137.556 202.465 136.368 201.305 135.493C200.741 135.041 200.087 134.673 199.382 134.401C198.68 134.118 197.918 133.94 197.133 133.89C195.563 133.756 193.909 134.162 192.487 135.032C191.081 135.928 189.99 137.236 189.423 138.704C189.123 139.431 188.948 140.194 188.895 140.948C188.83 141.701 188.873 142.45 189.032 143.156C189.309 144.581 190.028 145.816 190.878 146.778C191.739 147.743 192.795 148.39 193.815 148.792C195.891 149.594 197.784 149.353 198.952 148.992C200.14 148.622 200.722 148.213 200.748 148.262Z" fill="#E0E0E0"/>
<path d="M202.18 158.747C202.182 158.741 202.251 158.803 202.387 158.933C202.536 159.077 202.735 159.27 202.993 159.52C203.544 160.063 204.338 160.845 205.368 161.861L205.279 161.851C206.875 160.841 208.974 159.514 211.513 157.909L211.465 158.044C211.016 156.771 210.516 155.357 209.981 153.843L209.954 153.768L210.01 153.708C211.031 152.611 211.984 151.309 212.768 149.815L212.81 149.735H212.901C214.291 149.738 215.795 149.74 217.359 149.743L217.202 149.868C217.72 147.604 218.269 145.202 218.847 142.679L218.943 142.88C217.699 142.283 216.329 141.623 214.925 140.949L214.822 140.9L214.819 140.786C214.771 139.306 214.524 137.684 214.03 136.094L213.995 135.981L214.079 135.898C215.058 134.924 216.139 133.85 217.239 132.757L217.21 133.008C215.981 131.044 214.655 128.926 213.296 126.755L213.545 126.843C212.235 127.301 210.797 127.804 209.339 128.313L209.216 128.356L209.121 128.267C208.034 127.249 206.71 126.279 205.251 125.512L205.134 125.449L205.134 125.316C205.14 123.919 205.146 122.396 205.152 120.857L205.324 121.075C203.049 120.55 200.61 119.987 198.137 119.416L198.39 119.294C197.778 120.563 197.118 121.931 196.452 123.31L196.392 123.434L196.255 123.438C194.746 123.484 193.133 123.735 191.575 124.217L191.573 124.218H191.572C191.471 124.192 191.8 124.275 191.343 124.16L191.34 124.157L191.334 124.151L191.321 124.138L191.296 124.113L191.247 124.063L191.148 123.963L190.95 123.764L190.556 123.366L189.769 122.572C189.246 122.044 188.724 121.518 188.205 120.994L188.487 121.026C186.372 122.346 184.285 123.648 182.229 124.931L182.322 124.667C182.815 126.084 183.303 127.487 183.787 128.876L183.831 129.003L183.739 129.102C182.639 130.273 181.712 131.58 180.977 132.966L180.915 133.084L180.782 133.084C179.275 133.076 177.79 133.068 176.325 133.061L176.536 132.894C175.966 135.346 175.41 137.741 174.867 140.077L174.755 139.842C176.116 140.502 177.453 141.15 178.767 141.787L178.878 141.841L178.882 141.963C178.931 143.587 179.2 145.168 179.656 146.655L179.691 146.769L179.606 146.853C178.52 147.927 177.465 148.968 176.437 149.984L176.463 149.75C177.833 151.954 179.125 154.035 180.356 156.015L180.152 155.943C181.633 155.431 183.023 154.95 184.363 154.487L184.457 154.454L184.528 154.522C185.768 155.688 187.077 156.594 188.402 157.301L188.482 157.344L188.481 157.433C188.469 159.053 188.457 160.513 188.446 161.891L188.342 161.759C191.123 162.416 193.493 162.975 195.521 163.453L195.407 163.508C196.192 161.91 196.836 160.598 197.372 159.506L197.391 159.467L197.435 159.465C199.055 159.421 200.244 159.193 201.021 159.024C201.395 158.934 201.682 158.865 201.892 158.815C202.089 158.762 202.182 158.741 202.18 158.747C202.178 158.753 202.083 158.789 201.901 158.851C201.712 158.91 201.427 158.999 201.038 159.097C200.262 159.29 199.072 159.543 197.44 159.611L197.503 159.57C196.981 160.669 196.355 161.988 195.59 163.596L195.555 163.669L195.476 163.651C193.443 163.19 191.068 162.652 188.282 162.02L188.178 161.997V161.889C188.179 160.51 188.181 159.051 188.183 157.431L188.262 157.563C186.911 156.853 185.574 155.939 184.306 154.758L184.471 154.793C183.133 155.263 181.745 155.75 180.266 156.27L180.135 156.315L180.061 156.197C178.823 154.222 177.521 152.146 176.143 149.948L176.063 149.82L176.17 149.714C177.196 148.694 178.246 147.649 179.329 146.572L179.28 146.769C178.81 145.25 178.53 143.634 178.475 141.974L178.59 142.15C177.274 141.517 175.936 140.872 174.573 140.216L174.423 140.143L174.461 139.98C174.999 137.643 175.55 135.247 176.115 132.793L176.154 132.624L176.327 132.625C177.793 132.63 179.278 132.636 180.786 132.641L180.591 132.758C181.341 131.337 182.289 129.996 183.416 128.794L183.368 129.019C182.883 127.631 182.394 126.229 181.899 124.812L181.839 124.643L181.992 124.548C184.048 123.263 186.134 121.96 188.248 120.639L188.402 120.543L188.529 120.672C189.048 121.195 189.57 121.722 190.094 122.25L190.88 123.044L191.275 123.442L191.473 123.641L191.572 123.74L191.621 123.79L191.646 123.815L191.658 123.827L191.664 123.833L191.667 123.836C191.211 123.722 191.541 123.805 191.439 123.779L191.44 123.778L191.442 123.778C193.04 123.284 194.694 123.027 196.241 122.98L196.044 123.107C196.71 121.729 197.371 120.361 197.984 119.093L198.063 118.93L198.238 118.971C200.71 119.543 203.148 120.109 205.424 120.636L205.597 120.677L205.596 120.854C205.588 122.393 205.58 123.916 205.573 125.313L205.456 125.118C206.95 125.906 208.304 126.902 209.415 127.947L209.197 127.9C210.655 127.394 212.095 126.894 213.406 126.438L213.566 126.383L213.655 126.526C215.009 128.7 216.329 130.821 217.554 132.788L217.639 132.925L217.525 133.039C216.421 134.129 215.338 135.2 214.355 136.171L214.404 135.974C214.905 137.601 215.151 139.259 215.194 140.77L215.088 140.607C216.49 141.288 217.857 141.951 219.098 142.554L219.227 142.617L219.195 142.756C218.606 145.276 218.045 147.676 217.517 149.938L217.487 150.064L217.358 150.063C215.794 150.052 214.289 150.041 212.9 150.031L213.032 149.951C212.225 151.465 211.248 152.781 210.204 153.888L210.232 153.753C210.754 155.271 211.243 156.69 211.682 157.966L211.712 158.054L211.634 158.102C209.077 159.678 206.963 160.981 205.355 161.971L205.305 162.002L205.265 161.961C204.268 160.931 203.499 160.138 202.965 159.587C202.714 159.323 202.52 159.119 202.375 158.967C202.244 158.828 202.178 158.753 202.18 158.747Z" fill="#E0E0E0"/>
<path fill-rule="evenodd" clip-rule="evenodd" d="M216.867 105.379C214.665 106.055 212.41 106.424 210.16 106.496L207.418 112.172L197.257 109.821L197.286 103.518C195.296 102.466 193.431 101.145 191.75 99.5692L185.799 101.643L180.278 92.7956L184.753 88.3601C184.075 86.1589 183.708 83.9024 183.637 81.6533L177.961 78.9111L180.31 68.7517L186.614 68.7794C187.666 66.79 188.987 64.9261 190.563 63.245L188.489 57.2951L197.336 51.7708L201.772 56.2468C203.973 55.5681 206.229 55.2018 208.479 55.1303L211.222 49.4536L221.382 51.8046L221.353 58.1086C223.343 59.161 225.207 60.4819 226.888 62.057L232.838 59.984L238.361 68.8306L233.886 73.2654C234.564 75.4666 234.931 77.7231 235.002 79.9729L240.679 82.7151L238.329 92.8752L232.025 92.8468C230.973 94.8362 229.653 96.7008 228.076 98.3819L230.15 104.331L221.303 109.854L216.867 105.379ZM214.842 90.5532C220.083 87.2814 221.68 80.3797 218.408 75.1381C215.136 69.8965 208.234 68.3011 202.993 71.5729C197.751 74.8453 196.155 81.7464 199.427 86.988C202.7 92.2289 209.6 93.8257 214.842 90.5532Z" fill="#E0E0E0"/>
<path fill-rule="evenodd" clip-rule="evenodd" d="M240.805 138.983C239.634 139.343 238.434 139.539 237.237 139.577L235.779 142.597L230.373 141.346L230.388 137.993C229.33 137.433 228.337 136.73 227.443 135.892L224.277 136.995L221.339 132.288L223.72 129.929C223.359 128.757 223.164 127.557 223.126 126.361L220.107 124.901L221.357 119.497L224.71 119.511C225.27 118.453 225.973 117.461 226.811 116.567L225.708 113.402L230.414 110.463L232.774 112.844C233.945 112.484 235.145 112.289 236.342 112.25L237.801 109.23L243.207 110.481L243.191 113.835C244.25 114.395 245.241 115.098 246.136 115.935L249.301 114.832L252.24 119.539L249.858 121.898C250.219 123.069 250.415 124.27 250.453 125.467L253.473 126.926L252.223 132.331L248.869 132.316C248.309 133.374 247.606 134.366 246.768 135.261L247.871 138.426L243.165 141.364L240.805 138.983ZM239.728 131.096C242.516 129.355 243.366 125.683 241.625 122.895C239.884 120.106 236.213 119.257 233.424 120.998C230.636 122.739 229.787 126.41 231.528 129.199C233.268 131.987 236.939 132.837 239.728 131.096Z" fill="#EBEBEB"/>
<path d="M33.7938 79.2907C33.862 79.3595 30.6988 82.6002 26.7295 86.5277C22.7588 90.4565 19.4857 93.5846 19.4176 93.5151C19.3495 93.4463 22.5119 90.2063 26.4826 86.2774C30.4519 82.3506 33.7257 79.2219 33.7938 79.2907Z" fill="#E0E0E0"/>
<path d="M33.8282 93.4804C33.7601 93.5498 30.4714 90.4366 26.4832 86.5287C22.4937 82.6187 19.3157 79.3948 19.3831 79.3254C19.4513 79.2559 22.7392 82.3685 26.7288 86.2777C30.717 90.1856 33.8957 93.4109 33.8282 93.4804Z" fill="#E0E0E0"/>
<path d="M48.1 169.069C48.0899 169.165 44.0538 168.819 39.0861 168.294C34.117 167.77 30.0978 167.267 30.1079 167.17C30.118 167.073 34.1535 167.42 39.1225 167.945C44.0902 168.469 48.1101 168.972 48.1 169.069Z" fill="#E0E0E0"/>
<path d="M47.3842 175.845C47.3741 175.941 43.338 175.594 38.3703 175.07C33.4012 174.546 29.382 174.043 29.3921 173.946C29.4022 173.849 33.4377 174.196 38.4067 174.721C43.3751 175.245 47.3943 175.748 47.3842 175.845Z" fill="#E0E0E0"/>
<path d="M60.7716 88.9457C60.7716 88.9457 62.6085 77.9431 63.0457 77.1059C63.4828 76.2687 68.5557 71.125 69.1541 71.0184C69.7525 70.9118 77.7464 68.4023 77.3045 69.6496C76.862 70.8969 71.2541 72.5794 71.2541 72.5794L70.7219 73.2492C70.7219 73.2492 75.5135 71.6896 76.7048 71.7294C77.8017 71.7658 77.9967 72.9045 77.1399 73.2331C76.2832 73.5616 72.0582 74.7927 71.9017 75.0565C71.7452 75.3209 76.6043 73.9326 77.2148 73.9582C78.0358 73.9933 78.6321 75.0335 77.793 75.3864C77.2985 75.5941 72.6006 76.6728 72.6006 76.6728C72.6006 76.6728 76.522 76.2141 76.9639 76.3335C77.687 76.5291 77.625 77.4054 76.831 77.6166C76.2859 77.7609 73.4155 77.8844 72.6856 78.0793C72.6856 78.0793 72.1439 78.5435 72.1635 79.9959C72.183 81.4489 70.2948 85.3211 70.2948 85.3211L60.7716 88.9457Z" fill="#FFBE9D"/>
<path d="M77.2985 69.6747C77.3296 69.7057 76.9268 70.1503 76.122 70.6967C75.72 70.9679 75.2161 71.2586 74.6251 71.5177C74.0295 71.741 73.3704 71.9676 72.6782 72.2085C72.1656 72.3825 71.6711 72.5498 71.2029 72.7083L71.2825 72.6598C69.7586 74.1803 68.6158 75.2448 68.5538 75.1908C68.4917 75.1369 69.5306 73.9779 71.0241 72.423L71.0545 72.392L71.1044 72.3744C71.5665 72.2125 72.0542 72.0418 72.5609 71.8637C73.2382 71.6344 73.8837 71.4158 74.4983 71.2074C75.0744 70.9753 75.5736 70.7169 75.9824 70.4808C76.7993 70.0046 77.2608 69.6322 77.2985 69.6747Z" fill="#EB996E"/>
<path d="M183.805 209.805L74.9119 198.587C71.5814 198.244 69.1596 195.266 69.5023 191.935L88.3619 8.86239C88.8496 4.13147 93.0793 0.691714 97.8102 1.17877L201.633 11.8744C206.364 12.3615 209.804 16.5919 209.316 21.3228L190.457 204.396C190.115 207.726 187.137 210.148 183.805 209.805Z" fill="#13C4A3"/>
<path opacity="0.4" d="M183.805 209.805L74.9119 198.587C71.5814 198.244 69.1596 195.266 69.5023 191.935L88.3619 8.86239C88.8496 4.13147 93.0793 0.691714 97.8102 1.17877L201.633 11.8744C206.364 12.3615 209.804 16.5919 209.316 21.3228L190.457 204.396C190.115 207.726 187.137 210.148 183.805 209.805Z" fill="black"/>
<path d="M172.818 208.673L63.9246 197.455C60.5941 197.112 58.1723 194.134 58.515 190.803L77.3746 7.72969C77.8616 2.99877 82.092 -0.441661 86.823 0.0460703L190.646 10.7417C195.377 11.2288 198.816 15.4592 198.329 20.1901L179.47 203.263C179.127 206.594 176.149 209.016 172.818 208.673Z" fill="#13C4A3"/>
<path d="M115.586 176.866L78.0371 172.998C77.1399 172.906 76.4882 172.104 76.5806 171.207L78.1025 156.431C78.1949 155.535 78.997 154.883 79.8936 154.975L117.442 158.843C118.339 158.936 118.991 159.738 118.899 160.634L117.377 175.41C117.284 176.306 116.482 176.959 115.586 176.866Z" fill="#13C4A3"/>
<g opacity="0.4">
<path d="M115.586 176.866L78.0371 172.998C77.1399 172.906 76.4882 172.104 76.5806 171.207L78.1025 156.431C78.1949 155.535 78.997 154.883 79.8936 154.975L117.442 158.843C118.339 158.936 118.991 159.738 118.899 160.634L117.377 175.41C117.284 176.306 116.482 176.959 115.586 176.866Z" fill="black"/>
</g>
<path d="M84.9629 20.5195L80.7831 61.0825L184.19 71.7382L188.37 31.1751L84.9629 20.5195Z" fill="#FAFAFA"/>
<path d="M184.19 71.7297C184.19 71.7297 184.207 71.4801 184.252 71.0059C184.298 70.5256 184.366 69.8247 184.455 68.9059C184.638 67.0582 184.907 64.345 185.255 60.8458C185.96 53.8517 186.98 43.7233 188.247 31.1529L188.356 31.2865C162.33 28.6192 125.605 24.8549 84.9476 20.6873L84.9408 20.6866L85.1338 20.5301C83.6699 34.7168 82.2553 48.4239 80.9479 61.0934L80.7975 60.9086C110.72 64.0232 136.547 66.7114 154.902 68.6219C164.085 69.5879 171.398 70.3576 176.423 70.8858C178.932 71.1536 180.868 71.3601 182.185 71.501C182.837 71.5726 183.334 71.6279 183.678 71.665C184.014 71.7048 184.19 71.7297 184.19 71.7297C184.19 71.7297 184.026 71.7203 183.696 71.6893C183.357 71.6569 182.866 71.6097 182.222 71.5476C180.911 71.4174 178.985 71.2265 176.49 70.9789C171.472 70.473 164.168 69.7363 154.997 68.8121C136.61 66.9374 110.739 64.3004 80.7624 61.2445L80.5951 61.2277L80.6126 61.0597C81.9159 48.3895 83.3252 34.6824 84.7843 20.495L84.8025 20.3203L84.9773 20.3385L84.984 20.3392C125.638 24.5487 162.359 28.3507 188.382 31.045L188.503 31.0578L188.49 31.1792C187.165 43.7753 186.096 53.9238 185.359 60.9322C184.986 64.4171 184.698 67.1189 184.501 68.9592C184.402 69.8665 184.327 70.5593 184.275 71.0342C184.222 71.4983 184.19 71.7297 184.19 71.7297Z" fill="black"/>
<path d="M99.2623 97.0908L84.4792 95.5675C83.7075 95.4879 83.1469 94.7985 83.2265 94.0268L84.7498 79.2437C84.8294 78.472 85.5188 77.9114 86.2905 77.9903L101.074 79.5135C101.845 79.5932 102.406 80.2826 102.327 81.0543L100.804 95.8374C100.724 96.6091 100.034 97.1704 99.2623 97.0908Z" fill="#13C4A3"/>
<g opacity="0.4">
<path d="M99.2623 97.0908L84.4792 95.5675C83.7075 95.4879 83.1469 94.7985 83.2265 94.0268L84.7498 79.2437C84.8294 78.472 85.5188 77.9114 86.2905 77.9903L101.074 79.5135C101.845 79.5932 102.406 80.2826 102.327 81.0543L100.804 95.8374C100.724 96.6091 100.034 97.1704 99.2623 97.0908Z" fill="black"/>
</g>
<path d="M96.5484 96.8117L81.7654 95.2891C80.9936 95.2095 80.4331 94.5194 80.5127 93.7484L82.0359 78.9653C82.1155 78.1936 82.8049 77.633 83.5767 77.7126L98.3597 79.2358C99.1314 79.3154 99.692 80.0049 99.6124 80.7766L98.0892 95.5597C98.0096 96.33 97.3201 96.8913 96.5484 96.8117Z" fill="black"/>
<path d="M91.6873 83.6457L90.9324 90.9711L89.2371 90.7963L89.8517 84.8316L88.3865 84.6805L88.5268 83.3198L91.6873 83.6457Z" fill="white"/>
<path d="M123.773 99.6161L108.99 98.0928C108.218 98.0132 107.658 97.3231 107.737 96.5521L109.26 81.769C109.34 80.9973 110.03 80.4367 110.801 80.5163L125.584 82.0389C126.356 82.1185 126.917 82.8079 126.837 83.5796L125.314 98.3627C125.234 99.1344 124.544 99.6957 123.773 99.6161Z" fill="#13C4A3"/>
<g opacity="0.4">
<path d="M123.773 99.6161L108.99 98.0928C108.218 98.0132 107.658 97.3231 107.737 96.5521L109.26 81.769C109.34 80.9973 110.03 80.4367 110.801 80.5163L125.584 82.0389C126.356 82.1185 126.917 82.8079 126.837 83.5796L125.314 98.3627C125.234 99.1344 124.544 99.6957 123.773 99.6161Z" fill="black"/>
</g>
<path d="M121.058 99.3366L106.275 97.814C105.504 97.7344 104.943 97.045 105.023 96.2733L106.545 81.4902C106.625 80.7185 107.315 80.1579 108.086 80.2375L122.869 81.7607C123.641 81.8404 124.201 82.5298 124.122 83.3015L122.599 98.0846C122.52 98.8549 121.83 99.4162 121.058 99.3366Z" fill="black"/>
<path d="M118.233 92.3881L118.091 93.7696L112.555 93.1996L112.669 92.1007L115.77 89.7228C116.481 89.1723 116.635 88.8073 116.672 88.4518C116.731 87.8757 116.368 87.5 115.594 87.4204C114.966 87.3556 114.407 87.5418 114.001 87.9972L112.849 87.0743C113.498 86.3059 114.579 85.8776 115.898 86.0138C117.53 86.1818 118.532 87.1316 118.395 88.4606C118.322 89.1723 118.056 89.8003 116.933 90.6469L115.084 92.0643L118.233 92.3881Z" fill="white"/>
<path d="M149.182 102.233L134.399 100.71C133.627 100.63 133.067 99.941 133.146 99.1693L134.669 84.3862C134.749 83.6145 135.438 83.0539 136.21 83.1335L150.993 84.6561C151.765 84.7357 152.326 85.4258 152.246 86.1968L150.723 100.98C150.643 101.752 149.953 102.313 149.182 102.233Z" fill="#13C4A3"/>
<g opacity="0.4">
<path d="M149.182 102.233L134.399 100.71C133.627 100.63 133.067 99.941 133.146 99.1693L134.669 84.3862C134.749 83.6145 135.438 83.0539 136.21 83.1335L150.993 84.6561C151.765 84.7357 152.326 85.4258 152.246 86.1968L150.723 100.98C150.643 101.752 149.953 102.313 149.182 102.233Z" fill="black"/>
</g>
<path d="M146.468 101.954L131.685 100.431C130.913 100.351 130.352 99.6619 130.432 98.8902L131.955 84.1064C132.035 83.3347 132.725 82.7741 133.496 82.8537L148.279 84.377C149.051 84.4566 149.611 85.146 149.532 85.9177L148.009 100.701C147.929 101.473 147.239 102.034 146.468 101.954Z" fill="black"/>
<path d="M143.668 94.1406C143.54 95.3757 142.472 96.4072 140.391 96.1927C139.365 96.0868 138.337 95.6955 137.677 95.1201L138.47 93.8903C138.981 94.3659 139.731 94.6863 140.495 94.7652C141.343 94.8523 141.902 94.5615 141.963 93.9645C142.02 93.41 141.647 93.0228 140.685 92.9236L139.91 92.844L140.026 91.7242L141.709 90.1739L138.59 89.8528L138.73 88.4922L143.859 89.0204L143.745 90.1193L141.898 91.8328C143.194 92.1782 143.779 93.0632 143.668 94.1406Z" fill="white"/>
<path d="M174.592 104.851L159.809 103.328C159.037 103.249 158.477 102.559 158.556 101.787L160.079 87.0044C160.159 86.2327 160.848 85.6721 161.62 85.7517L176.403 87.2749C177.174 87.3545 177.735 88.0439 177.655 88.8157L176.132 103.599C176.053 104.37 175.363 104.931 174.592 104.851Z" fill="#13C4A3"/>
<g opacity="0.4">
<path d="M174.592 104.851L159.809 103.328C159.037 103.249 158.477 102.559 158.556 101.787L160.079 87.0044C160.159 86.2327 160.848 85.6721 161.62 85.7517L176.403 87.2749C177.174 87.3545 177.735 88.0439 177.655 88.8157L176.132 103.599C176.053 104.37 175.363 104.931 174.592 104.851Z" fill="black"/>
</g>
<path d="M171.939 104.571L157.156 103.049C156.385 102.969 155.824 102.279 155.904 101.508L157.427 86.7251C157.506 85.9534 158.196 85.3928 158.968 85.4724L173.751 86.9956C174.522 87.0752 175.083 87.7646 175.003 88.5364L173.48 103.319C173.4 104.09 172.71 104.651 171.939 104.571Z" fill="black"/>
<path d="M161.485 94.0009L161.416 94.6719L169.264 95.4806L169.333 94.8096L161.485 94.0009Z" fill="white"/>
<path d="M167.001 91.4407C166.929 92.1436 166.3 92.6543 165.598 92.5821C164.895 92.5099 164.384 91.8812 164.456 91.179C164.528 90.476 165.157 89.9654 165.859 90.0376C166.562 90.1097 167.074 90.7378 167.001 91.4407Z" fill="white"/>
<path d="M166.296 98.285C166.224 98.9879 165.595 99.4986 164.893 99.4264C164.19 99.3542 163.679 98.7255 163.751 98.0232C163.824 97.3203 164.452 96.8096 165.155 96.8818C165.858 96.954 166.368 97.582 166.296 98.285Z" fill="white"/>
<path d="M96.6099 122.84L81.8269 121.317C81.0552 121.237 80.4946 120.547 80.5742 119.776L82.0974 104.993C82.177 104.221 82.8664 103.661 83.6382 103.74L98.4212 105.264C99.193 105.343 99.7535 106.033 99.6739 106.804L98.1514 121.587C98.0711 122.359 97.3817 122.919 96.6099 122.84Z" fill="#13C4A3"/>
<g opacity="0.4">
<path d="M96.6099 122.84L81.8269 121.317C81.0552 121.237 80.4946 120.547 80.5742 119.776L82.0974 104.993C82.177 104.221 82.8664 103.661 83.6382 103.74L98.4212 105.264C99.193 105.343 99.7535 106.033 99.6739 106.804L98.1514 121.587C98.0711 122.359 97.3817 122.919 96.6099 122.84Z" fill="black"/>
</g>
<path d="M93.8962 122.56L79.1132 121.038C78.3414 120.958 77.7808 120.269 77.8604 119.497L79.383 104.714C79.4626 103.942 80.152 103.382 80.9238 103.461L95.7068 104.984C96.4785 105.063 97.0391 105.753 96.9595 106.524L95.437 121.308C95.3574 122.079 94.6673 122.64 93.8962 122.56Z" fill="black"/>
<path d="M90.5776 115.402L89.3836 115.279L89.2251 116.817L87.5723 116.647L87.7309 115.109L83.7852 114.703L83.9025 113.562L87.8354 109.271L89.6136 109.455L85.958 113.53L87.9251 113.733L88.0661 112.362L89.6669 112.527L89.5259 113.898L90.72 114.021L90.5776 115.402Z" fill="white"/>
<path d="M121.12 125.365L106.337 123.841C105.565 123.762 105.005 123.072 105.084 122.301L106.608 107.518C106.687 106.746 107.377 106.185 108.148 106.265L122.931 107.787C123.703 107.867 124.264 108.557 124.184 109.328L122.661 124.111C122.582 124.884 121.892 125.444 121.12 125.365Z" fill="#13C4A3"/>
<g opacity="0.4">
<path d="M121.12 125.365L106.337 123.841C105.565 123.762 105.005 123.072 105.084 122.301L106.608 107.518C106.687 106.746 107.377 106.185 108.148 106.265L122.931 107.787C123.703 107.867 124.264 108.557 124.184 109.328L122.661 124.111C122.582 124.884 121.892 125.444 121.12 125.365Z" fill="black"/>
</g>
<path d="M118.406 125.085L103.623 123.562C102.851 123.482 102.291 122.793 102.37 122.021L103.893 107.238C103.973 106.467 104.662 105.906 105.434 105.986L120.217 107.509C120.988 107.588 121.549 108.278 121.469 109.05L119.946 123.833C119.867 124.604 119.178 125.165 118.406 125.085Z" fill="black"/>
<path d="M114.867 117.132C114.733 118.429 113.664 119.462 111.571 119.246C110.556 119.142 109.518 118.749 108.859 118.174L109.662 116.945C110.173 117.422 110.912 117.741 111.676 117.819C112.524 117.907 113.084 117.604 113.145 117.007C113.204 116.432 112.866 116.016 111.537 115.879L109.665 115.687L110.466 111.603L114.935 112.063L114.794 113.423L111.738 113.109L111.48 114.488L112.077 114.549C114.243 114.773 114.999 115.835 114.867 117.132Z" fill="white"/>
<path d="M146.53 127.983L131.747 126.46C130.975 126.38 130.415 125.691 130.494 124.919L132.018 110.136C132.097 109.364 132.787 108.803 133.558 108.883L148.341 110.406C149.113 110.486 149.674 111.175 149.594 111.947L148.071 126.731C147.991 127.501 147.301 128.062 146.53 127.983Z" fill="#13C4A3"/>
<g opacity="0.4">
<path d="M146.53 127.983L131.747 126.46C130.975 126.38 130.415 125.691 130.494 124.919L132.018 110.136C132.097 109.364 132.787 108.803 133.558 108.883L148.341 110.406C149.113 110.486 149.674 111.175 149.594 111.947L148.071 126.731C147.991 127.501 147.301 128.062 146.53 127.983Z" fill="black"/>
</g>
<path d="M143.816 127.703L129.032 126.179C128.261 126.1 127.7 125.41 127.78 124.639L129.303 109.855C129.383 109.084 130.072 108.523 130.844 108.603L145.627 110.126C146.399 110.206 146.959 110.895 146.88 111.667L145.356 126.45C145.277 127.221 144.587 127.782 143.816 127.703Z" fill="black"/>
<path d="M140.79 119.792C140.636 121.288 139.314 122.104 137.766 121.945C135.747 121.736 134.621 120.341 134.865 117.976C135.126 115.443 136.798 114.188 139.008 114.415C139.781 114.495 140.516 114.751 140.996 115.128L140.239 116.309C139.86 115.995 139.398 115.852 138.906 115.801C137.682 115.675 136.822 116.316 136.626 117.713C137.098 117.328 137.739 117.172 138.502 117.25C139.916 117.396 140.932 118.41 140.79 119.792ZM139.138 119.706C139.208 119.036 138.759 118.557 138.006 118.479C137.263 118.403 136.692 118.809 136.626 119.448C136.561 120.076 136.986 120.585 137.801 120.669C138.524 120.743 139.07 120.376 139.138 119.706Z" fill="white"/>
<path d="M171.939 130.6L157.156 129.077C156.384 128.998 155.824 128.308 155.903 127.536L157.427 112.753C157.506 111.982 158.196 111.421 158.967 111.501L173.75 113.024C174.522 113.104 175.083 113.793 175.003 114.565L173.48 129.348C173.4 130.119 172.71 130.68 171.939 130.6Z" fill="#13C4A3"/>
<g opacity="0.4">
<path d="M171.939 130.6L157.156 129.077C156.384 128.998 155.824 128.308 155.903 127.536L157.427 112.753C157.506 111.982 158.196 111.421 158.967 111.501L173.75 113.024C174.522 113.104 175.083 113.793 175.003 114.565L173.48 129.348C173.4 130.119 172.71 130.68 171.939 130.6Z" fill="black"/>
</g>
<path d="M169.224 130.32L154.441 128.798C153.67 128.718 153.109 128.029 153.188 127.257L154.711 112.474C154.791 111.702 155.48 111.142 156.252 111.221L171.035 112.745C171.807 112.824 172.367 113.514 172.288 114.285L170.765 129.068C170.686 129.84 169.996 130.4 169.224 130.32Z" fill="black"/>
<path d="M165.622 118.063L159.426 122.949L159.844 123.478L166.04 118.592L165.622 118.063Z" fill="white"/>
<path d="M160.515 117.502L159.992 117.928L164.971 124.049L165.494 123.624L160.515 117.502Z" fill="white"/>
<path d="M93.9791 148.379L79.196 146.856C78.4243 146.776 77.8637 146.087 77.9433 145.315L79.4665 130.532C79.5462 129.761 80.2356 129.2 81.0073 129.279L95.7904 130.802C96.5621 130.882 97.1227 131.571 97.0431 132.343L95.5205 147.126C95.4402 147.898 94.7508 148.459 93.9791 148.379Z" fill="#13C4A3"/>
<g opacity="0.4">
<path d="M93.9791 148.379L79.196 146.856C78.4243 146.776 77.8637 146.087 77.9433 145.315L79.4665 130.532C79.5462 129.761 80.2356 129.2 81.0073 129.279L95.7904 130.802C96.5621 130.882 97.1227 131.571 97.0431 132.343L95.5205 147.126C95.4402 147.898 94.7508 148.459 93.9791 148.379Z" fill="black"/>
</g>
<path d="M91.2652 148.1L76.4822 146.577C75.7104 146.498 75.1499 145.808 75.2295 145.036L76.752 130.253C76.8316 129.482 77.5217 128.921 78.2928 129.001L93.0758 130.524C93.8476 130.604 94.4081 131.294 94.3285 132.065L92.8053 146.848C92.7264 147.618 92.0363 148.179 91.2652 148.1Z" fill="black"/>
<path d="M87.5698 135.054L87.4565 136.153L84.0936 142.099L82.252 141.909L85.4907 136.236L83.0635 135.985L82.9408 137.178L81.4337 137.023L81.6988 134.449L87.5698 135.054Z" fill="white"/>
<path d="M118.489 150.904L103.706 149.381C102.935 149.301 102.374 148.612 102.454 147.84L103.977 133.057C104.056 132.285 104.746 131.725 105.518 131.804L120.301 133.327C121.072 133.407 121.633 134.097 121.553 134.868L120.031 149.651C119.951 150.423 119.261 150.984 118.489 150.904Z" fill="#13C4A3"/>
<g opacity="0.4">
<path d="M118.489 150.904L103.706 149.381C102.935 149.301 102.374 148.612 102.454 147.84L103.977 133.057C104.056 132.285 104.746 131.725 105.518 131.804L120.301 133.327C121.072 133.407 121.633 134.097 121.553 134.868L120.031 149.651C119.951 150.423 119.261 150.984 118.489 150.904Z" fill="black"/>
</g>
<path d="M115.775 150.625L100.992 149.102C100.221 149.022 99.6599 148.333 99.7389 147.561L101.262 132.778C101.342 132.006 102.031 131.446 102.803 131.525L117.586 133.048C118.358 133.127 118.918 133.817 118.839 134.588L117.315 149.371C117.236 150.143 116.547 150.704 115.775 150.625Z" fill="black"/>
<path d="M112.813 142.91C112.671 144.291 111.347 145.032 109.485 144.841C107.632 144.65 106.498 143.655 106.64 142.274C106.721 141.489 107.189 140.945 107.927 140.661C107.417 140.27 107.166 139.726 107.234 139.067C107.366 137.78 108.602 137.092 110.265 137.264C111.95 137.437 113.018 138.362 112.885 139.649C112.817 140.308 112.45 140.788 111.872 141.067C112.547 141.497 112.894 142.125 112.813 142.91ZM111.103 142.681C111.17 142.032 110.677 141.58 109.829 141.492C108.992 141.406 108.428 141.75 108.361 142.399C108.295 143.047 108.776 143.51 109.613 143.596C110.46 143.683 111.036 143.33 111.103 142.681ZM108.911 139.314C108.854 139.869 109.259 140.26 109.949 140.331C110.65 140.403 111.135 140.104 111.192 139.55C111.251 138.974 110.827 138.581 110.136 138.51C109.457 138.44 108.971 138.739 108.911 139.314Z" fill="white"/>
<path d="M143.899 153.521L129.116 151.998C128.345 151.919 127.784 151.229 127.863 150.457L129.386 135.674C129.466 134.903 130.155 134.342 130.927 134.422L145.71 135.945C146.482 136.024 147.042 136.714 146.963 137.486L145.439 152.269C145.36 153.04 144.67 153.601 143.899 153.521Z" fill="#13C4A3"/>
<g opacity="0.4">
<path d="M143.899 153.521L129.116 151.998C128.345 151.919 127.784 151.229 127.863 150.457L129.386 135.674C129.466 134.903 130.155 134.342 130.927 134.422L145.71 135.945C146.482 136.024 147.042 136.714 146.963 137.486L145.439 152.269C145.36 153.04 144.67 153.601 143.899 153.521Z" fill="black"/>
</g>
<path d="M141.184 153.242L126.401 151.719C125.63 151.639 125.069 150.949 125.149 150.178L126.672 135.395C126.751 134.623 127.441 134.063 128.213 134.142L142.996 135.666C143.767 135.745 144.328 136.435 144.248 137.206L142.725 151.989C142.646 152.76 141.956 153.322 141.184 153.242Z" fill="black"/>
<path d="M138.115 143.803C137.854 146.336 136.192 147.592 133.973 147.363C133.199 147.283 132.474 147.028 131.995 146.652L132.751 145.472C133.12 145.784 133.581 145.928 134.084 145.979C135.297 146.104 136.168 145.463 136.365 144.056C135.892 144.441 135.241 144.606 134.476 144.527C133.063 144.381 132.047 143.367 132.189 141.986C132.343 140.49 133.665 139.673 135.213 139.833C137.244 140.044 138.359 141.439 138.115 143.803ZM136.353 142.331C136.418 141.704 135.994 141.195 135.188 141.112C134.466 141.037 133.921 141.404 133.852 142.074C133.782 142.743 134.231 143.224 134.984 143.301C135.727 143.378 136.287 142.97 136.353 142.331Z" fill="white"/>
<path d="M169.308 156.139L154.525 154.616C153.753 154.537 153.193 153.847 153.272 153.076L154.795 138.292C154.874 137.521 155.564 136.96 156.336 137.04L171.119 138.563C171.89 138.643 172.451 139.332 172.371 140.104L170.848 154.887C170.769 155.658 170.079 156.218 169.308 156.139Z" fill="#13C4A3"/>
<g opacity="0.4">
<path d="M169.308 156.139L154.525 154.616C153.753 154.537 153.193 153.847 153.272 153.076L154.795 138.292C154.874 137.521 155.564 136.96 156.336 137.04L171.119 138.563C171.89 138.643 172.451 139.332 172.371 140.104L170.848 154.887C170.769 155.658 170.079 156.218 169.308 156.139Z" fill="black"/>
</g>
<path d="M166.594 155.86L151.811 154.337C151.039 154.257 150.478 153.567 150.557 152.796L152.08 138.013C152.16 137.241 152.849 136.68 153.621 136.76L168.404 138.283C169.176 138.363 169.737 139.052 169.657 139.824L168.134 154.607C168.055 155.378 167.365 155.939 166.594 155.86Z" fill="black"/>
<path d="M156.21 145.579L156.141 146.25L163.989 147.058L164.058 146.387L156.21 145.579Z" fill="white"/>
<path d="M141.244 179.285L126.461 177.761C125.689 177.682 125.129 176.992 125.208 176.221L126.732 161.437C126.811 160.666 127.501 160.105 128.272 160.185L143.055 161.708C143.827 161.788 144.388 162.478 144.308 163.249L142.785 178.032C142.706 178.803 142.016 179.363 141.244 179.285Z" fill="#13C4A3"/>
<g opacity="0.4">
<path d="M141.244 179.285L126.461 177.761C125.689 177.682 125.129 176.992 125.208 176.221L126.732 161.437C126.811 160.666 127.501 160.105 128.272 160.185L143.055 161.708C143.827 161.788 144.388 162.478 144.308 163.249L142.785 178.032C142.706 178.803 142.016 179.363 141.244 179.285Z" fill="black"/>
</g>
<path d="M138.531 179.004L123.748 177.481C122.976 177.401 122.415 176.712 122.495 175.94L124.018 161.157C124.098 160.386 124.787 159.825 125.559 159.904L140.342 161.427C141.114 161.507 141.674 162.196 141.595 162.968L140.072 177.752C139.992 178.523 139.302 179.084 138.531 179.004Z" fill="black"/>
<path d="M166.654 181.902L151.871 180.378C151.1 180.299 150.539 179.609 150.619 178.838L152.142 164.055C152.221 163.283 152.912 162.722 153.683 162.802L168.466 164.325C169.237 164.405 169.798 165.094 169.718 165.866L168.195 180.649C168.116 181.42 167.425 181.981 166.654 181.902Z" fill="#13C4A3"/>
<g opacity="0.4">
<path d="M166.654 181.902L151.871 180.378C151.1 180.299 150.539 179.609 150.619 178.838L152.142 164.055C152.221 163.283 152.912 162.722 153.683 162.802L168.466 164.325C169.237 164.405 169.798 165.094 169.718 165.866L168.195 180.649C168.116 181.42 167.425 181.981 166.654 181.902Z" fill="black"/>
</g>
<path d="M163.94 181.622L149.157 180.099C148.385 180.02 147.825 179.329 147.904 178.558L149.427 163.775C149.507 163.004 150.197 162.443 150.968 162.523L165.751 164.046C166.523 164.125 167.084 164.815 167.004 165.587L165.481 180.37C165.401 181.141 164.712 181.701 163.94 181.622Z" fill="#0A4137"/>
<path d="M153.662 170.38L153.593 171.051L161.441 171.859L161.51 171.188L153.662 170.38Z" fill="white"/>
<path d="M153.354 173.368L153.285 174.039L161.133 174.847L161.202 174.176L153.354 173.368Z" fill="white"/>
<path d="M112.235 176.521L73.1631 172.496C72.2363 172.4 71.563 171.572 71.6581 170.646L73.1692 155.978C73.2643 155.051 74.0934 154.378 75.0196 154.473L114.091 158.498C115.018 158.594 115.692 159.422 115.596 160.349L114.085 175.016C113.99 175.943 113.162 176.617 112.235 176.521Z" fill="black"/>
<path d="M92.051 164.982C92.2999 162.564 93.7813 161.331 95.5804 161.517C97.3917 161.703 98.579 163.211 98.3301 165.628C98.0811 168.046 96.6112 169.28 94.8006 169.093C93.0015 168.908 91.802 167.399 92.051 164.982ZM96.6247 165.453C96.796 163.789 96.2813 163.038 95.4334 162.95C94.5969 162.865 93.9398 163.495 93.7685 165.158C93.5971 166.822 94.1118 167.573 94.9483 167.659C95.7956 167.747 96.4534 167.117 96.6247 165.453Z" fill="white"/>
<path d="M132.17 165.497L131.245 173.333L131.914 173.412L132.839 165.576L132.17 165.497Z" fill="white"/>
<path d="M128.141 168.716L128.072 169.387L135.921 170.195L135.99 169.524L128.141 168.716Z" fill="white"/>
<path d="M124.483 45.281L123.354 56.233L122.838 56.1797L123.916 45.7127L121.163 45.4294L121.213 44.9443L124.483 45.281Z" fill="black"/>
<path d="M133.479 56.7857L133.429 57.2708L126.013 56.5071L126.053 56.1314L131.233 51.8902C132.718 50.6834 133.081 49.9143 133.173 49.0225C133.323 47.5674 132.403 46.5232 130.494 46.3269C129.039 46.1764 127.931 46.4901 127.073 47.3023L126.749 46.9218C127.659 46.0665 128.949 45.6772 130.56 45.8432C132.656 46.059 133.874 47.276 133.692 49.0434C133.586 50.0762 133.165 50.9498 131.577 52.241L126.862 56.1037L133.479 56.7857Z" fill="black"/>
<path d="M142.159 55.1023C141.972 56.9177 140.556 58.0679 138.148 57.8203C136.505 57.651 135.114 56.8752 134.502 55.9105L134.823 55.5638C135.382 56.4279 136.617 57.172 138.182 57.3332C140.278 57.5491 141.48 56.629 141.643 55.0491C141.807 53.453 140.848 52.3264 138.532 52.0883L137.923 52.0255L137.962 51.6498L141.831 47.5577L135.791 46.9357L135.841 46.4507L142.569 47.1435L142.529 47.5192L138.644 51.6255C141.209 51.8899 142.347 53.2715 142.159 55.1023Z" fill="black"/>
<path d="M152.934 56.086L150.556 55.8411L150.231 59.0016L149.715 58.9483L150.04 55.7878L143.75 55.1402L143.789 54.7645L150.608 47.9727L151.218 48.0354L144.487 54.7415L150.088 55.3183L150.375 52.5336L150.892 52.5869L150.605 55.3723L152.983 55.6171L152.934 56.086Z" fill="black"/>
<path d="M155.222 59.0417C155.202 59.2447 155.141 59.3648 155.069 59.6104L154.289 61.649L153.882 61.6072L154.59 59.4977C154.329 59.4235 154.161 59.2009 154.189 58.9351C154.218 58.6531 154.461 58.4413 154.758 58.4716C155.072 58.5047 155.248 58.7914 155.222 59.0417Z" fill="black"/>
<path d="M166.075 57.4402L163.697 57.1953L163.372 60.3558L162.855 60.3025L163.181 57.142L156.891 56.4937L156.93 56.118L163.749 49.3262L164.359 49.3889L157.628 56.095L163.229 56.6718L163.516 53.8871L164.033 53.9404L163.746 56.7251L166.124 56.97L166.075 57.4402Z" fill="black"/>
<path d="M174.204 58.3405C174.021 60.1241 172.643 61.3735 170.155 61.1171C168.543 60.9512 167.137 60.1734 166.525 59.2094L166.861 58.8646C167.405 59.7275 168.656 60.4729 170.205 60.6328C172.348 60.8533 173.512 59.8347 173.673 58.2858C173.847 56.596 172.948 55.491 169.819 55.1692L167.691 54.95L168.802 49.8467L174.45 50.4289L174.4 50.9139L169.19 50.3769L168.288 54.5216L169.978 54.6957C173.327 55.0404 174.404 56.4004 174.204 58.3405Z" fill="black"/>
<path d="M54.5438 282.693L50.2548 298.552L64.1946 299.824L67.1243 284.727L54.5438 282.693Z" fill="#13C4A3"/>
<path d="M64.5994 298.532C64.5947 298.584 63.8142 298.565 62.5581 298.463C61.302 298.363 59.5716 298.17 57.6673 297.925C55.8324 297.679 54.1722 297.457 52.7954 297.271C51.5501 297.097 50.7797 296.978 50.7851 296.923C50.7898 296.871 51.5703 296.893 52.8257 296.998C54.0818 297.102 55.8115 297.295 57.7165 297.54C59.5514 297.784 61.2109 298.005 62.5877 298.189C63.8337 298.362 64.6048 298.477 64.5994 298.532Z" fill="black"/>
<g opacity="0.6">
<path d="M50.2549 298.551L64.1947 299.824L64.42 298.661L50.6583 296.912L50.2697 298.394" fill="white"/>
</g>
<path d="M57.1801 297.846C57.0924 297.825 57.6854 295.104 58.5057 291.77C59.3253 288.436 60.0613 285.75 60.149 285.772C60.2367 285.793 59.6437 288.513 58.8234 291.848C58.0038 295.182 57.2678 297.868 57.1801 297.846Z" fill="black"/>
<path d="M63.829 298.429C63.744 298.426 64.2736 297.291 63.8607 295.481C63.6482 294.599 63.1848 293.572 62.3355 292.721C61.4983 291.865 60.2442 291.269 58.866 291.128C57.4858 290.995 56.1413 291.328 55.1328 291.977C54.1115 292.616 53.4092 293.49 52.962 294.282C52.0749 295.908 52.1612 297.131 52.0823 297.111C52.0708 297.111 52.0641 297.039 52.0621 296.9C52.0547 296.762 52.0668 296.558 52.0945 296.297C52.1531 295.775 52.3285 295.02 52.7583 294.173C53.1947 293.339 53.9057 292.41 54.9709 291.722C56.026 291.023 57.446 290.661 58.8984 290.802C60.3488 290.95 61.6744 291.591 62.55 292.509C63.4357 293.422 63.8951 294.508 64.0867 295.431C64.2702 296.365 64.2061 297.145 64.0914 297.657C64.0314 297.914 63.9747 298.111 63.9201 298.238C63.8702 298.368 63.8391 298.433 63.829 298.429Z" fill="black"/>
<path d="M112.048 280.887L111.221 293.376C111.221 293.376 123.651 297.501 123.722 299.824L99.436 300L99.9265 280.488L112.048 280.887Z" fill="#13C4A3"/>
<g opacity="0.6">
<path d="M103.747 292.097C103.273 292.211 102.933 292.73 103.027 293.207C103.121 293.685 103.646 294.036 104.121 293.931C104.597 293.825 105.024 293.215 104.877 292.751C104.73 292.287 104.092 291.908 103.655 292.125" fill="white"/>
</g>
<g opacity="0.6">
<path d="M99.436 300L99.5622 298.035L122.942 298.68C122.942 298.68 123.722 299.017 123.846 300H99.436Z" fill="white"/>
</g>
<path d="M111.618 293.264C111.61 293.383 111.016 293.419 110.421 293.782C109.817 294.13 109.5 294.634 109.393 294.584C109.284 294.558 109.483 293.855 110.211 293.427C110.934 292.993 111.647 293.156 111.618 293.264Z" fill="black"/>
<path d="M114.131 294.395C114.155 294.51 113.635 294.696 113.218 295.185C112.785 295.662 112.668 296.201 112.55 296.192C112.438 296.208 112.377 295.511 112.908 294.913C113.434 294.31 114.133 294.281 114.131 294.395Z" fill="black"/>
<path d="M115.485 297.485C115.376 297.507 115.229 296.91 115.554 296.27C115.874 295.628 116.44 295.388 116.487 295.489C116.551 295.588 116.18 295.926 115.922 296.455C115.652 296.978 115.603 297.477 115.485 297.485Z" fill="black"/>
<path d="M111.49 290.398C111.438 290.505 110.899 290.324 110.227 290.349C109.555 290.361 109.027 290.57 108.969 290.467C108.902 290.379 109.425 289.955 110.216 289.937C111.006 289.912 111.552 290.306 111.49 290.398Z" fill="black"/>
<g opacity="0.3">
<path d="M111.881 283.36L111.737 285.586L99.8105 285.117L99.8557 283.108L111.881 283.36Z" fill="black"/>
</g>
<path d="M111.611 287.875C111.611 287.924 111.14 287.982 110.395 287.831C110.025 287.756 109.59 287.62 109.135 287.402C108.909 287.293 108.677 287.164 108.449 287.011C108.339 286.936 108.208 286.859 108.09 286.714C107.963 286.587 107.897 286.27 108.055 286.082C108.186 285.899 108.407 285.826 108.583 285.827C108.762 285.826 108.906 285.867 109.037 285.904C109.305 285.978 109.556 286.075 109.785 286.186C110.242 286.411 110.611 286.689 110.884 286.956C111.431 287.494 111.61 287.943 111.569 287.964C111.514 288.002 111.251 287.622 110.691 287.174C110.412 286.952 110.053 286.719 109.625 286.531C109.411 286.438 109.179 286.356 108.934 286.295C108.679 286.219 108.46 286.211 108.391 286.323C108.366 286.366 108.362 286.383 108.413 286.46C108.466 286.531 108.569 286.602 108.677 286.677C108.887 286.824 109.1 286.952 109.308 287.064C109.725 287.286 110.126 287.442 110.47 287.549C111.158 287.764 111.615 287.81 111.611 287.875Z" fill="black"/>
<path d="M111.451 288.04C111.409 288.057 111.186 287.625 111.166 286.856C111.157 286.475 111.21 286.015 111.372 285.531C111.453 285.289 111.563 285.043 111.704 284.802C111.853 284.567 112.036 284.251 112.498 284.212C112.738 284.21 112.932 284.404 112.995 284.566C113.07 284.733 113.082 284.874 113.106 285.015C113.143 285.3 113.128 285.578 113.082 285.834C112.99 286.348 112.765 286.772 112.525 287.074C112.031 287.689 111.532 287.816 111.523 287.775C111.486 287.714 111.906 287.498 112.287 286.905C112.475 286.612 112.646 286.224 112.706 285.774C112.736 285.55 112.74 285.312 112.705 285.071C112.674 284.812 112.584 284.601 112.487 284.625C112.366 284.619 112.155 284.808 112.05 285.01C111.919 285.224 111.813 285.443 111.729 285.66C111.563 286.093 111.484 286.512 111.456 286.866C111.403 287.577 111.517 288.024 111.451 288.04Z" fill="black"/>
<path d="M59.3895 86.3674C59.3895 86.3674 56.7579 100.738 54.6424 109.433C52.9997 116.185 48.7458 128.842 56.4429 132.52C64.14 136.197 74.4916 121.36 74.4916 121.36L78.8839 87.5405C75.8239 88.1132 72.3606 91.6589 68.6706 96.8742L69.3404 84.0454L59.3895 86.3674Z" fill="#0A4137"/>
<path d="M165.316 107.594L161.266 109.525L157.54 103.679L159.718 99.1652C159.925 98.7462 160.147 98.276 160.379 97.737C160.649 97.1077 160.809 96.4344 160.859 95.7517C160.92 94.924 160.956 93.821 160.794 93.2119C160.593 92.4583 161.389 91.8418 161.932 92.2809C162.473 92.7208 163.077 94.7816 162.676 97.2682C162.274 99.7548 165.169 97.1164 166.241 96.1747C167.313 95.2323 170.762 92.4766 171.304 92.5838C172.098 92.741 172.076 93.6436 170.984 94.559C169.879 95.4859 166.806 98.4548 167.315 99.0087C167.315 99.0087 167.324 99.0093 167.339 99.0113C168.633 99.1463 169.696 100.105 169.981 101.374C170.257 102.599 170.479 104.289 169.791 104.847C168.493 105.899 165.316 107.594 165.316 107.594Z" fill="#FFBE9D"/>
<path d="M86.8314 53.072L86.7235 88.2264L101.805 88.9455L102.241 80.395C102.241 80.395 107.598 81.4589 108.98 76.4837C109.863 73.3057 109.643 48.7451 109.643 48.7451L86.8314 53.072Z" fill="#FFBE9D"/>
<path d="M113.049 52.2124C112.033 54.3131 107.195 58.1569 107.195 58.1569L105.01 64.0131C103.112 62.5269 100.563 62.6119 100.081 65.9478C99.7323 68.3581 102.73 68.8459 102.73 68.8459C100.985 71.8147 99.8018 74.2163 97.2612 77.0401C94.5116 80.0967 92.9722 80.4043 89.9898 80.4543H86.7018C86.7018 80.4543 79.9741 74.8322 81.3037 60.0249C82.6334 45.2175 95.9451 49.5376 99.1225 45.8382C104.297 39.8134 116.439 45.2 113.049 52.2124Z" fill="black"/>
<path d="M82.0511 72.4057C82.0511 72.4057 82.1969 72.401 82.4721 72.4057C82.7466 72.3922 83.1548 72.3814 83.6661 72.2687C84.6848 72.0664 86.1297 71.4693 87.5295 70.2227C88.9435 68.9895 90.1901 67.1115 91.4462 64.9818C92.0844 63.92 92.7529 62.7988 93.5611 61.712C94.3699 60.6313 95.3231 59.5715 96.5212 58.7627C97.7159 57.9464 99.061 57.4661 100.366 57.1241C101.677 56.7834 102.964 56.5736 104.179 56.3375C106.605 55.8903 108.784 55.2137 110.269 54.0608C111.758 52.9214 112.501 51.5054 112.735 50.4989C112.867 49.9923 112.867 49.5828 112.879 49.3089C112.865 49.0344 112.865 48.8887 112.865 48.8887C112.865 48.8887 112.884 49.0324 112.908 49.3083C112.905 49.5835 112.914 49.9977 112.788 50.5117C112.568 51.5331 111.83 52.976 110.33 54.1397C108.833 55.3182 106.633 56.0097 104.204 56.4644C102.987 56.7045 101.703 56.917 100.401 57.257C99.1042 57.599 97.7752 58.0746 96.6001 58.8787C95.4209 59.6754 94.4758 60.7224 93.6717 61.7943C92.8676 62.8723 92.1984 63.9888 91.5575 65.0486C90.2947 67.1749 89.0325 69.061 87.5956 70.2969C86.1749 71.5449 84.7084 72.1338 83.6776 72.3214C83.1609 72.4266 82.7487 72.4286 82.4734 72.4333C82.1955 72.4198 82.0511 72.4057 82.0511 72.4057Z" fill="#0A4137"/>
<path d="M81.2748 60.3623C81.2748 60.3623 81.5129 60.2699 81.973 60.1161C82.4337 59.969 83.1184 59.7329 84.0393 59.625C84.9405 59.5224 86.1656 59.5629 87.2746 60.3239C87.8129 60.6976 88.3 61.2939 88.4288 62.0481C88.5597 62.7787 88.3965 63.6671 87.7644 64.2513C87.4527 64.5401 87.023 64.704 86.5825 64.7263C86.1372 64.7472 85.692 64.6021 85.294 64.3809C84.502 63.9242 83.8645 63.1356 83.5697 62.1979C83.254 61.2703 83.2001 60.2186 83.4389 59.202C83.673 58.1854 84.2349 57.2072 85.064 56.478C85.8836 55.7427 86.9542 55.2347 88.1064 55.1167C89.2626 54.9932 90.4337 55.2469 91.5731 55.5653C92.7166 55.8857 93.8661 56.2547 95.0783 56.4058C96.2865 56.5677 97.5332 56.5745 98.7744 56.4146C100.012 56.2439 101.232 55.9511 102.33 55.431C103.414 54.919 104.399 54.0717 104.714 52.9337C105.027 51.8179 104.73 50.5476 103.922 49.7712C103.116 48.9806 101.834 48.8753 100.876 49.3206C100.393 49.5398 99.9786 49.9088 99.7512 50.3736C99.509 50.833 99.4483 51.3639 99.5097 51.8638C99.6419 52.871 100.244 53.7668 101.044 54.2788C101.851 54.8023 102.792 55 103.681 55.0202C104.575 55.0438 105.43 54.8812 106.211 54.6404C107.782 54.1567 109.036 53.2771 109.954 52.3603C110.887 51.4442 111.49 50.4741 111.889 49.6484C112.299 48.822 112.467 48.1211 112.597 47.6563C112.689 47.1808 112.744 46.9312 112.744 46.9312C112.744 46.9312 112.707 47.1835 112.624 47.6624C112.502 48.1313 112.343 48.8376 111.938 49.672C111.545 50.5058 110.945 51.4867 110.01 52.4156C109.089 53.3452 107.828 54.2397 106.241 54.7355C105.452 54.9824 104.587 55.1497 103.678 55.1288C102.776 55.1113 101.812 54.9136 100.981 54.3766C100.151 53.8478 99.5273 52.9263 99.3869 51.8793C99.3222 51.3592 99.3842 50.8013 99.6386 50.3156C99.878 49.8238 100.317 49.4332 100.822 49.2025C101.823 48.7364 103.161 48.8416 104.015 49.6741C104.865 50.4903 105.172 51.8071 104.846 52.9708C104.517 54.1641 103.494 55.035 102.392 55.5572C101.272 56.0867 100.043 56.3815 98.7926 56.5542C97.5392 56.7161 96.2798 56.7087 95.0594 56.5448C93.8344 56.3917 92.6734 56.0179 91.536 55.6988C90.4014 55.3804 89.2478 55.1315 88.1199 55.2509C86.998 55.3642 85.9511 55.8587 85.1496 56.5758C83.4942 58.008 83.0598 60.3603 83.6797 62.1621C83.9644 63.0775 84.5823 63.8425 85.3473 64.2878C85.7305 64.5023 86.1568 64.6413 86.5784 64.623C86.9953 64.6028 87.4028 64.4497 87.6976 64.1778C88.2986 63.6287 88.4653 62.7713 88.3412 62.0643C88.2204 61.3378 87.7542 60.7583 87.2294 60.3886C86.1487 59.6378 84.9412 59.5859 84.0453 59.6796C83.1306 59.7781 82.4452 60.0048 81.9818 60.1431C81.519 60.2874 81.2748 60.3623 81.2748 60.3623Z" fill="#0A4137"/>
<path d="M71.3331 156.06L51.2551 287.925L67.9304 290.042L91.4589 179.436L97.3831 290.785L115.456 290.469L112.46 156.369L71.3331 156.06Z" fill="black"/>
<path d="M97.0635 291.128L97.0459 290.803L91.2572 182.003L68.1956 290.415L50.87 288.216L71.043 155.72L112.79 156.034L115.8 290.8L97.0635 291.128ZM91.6606 176.87L97.703 290.441L115.112 290.138L112.13 156.703L71.6232 156.398L51.6417 287.634L67.6653 289.668L91.6606 176.87Z" fill="black"/>
<path d="M110.086 290.258C109.988 290.258 109.91 263.837 109.91 231.253C109.91 198.657 109.989 172.241 110.086 172.241C110.183 172.241 110.261 198.656 110.261 231.253C110.261 263.837 110.182 290.258 110.086 290.258Z" fill="#0A4137"/>
<path d="M64.2619 289.777C64.2558 289.776 64.27 289.679 64.3023 289.491C64.3394 289.286 64.39 289.01 64.4548 288.656C64.5998 287.905 64.8083 286.829 65.0747 285.451C65.6367 282.654 66.4435 278.637 67.4392 273.68C69.4637 263.747 72.332 250.04 75.624 234.927C78.9188 219.809 82.0138 206.15 84.3054 196.275C85.4623 191.354 86.3993 187.365 87.0523 184.589C87.3836 183.225 87.6419 182.16 87.822 181.417C87.9104 181.068 87.9799 180.795 88.0305 180.594C88.0797 180.409 88.1074 180.315 88.1135 180.316C88.1195 180.317 88.1033 180.414 88.0656 180.602C88.0231 180.805 87.9651 181.08 87.8909 181.433C87.7256 182.179 87.4888 183.25 87.1852 184.62C86.5585 187.403 85.6579 191.399 84.5476 196.331C82.3187 206.219 79.2621 219.886 75.9674 235.002C72.6754 250.113 69.7693 263.811 67.6827 273.731C66.6412 278.678 65.7972 282.687 65.209 285.478C64.9149 286.85 64.6848 287.922 64.525 288.67C64.446 289.021 64.384 289.296 64.3381 289.498C64.2936 289.684 64.2679 289.779 64.2619 289.777Z" fill="#0A4137"/>
<path d="M97.3831 179.32C97.3844 179.344 97.1125 179.378 96.6208 179.421C96.0534 179.461 95.3573 179.51 94.537 179.568C92.7776 179.685 90.345 179.806 87.673 180.068C85.0009 180.334 82.5913 180.692 80.8427 180.921C80.0264 181.025 79.3343 181.113 78.7703 181.185C78.2799 181.24 78.0067 181.259 78.0033 181.235C77.9993 181.211 78.2658 181.146 78.7494 181.049C79.2331 180.952 79.936 180.825 80.8056 180.676C82.5447 180.384 84.953 179.986 87.6386 179.718C90.3234 179.456 92.7628 179.374 94.5255 179.32C95.4072 179.297 96.1209 179.284 96.6147 179.285C97.1085 179.284 97.3824 179.295 97.3831 179.32Z" fill="#0A4137"/>
<path d="M112.81 170.757C112.813 170.778 112.631 170.833 112.291 170.887C111.952 170.943 111.452 170.982 110.836 170.952C109.611 170.903 107.876 170.489 106.325 169.375C104.774 168.259 103.829 166.747 103.391 165.601C103.166 165.026 103.045 164.54 102.989 164.202C102.932 163.862 102.926 163.672 102.948 163.669C103.01 163.655 103.125 164.408 103.62 165.505C104.104 166.594 105.045 168.022 106.531 169.09C108.016 170.156 109.668 170.593 110.855 170.705C112.052 170.824 112.802 170.694 112.81 170.757Z" fill="#0A4137"/>
<path d="M67.8999 158.647L114.091 158.498L111.565 128.013C111.285 121.038 111.328 120.206 111.155 113.766C111.155 113.766 117.713 121.694 122.869 127.254C125.985 130.615 130.925 131.553 135.068 129.594L162.056 110.766L157.002 97.8382L132.477 112.851C131.353 112.152 121.804 98.5323 115.205 91.8815C110.982 87.6248 105.288 85.1747 99.2948 85C94.7588 84.8678 89.2838 85.0776 84.3957 85.5977C76.9631 86.3883 71.1474 92.3578 70.5234 99.8066C70.0458 105.507 70.4296 112.124 70.4296 123.371L67.8999 158.647Z" fill="#0A4137"/>
<path d="M70.0713 102.889C70.0713 102.889 70.0787 103.012 70.0787 103.245C70.0773 103.519 70.0746 103.856 70.0726 104.266C70.0598 105.152 70.0605 106.435 70.0699 108.019C70.0875 111.188 70.2156 115.564 70.3519 120.399C70.4888 125.235 70.5145 129.618 70.393 132.787C70.3377 134.372 70.2676 135.653 70.1934 136.537C70.1596 136.945 70.1326 137.281 70.1097 137.554C70.0888 137.787 70.0713 137.908 70.0713 137.908C70.0713 137.908 70.0699 137.785 70.0814 137.552C70.0969 137.279 70.1158 136.943 70.1387 136.533C70.1961 135.649 70.2514 134.368 70.2939 132.784C70.3897 129.617 70.3485 125.238 70.2116 120.403C70.0753 115.569 69.9627 111.191 69.9707 108.019C69.9741 106.434 69.9883 105.151 70.018 104.265C70.0308 103.855 70.0416 103.518 70.0503 103.245C70.0591 103.011 70.0713 102.889 70.0713 102.889Z" fill="black"/>
<path d="M131.465 117.214C131.446 117.21 131.485 116.968 131.562 116.578C131.64 116.189 131.757 115.653 131.895 115.063C132.033 114.472 132.165 113.939 132.268 113.555C132.371 113.172 132.443 112.938 132.462 112.943C132.481 112.948 132.442 113.192 132.364 113.581C132.287 113.97 132.169 114.505 132.033 115.094C131.895 115.683 131.763 116.214 131.66 116.598C131.558 116.982 131.484 117.218 131.465 117.214Z" fill="black"/>
<path d="M133.924 117.592C133.887 117.601 133.606 116.513 133.298 115.163C132.99 113.813 132.771 112.711 132.809 112.702C132.847 112.693 133.128 113.781 133.435 115.131C133.743 116.482 133.963 117.584 133.924 117.592Z" fill="black"/>
<path d="M112.294 114.91C112.294 114.91 112.204 114.833 112.041 114.678C111.851 114.493 111.618 114.267 111.336 113.993C110.728 113.395 109.849 112.528 108.801 111.416C107.759 110.303 106.543 108.945 105.356 107.307C104.174 105.672 103.022 103.742 102.222 101.544C101.412 99.3527 101.066 97.1057 101.19 95.0819C101.282 93.0642 101.666 91.2428 102.351 89.8653C103.023 88.4783 103.941 87.5831 104.621 87.0745C104.967 86.8222 105.243 86.638 105.442 86.5334C105.637 86.4208 105.742 86.3682 105.742 86.3682C105.757 86.3904 105.326 86.5948 104.654 87.1176C103.989 87.6371 103.093 88.5323 102.44 89.9084C101.774 91.2758 101.403 93.0804 101.318 95.088C101.203 97.0955 101.549 99.319 102.354 101.496C103.148 103.679 104.289 105.598 105.46 107.231C106.636 108.866 107.842 110.227 108.873 111.348C109.909 112.466 110.778 113.344 111.374 113.954C111.649 114.236 111.875 114.468 112.06 114.657C112.217 114.819 112.294 114.91 112.294 114.91Z" fill="black"/>
<path d="M82.2674 102.366C82.1912 102.426 81.4815 101.658 80.6821 100.65C79.8827 99.6414 79.2965 98.7752 79.3728 98.7152C79.449 98.6552 80.158 99.4235 80.9581 100.432C81.7574 101.44 82.3437 102.306 82.2674 102.366Z" fill="#FAFAFA"/>
<path d="M92.7661 114.281C92.8349 114.35 91.8547 115.438 90.5777 116.712C89.3007 117.986 88.2099 118.964 88.1411 118.895C88.0723 118.826 89.0525 117.738 90.3295 116.463C91.6065 115.189 92.6973 114.212 92.7661 114.281Z" fill="#FAFAFA"/>
<path d="M102.925 131.379C102.826 131.409 102.456 130.367 101.77 129.205C101.093 128.037 100.366 127.204 100.441 127.133C100.502 127.066 101.37 127.817 102.073 129.027C102.784 130.234 103.014 131.359 102.925 131.379Z" fill="#FAFAFA"/>
<path d="M76.588 129.442C76.5064 129.478 75.8419 128.011 75.5053 126.066C75.1592 124.122 75.284 122.516 75.3731 122.522C75.4776 122.523 75.5114 124.101 75.8514 126.005C76.1799 127.911 76.6858 129.407 76.588 129.442Z" fill="#FAFAFA"/>
<path d="M90.5736 136.972C90.4919 137.008 89.9516 135.769 89.8099 134.126C89.6581 132.483 89.9691 131.167 90.0561 131.188C90.16 131.203 90.0116 132.503 90.1594 134.094C90.2963 135.685 90.6734 136.939 90.5736 136.972Z" fill="#FAFAFA"/>
<path d="M85.0427 147.912C84.9914 147.994 83.5707 147.199 81.8701 146.136C80.1688 145.073 78.8317 144.144 78.8837 144.062C78.9349 143.979 80.3556 144.775 82.0563 145.838C83.7569 146.902 85.094 147.83 85.0427 147.912Z" fill="#FAFAFA"/>
<path d="M106.79 144.676C106.834 144.769 105.268 145.547 103.454 146.697C101.635 147.84 100.259 148.918 100.193 148.838C100.132 148.771 101.423 147.558 103.266 146.399C105.105 145.235 106.756 144.592 106.79 144.676Z" fill="#FAFAFA"/>
<path d="M79.4368 157.041C79.4179 157.136 77.894 156.912 76.0342 156.541C74.1736 156.17 72.6808 155.792 72.6996 155.697C72.7185 155.602 74.2418 155.826 76.103 156.197C77.9628 156.568 79.4557 156.946 79.4368 157.041Z" fill="#FAFAFA"/>
<path d="M94.017 154.667C93.9489 154.728 93.1137 153.853 92.4115 152.55C91.7031 151.249 91.4266 150.072 91.5143 150.048C91.6121 150.016 92.0296 151.116 92.7198 152.382C93.4038 153.651 94.0973 154.603 94.017 154.667Z" fill="#FAFAFA"/>
<path d="M110.424 155.81C110.499 155.872 110.028 156.557 109.374 157.341C108.72 158.124 108.129 158.709 108.054 158.647C107.98 158.585 108.45 157.9 109.104 157.116C109.759 156.332 110.35 155.747 110.424 155.81Z" fill="#FAFAFA"/>
<path d="M80.4137 109.436C80.4677 109.517 79.8652 110.014 79.0685 110.546C78.2718 111.078 77.5817 111.444 77.5278 111.364C77.4738 111.283 78.0762 110.786 78.8729 110.254C79.6703 109.722 80.3604 109.356 80.4137 109.436Z" fill="#FAFAFA"/>
<path d="M91.7986 96.7196C91.7095 96.75 91.1091 95.2126 90.5843 93.2495C90.0561 91.2865 89.8072 89.6546 89.9003 89.6364C89.9981 89.6168 90.3995 91.2069 90.9243 93.1585C91.4451 95.1094 91.893 96.6879 91.7986 96.7196Z" fill="#FAFAFA"/>
<path d="M102.732 108.298C102.69 108.392 101.705 108.014 100.44 107.776C99.1768 107.53 98.1218 107.518 98.1177 107.415C98.1083 107.324 99.1937 107.176 100.506 107.431C101.82 107.679 102.774 108.218 102.732 108.298Z" fill="#FAFAFA"/>
<path d="M110.247 98.4626C110.263 98.5517 109.099 98.7709 107.673 98.5469C106.245 98.3317 105.201 97.7725 105.243 97.6929C105.283 97.5971 106.351 97.9938 107.727 98.1995C109.099 98.4161 110.238 98.3587 110.247 98.4626Z" fill="#FAFAFA"/>
<path d="M117.936 109.433C117.845 109.434 117.788 107.753 118.123 105.713C118.449 103.672 119.034 102.095 119.12 102.124C119.218 102.154 118.791 103.757 118.47 105.769C118.14 107.78 118.039 109.436 117.936 109.433Z" fill="#FAFAFA"/>
<path d="M126.97 122.352C126.9 122.42 125.826 121.425 124.57 120.13C123.315 118.834 122.354 117.729 122.423 117.662C122.493 117.594 123.567 118.589 124.823 119.885C126.078 121.181 127.039 122.285 126.97 122.352Z" fill="#FAFAFA"/>
<path d="M134.489 121.361C134.571 121.413 134.028 122.4 133.277 123.565C132.526 124.73 131.851 125.632 131.77 125.579C131.688 125.527 132.231 124.54 132.982 123.375C133.733 122.21 134.407 121.308 134.489 121.361Z" fill="#FAFAFA"/>
<path d="M143.207 117.111C143.12 117.153 142.469 115.991 141.752 114.515C141.036 113.039 140.526 111.808 140.614 111.765C140.701 111.723 141.352 112.885 142.069 114.361C142.785 115.837 143.295 117.068 143.207 117.111Z" fill="#FAFAFA"/>
<path d="M155.083 112.198C155.067 112.293 153.679 112.126 151.984 111.825C150.289 111.524 148.93 111.202 148.947 111.107C148.964 111.012 150.351 111.178 152.046 111.48C153.74 111.781 155.1 112.102 155.083 112.198Z" fill="#FAFAFA"/>
<path d="M60.7715 124.829C60.6838 124.788 61.2444 123.412 62.0242 121.756C62.804 120.1 63.5076 118.791 63.5953 118.832C63.683 118.873 63.1225 120.249 62.3426 121.905C61.5628 123.561 60.8592 124.87 60.7715 124.829Z" fill="#FAFAFA"/>
<path d="M67.0662 113.726C66.9941 113.79 66.0793 112.89 65.0229 111.715C63.9665 110.539 63.1684 109.534 63.2406 109.47C63.3128 109.405 64.2276 110.305 65.284 111.481C66.3404 112.656 67.1384 113.661 67.0662 113.726Z" fill="#FAFAFA"/>
<path d="M66.5448 131.559C66.6068 131.634 66.1394 132.125 65.5012 132.655C64.8623 133.186 64.295 133.556 64.2329 133.481C64.1709 133.406 64.6384 132.916 65.2772 132.385C65.9147 131.855 66.4827 131.485 66.5448 131.559Z" fill="#FAFAFA"/>
<path d="M68.6704 101.927C68.746 101.987 68.4627 102.467 68.0377 102.999C67.6127 103.53 67.2066 103.912 67.1304 103.851C67.0548 103.791 67.3381 103.311 67.7631 102.779C68.1881 102.248 68.5942 101.866 68.6704 101.927Z" fill="#FAFAFA"/>
<g opacity="0.3">
<path d="M103.927 104.995C106.78 113.959 108.982 123.37 111.835 132.335L111.155 113.766C108.51 111.325 106.104 108.394 103.927 104.995Z" fill="black"/>
</g>
<path d="M57.5093 116.725C57.5045 116.723 57.5349 116.647 57.5963 116.505C57.6759 116.324 57.7663 116.119 57.8708 115.883C58.1103 115.344 58.4712 114.57 58.9286 113.619C59.8427 111.718 61.1689 109.119 62.7556 106.316C64.3449 103.514 65.8924 101.04 67.0541 99.2788C67.6342 98.3978 68.1132 97.6902 68.4525 97.2078C68.6016 96.9967 68.7305 96.8139 68.8445 96.6527C68.9355 96.5265 68.9848 96.4617 68.9888 96.4644C68.9929 96.4671 68.951 96.5373 68.8674 96.6682C68.7601 96.8334 68.638 97.021 68.4977 97.2375C68.1395 97.7893 67.6828 98.4923 67.1377 99.3321C65.9984 101.106 64.4657 103.585 62.8784 106.385C61.2937 109.185 59.9553 111.773 59.019 113.663C58.5792 114.562 58.2108 115.315 57.9214 115.906C57.8081 116.138 57.7096 116.339 57.6233 116.517C57.5524 116.655 57.5133 116.727 57.5093 116.725Z" fill="black"/>
<path d="M62.0601 108.139C62.0669 108.161 61.7755 108.255 61.3235 108.449C60.8715 108.642 60.2637 108.949 59.6485 109.376C59.0339 109.806 58.5347 110.268 58.1961 110.625C57.8567 110.981 57.6672 111.221 57.649 111.208C57.6415 111.202 57.6807 111.136 57.7596 111.022C57.8372 110.906 57.9606 110.747 58.1225 110.558C58.4457 110.181 58.9435 109.698 59.5682 109.262C60.1942 108.827 60.8202 108.529 61.2864 108.358C61.5198 108.272 61.712 108.211 61.847 108.178C61.9819 108.143 62.0574 108.129 62.0601 108.139Z" fill="black"/>
<path d="M62.6948 94.3011C62.7738 94.3578 61.855 95.7616 60.6441 97.4366C59.4325 99.1116 58.3869 100.424 58.308 100.366C58.229 100.31 59.1478 98.9059 60.3594 97.2308C61.5703 95.5565 62.6166 94.2444 62.6948 94.3011Z" fill="#FAFAFA"/>
<path d="M67.566 83.3277C68.2123 83.5334 68.9031 83.0828 69.2795 82.5182C69.6566 81.9542 69.8307 81.2789 70.1659 80.6887C71.1684 78.9246 73.4485 78.1576 74.3653 76.3477C74.4928 76.0954 74.5717 75.7439 74.3524 75.5658C74.1494 75.4005 73.8485 75.5125 73.6138 75.6299C71.6109 76.633 69.6074 77.6361 67.6045 78.6393" fill="#FFBE9D"/>
<path d="M67.6058 78.6385C67.5936 78.6149 67.8142 78.4766 68.2223 78.2465C68.6305 78.0165 69.2268 77.6947 69.9668 77.3048C70.7399 76.9041 71.6183 76.4487 72.5769 75.9522C72.8244 75.8261 73.0767 75.6972 73.3338 75.5664C73.5834 75.4625 73.862 75.2156 74.3133 75.3316C74.5352 75.4004 74.6809 75.6493 74.6796 75.851C74.6877 76.0541 74.6323 76.2268 74.5595 76.388C74.4057 76.6855 74.233 76.9628 74.0178 77.2178C73.1611 78.2411 72.0837 78.8618 71.2931 79.6018C70.8924 79.9654 70.5524 80.3492 70.3129 80.7567C70.0728 81.1635 69.9149 81.5952 69.728 81.9777C69.3881 82.7677 68.7856 83.2763 68.304 83.3869C67.8135 83.5117 67.5518 83.337 67.566 83.3296C67.5714 83.2911 67.8345 83.4004 68.2581 83.2453C68.6831 83.0948 69.183 82.6348 69.4811 81.865C69.6464 81.4893 69.7888 81.0488 70.0363 80.5988C70.2839 80.1489 70.6408 79.7286 71.0516 79.3427C71.8645 78.5616 72.931 77.9247 73.7203 76.9749C73.9186 76.7422 74.0792 76.4804 74.2127 76.2268C74.3348 75.9758 74.3308 75.7161 74.1837 75.6837C74.0293 75.6244 73.7527 75.762 73.4963 75.8935C73.2373 76.021 72.983 76.1458 72.734 76.2679C71.7619 76.7381 70.8715 77.1685 70.0876 77.547C69.3321 77.9059 68.7168 78.1905 68.2885 78.3801C67.8601 78.569 67.6172 78.6621 67.6058 78.6385Z" fill="#EB996E"/>
<path d="M246.688 20.7521C246.688 20.8492 242.16 20.9039 236.576 20.8742C230.991 20.8445 226.464 20.742 226.465 20.6448C226.466 20.5477 230.993 20.493 236.578 20.5227C242.161 20.5524 246.688 20.6549 246.688 20.7521Z" fill="black"/>
<path d="M236.679 30.8096C236.582 30.8102 236.457 26.2837 236.401 20.7001C236.344 15.1145 236.377 10.5873 236.474 10.5859C236.571 10.5853 236.696 15.1104 236.752 20.6961C236.808 26.2804 236.775 30.8089 236.679 30.8096Z" fill="black"/>
<path d="M257.353 171.733C257.309 171.819 254.53 170.488 251.146 168.76C247.762 167.031 245.055 165.559 245.099 165.472C245.143 165.386 247.922 166.717 251.306 168.447C254.69 170.175 257.397 171.647 257.353 171.733Z" fill="black"/>
<path d="M248.19 174.778C248.103 174.735 249.392 171.935 251.068 168.525C252.745 165.115 254.175 162.385 254.262 162.428C254.349 162.47 253.06 165.269 251.384 168.681C249.708 172.09 248.277 174.821 248.19 174.778Z" fill="black"/>
<path d="M15.1973 124.232C15.233 124.323 12.0051 125.694 7.98722 127.295C3.96866 128.898 0.682044 130.123 0.64629 130.032C0.610537 129.943 3.83847 128.571 7.85702 126.969C11.8749 125.368 15.1615 124.142 15.1973 124.232Z" fill="black"/>
<path d="M7.75178 119.848C7.72277 119.86 7.63642 119.65 7.39289 119.341C7.15273 119.037 6.71088 118.635 6.03898 118.463C5.38395 118.283 4.48202 118.402 3.8135 119.013C3.1416 119.598 2.80228 120.697 3.19692 121.662C3.57402 122.635 4.57714 123.199 5.46693 123.161C6.37291 123.145 7.10956 122.611 7.46035 122.029C7.82935 121.442 7.8732 120.847 7.8388 120.461C7.80439 120.07 7.72209 119.858 7.75178 119.848C7.76594 119.84 7.89412 120.035 7.97507 120.444C8.05332 120.844 8.05129 121.493 7.67352 122.158C7.31531 122.816 6.50782 123.448 5.47705 123.486C4.4665 123.549 3.30418 122.912 2.87042 121.793C2.41574 120.683 2.82117 119.421 3.5983 118.772C4.37206 118.091 5.39339 117.994 6.10577 118.225C6.83702 118.448 7.28495 118.917 7.50352 119.262C7.72614 119.613 7.76729 119.843 7.75178 119.848Z" fill="black"/>
<path d="M12.81 132.536C12.7803 132.549 12.6946 132.338 12.4511 132.029C12.211 131.726 11.7691 131.324 11.0972 131.152C10.4422 130.972 9.54025 131.09 8.87172 131.701C8.19983 132.286 7.86051 133.385 8.25514 134.351C8.63292 135.323 9.63537 135.887 10.5252 135.85C11.4311 135.833 12.1678 135.299 12.5186 134.718C12.8876 134.131 12.9314 133.535 12.897 133.15C12.8619 132.759 12.7796 132.547 12.81 132.536C12.8242 132.529 12.9523 132.724 13.0333 133.132C13.1115 133.532 13.1095 134.181 12.7317 134.846C12.3735 135.504 11.5661 136.136 10.5353 136.173C9.52473 136.237 8.36241 135.6 7.92864 134.481C7.47397 133.37 7.8794 132.109 8.65653 131.46C9.43029 130.779 10.4516 130.682 11.164 130.912C11.8953 131.135 12.3432 131.605 12.5617 131.949C12.7837 132.302 12.8248 132.531 12.81 132.536Z" fill="black"/>
<path d="M52.9165 54.1083C52.9165 54.1083 52.9927 54.2891 53.1216 54.6406C53.2525 55.0042 53.4387 55.5236 53.6808 56.1989C54.1672 57.5791 54.8769 59.5934 55.7903 62.1852L55.8341 62.31L55.7026 62.2925C53.3125 61.9673 50.3787 61.5686 47.0138 61.1113L47.0975 61.089C44.445 63.1728 40.9 64.974 36.702 65.627C35.657 65.7963 34.5757 65.8935 33.4707 65.9042C32.9182 65.9191 32.361 65.8617 31.797 65.8435C31.515 65.8294 31.2324 65.8159 30.9477 65.8017C30.6644 65.7767 30.3824 65.7214 30.0977 65.6823C27.8115 65.4158 25.4963 64.7021 23.2816 63.6288C21.0663 62.5556 18.9487 61.089 17.0949 59.2474C15.254 57.3956 13.6916 55.1694 12.5522 52.6822C10.2593 47.7213 9.78167 41.6452 11.6402 36.0677C13.2464 31.0871 16.6699 26.9512 20.7479 24.2434C22.7885 22.8679 25.0531 21.9403 27.3251 21.3204L28.1812 21.1011L28.6075 20.9925L29.0413 20.9264C29.6188 20.8387 30.1935 20.7517 30.7649 20.6647C31.3403 20.6168 31.9151 20.6019 32.4851 20.5695C33.0551 20.5189 33.6218 20.5534 34.1851 20.5871C34.747 20.6323 35.3117 20.6087 35.8601 20.7105C36.4106 20.7949 36.9577 20.8792 37.5007 20.9628C38.0431 21.0505 38.5639 21.2225 39.0914 21.3473L39.876 21.5504C40.1316 21.6334 40.3812 21.7325 40.6322 21.8229C42.6708 22.4807 44.4861 23.5317 46.147 24.6414C49.4113 26.9714 51.8729 29.9228 53.3678 32.9841C54.9012 36.0319 55.5798 39.0999 55.7383 41.7902C55.9488 44.4906 55.5758 46.8234 55.1204 48.6616C54.6529 50.5053 54.0653 51.868 53.6356 52.7679C53.4164 53.2172 53.2403 53.5551 53.1142 53.773C52.99 53.9936 52.9165 54.1083 52.9165 54.1083C52.9165 54.1083 52.9658 53.9916 53.0811 53.7616C53.1999 53.5308 53.3651 53.1895 53.5729 52.7369C53.9804 51.8302 54.545 50.4655 54.9889 48.6279C55.4206 46.7957 55.7707 44.4778 55.5434 41.8017C55.368 39.1357 54.6786 36.1027 53.1479 33.0954C51.6557 30.0752 49.2103 27.1691 45.9817 24.8788C44.3384 23.7887 42.5453 22.7559 40.5323 22.113C40.2841 22.0246 40.0379 21.9275 39.7856 21.8459L39.0118 21.6482C38.4917 21.5268 37.9777 21.3575 37.4427 21.2725C36.9071 21.1915 36.3674 21.1099 35.825 21.0276C35.284 20.9277 34.7268 20.9534 34.1729 20.9095C33.6178 20.8772 33.0592 20.8441 32.4966 20.8954C31.9353 20.9284 31.368 20.9439 30.8013 20.9918C30.2387 21.0782 29.6727 21.1652 29.1034 21.2522L28.6764 21.3177L28.2568 21.4256L27.4135 21.6428C25.1759 22.2567 22.9464 23.1721 20.9388 24.5294C16.9256 27.2008 13.556 31.2733 11.9761 36.1769C10.1466 41.6674 10.6134 47.6511 12.8659 52.5379C13.9851 54.9886 15.5204 57.1838 17.3317 59.0119C19.1558 60.8293 21.2396 62.279 23.4219 63.3421C25.6029 64.4053 27.8844 65.1156 30.1395 65.3848C30.4202 65.4239 30.6981 65.4799 30.9781 65.5056C31.2587 65.5204 31.538 65.5346 31.8166 65.5487C32.3731 65.5683 32.9229 65.627 33.4687 65.6142C34.5602 65.6074 35.6287 65.515 36.6608 65.3518C40.8096 64.7224 44.3229 62.959 46.9612 60.9109L46.999 60.8819L47.0455 60.8886C50.407 61.3696 53.3381 61.7885 55.7255 62.1306L55.6378 62.2372C54.7541 59.6224 54.0674 57.5912 53.5965 56.1995C53.3719 55.5222 53.1992 55.0015 53.0784 54.6365C52.9637 54.2871 52.9165 54.1083 52.9165 54.1083Z" fill="black"/>
<path d="M34.333 37.9845C34.6359 38.1302 34.8444 38.4399 34.8451 38.7981L34.8444 43.2909C34.8444 43.5735 34.7122 43.84 34.4868 44.01C34.2615 44.1807 33.9694 44.236 33.6976 44.1591C32.9845 43.958 32.1824 44.0801 31.4984 44.4964C30.8683 44.8789 30.4312 45.4624 30.2996 46.0992C30.1674 46.7333 30.3347 47.4484 30.7584 48.0623C31.2117 48.7187 31.9032 49.1781 32.6121 49.2907C34.0598 49.5207 35.6782 48.4745 36.1457 47.0052C36.2968 46.5303 36.8041 46.2685 37.279 46.4196C37.7613 46.5748 38.0163 47.0787 37.8652 47.553C37.1299 49.8621 34.646 51.4413 32.3281 51.073C31.1267 50.8821 30.0116 50.1582 29.2736 49.0877C28.5713 48.0704 28.3015 46.848 28.5329 45.7329C28.7663 44.6084 29.5056 43.5958 30.5621 42.9549C31.3257 42.4915 32.1885 42.2554 33.0405 42.2621L33.0398 38.7994C33.0398 38.3009 33.4439 37.8975 33.9424 37.8975C34.0828 37.8962 34.215 37.9279 34.333 37.9845Z" fill="#13C4A3"/>
<path d="M33.0904 36.0955C33.0803 35.6881 33.4021 35.3494 33.8096 35.3386C34.217 35.3285 34.5557 35.6503 34.5658 36.0577C34.5759 36.4652 34.2541 36.8038 33.8467 36.8146C33.4399 36.8247 33.1012 36.503 33.0904 36.0955Z" fill="#13C4A3"/>
</svg>
