<svg width="267" height="250" viewBox="0 0 267 250" fill="none" xmlns="http://www.w3.org/2000/svg">
<path d="M266.519 43.8008L90.1856 69.1828L66.5207 93.0643L266.519 43.8008Z" fill="#13C4A3"/>
<path opacity="0.6" d="M266.519 43.8008L90.1856 69.1828L66.5207 93.0643L266.519 43.8008Z" fill="white"/>
<path d="M266.519 43.8008L90.1856 69.1828L98.3683 103.715L266.519 43.8008Z" fill="#13C4A3"/>
<path opacity="0.2" d="M266.519 43.8008L90.1856 69.1828L98.3683 103.715L266.519 43.8008Z" fill="black"/>
<path d="M101.99 3.82303L91.751 51.8002C91.1964 54.3983 92.8687 56.9779 95.4669 57.5325L186.8 77.0237C189.398 77.5783 191.977 75.906 192.532 73.3078L202.771 25.3307C203.061 23.9724 202.741 22.6157 202 21.5522C201.321 20.5884 200.295 19.8629 199.055 19.5983L107.722 0.107189C106.482 -0.157344 105.248 0.0855307 104.235 0.688078C103.125 1.35637 102.279 2.46478 101.99 3.82303Z" fill="#13C4A3"/>
<path opacity="0.4" d="M101.99 3.82303L91.751 51.8002C91.1964 54.3983 92.8687 56.9779 95.4669 57.5325L186.8 77.0237C189.398 77.5783 191.977 75.906 192.532 73.3078L202.771 25.3307C203.061 23.9724 202.741 22.6157 202 21.5522C201.321 20.5884 200.295 19.8629 199.055 19.5983L107.722 0.107189C106.482 -0.157344 105.248 0.0855307 104.235 0.688078C103.125 1.35637 102.279 2.46478 101.99 3.82303Z" fill="black"/>
<path d="M104.235 0.687735L134.755 38.1493C140.583 45.3041 150.607 47.4428 158.848 43.2907L202.001 21.551C201.322 20.5873 200.296 19.8617 199.056 19.5972L107.723 0.106072C106.481 -0.158461 105.249 0.0851875 104.235 0.687735Z" fill="#13C4A3"/>
<path d="M266.519 43.8008L121.077 78.3641L98.3683 103.715L266.519 43.8008Z" fill="#13C4A3"/>
<path opacity="0.6" d="M266.519 43.8008L121.077 78.3641L98.3683 103.715L266.519 43.8008Z" fill="white"/>
<path d="M213.468 77.1308L213.859 77.7988L197.678 87.2794L197.286 86.6113L213.468 77.1308Z" fill="#13C4A3"/>
<path d="M190.137 90.7958L190.528 91.4639L184.707 94.8745L184.316 94.2065L190.137 90.7958Z" fill="#13C4A3"/>
<path d="M266.519 43.8008L121.077 78.3641L149.347 112.441L266.519 43.8008Z" fill="#13C4A3"/>
<path d="M71.9839 124.785C72.1727 124.785 72.3653 124.75 72.5525 124.675L96.2475 115.294C97.0419 114.98 97.4309 114.082 97.1161 113.286C96.8021 112.493 95.9072 112.101 95.1082 112.418L71.4131 121.799C70.6188 122.113 70.2297 123.012 70.5445 123.807C70.785 124.414 71.3675 124.785 71.9839 124.785Z" fill="#13C4A3"/>
<path opacity="0.3" d="M71.9839 124.785C72.1727 124.785 72.3653 124.75 72.5525 124.675L96.2475 115.294C97.0419 114.98 97.4309 114.082 97.1161 113.286C96.8021 112.493 95.9072 112.101 95.1082 112.418L71.4131 121.799C70.6188 122.113 70.2297 123.012 70.5445 123.807C70.785 124.414 71.3675 124.785 71.9839 124.785Z" fill="black"/>
<path d="M73.3792 111.197C73.568 111.197 73.7605 111.163 73.9477 111.088L86.6732 106.05C87.4675 105.736 87.8566 104.837 87.5418 104.042C87.2285 103.248 86.3321 102.857 85.5338 103.173L72.8084 108.212C72.014 108.526 71.625 109.425 71.9398 110.22C72.1811 110.827 72.7628 111.197 73.3792 111.197Z" fill="#13C4A3"/>
<path opacity="0.5" d="M73.3792 111.197C73.568 111.197 73.7605 111.163 73.9477 111.088L86.6732 106.05C87.4675 105.736 87.8566 104.837 87.5418 104.042C87.2285 103.248 86.3321 102.857 85.5338 103.173L72.8084 108.212C72.014 108.526 71.625 109.425 71.9398 110.22C72.1811 110.827 72.7628 111.197 73.3792 111.197Z" fill="white"/>
<path d="M99.9826 124.551C100.171 124.551 100.364 124.515 100.551 124.441L123.654 115.294C124.449 114.98 124.838 114.08 124.523 113.286C124.209 112.492 123.311 112.102 122.515 112.417L99.4118 121.565C98.6175 121.879 98.2284 122.777 98.5432 123.573C98.7837 124.181 99.3662 124.551 99.9826 124.551Z" fill="#13C4A3"/>
<path opacity="0.3" d="M99.9826 124.551C100.171 124.551 100.364 124.515 100.551 124.441L123.654 115.294C124.449 114.98 124.838 114.08 124.523 113.286C124.209 112.492 123.311 112.102 122.515 112.417L99.4118 121.565C98.6175 121.879 98.2284 122.777 98.5432 123.573C98.7837 124.181 99.3662 124.551 99.9826 124.551Z" fill="black"/>
<path d="M16.3376 54.8301C14.2894 58.8321 12.4091 62.8349 10.6238 66.9383C8.85179 71.0416 7.16943 75.1875 5.72069 79.5392L5.19163 81.189C5.10268 81.4822 4.96501 81.9641 4.89308 82.3067C4.82037 82.6641 4.74301 83.033 4.70124 83.3602C4.49626 84.7076 4.46068 85.9251 4.43748 87.1225C4.39957 89.5079 4.56047 91.7827 4.75926 94.0452C5.19241 98.5631 5.89705 102.959 6.86546 107.367L11.1057 106.897C11.1606 102.54 11.2016 98.14 11.3525 93.8479C11.429 91.7061 11.5512 89.569 11.7686 87.5541C11.8784 86.5532 12.0401 85.5716 12.228 84.7502C12.2721 84.5328 12.3302 84.3673 12.3797 84.1878C12.44 83.996 12.4671 83.9512 12.5506 83.7214L13.1338 82.2588C14.7496 78.3449 16.5689 74.3962 18.4237 70.4677L24.0385 58.6851L16.3376 54.8301Z" fill="#E4897B"/>
<path d="M11.0454 105.57L13.0255 109.274L6.70147 111.038C6.70147 111.038 5.49715 108.059 6.9312 105.71L11.0454 105.57Z" fill="#E4897B"/>
<path d="M15.4502 114.613L9.6351 115.072L6.70048 111.039L13.0253 109.273L15.4502 114.613Z" fill="#E4897B"/>
<path d="M42.9672 28.1008C43.0585 28.5502 43.3702 28.8658 43.6642 28.8062C43.9581 28.7467 44.1221 28.3344 44.0308 27.885C43.9395 27.4356 43.6278 27.12 43.3339 27.1796C43.0399 27.2399 42.876 27.6522 42.9672 28.1008Z" fill="#263238"/>
<path d="M43.3291 28.8745C43.3291 28.8745 44.8769 31.2584 46.2552 32.2794C45.6117 33.1828 44.1916 33.1186 44.1916 33.1186L43.3291 28.8745Z" fill="#DE5753"/>
<path d="M40.8161 25.9416C40.8888 25.9416 40.9607 25.9122 41.0141 25.855C41.8193 24.9825 42.7761 25.1248 42.8186 25.1295C42.9609 25.155 43.1033 25.0544 43.1273 24.9075C43.1512 24.7613 43.053 24.6228 42.9076 24.5981C42.8565 24.5888 41.6298 24.3946 40.618 25.4884C40.5175 25.5974 40.5244 25.7676 40.6335 25.8689C40.6853 25.9176 40.7503 25.9416 40.8161 25.9416Z" fill="#263238"/>
<path d="M30.1729 34.4185C30.9881 38.5752 31.8011 46.1925 28.8928 48.9662C28.8928 48.9662 30.029 53.1833 37.7531 53.1833C46.2467 53.1833 41.8123 48.967 41.8123 48.967C37.1768 47.8601 37.2967 44.4204 38.1042 41.1911L30.1729 34.4185Z" fill="#E4897B"/>
<path d="M27.7263 51.5919C27.113 49.5546 26.4377 47.2233 27.8346 46.4931C29.3715 45.6895 37.7832 44.8703 40.6838 46.3786C43.5844 47.8869 42.7614 52.0189 42.7614 52.0189L27.7263 51.5919Z" fill="#263238"/>
<path d="M9.88501 244.489C10.4674 244.489 11.0298 244.4 11.2495 244.114C11.3415 243.994 11.4157 243.786 11.2448 243.475C11.1559 243.313 11.0128 243.207 10.8225 243.162C9.98789 242.97 8.42313 244.042 8.35661 244.087C8.31252 244.117 8.29085 244.17 8.3009 244.223C8.31096 244.275 8.34964 244.317 8.40146 244.329C8.69307 244.398 9.29871 244.489 9.88501 244.489ZM10.5951 243.406C10.6539 243.406 10.7096 243.411 10.7606 243.424C10.8751 243.451 10.9571 243.51 11.0089 243.605C11.1303 243.826 11.0584 243.919 11.0352 243.95C10.7923 244.269 9.63054 244.274 8.7828 244.131C9.27242 243.83 10.0784 243.406 10.5951 243.406Z" fill="#13C4A3"/>
<path d="M8.43336 244.332C8.45502 244.332 8.47744 244.327 8.49755 244.316C9.0854 243.997 10.2224 242.753 10.1025 242.118C10.0809 242.004 9.99581 241.805 9.67404 241.765C9.46984 241.742 9.27258 241.797 9.10087 241.938C8.44031 242.477 8.30496 244.117 8.29877 244.187C8.2949 244.235 8.31811 244.283 8.35988 244.31C8.38231 244.326 8.40784 244.332 8.43336 244.332ZM9.5812 242.029C9.60054 242.029 9.62143 242.03 9.64154 242.033C9.81712 242.054 9.83182 242.135 9.83878 242.169C9.90917 242.545 9.1852 243.485 8.60044 243.928C8.66696 243.449 8.84794 242.494 9.27181 242.147C9.36927 242.068 9.46982 242.029 9.5812 242.029Z" fill="#13C4A3"/>
<path d="M44.0075 244.491C44.7361 244.491 45.44 244.39 45.6759 244.062C45.7587 243.948 45.8236 243.752 45.6651 243.473C45.5761 243.317 45.4315 243.211 45.2373 243.159C44.2968 242.907 42.3058 244.033 42.2223 244.081C42.1735 244.108 42.1473 244.163 42.1565 244.22C42.1658 244.275 42.2076 244.319 42.2633 244.33C42.626 244.402 43.3276 244.491 44.0075 244.491ZM44.9078 243.388C45.0022 243.388 45.0896 243.398 45.1677 243.419C45.2922 243.453 45.3781 243.514 45.4315 243.606C45.5274 243.774 45.4926 243.856 45.4578 243.904C45.2017 244.259 43.7669 244.278 42.7011 244.131C43.2278 243.86 44.2434 243.388 44.9078 243.388Z" fill="#13C4A3"/>
<path d="M42.2897 244.332C42.3082 244.332 42.3275 244.328 42.3446 244.321C43.0299 244.014 44.3881 242.785 44.2852 242.142C44.2605 241.991 44.1538 241.803 43.784 241.766C43.5094 241.74 43.258 241.815 43.0376 241.996C42.3144 242.59 42.162 244.12 42.1558 244.185C42.1512 244.232 42.1721 244.28 42.2107 244.308C42.2347 244.325 42.2618 244.332 42.2897 244.332ZM43.6757 242.03C43.702 242.03 43.7291 242.031 43.757 242.033C43.9991 242.058 44.0145 242.153 44.0199 242.185C44.0818 242.571 43.159 243.536 42.459 243.956C42.5317 243.51 42.7344 242.593 43.2093 242.204C43.3516 242.087 43.5048 242.03 43.6757 242.03Z" fill="#13C4A3"/>
<path d="M36.0414 244.198H41.7235L42.2897 231.04H36.6076L36.0414 244.198Z" fill="#E4897B"/>
<path d="M1.92349 244.198H7.60633L10.462 231.04H4.77998L1.92349 244.198Z" fill="#E4897B"/>
<path d="M8.0102 243.54H1.62658C1.39454 243.54 1.19342 243.701 1.14237 243.928L0.0200492 248.979C-0.0967476 249.502 0.315513 249.998 0.852314 249.989C3.08073 249.951 4.16363 249.819 6.97139 249.819C8.69859 249.819 12.2566 249.999 14.6421 249.999C16.9749 249.999 17.3384 247.641 16.3623 247.427C11.9844 246.47 10.3345 245.148 8.93296 243.888C8.68003 243.662 8.34976 243.54 8.0102 243.54Z" fill="#263238"/>
<path d="M41.6863 243.54H35.4806C35.2485 243.54 35.0474 243.701 34.9964 243.928L33.8741 248.979C33.758 249.502 34.1556 249.998 34.6916 249.99C36.9301 249.952 40.1648 249.82 42.978 249.82C46.2676 249.82 49.1087 250 52.9668 250C55.2997 250 55.9471 247.641 54.9702 247.428C50.5249 246.456 46.8957 246.351 43.0538 243.983C42.6377 243.725 42.1767 243.54 41.6863 243.54Z" fill="#263238"/>
<path d="M44.4299 58.9479C49.248 58.5712 53.8796 57.9478 58.5902 57.0652C60.9346 56.615 63.2837 56.1115 65.6313 55.4796C67.9827 54.8492 70.3379 54.1345 72.7187 53.1405C73.3135 52.8961 73.9145 52.6215 74.5148 52.3361C75.2674 51.964 75.8931 51.5773 76.4439 51.2107C77.5615 50.4728 78.5176 49.7117 79.4697 48.9529C81.3617 47.4376 83.1229 45.8628 84.8602 44.2709C88.3192 41.0718 91.6011 37.7605 94.7616 34.2767L91.9159 31.0977L80.6934 39.1628C78.8409 40.4986 76.9714 41.8027 75.132 43.0334C74.2154 43.6421 73.2787 44.2199 72.4264 44.701C71.994 44.9462 71.6096 45.1295 71.3125 45.2471C70.8523 45.4273 70.3867 45.6052 69.8978 45.7684C65.9693 47.0787 61.5271 47.9203 57.1151 48.6311C52.6977 49.3303 48.1342 49.9058 43.7261 50.3629L44.4299 58.9479Z" fill="#E4897B"/>
<path d="M18.7183 50.2509C13.3928 51.4722 8.00778 67.0433 8.00778 67.0433L18.9704 74.9066C18.9704 74.9066 22.0327 67.6544 25.0454 61.3118C28.2028 54.666 24.1637 49.0025 18.7183 50.2509Z" fill="#13C4A3"/>
<path opacity="0.4" d="M18.7183 50.2509C13.3928 51.4722 8.00778 67.0433 8.00778 67.0433L18.9704 74.9066C18.9704 74.9066 22.0327 67.6544 25.0454 61.3118C28.2028 54.666 24.1637 49.0025 18.7183 50.2509Z" fill="black"/>
<path d="M21.7913 58.7583L23.9648 63.6236C21.714 68.4811 19.6565 73.2922 19.1073 74.5762C19.1847 68.8291 20.2753 61.6976 21.7913 58.7583Z" fill="#13C4A3"/>
<path opacity="0.6" d="M21.7913 58.7583L23.9648 63.6236C21.714 68.4811 19.6565 73.2922 19.1073 74.5762C19.1847 68.8291 20.2753 61.6976 21.7913 58.7583Z" fill="black"/>
<path d="M50.5528 50.5433C50.5528 50.5433 56.6007 57.3747 50.8892 99.6575C41.7319 99.6575 24.9526 99.6575 20.4965 99.6575C20.2869 94.9918 23.2185 72.2326 18.7191 50.2501C18.7191 50.2501 23.9285 49.2043 28.8936 48.9653C32.7772 48.7782 38.399 48.6544 41.8131 48.9661C46.3133 49.3768 50.5528 50.5433 50.5528 50.5433Z" fill="#13C4A3"/>
<path opacity="0.4" d="M50.5528 50.5433C50.5528 50.5433 56.6007 57.3747 50.8892 99.6575C41.7319 99.6575 24.9526 99.6575 20.4965 99.6575C20.2869 94.9918 23.2185 72.2326 18.7191 50.2501C18.7191 50.2501 23.9285 49.2043 28.8936 48.9653C32.7772 48.7782 38.399 48.6544 41.8131 48.9661C46.3133 49.3768 50.5528 50.5433 50.5528 50.5433Z" fill="black"/>
<path d="M52.8005 58.7583C53.0016 60.3594 53.1563 62.2545 53.2568 64.4899C50.743 63.7086 47.6181 62.4556 44.7949 60.5141L52.8005 58.7583Z" fill="#13C4A3"/>
<path opacity="0.6" d="M52.8005 58.7583C53.0016 60.3594 53.1563 62.2545 53.2568 64.4899C50.743 63.7086 47.6181 62.4556 44.7949 60.5141L52.8005 58.7583Z" fill="black"/>
<path d="M39.7998 59.588C43.866 63.1909 59.3992 62.8305 59.3992 62.8305L59.9113 47.814C59.9113 47.814 51.1051 49.1049 44.0787 48.9618C35.3986 48.7862 35.3375 55.6339 39.7998 59.588Z" fill="#13C4A3"/>
<path opacity="0.4" d="M39.7998 59.588C43.866 63.1909 59.3992 62.8305 59.3992 62.8305L59.9113 47.814C59.9113 47.814 51.1051 49.1049 44.0787 48.9618C35.3986 48.7862 35.3375 55.6339 39.7998 59.588Z" fill="black"/>
<path d="M91.7774 31.1746L95.6781 26.6211L99.8418 31.2326C99.8418 31.2326 97.2784 35.5448 93.196 34.8642L91.7774 31.1746Z" fill="#E4897B"/>
<path d="M101.185 21.3101L102.685 27.252L99.8418 31.2331L95.6781 26.6208L101.185 21.3101Z" fill="#E4897B"/>
<path d="M42.2882 231.043L41.9974 237.826H36.313L36.6038 231.043H42.2882Z" fill="#CE6F64"/>
<path d="M4.77787 231.043H10.463L8.98796 237.826H3.30281L4.77787 231.043Z" fill="#CE6F64"/>
<path d="M38.8677 22.4529C43.965 20.0976 45.5761 9.81644 30.9123 12.3628C30.9123 12.3628 33.1222 14.8124 28.6329 16.3594C24.1443 17.9056 27.9019 27.5208 38.8677 22.4529Z" fill="#263238"/>
<path d="M27.7928 30.1936C29.2524 35.6405 29.8302 38.9031 33.1918 41.1687C38.2481 44.5759 44.5435 40.6659 44.7407 34.8918C44.9178 29.6947 42.5007 21.6597 36.6554 20.5622C30.896 19.4808 26.3325 24.7467 27.7928 30.1936Z" fill="#E4897B"/>
<path d="M31.1119 15.1303C27.642 17.0709 22.9377 18.2281 23.4103 20.9794C23.9881 24.3425 20.5662 22.2386 21.3629 27.2493C21.8834 30.5211 27.9182 40.4357 32.1662 39.9515C38.5521 39.2237 37.743 29.4692 37.7639 24.3433C37.7771 21.322 37.9186 11.3239 31.1119 15.1303Z" fill="#263238"/>
<path d="M38.5296 19.4741C40.0765 19.8392 42.1271 28.756 36.1348 29.5728C29.2376 30.5126 38.5296 19.4741 38.5296 19.4741Z" fill="#263238"/>
<path d="M38.3728 22.6395C40.2686 22.8065 44.5444 20.5247 44.0339 17.0928C44.0339 17.0928 41.3097 21.1087 38.3728 22.6395Z" fill="#263238"/>
<path d="M35.5627 30.2853C36.1559 31.6381 37.279 32.7024 38.3658 33.2686C40.001 34.1195 40.9191 32.8749 40.5494 31.2398C40.2168 29.7678 38.9645 27.551 37.2837 27.3692C35.6261 27.1898 34.8843 28.7383 35.5627 30.2853Z" fill="#E4897B"/>
<path d="M27.0542 23.9897C25.9063 23.4058 23.292 22.0815 22.5796 18.3247C22.5796 18.3247 20.0263 25.4524 27.0542 23.9897Z" fill="#263238"/>
<path d="M20.5978 23.9147C21.1709 23.579 22.4719 22.814 24.2997 23.5496C24.2997 23.5496 21.9181 20.4595 20.5978 23.9147Z" fill="#263238"/>
<path d="M40.1074 99.6587C40.1074 99.6587 33.6588 143.084 30.1186 159.353C26.2419 177.168 11.6361 236.512 11.6361 236.512H1.22879C1.22879 236.512 10.8595 178.606 13.0717 160.968C15.4726 141.824 20.4964 99.6587 20.4964 99.6587H40.1074Z" fill="#13C4A3"/>
<path opacity="0.5" d="M40.1074 99.6587C40.1074 99.6587 33.6588 143.084 30.1186 159.353C26.2419 177.168 11.6361 236.512 11.6361 236.512H1.22879C1.22879 236.512 10.8595 178.606 13.0717 160.968C15.4726 141.824 20.4964 99.6587 20.4964 99.6587H40.1074Z" fill="white"/>
<path d="M13.2985 232.678C13.3426 232.678 12.2242 236.674 12.2242 236.674H0.515106L0.730124 233.108L13.2985 232.678Z" fill="#13C4A3"/>
<path opacity="0.1" d="M13.2985 232.678C13.3426 232.678 12.2242 236.674 12.2242 236.674H0.515106L0.730124 233.108L13.2985 232.678Z" fill="black"/>
<path d="M36.0321 115.131C28.5757 116.593 29.3646 144.4 30.2619 158.701C32.4122 148.592 35.5603 129.139 37.7106 115.332C37.2155 115.084 36.6586 115.007 36.0321 115.131Z" fill="#13C4A3"/>
<path opacity="0.4" d="M36.0321 115.131C28.5757 116.593 29.3646 144.4 30.2619 158.701C32.4122 148.592 35.5603 129.139 37.7106 115.332C37.2155 115.084 36.6586 115.007 36.0321 115.131Z" fill="white"/>
<path d="M50.8883 99.6587C50.8883 99.6587 51.671 142.144 51.053 159.473C50.4103 177.496 44.1148 236.513 44.1148 236.513H34.4888C34.4888 236.513 34.1353 178.55 33.7076 160.849C33.2404 141.551 30.9106 99.6595 30.9106 99.6595H50.8883V99.6587Z" fill="#13C4A3"/>
<path opacity="0.5" d="M50.8883 99.6587C50.8883 99.6587 51.671 142.144 51.053 159.473C50.4103 177.496 44.1148 236.513 44.1148 236.513H34.4888C34.4888 236.513 34.1353 178.55 33.7076 160.849C33.2404 141.551 30.9106 99.6595 30.9106 99.6595H50.8883V99.6587Z" fill="white"/>
<path d="M42.1102 229.598C42.1589 229.598 42.2007 229.56 42.2061 229.511C43.9023 213.177 47.9036 173.655 48.4102 159.476C48.9262 145.003 48.4574 112.533 48.3012 102.926C48.3004 102.873 48.2571 102.831 48.2045 102.831H48.2029C48.1496 102.831 48.107 102.875 48.1078 102.929C48.2641 112.535 48.7328 145.001 48.2169 159.468C47.711 173.642 43.7113 213.159 42.0142 229.491C42.0081 229.543 42.0468 229.591 42.1001 229.597C42.1032 229.598 42.1071 229.598 42.1102 229.598Z" fill="#13C4A3"/>
<path opacity="0.4" d="M42.1102 229.598C42.1589 229.598 42.2007 229.56 42.2061 229.511C43.9023 213.177 47.9036 173.655 48.4102 159.476C48.9262 145.003 48.4574 112.533 48.3012 102.926C48.3004 102.873 48.2571 102.831 48.2045 102.831H48.2029C48.1496 102.831 48.107 102.875 48.1078 102.929C48.2641 112.535 48.7328 145.001 48.2169 159.468C47.711 173.642 43.7113 213.159 42.0142 229.491C42.0081 229.543 42.0468 229.591 42.1001 229.597C42.1032 229.598 42.1071 229.598 42.1102 229.598Z" fill="white"/>
<path d="M45.9675 232.678C46.0116 232.678 45.4245 236.674 45.4245 236.674H33.7146L33.3983 233.108L45.9675 232.678Z" fill="#13C4A3"/>
<path opacity="0.1" d="M45.9675 232.678C46.0116 232.678 45.4245 236.674 45.4245 236.674H33.7146L33.3983 233.108L45.9675 232.678Z" fill="black"/>
</svg>
