<svg width="138" height="120" viewBox="0 0 138 120" fill="none" xmlns="http://www.w3.org/2000/svg">
<path d="M46.8673 53.9818C51.0305 53.9818 54.4053 50.6069 54.4053 46.4438C54.4053 42.2807 51.0305 38.9058 46.8673 38.9058C42.7042 38.9058 39.3293 42.2807 39.3293 46.4438C39.3293 50.6069 42.7042 53.9818 46.8673 53.9818Z" fill="#F2F2F2"/>
<path d="M23.2842 20H75.2188V22.8414H29.9141C27.2503 22.8414 24.6127 23.3661 22.1517 24.3854C19.6907 25.4048 17.4546 26.8989 15.571 28.7825C13.6875 30.666 12.1933 32.9021 11.174 35.3631C10.1546 37.8241 9.62993 40.4618 9.62993 43.1255V75.4072H3.94713C3.69594 75.4072 3.45504 75.3075 3.27741 75.1298C3.09979 74.9522 3.00001 74.7113 3 74.4601V40.2841C3 37.6204 3.52466 34.9827 4.54404 32.5217C5.56341 30.0607 7.05753 27.8246 8.94109 25.9411C10.8246 24.0575 13.0608 22.5634 15.5217 21.544C17.9827 20.5247 20.6204 20 23.2842 20Z" fill="#333333"/>
<path d="M33.6152 118.906V75.7446H46.2596V118.906C46.2593 119.196 46.1439 119.474 45.9388 119.679C45.7336 119.884 45.4555 120 45.1654 120H34.7095C34.4194 120 34.1412 119.884 33.9361 119.679C33.731 119.474 33.6156 119.196 33.6152 118.906Z" fill="#333333"/>
<path d="M0.666748 74.8936V39.7971C0.673056 34.2099 2.89533 28.8534 6.84604 24.9027C10.7967 20.952 16.1532 18.7297 21.7404 18.7234H75.3172V76.1094H1.88255C1.56022 76.109 1.25119 75.9808 1.02326 75.7529C0.795332 75.525 0.667117 75.2159 0.666748 74.8936ZM74.8309 19.2097H21.7404C16.2822 19.2159 11.0493 21.3869 7.18976 25.2464C3.33023 29.106 1.15924 34.3389 1.15307 39.7971V74.8936C1.15328 75.087 1.23021 75.2724 1.36696 75.4092C1.50372 75.5459 1.68915 75.6229 1.88255 75.6231H74.8309V19.2097Z" fill="#333333"/>
<path d="M46.8674 50.3343C45.707 50.333 44.5944 49.8715 43.7739 49.0509C42.9534 48.2304 42.4918 47.1179 42.4905 45.9574V14.5897C42.4903 14.3963 42.4134 14.2108 42.2766 14.0741C42.1398 13.9373 41.9544 13.8604 41.761 13.8602H24.7397C24.4174 13.8598 24.1084 13.7316 23.8804 13.5037C23.6525 13.2757 23.5243 12.9667 23.5239 12.6444V1.21581C23.5243 0.893468 23.6525 0.584439 23.8804 0.356512C24.1084 0.128585 24.4174 0.000373262 24.7397 0H50.0285C50.3508 0.000368766 50.6598 0.128581 50.8878 0.356508C51.1157 0.584436 51.2439 0.893467 51.2443 1.21581V45.9574C51.243 47.1179 50.7814 48.2304 49.9609 49.0509C49.1403 49.8715 48.0278 50.333 46.8674 50.3343Z" fill="#13C4A3"/>
<path d="M77.2625 18.2371C80.9308 18.2294 84.4518 19.6792 87.0511 22.2676C89.6504 24.8561 91.115 28.371 91.1227 32.0393V71.993H118.357C119.451 71.9907 120.501 72.4231 121.276 73.1951C122.051 73.9671 122.488 75.0154 122.49 76.1094H63.4023V32.0393C63.41 28.371 64.8746 24.8561 67.4739 22.2676C70.0732 19.6792 73.5943 18.2294 77.2625 18.2371Z" fill="#333333"/>
<path d="M73.9366 40.9891L76.8066 52.8446L132.948 39.254L130.078 27.3984C130.043 27.2535 129.973 27.1196 129.872 27.0093C129.772 26.899 129.646 26.8158 129.505 26.7674C129.401 26.7308 129.291 26.7142 129.18 26.7186L96.7282 9.91568C96.538 9.81858 96.3194 9.79264 96.1118 9.84255C95.9042 9.89245 95.7213 10.0149 95.596 10.1878L79.9559 31.9979L74.0597 40.2223C74.049 40.2367 74.0416 40.2532 74.0378 40.2708C74.0341 40.2883 74.0342 40.3065 74.0381 40.324C73.9181 40.5237 73.8816 40.7627 73.9366 40.9891Z" fill="white"/>
<path d="M74.0379 40.324C74.0407 40.3394 74.0465 40.3541 74.055 40.3673C74.0634 40.3805 74.0744 40.3918 74.0873 40.4008C74.1025 40.4112 74.1197 40.4184 74.1379 40.422C74.156 40.4256 74.1746 40.4254 74.1927 40.4216C74.222 40.4137 74.2477 40.3959 74.2654 40.3712L74.2856 40.3431L74.5926 39.9138L80.168 32.1413L95.8035 10.3363C95.8927 10.2127 96.0232 10.1253 96.1715 10.0897C96.3197 10.0542 96.4757 10.073 96.6112 10.1427L128.812 26.8154L129.101 26.9654C129.113 26.9703 129.125 26.9745 129.137 26.978C129.159 26.974 129.181 26.9719 129.203 26.9716C129.233 26.9615 129.258 26.9402 129.273 26.9121C129.281 26.8973 129.286 26.8811 129.287 26.8644C129.289 26.8478 129.287 26.8309 129.282 26.8149C129.277 26.7989 129.269 26.7841 129.259 26.7712C129.248 26.7583 129.235 26.7476 129.22 26.7398L129.18 26.7186L96.728 9.91568C96.5378 9.81858 96.3192 9.79264 96.1116 9.84255C95.904 9.89245 95.7211 10.0149 95.5958 10.1878L79.9557 31.9979L74.0596 40.2223C74.0489 40.2367 74.0414 40.2532 74.0376 40.2708C74.0339 40.2883 74.034 40.3065 74.0379 40.324Z" fill="#333333"/>
<path d="M90.8991 41.5328L92.1487 41.6715L101.424 42.6989L107.572 43.3796L107.935 43.42L115.608 37.4273L115.901 37.1978L117.714 35.7825L124.161 30.7476L124.199 30.3939L126.492 9.69748C126.524 9.41249 126.441 9.12674 126.262 8.90286C126.082 8.67899 125.822 8.53526 125.537 8.50319L94.9338 5.1131C94.6488 5.08198 94.3631 5.16505 94.1393 5.34412C93.9154 5.5232 93.7717 5.78368 93.7395 6.06853L92.1223 20.6673L91.2253 28.7611L90.4229 36.0021L90.0509 39.3648L89.9424 40.3389C89.9114 40.624 89.9947 40.9097 90.174 41.1335C90.3534 41.3573 90.6141 41.5009 90.8991 41.5328Z" fill="#E6E6E6"/>
<path d="M99.3087 23.3915L112.565 24.8598L117.266 25.3803C117.474 25.4033 117.684 25.3852 117.884 25.327C118.085 25.2688 118.272 25.1716 118.435 25.0411C118.598 24.9106 118.734 24.7493 118.834 24.5663C118.935 24.3834 118.999 24.1824 119.022 23.9748C119.045 23.7672 119.027 23.5572 118.968 23.3566C118.91 23.1561 118.813 22.969 118.683 22.8059C118.552 22.6429 118.391 22.5072 118.208 22.4065C118.025 22.3059 117.824 22.2422 117.616 22.2192L111.769 21.5716L99.6598 20.2289C99.2405 20.1826 98.82 20.3047 98.4907 20.5683C98.1614 20.8319 97.9503 21.2155 97.9038 21.6348C97.8572 22.054 97.9791 22.4746 98.2425 22.804C98.506 23.1335 98.8895 23.3448 99.3087 23.3915Z" fill="white"/>
<path d="M98.5539 29.2557C98.5881 29.2618 98.6224 29.2679 98.6572 29.2713L114.046 30.9761L116.615 31.2613C117.034 31.3077 117.455 31.1856 117.784 30.9218C118.114 30.6581 118.325 30.2744 118.371 29.855C118.417 29.4357 118.295 29.0151 118.032 28.6857C117.768 28.3564 117.384 28.1453 116.965 28.099L113.25 27.6879L101.06 26.3372L99.0085 26.1099C98.5983 26.0641 98.1863 26.1797 97.8598 26.4322C97.5332 26.6846 97.3176 27.0542 97.2585 27.4627C97.1995 27.8713 97.3016 28.2868 97.5434 28.6214C97.7851 28.956 98.1475 29.1834 98.5539 29.2557Z" fill="white"/>
<path d="M96.8122 34.4554C96.9383 34.6647 97.111 34.8422 97.3168 34.974C97.5226 35.1058 97.756 35.1884 97.999 35.2153L104.306 35.9139L115.54 37.1584L115.542 37.1578L115.901 37.1978L117.713 35.7826C117.725 35.6751 117.725 35.5667 117.714 35.4592C117.675 35.0982 117.515 34.761 117.259 34.5035C117.003 34.246 116.667 34.0836 116.307 34.043L114.746 33.8697L108.556 33.1847L104.102 32.6907L98.3487 32.053C98.0539 32.0204 97.7558 32.0709 97.4881 32.1988C97.2205 32.3267 96.9939 32.5269 96.8341 32.7768C96.6742 33.0267 96.5875 33.3164 96.5836 33.613C96.5798 33.9096 96.6589 34.2014 96.8122 34.4554Z" fill="white"/>
<path d="M105.671 16.2236L108.97 16.5889L110.426 16.7507L112.627 16.9943C113.046 17.0406 113.467 16.9185 113.796 16.6548C114.126 16.3911 114.337 16.0073 114.383 15.588C114.43 15.1686 114.307 14.748 114.044 14.4187C113.78 14.0894 113.396 13.8783 112.977 13.8319L106.023 13.0622C105.603 13.0156 105.183 13.1375 104.854 13.401C104.524 13.6645 104.313 14.048 104.266 14.4672C104.22 14.8864 104.342 15.307 104.605 15.6364C104.869 15.9658 105.252 16.177 105.671 16.2236Z" fill="white"/>
<path d="M78.7011 25.0291L82.7224 41.6403L89.4339 42.9165L95.6423 44.0985L102.303 45.3659L104.432 45.7709C104.556 45.7945 104.685 45.7912 104.808 45.7614C104.931 45.7316 105.046 45.6758 105.147 45.5979L106.854 44.2643L107.935 43.42L115.607 37.4274L110.729 17.2758C110.681 17.0753 110.576 16.893 110.427 16.7507C110.296 16.6249 110.135 16.5341 109.96 16.4866C109.784 16.4391 109.6 16.4365 109.424 16.4791L79.4978 23.7235C79.2191 23.7912 78.9787 23.9666 78.8293 24.2114C78.6799 24.4562 78.6338 24.7503 78.7011 25.0291Z" fill="#13C4A3"/>
<path d="M87.9218 38.2439C88.0214 38.6537 88.2795 39.0072 88.6394 39.2268C88.9994 39.4465 89.4318 39.5143 89.8418 39.4155L107.401 35.1646C107.811 35.0648 108.164 34.8067 108.384 34.4468C108.604 34.0869 108.672 33.6546 108.573 33.2447C108.569 33.2243 108.563 33.2043 108.556 33.1847C108.444 32.7895 108.183 32.453 107.828 32.2458C107.474 32.0386 107.052 31.9767 106.653 32.0731L89.0934 36.324C88.6836 36.4235 88.3301 36.6816 88.1104 37.0416C87.8908 37.4016 87.8229 37.834 87.9218 38.2439Z" fill="white"/>
<path d="M89.4338 42.9164L95.6422 44.0984L108.793 40.9148C109.203 40.8155 109.557 40.5575 109.777 40.1974C109.997 39.8374 110.064 39.4048 109.965 38.9948C109.866 38.5849 109.608 38.2311 109.248 38.0114C108.888 37.7917 108.455 37.724 108.045 37.8233L90.4854 42.0741C90.1184 42.1623 89.7951 42.3789 89.5741 42.6848C89.5209 42.7579 89.474 42.8354 89.4338 42.9164Z" fill="white"/>
<path d="M102.303 45.3658L104.432 45.7709C104.556 45.7944 104.685 45.7912 104.808 45.7613C104.931 45.7315 105.047 45.6758 105.147 45.5978L106.854 44.2642L102.303 45.3658Z" fill="white"/>
<path d="M91.4601 29.3366C91.5597 29.7463 91.8178 30.0999 92.1778 30.3195C92.5377 30.5392 92.9702 30.607 93.3801 30.5081L100.181 28.8617C100.591 28.7619 100.944 28.5038 101.164 28.1438C101.384 27.7839 101.452 27.3516 101.353 26.9417C101.3 26.7215 101.2 26.5152 101.06 26.3372C100.872 26.0965 100.618 25.915 100.33 25.8145C100.041 25.7139 99.73 25.6986 99.433 25.7702L92.6317 27.4166C92.2218 27.5159 91.8681 27.774 91.6484 28.134C91.4287 28.4941 91.361 28.9266 91.4601 29.3366Z" fill="white"/>
<path d="M95.642 44.0983L102.304 45.3661L104.432 45.7713C104.556 45.7945 104.684 45.7912 104.808 45.7614C104.931 45.7315 105.046 45.676 105.146 45.5983L106.855 44.2644L106.255 44.4096L104.99 45.397C104.918 45.4525 104.836 45.4922 104.748 45.5135C104.66 45.5348 104.568 45.5372 104.479 45.5206L102.904 45.2209L96.2416 43.9532L95.642 44.0983ZM115.542 37.1588L115.607 37.4267L115.902 37.1969L115.542 37.1588ZM95.642 44.0983L102.304 45.3661L104.432 45.7713C104.556 45.7945 104.684 45.7912 104.808 45.7614C104.931 45.7315 105.046 45.676 105.146 45.5983L106.855 44.2644L106.255 44.4096L104.99 45.397C104.918 45.4525 104.836 45.4922 104.748 45.5135C104.66 45.5348 104.568 45.5372 104.479 45.5206L102.904 45.2209L96.2416 43.9532L95.642 44.0983ZM95.642 44.0983L102.304 45.3661L104.432 45.7713C104.556 45.7945 104.684 45.7912 104.808 45.7614C104.931 45.7315 105.046 45.676 105.146 45.5983L106.855 44.2644L106.255 44.4096L104.99 45.397C104.918 45.4525 104.836 45.4922 104.748 45.5135C104.66 45.5348 104.568 45.5372 104.479 45.5206L102.904 45.2209L96.2416 43.9532L95.642 44.0983ZM73.9366 40.9891L81.4542 72.0432C81.51 72.2727 81.6546 72.4707 81.8562 72.5937C82.0577 72.7167 82.2999 72.7547 82.5295 72.6994L136.939 59.5278C137.169 59.4721 137.367 59.3275 137.49 59.1259C137.613 58.9243 137.651 58.6821 137.596 58.4526L130.078 27.3984C130.043 27.2535 129.973 27.1196 129.872 27.0093C129.772 26.899 129.646 26.8158 129.505 26.7674C129.401 26.7308 129.291 26.7142 129.18 26.7186C129.052 26.7223 128.926 26.7554 128.812 26.8154C128.76 26.8403 128.71 26.8711 128.664 26.9071L124.199 30.394L117.714 35.4599L115.541 37.1569L115.542 37.1588L115.54 37.1592L107.573 43.3788L106.255 44.4096L104.99 45.397C104.918 45.4525 104.836 45.4922 104.748 45.5135C104.66 45.5348 104.568 45.5372 104.479 45.5206L102.904 45.2209L96.2416 43.9532L89.5736 42.6849L74.9691 39.9057C74.8445 39.881 74.7161 39.8838 74.5928 39.9138C74.4267 39.9544 74.2758 40.0418 74.158 40.1657C74.1129 40.2143 74.0727 40.2674 74.0381 40.324C73.9181 40.5237 73.8816 40.7627 73.9366 40.9891ZM95.642 44.0983L102.304 45.3661L104.432 45.7713C104.556 45.7945 104.684 45.7912 104.808 45.7614C104.931 45.7315 105.046 45.676 105.146 45.5983L106.855 44.2644L106.255 44.4096L104.99 45.397C104.918 45.4525 104.836 45.4922 104.748 45.5135C104.66 45.5348 104.568 45.5372 104.479 45.5206L102.904 45.2209L96.2416 43.9532L95.642 44.0983ZM95.642 44.0983L102.304 45.3661L104.432 45.7713C104.556 45.7945 104.684 45.7912 104.808 45.7614C104.931 45.7315 105.046 45.676 105.146 45.5983L106.855 44.2644L106.255 44.4096L104.99 45.397C104.918 45.4525 104.836 45.4922 104.748 45.5135C104.66 45.5348 104.568 45.5372 104.479 45.5206L102.904 45.2209L96.2416 43.9532L95.642 44.0983ZM95.642 44.0983L102.304 45.3661L104.432 45.7713C104.556 45.7945 104.684 45.7912 104.808 45.7614C104.931 45.7315 105.046 45.676 105.146 45.5983L106.855 44.2644L106.255 44.4096L104.99 45.397C104.918 45.4525 104.836 45.4922 104.748 45.5135C104.66 45.5348 104.568 45.5372 104.479 45.5206L102.904 45.2209L96.2416 43.9532L95.642 44.0983Z" fill="white"/>
<path d="M95.642 44.0983L102.304 45.3661L104.432 45.7713C104.556 45.7945 104.684 45.7912 104.808 45.7614C104.931 45.7315 105.046 45.676 105.146 45.5983L106.855 44.2644L106.255 44.4095L104.99 45.397C104.918 45.4525 104.836 45.4922 104.748 45.5135C104.66 45.5348 104.568 45.5372 104.479 45.5206L102.904 45.2209L96.2416 43.9532L95.642 44.0983ZM115.542 37.1588L115.607 37.4267L115.902 37.1969L115.542 37.1588ZM95.642 44.0983L102.304 45.3661L104.432 45.7713C104.556 45.7945 104.684 45.7912 104.808 45.7614C104.931 45.7315 105.046 45.676 105.146 45.5983L106.855 44.2644L106.255 44.4095L104.99 45.397C104.918 45.4525 104.836 45.4922 104.748 45.5135C104.66 45.5348 104.568 45.5372 104.479 45.5206L102.904 45.2209L96.2416 43.9532L95.642 44.0983ZM95.642 44.0983L102.304 45.3661L104.432 45.7713C104.556 45.7945 104.684 45.7912 104.808 45.7614C104.931 45.7315 105.046 45.676 105.146 45.5983L106.855 44.2644L106.255 44.4095L104.99 45.397C104.918 45.4525 104.836 45.4922 104.748 45.5135C104.66 45.5348 104.568 45.5372 104.479 45.5206L102.904 45.2209L96.2416 43.9532L95.642 44.0983ZM74.2858 40.3431L74.3188 40.3679C74.3244 40.3589 74.334 40.3507 74.3413 40.3412C74.415 40.2646 74.5065 40.2074 74.6077 40.1748C74.709 40.1422 74.8167 40.1352 74.9213 40.1545L89.4345 42.9154L95.642 44.0983L102.304 45.3661L104.432 45.7713C104.556 45.7945 104.684 45.7912 104.808 45.7614C104.931 45.7315 105.046 45.676 105.146 45.5983L106.855 44.2644L106.255 44.4095L104.99 45.397C104.918 45.4525 104.836 45.4922 104.748 45.5135C104.66 45.5348 104.568 45.5372 104.479 45.5206L102.904 45.2209L96.2416 43.9532L89.5736 42.6849L74.9691 39.9057C74.8445 39.881 74.7161 39.8838 74.5928 39.9138L74.2858 40.3431ZM73.9366 40.9891L81.4542 72.0432C81.51 72.2727 81.6546 72.4707 81.8562 72.5937C82.0577 72.7167 82.2999 72.7547 82.5295 72.6994L136.939 59.5278C137.169 59.4721 137.367 59.3275 137.49 59.1259C137.613 58.9243 137.651 58.6821 137.596 58.4526L130.078 27.3984C130.043 27.2535 129.973 27.1196 129.872 27.0093C129.772 26.899 129.646 26.8158 129.505 26.7674C129.401 26.7308 129.291 26.7142 129.18 26.7186C129.052 26.7223 128.926 26.7554 128.812 26.8154C128.76 26.8403 128.71 26.8711 128.664 26.9071L124.199 30.394L117.714 35.4599L115.541 37.1569L115.542 37.1588L115.54 37.1592L107.573 43.3788L106.255 44.4095L104.99 45.397C104.918 45.4525 104.836 45.4922 104.748 45.5135C104.66 45.5348 104.568 45.5372 104.479 45.5206L102.904 45.2209L96.2416 43.9532L89.5736 42.6849L74.9691 39.9057C74.8445 39.881 74.7161 39.8838 74.5928 39.9138C74.4267 39.9544 74.2758 40.0418 74.158 40.1657C74.1129 40.2143 74.0727 40.2674 74.0381 40.324C73.9181 40.5237 73.8816 40.7627 73.9366 40.9891ZM74.1846 40.9291C74.1624 40.8375 74.161 40.7422 74.1804 40.65C74.1998 40.5579 74.2396 40.4712 74.2968 40.3964C74.302 40.3854 74.3095 40.3757 74.3188 40.3679C74.3244 40.3589 74.334 40.3507 74.3413 40.3412C74.415 40.2646 74.5065 40.2074 74.6077 40.1748C74.709 40.1422 74.8167 40.1352 74.9213 40.1545L89.4345 42.9154L95.642 44.0983L102.304 45.3661L104.432 45.7713C104.556 45.7945 104.684 45.7912 104.808 45.7614C104.931 45.7315 105.046 45.676 105.146 45.5983L106.855 44.2644L107.936 43.4201L115.607 37.4267L115.902 37.1969L117.713 35.7823L124.161 30.7466L128.823 27.1061C128.894 27.0509 128.975 27.0113 129.063 26.9901C129.087 26.9842 129.112 26.9801 129.137 26.978C129.159 26.974 129.181 26.9719 129.203 26.9716C129.277 26.9709 129.352 26.983 129.422 27.0074C129.522 27.0423 129.613 27.1019 129.684 27.1806C129.756 27.2593 129.807 27.3546 129.832 27.458L137.349 58.5121C137.369 58.5935 137.373 58.678 137.36 58.7607C137.347 58.8435 137.318 58.9229 137.274 58.9944C137.231 59.0658 137.173 59.128 137.106 59.1773C137.038 59.2267 136.961 59.2622 136.88 59.2818L82.4699 72.4533C82.3058 72.4928 82.1327 72.4654 81.9887 72.3773C81.8447 72.2891 81.7416 72.1473 81.7022 71.9832L74.1846 40.9291ZM95.642 44.0983L102.304 45.3661L104.432 45.7713C104.556 45.7945 104.684 45.7912 104.808 45.7614C104.931 45.7315 105.046 45.676 105.146 45.5983L106.855 44.2644L106.255 44.4095L104.99 45.397C104.918 45.4525 104.836 45.4922 104.748 45.5135C104.66 45.5348 104.568 45.5372 104.479 45.5206L102.904 45.2209L96.2416 43.9532L95.642 44.0983ZM95.642 44.0983L102.304 45.3661L104.432 45.7713C104.556 45.7945 104.684 45.7912 104.808 45.7614C104.931 45.7315 105.046 45.676 105.146 45.5983L106.855 44.2644L106.255 44.4095L104.99 45.397C104.918 45.4525 104.836 45.4922 104.748 45.5135C104.66 45.5348 104.568 45.5372 104.479 45.5206L102.904 45.2209L96.2416 43.9532L95.642 44.0983ZM95.642 44.0983L102.304 45.3661L104.432 45.7713C104.556 45.7945 104.684 45.7912 104.808 45.7614C104.931 45.7315 105.046 45.676 105.146 45.5983L106.855 44.2644L106.255 44.4095L104.99 45.397C104.918 45.4525 104.836 45.4922 104.748 45.5135C104.66 45.5348 104.568 45.5372 104.479 45.5206L102.904 45.2209L96.2416 43.9532L95.642 44.0983Z" fill="#333333"/>
<path d="M122.758 53.4267C122.636 52.9179 122.72 52.3812 122.993 51.9344C123.265 51.4876 123.704 51.1672 124.213 51.0434L131.08 49.381C131.588 49.2599 132.123 49.3451 132.569 49.618C133.014 49.8909 133.334 50.3292 133.456 50.8369C133.579 51.3447 133.496 51.8804 133.225 52.3268C132.953 52.7732 132.516 53.0939 132.009 53.2186L125.142 54.881C124.633 55.0036 124.096 54.9193 123.649 54.6467C123.202 54.374 122.882 53.9353 122.758 53.4267Z" fill="#13C4A3"/>
<path d="M46.8674 47.6596C47.8075 47.6596 48.5695 46.8976 48.5695 45.9575C48.5695 45.0174 47.8075 44.2554 46.8674 44.2554C45.9274 44.2554 45.1653 45.0174 45.1653 45.9575C45.1653 46.8976 45.9274 47.6596 46.8674 47.6596Z" fill="white"/>
</svg>
