<svg width="450" height="451" viewBox="0 0 450 451" fill="none" xmlns="http://www.w3.org/2000/svg">
<path d="M22.8527 315.934L63.9238 300.292C66.7618 299.211 68.1867 296.034 67.1057 293.196L45.4557 236.348C44.3747 233.51 41.1977 232.085 38.3597 233.166L12.3127 243.086L0.064743 271.546L15.7577 312.751C16.8377 315.591 20.0147 317.015 22.8527 315.934Z" fill="#EBEBEB"/>
<path d="M12.3127 243.087L18.4057 259.086C19.4107 261.726 18.0867 264.68 15.4477 265.686L0.0647087 271.547L12.3127 243.087Z" fill="#E0E0E0"/>
<path d="M21.6007 257.122C21.6787 257.327 25.9967 255.874 31.2427 253.876C36.4907 251.877 40.6807 250.091 40.6017 249.885C40.5237 249.679 36.2067 251.132 30.9587 253.131C25.7137 255.13 21.5227 256.916 21.6007 257.122Z" fill="white"/>
<path d="M12.7747 270.841C12.8527 271.047 19.9177 268.547 28.5517 265.258C37.1887 261.969 44.1257 259.136 44.0467 258.931C43.9687 258.725 36.9057 261.224 28.2677 264.514C19.6337 267.802 12.6967 270.636 12.7747 270.841Z" fill="white"/>
<path d="M12.8347 279.467C12.9127 279.673 20.6087 276.933 30.0207 273.348C39.4357 269.762 47.0027 266.69 46.9247 266.484C46.8467 266.279 39.1527 269.018 29.7377 272.604C20.3247 276.189 12.7567 279.262 12.8347 279.467Z" fill="white"/>
<path d="M15.5498 286.594C15.6278 286.8 23.3238 284.06 32.7348 280.476C42.1508 276.89 49.7168 273.818 49.6388 273.612C49.5608 273.407 41.8668 276.146 32.4518 279.732C23.0388 283.315 15.4708 286.389 15.5498 286.594Z" fill="white"/>
<path d="M18.2637 293.721C18.3417 293.927 26.0377 291.187 35.4487 287.603C44.8637 284.017 52.4307 280.945 52.3527 280.739C52.2747 280.533 44.5807 283.273 35.1657 286.859C25.7537 290.442 18.1847 293.515 18.2637 293.721Z" fill="white"/>
<path d="M20.9778 300.848C21.0558 301.054 28.7518 298.314 38.1638 294.729C47.5788 291.143 55.1458 288.071 55.0678 287.865C54.9898 287.659 47.2958 290.399 37.8808 293.984C28.4678 297.569 20.8988 300.642 20.9778 300.848Z" fill="white"/>
<path d="M80.7227 100.277H379.41V324.714H80.7227V100.277Z" fill="white"/>
<path d="M80.7226 324.714C80.7226 324.714 80.7386 324.352 80.7456 323.663C80.7506 322.971 80.7586 321.947 80.7686 320.597C80.7796 317.896 80.7956 313.893 80.8166 308.664C80.8416 298.221 80.8786 282.887 80.9266 263.306C80.9796 224.206 81.0566 168.144 81.1496 100.277L80.7226 100.704C165.046 100.73 268.165 100.763 379.385 100.798H379.41L378.889 100.277C378.907 180.969 378.924 257.388 378.94 324.714L379.41 324.244C290.954 324.34 216.337 324.421 163.828 324.478C137.538 324.532 116.783 324.574 102.596 324.603C95.4937 324.628 90.0356 324.646 86.3486 324.659C84.5046 324.671 83.1036 324.68 82.1596 324.686C81.6896 324.692 81.3347 324.696 81.0916 324.7C80.8506 324.705 80.7226 324.714 80.7226 324.714C80.7226 324.714 80.8326 324.723 81.0636 324.728C81.3006 324.731 81.6476 324.736 82.1056 324.742C83.0386 324.748 84.4216 324.757 86.2426 324.769C89.9086 324.782 95.3346 324.801 102.397 324.825C116.56 324.854 137.278 324.897 163.523 324.95C216.106 325.007 290.829 325.088 379.411 325.184L379.881 325.185V324.714C379.896 257.388 379.914 180.969 379.932 100.277V99.756H379.411H379.386C268.166 99.791 165.047 99.823 80.7236 99.85H80.2956L80.2966 100.277C80.3896 168.256 80.4656 224.409 80.5186 263.573C80.5656 283.113 80.6036 298.414 80.6286 308.835C80.6496 314.028 80.6666 318.004 80.6766 320.687C80.6866 322.018 80.6946 323.027 80.6996 323.708C80.7076 324.384 80.7226 324.714 80.7226 324.714Z" fill="#0A4137"/>
<path d="M82.2167 127.76C82.2167 127.778 82.4727 127.796 82.9717 127.813C83.4867 127.825 84.2247 127.841 85.1867 127.863C87.1507 127.884 90.0177 127.914 93.7047 127.953C101.102 128.013 111.807 128.041 125.033 128.038C151.486 128.037 188.029 127.84 228.387 127.513C268.752 127.189 305.29 126.895 331.754 126.683C344.97 126.579 355.666 126.495 363.078 126.437C366.765 126.391 369.631 126.356 371.594 126.331C372.556 126.308 373.294 126.29 373.809 126.277C374.308 126.259 374.564 126.241 374.564 126.223C374.564 126.205 374.308 126.187 373.809 126.17C373.294 126.159 372.556 126.142 371.594 126.12C369.63 126.099 366.764 126.069 363.077 126.03C355.68 125.97 344.977 125.942 331.751 125.945C305.298 125.946 268.751 126.143 228.379 126.47C188.028 126.794 151.494 127.088 125.03 127.3C111.814 127.404 101.117 127.488 93.7037 127.546C90.0167 127.592 87.1497 127.627 85.1857 127.652C84.2237 127.675 83.4857 127.693 82.9707 127.706C82.4727 127.724 82.2167 127.743 82.2167 127.76Z" fill="#0A4137"/>
<path d="M359.898 111.676C359.898 113.618 361.473 115.193 363.415 115.193C365.357 115.193 366.932 113.618 366.932 111.676C366.932 109.734 365.357 108.159 363.415 108.159C361.472 108.159 359.898 109.734 359.898 111.676Z" fill="#0A4137"/>
<path d="M345.829 111.676C345.829 113.618 347.404 115.193 349.346 115.193C351.288 115.193 352.863 113.618 352.863 111.676C352.863 109.734 351.288 108.159 349.346 108.159C347.404 108.159 345.829 109.734 345.829 111.676Z" fill="#0A4137"/>
<path d="M335.278 115.193C333.335 115.193 331.761 113.618 331.761 111.676C331.761 109.734 333.335 108.159 335.278 108.159C337.22 108.159 338.795 109.734 338.795 111.676C338.795 113.618 337.22 115.193 335.278 115.193Z" fill="#0A4137"/>
<path d="M265.967 258.048H327.346V303.997H265.967V258.048Z" fill="#EBEBEB"/>
<path d="M198.559 258.048H259.938V303.997H198.559V258.048Z" fill="#EBEBEB"/>
<path d="M119.997 258.048H181.376V303.997H119.997V258.048Z" fill="#EBEBEB"/>
<path d="M14.4725 148.541C16.3415 113.899 52.5415 96.475 71.0625 94.227L85.8806 111.676C73.9456 109.881 44.2775 126.441 42.8305 138.423C41.3825 150.405 50.5126 165.717 62.5316 166.817C71.9726 167.681 87.7065 159.303 93.7045 166.645C108.841 153.164 134.698 154.276 148.62 169.007C159.329 165.175 171.76 166.513 181.409 172.536C191.057 178.559 197.718 189.14 198.978 200.444L143.235 232.806C143.235 232.806 119.997 253.627 104.161 240.792C98.7526 236.408 96.6915 230.119 96.1875 224.057C95.1285 224.181 94.0496 224.121 93.0266 223.849C89.0035 222.778 86.0235 219.17 84.7115 215.219C84.5435 214.712 84.4065 214.193 84.2885 213.67C70.7515 216.64 52.2915 213.274 41.3995 206.475C25.5735 196.595 13.4675 167.172 14.4725 148.541Z" fill="#F5F5F5"/>
<path d="M89.7627 173.347C89.7707 173.352 89.8397 173.26 89.9677 173.075C90.1077 172.867 90.2917 172.595 90.5227 172.252C90.7597 171.886 91.0577 171.436 91.4517 170.935C91.8387 170.429 92.2587 169.825 92.8117 169.209C94.9277 166.696 98.3957 163.248 103.644 160.497C106.25 159.118 109.291 157.937 112.683 157.22C116.067 156.492 119.809 156.227 123.675 156.726C131.378 157.64 139.657 161.438 145.675 168.157C146.508 169.058 147.238 170.033 147.927 170.934L148.062 171.111L148.255 171.015C155.972 167.179 164.579 166.699 171.723 168.411C173.526 168.813 175.221 169.423 176.846 170.054C178.44 170.757 179.974 171.489 181.383 172.327C184.231 173.949 186.672 175.807 188.672 177.731C192.698 181.584 194.867 185.645 195.952 188.524C196.25 189.24 196.454 189.896 196.63 190.465C196.822 191.03 196.953 191.516 197.045 191.913C197.142 192.286 197.22 192.582 197.279 192.81C197.334 193.012 197.367 193.114 197.376 193.112C197.385 193.11 197.369 193.004 197.33 192.799C197.283 192.568 197.221 192.267 197.144 191.888C197.068 191.486 196.952 190.993 196.774 190.421C196.613 189.844 196.422 189.179 196.137 188.453C195.102 185.534 192.961 181.4 188.922 177.471C186.916 175.509 184.462 173.614 181.596 171.959C180.178 171.105 178.636 170.358 177.02 169.637C175.376 168.989 173.659 168.363 171.834 167.949C164.598 166.187 155.868 166.652 148.024 170.547L148.351 170.628C147.652 169.712 146.91 168.721 146.064 167.806C139.951 160.983 131.55 157.148 123.734 156.246C119.812 155.753 116.016 156.039 112.593 156.794C109.162 157.539 106.095 158.753 103.473 160.167C98.1937 162.988 94.7367 166.507 92.6567 169.075C92.1127 169.705 91.7027 170.321 91.3267 170.839C90.9437 171.352 90.6587 171.812 90.4347 172.189C90.2207 172.544 90.0517 172.826 89.9217 173.041C89.8087 173.241 89.7547 173.342 89.7627 173.347Z" fill="#0A4137"/>
<path d="M78.9906 166.108C79.0466 166.189 79.7686 165.659 81.0866 165.166C81.7416 164.911 82.5586 164.712 83.4746 164.582C84.3946 164.478 85.4166 164.461 86.4776 164.597C87.5366 164.751 88.5166 165.042 89.3746 165.389C90.2226 165.76 90.9546 166.171 91.5176 166.593C92.6556 167.422 93.2086 168.126 93.2836 168.063C93.3116 168.041 93.1926 167.853 92.9486 167.528C92.7146 167.196 92.3016 166.768 91.7426 166.302C91.1866 165.827 90.4426 165.362 89.5666 164.95C88.6806 164.562 87.6566 164.242 86.5476 164.082C85.4376 163.939 84.3646 163.973 83.4076 164.108C82.4536 164.27 81.6116 164.517 80.9486 164.826C80.2846 165.125 79.7726 165.426 79.4576 165.684C79.1346 165.93 78.9686 166.079 78.9906 166.108Z" fill="#0A4137"/>
<path d="M63.2385 187.176C63.2605 187.217 63.8045 186.895 64.8755 186.512C65.9415 186.138 67.5765 185.724 69.6275 185.838C71.6575 185.946 74.1335 186.629 76.2485 188.392C78.3535 190.113 80.0905 192.862 80.4585 196.067L80.5055 196.479L80.8535 196.254C81.9565 195.542 83.1985 194.926 84.5195 194.455C88.0285 193.184 91.7135 193.1 94.8525 193.807C98.0035 194.538 100.588 196.043 102.459 197.61C104.342 199.184 105.551 200.793 106.299 201.941C107.039 203.1 107.357 203.799 107.403 203.776C107.419 203.769 107.35 203.59 107.204 203.255C107.064 202.917 106.816 202.438 106.471 201.834C105.768 200.641 104.588 198.97 102.699 197.329C100.823 195.696 98.1955 194.117 94.9625 193.339C91.7435 192.586 87.9545 192.657 84.3455 193.964C82.9865 194.448 81.7095 195.084 80.5755 195.821L80.9715 196.008C80.5745 192.649 78.7445 189.804 76.5375 188.037C74.3155 186.226 71.7305 185.559 69.6445 185.495C67.5335 185.425 65.8735 185.902 64.8115 186.336C64.2765 186.554 63.8785 186.759 63.6215 186.917C63.3615 187.075 63.2305 187.162 63.2385 187.176Z" fill="#0A4137"/>
<path d="M20.0576 128.309C20.0416 128.301 19.9035 128.541 19.6535 129.008C19.4125 129.479 19.0255 130.16 18.6025 131.073C17.7745 132.905 16.6696 135.617 15.8026 139.12C14.9316 142.617 14.3346 146.897 14.2896 151.664C14.2786 154.046 14.3766 156.55 14.6686 159.127C14.9276 161.707 15.3656 164.359 15.9486 167.045C18.2876 177.81 22.5566 186.962 26.4106 193.028C28.3216 196.082 30.1506 198.368 31.5096 199.853C32.2036 200.583 32.7466 201.146 33.1506 201.49C33.5436 201.846 33.7545 202.026 33.7665 202.013C33.7785 202 33.5906 201.794 33.2236 201.415C32.8446 201.048 32.3275 200.465 31.6615 199.719C30.3565 198.201 28.5845 195.896 26.7235 192.834C22.9715 186.752 18.7815 177.63 16.4585 166.935C15.8795 164.267 15.4406 161.633 15.1766 159.073C14.8806 156.515 14.7725 154.031 14.7705 151.667C14.7895 146.936 15.3435 142.688 16.1625 139.206C16.9775 135.719 18.0226 133.005 18.7896 131.156C19.1826 130.235 19.5386 129.541 19.7496 129.056C19.9656 128.575 20.0736 128.317 20.0576 128.309Z" fill="#0A4137"/>
<path d="M47.7156 129.661C47.6936 129.641 47.3476 129.967 46.7886 130.621C46.2286 131.273 45.4845 132.278 44.7185 133.616C43.1805 136.263 41.6906 140.438 41.8416 145.187C41.9956 149.938 43.7505 154.008 45.4555 156.551C46.3055 157.837 47.1135 158.792 47.7135 159.406C48.3125 160.022 48.6786 160.326 48.6996 160.304C48.7806 160.231 47.3645 158.939 45.7655 156.353C44.1665 153.799 42.5115 149.803 42.3605 145.169C42.2135 140.537 43.6085 136.443 45.0405 133.792C46.4715 131.109 47.8016 129.728 47.7156 129.661Z" fill="#0A4137"/>
<path d="M84.3777 102.804C81.8337 106.714 78.4887 110.095 74.6307 112.716C72.1087 114.429 68.8627 111.894 69.8767 109.019L69.9037 108.943C65.3597 112.421 60.5877 115.601 55.6287 118.456C52.4607 120.28 48.7427 117.172 49.9947 113.738C54.9027 100.283 64.7797 88.632 77.4047 81.827L84.3777 102.804Z" fill="#13C4A3"/>
<g opacity="0.3">
<path d="M78.6167 103.282C78.1747 103.945 77.7157 104.625 77.0527 105.067C76.3897 105.508 75.4627 105.654 74.8057 105.203C73.8237 104.529 73.8617 102.907 72.8467 102.284C71.7687 101.622 70.4397 102.552 69.5237 103.426C68.5557 104.349 67.5867 105.272 66.6187 106.196C65.9067 106.875 64.9477 107.607 64.0387 107.232C63.0327 106.817 62.9697 105.42 63.1887 104.353C64.2047 99.412 67.8207 95.083 72.5027 93.205L78.6167 103.282Z" fill="black"/>
</g>
<path d="M40.1168 127.107C40.2088 128.861 38.7198 130.547 36.9678 130.672C35.2158 130.797 33.5028 129.339 33.3458 127.589C33.1888 125.839 34.6148 124.1 36.3618 123.91C38.1088 123.721 39.8738 125.115 40.0958 126.857" fill="#13C4A3"/>
<path d="M223.985 6.44301C226.799 10.83 220.632 26.17 206.494 45.816C192.574 65.159 176.53 75.998 176.53 75.998L94.9917 128.304L81.2097 106.819L73.2217 94.367L59.4397 72.882L133.431 25.417C140.661 20.779 148.301 16.808 156.281 13.629C163.142 10.895 171.749 7.93601 180.904 5.92501C204.451 0.754011 221.171 2.05601 223.985 6.44301Z" fill="#F5F5F5"/>
<path d="M110.531 40.108C110.487 40.092 110.385 40.057 110.231 40.005C92.6867 34.109 73.4118 36.528 57.8328 46.522L48.0618 52.79L73.9928 63.548L110.531 40.108Z" fill="#13C4A3"/>
<path d="M110.531 40.108C110.526 40.109 110.463 40.147 110.343 40.222C110.213 40.304 110.039 40.413 109.814 40.554C109.341 40.854 108.661 41.284 107.784 41.839C106.01 42.966 103.44 44.598 100.202 46.655C93.7367 50.775 84.6097 56.591 73.9057 63.412L74.0537 63.399C66.7787 60.377 58.7887 57.057 50.4217 53.582C49.6357 53.256 48.8537 52.931 48.1277 52.63L48.1547 52.934C50.1007 51.685 52.0227 50.452 53.9147 49.237C55.8137 48.036 57.6527 46.792 59.5227 45.698C63.2407 43.467 67.0557 41.718 70.8037 40.398C74.5487 39.06 78.2457 38.216 81.7307 37.684C83.4687 37.374 85.1717 37.267 86.7987 37.102C88.4337 37.044 90.0017 36.922 91.4997 36.979C97.4977 37.028 102.294 37.922 105.531 38.722C107.167 39.073 108.392 39.507 109.241 39.736C109.99 39.953 110.339 40.053 110.531 40.108C110.531 40.108 110.436 40.064 110.214 39.982C109.987 39.909 109.67 39.806 109.262 39.674C108.419 39.424 107.198 38.969 105.563 38.597C102.329 37.756 97.5237 36.822 91.5027 36.742C89.9987 36.677 88.4247 36.792 86.7817 36.843C85.1467 37.002 83.4357 37.102 81.6887 37.407C78.1857 37.929 74.4677 38.766 70.7007 40.103C66.9297 41.421 63.0907 43.172 59.3497 45.412C57.4637 46.512 55.6317 47.749 53.7297 48.951C51.8367 50.165 49.9147 51.397 47.9677 52.645L47.6897 52.823L47.9947 52.949C48.7207 53.25 49.5027 53.575 50.2887 53.901C58.6587 57.369 66.6517 60.68 73.9297 63.695L74.0077 63.727L74.0777 63.682C84.7887 56.766 93.9237 50.867 100.393 46.69C103.593 44.617 106.133 42.971 107.886 41.835C108.741 41.279 109.404 40.848 109.865 40.549C110.079 40.409 110.245 40.3 110.368 40.219C110.481 40.145 110.536 40.108 110.531 40.108Z" fill="#0A4137"/>
<path d="M146.083 95.53C146.08 95.576 146.069 95.681 146.052 95.841C144.123 113.995 134.027 130.282 118.661 140.139L109.023 146.322L110.042 118.65L146.083 95.53Z" fill="#13C4A3"/>
<path d="M146.083 95.53C146.085 95.526 146.03 95.56 145.917 95.629C145.793 95.706 145.628 95.81 145.414 95.944C144.955 96.234 144.297 96.651 143.447 97.189C141.707 98.294 139.187 99.894 136.013 101.91C129.607 105.992 120.562 111.756 109.955 118.515L109.885 118.56L109.882 118.644C109.592 126.409 109.274 134.937 108.941 143.867C108.91 144.706 108.88 145.541 108.851 146.315L108.839 146.645L109.117 146.467C111.036 145.235 112.932 144.019 114.798 142.821C116.658 141.61 118.52 140.476 120.282 139.238C123.828 136.805 126.977 134.083 129.709 131.244C132.457 128.415 134.736 125.426 136.645 122.501C137.638 121.06 138.431 119.567 139.246 118.167C139.967 116.715 140.718 115.351 141.278 113.976C143.682 108.545 144.82 103.852 145.396 100.607C145.735 98.989 145.829 97.707 145.952 96.848C146.001 96.428 146.04 96.102 146.067 95.868C146.084 95.633 146.083 95.53 146.083 95.53C146.053 95.727 145.999 96.081 145.883 96.838C145.738 97.693 145.624 98.97 145.266 100.581C144.651 103.812 143.481 108.48 141.058 113.877C140.494 115.244 139.739 116.599 139.015 118.041C138.198 119.432 137.402 120.915 136.409 122.346C134.499 125.251 132.222 128.219 129.482 131.026C126.758 133.844 123.621 136.545 120.091 138.961C118.342 140.188 116.471 141.325 114.612 142.533C112.745 143.73 110.849 144.946 108.929 146.177L109.194 146.329C109.223 145.555 109.253 144.72 109.284 143.881C109.608 134.951 109.918 126.422 110.201 118.657L110.127 118.786C120.643 111.995 129.612 106.203 135.964 102.101C139.139 100.044 141.66 98.411 143.399 97.283C144.258 96.725 144.923 96.293 145.387 95.991C145.606 95.847 145.776 95.736 145.903 95.653C146.021 95.575 146.081 95.533 146.083 95.53Z" fill="#0A4137"/>
<path d="M223.985 6.44301C226.287 9.75201 222.965 19.781 214.865 33.202L192.93 3.65201C208.704 1.70601 221.028 2.19301 223.985 6.44301Z" fill="#13C4A3"/>
<path d="M73.0407 64.948C72.9597 64.999 80.7017 77.369 90.3307 92.574C99.9627 107.784 107.834 120.069 107.914 120.018C107.994 119.967 100.254 107.599 90.6217 92.389C80.9937 77.185 73.1207 64.897 73.0407 64.948Z" fill="#0A4137"/>
<path d="M70.7255 66.779C70.6445 66.83 78.3865 79.2 88.0155 94.405C97.6475 109.615 105.519 121.9 105.599 121.849C105.679 121.798 97.9385 109.431 88.3065 94.221C78.6795 79.016 70.8065 66.728 70.7255 66.779Z" fill="#0A4137"/>
<path d="M68.0907 68.409C68.0097 68.46 75.7517 80.83 85.3807 96.035C95.0127 111.245 102.884 123.53 102.964 123.479C103.045 123.428 95.3037 111.06 85.6717 95.85C76.0437 80.645 68.1707 68.358 68.0907 68.409Z" fill="#0A4137"/>
<path d="M65.4547 70.038C65.3737 70.089 73.1157 82.459 82.7447 97.664C92.3767 112.874 100.248 125.159 100.328 125.108C100.409 125.057 92.6677 112.689 83.0357 97.479C73.4077 82.275 65.5347 69.987 65.4547 70.038Z" fill="#0A4137"/>
<path d="M62.8185 71.668C62.7385 71.719 70.4795 84.089 80.1085 99.294C89.7405 114.504 97.6115 126.789 97.6915 126.738C97.7725 126.687 90.0315 114.32 80.3995 99.11C70.7715 83.904 62.8995 71.617 62.8185 71.668Z" fill="#0A4137"/>
<path d="M128.177 67.749C128.174 67.738 128.032 67.8 127.758 67.932C127.476 68.056 127.107 68.293 126.61 68.576C125.626 69.154 124.223 70.022 122.499 71.109C119.051 73.284 114.323 76.341 109.121 79.75C103.918 83.16 99.2267 86.275 95.8417 88.545C94.1787 89.67 92.8217 90.589 91.8447 91.25C91.4007 91.56 91.0427 91.809 90.7677 92.001C90.5237 92.176 90.3987 92.273 90.4057 92.283C90.4127 92.293 90.5497 92.216 90.8067 92.06C91.0907 91.882 91.4597 91.651 91.9187 91.363C92.9107 90.724 94.2887 89.837 95.9767 88.749C99.4187 86.501 104.118 83.431 109.311 80.039C114.498 76.642 119.192 73.568 122.631 71.315C124.315 70.224 125.69 69.332 126.68 68.691C127.163 68.392 127.529 68.133 127.788 67.995C128.044 67.846 128.18 67.761 128.177 67.749Z" fill="#0A4137"/>
<path d="M110.531 40.108C110.451 40.159 118.268 52.509 127.989 67.688C137.714 82.873 145.659 95.136 145.74 95.085C145.82 95.034 138.005 82.687 128.28 67.502C118.559 52.323 110.611 40.057 110.531 40.108Z" fill="#0A4137"/>
<path d="M98.4366 80.557C98.4536 80.559 98.5056 80.384 98.4606 80.064C98.4176 79.749 98.2446 79.282 97.8166 78.875C97.4106 78.472 96.6566 78.145 95.8766 78.389C95.1246 78.607 94.3926 79.301 94.2906 80.247C94.2156 81.196 94.8076 82.014 95.5066 82.366C96.2286 82.75 97.0296 82.568 97.5036 82.246C97.9996 81.925 98.2546 81.498 98.3556 81.196C98.4586 80.889 98.4396 80.707 98.4226 80.707C98.3936 80.702 98.3646 80.875 98.2316 81.144C98.1016 81.41 97.8356 81.776 97.3766 82.037C96.9296 82.3 96.2536 82.422 95.6536 82.084C95.0636 81.772 94.5676 81.051 94.6336 80.278C94.7106 79.506 95.3306 78.89 95.9686 78.692C96.6206 78.471 97.2626 78.715 97.6536 79.056C98.0566 79.397 98.2506 79.806 98.3296 80.091C98.4106 80.382 98.4076 80.556 98.4366 80.557Z" fill="#0A4137"/>
<path d="M114.009 70.156C114.026 70.159 114.078 69.983 114.033 69.663C113.99 69.347 113.817 68.881 113.389 68.474C112.983 68.07 112.229 67.744 111.449 67.988C110.697 68.206 109.965 68.9 109.863 69.846C109.788 70.795 110.38 71.613 111.079 71.965C111.801 72.349 112.602 72.166 113.076 71.845C113.572 71.524 113.827 71.097 113.928 70.795C114.031 70.488 114.012 70.307 113.995 70.306C113.966 70.301 113.937 70.474 113.804 70.743C113.674 71.009 113.408 71.375 112.949 71.636C112.502 71.899 111.826 72.021 111.226 71.683C110.635 71.371 110.14 70.65 110.206 69.877C110.284 69.105 110.903 68.489 111.541 68.291C112.193 68.069 112.835 68.314 113.226 68.655C113.629 68.996 113.823 69.405 113.902 69.69C113.983 69.98 113.979 70.155 114.009 70.156Z" fill="#0A4137"/>
<path d="M143.995 62.915C144.012 62.918 144.064 62.742 144.019 62.422C143.976 62.106 143.803 61.64 143.375 61.233C142.969 60.829 142.215 60.503 141.435 60.747C140.683 60.965 139.951 61.659 139.849 62.605C139.774 63.554 140.366 64.372 141.065 64.724C141.787 65.108 142.588 64.926 143.062 64.604C143.558 64.283 143.813 63.856 143.914 63.554C144.017 63.247 143.998 63.065 143.981 63.065C143.951 63.06 143.923 63.233 143.79 63.502C143.66 63.768 143.394 64.134 142.935 64.395C142.488 64.658 141.812 64.78 141.212 64.442C140.622 64.13 140.126 63.409 140.192 62.636C140.27 61.864 140.889 61.248 141.527 61.05C142.179 60.828 142.821 61.073 143.212 61.414C143.615 61.755 143.809 62.164 143.888 62.45C143.969 62.74 143.965 62.914 143.995 62.915Z" fill="#0A4137"/>
<path d="M157.346 59.668C157.287 59.59 151.568 62.742 144.573 66.708C137.576 70.675 131.953 73.954 132.012 74.032C132.071 74.11 137.789 70.958 144.786 66.991C151.781 63.026 157.405 59.747 157.346 59.668Z" fill="#0A4137"/>
<g opacity="0.3">
<path d="M110.984 118.045C110.984 118.045 134.299 102.322 146.083 95.53C142.015 101.366 137.32 107.988 131.671 112.309C125.963 116.674 118.126 118.832 110.984 118.045Z" fill="black"/>
</g>
<path d="M148.85 48.6546C145.78 38.2047 151.762 27.2442 162.212 24.1737C172.662 21.1032 183.623 27.0854 186.693 37.5354C189.764 47.9853 183.781 58.9458 173.331 62.0163C162.881 65.0868 151.921 59.1046 148.85 48.6546Z" fill="white"/>
<path d="M148.083 44.201C148.092 44.2 148.1 44.092 148.108 43.88C148.113 43.641 148.12 43.331 148.128 42.943C148.124 42.531 148.136 42.023 148.22 41.426C148.284 40.828 148.337 40.136 148.525 39.377C148.792 37.842 149.407 36.012 150.423 34.054C151.449 32.103 152.967 30.041 155.088 28.246C157.203 26.466 159.908 24.902 163.089 24.154C166.249 23.427 169.856 23.323 173.358 24.433C175.117 24.934 176.833 25.746 178.427 26.803C179.248 27.301 179.977 27.941 180.738 28.553C181.433 29.24 182.16 29.909 182.77 30.699C185.343 33.744 186.924 37.757 187.203 41.969C187.406 46.187 186.291 50.355 184.08 53.674C183.564 54.528 182.917 55.276 182.305 56.037C181.619 56.732 180.967 57.451 180.207 58.039C178.743 59.271 177.131 60.272 175.439 60.97C172.085 62.47 168.489 62.777 165.267 62.414C162.022 62.031 159.156 60.785 156.853 59.257C154.542 57.714 152.799 55.838 151.558 54.016C150.326 52.186 149.507 50.438 149.068 48.944C148.795 48.211 148.664 47.53 148.532 46.943C148.38 46.36 148.311 45.856 148.268 45.447C148.216 45.062 148.174 44.755 148.142 44.518C148.113 44.308 148.092 44.2 148.083 44.201C148.074 44.201 148.077 44.31 148.091 44.521C148.11 44.76 148.135 45.07 148.166 45.459C148.192 45.873 148.245 46.382 148.382 46.973C148.498 47.567 148.616 48.258 148.876 49.004C149.29 50.523 150.091 52.306 151.318 54.179C152.554 56.043 154.306 57.97 156.648 59.562C158.981 61.139 161.898 62.432 165.214 62.842C168.505 63.233 172.186 62.935 175.63 61.411C177.366 60.701 179.023 59.68 180.527 58.421C181.307 57.819 181.978 57.085 182.683 56.373C183.314 55.594 183.977 54.827 184.51 53.952C185.606 52.237 186.539 50.346 187.054 48.294C187.592 46.254 187.821 44.105 187.725 41.939C187.44 37.616 185.81 33.493 183.165 30.374C182.537 29.566 181.79 28.879 181.076 28.177C180.295 27.55 179.545 26.896 178.702 26.387C177.065 25.307 175.303 24.481 173.498 23.973C169.904 22.85 166.213 22.972 162.988 23.735C159.741 24.519 156.99 26.136 154.851 27.967C152.705 29.815 151.183 31.928 150.167 33.92C149.16 35.92 148.568 37.782 148.328 39.339C148.154 40.109 148.116 40.809 148.068 41.413C147.999 42.016 148.004 42.528 148.025 42.942C148.038 43.332 148.049 43.642 148.057 43.882C148.065 44.094 148.074 44.201 148.083 44.201Z" fill="#0A4137"/>
<path d="M223.985 6.44301C223.985 6.44301 223.945 6.37702 223.855 6.25102C223.773 6.11902 223.625 5.94302 223.403 5.73002C222.963 5.30602 222.202 4.78101 221.098 4.32202C218.891 3.39702 215.383 2.71902 210.838 2.53302C206.291 2.33402 200.697 2.59101 194.252 3.42801C187.811 4.28001 180.49 5.62102 172.56 7.86402C168.598 8.99101 164.486 10.334 160.254 11.899C156.023 13.464 151.664 15.252 147.276 17.394C142.889 19.534 138.453 21.982 134.041 24.776C129.649 27.587 125.12 30.486 120.464 33.465C101.85 45.395 81.2217 58.616 59.3007 72.665L59.0837 72.804L59.2227 73.021C64.9277 81.916 70.9067 91.238 76.9937 100.73C83.0847 110.223 89.0667 119.547 94.7747 128.443L94.9137 128.66L95.1307 128.521C117.047 114.449 137.669 101.209 156.275 89.262C160.925 86.274 165.45 83.367 169.837 80.548C172.03 79.138 174.189 77.751 176.313 76.386C178.42 74.965 180.366 73.422 182.257 71.876C189.794 65.661 196.095 59.104 201.35 52.763C206.541 46.361 210.702 40.199 214.119 34.673C217.525 29.139 220.113 24.18 221.874 19.984C223.643 15.795 224.558 12.345 224.676 9.95402C224.737 8.76002 224.587 7.84601 224.387 7.26901C224.287 6.97901 224.19 6.77102 224.104 6.64102C224.028 6.50702 223.985 6.44301 223.985 6.44301C223.957 6.45701 224.167 6.70302 224.343 7.28502C224.525 7.86102 224.658 8.76501 224.582 9.94901C224.434 12.32 223.495 15.746 221.704 19.912C219.922 24.085 217.314 29.022 213.892 34.533C210.459 40.035 206.281 46.178 201.088 52.547C195.828 58.857 189.527 65.383 182.002 71.564C180.117 73.099 178.165 74.64 176.084 76.037C173.958 77.398 171.797 78.782 169.602 80.188C165.211 83 160.682 85.9 156.028 88.881C137.413 100.812 116.781 114.035 94.8547 128.087L95.2097 128.165C89.5037 119.268 83.5227 109.943 77.4337 100.449C71.3447 90.959 65.3637 81.638 59.6577 72.744L59.5797 73.1C81.4887 59.033 102.107 45.795 120.711 33.85C125.361 30.864 129.885 27.959 134.273 25.142C138.667 22.35 143.085 19.901 147.455 17.759C151.826 15.615 156.166 13.823 160.386 12.251C164.606 10.679 168.706 9.32901 172.656 8.19301C180.56 5.93401 187.865 4.57102 194.29 3.69502C200.72 2.83402 206.3 2.54901 210.834 2.71901C215.367 2.87601 218.863 3.52202 221.065 4.41102C222.166 4.85302 222.927 5.35902 223.373 5.76602C223.824 6.17002 223.961 6.46201 223.985 6.44301Z" fill="#0A4137"/>
<path d="M143.235 232.807H316.898C328.238 232.807 337.432 223.614 337.432 212.273C337.432 200.933 328.239 191.739 316.898 191.739H143.234C131.893 191.739 122.7 200.932 122.7 212.273C122.701 223.614 131.894 232.807 143.235 232.807Z" fill="white"/>
<path d="M143.235 232.807C143.235 232.807 142.819 232.768 142.008 232.718C141.603 232.692 141.097 232.681 140.505 232.564C139.915 232.452 139.213 232.405 138.455 232.17C138.072 232.07 137.667 231.963 137.24 231.851C136.82 231.716 136.388 231.54 135.929 231.375C135.701 231.289 135.467 231.201 135.229 231.111C134.999 230.999 134.765 230.885 134.525 230.768C134.051 230.524 133.531 230.32 133.05 229.996C131.052 228.848 128.925 227.155 127.097 224.773C126.644 224.176 126.18 223.56 125.795 222.867C125.359 222.205 125.009 221.472 124.658 220.718C124.274 219.978 124.055 219.148 123.736 218.338C123.628 217.916 123.52 217.489 123.41 217.057L123.244 216.406L123.141 215.734C123.073 215.284 123.004 214.828 122.935 214.368C122.912 213.903 122.889 213.434 122.866 212.959L122.834 212.244L122.872 211.522C122.903 211.039 122.91 210.548 122.962 210.057C123.195 208.093 123.717 206.093 124.546 204.137C126.25 200.254 129.361 196.623 133.608 194.324C135.727 193.18 138.125 192.411 140.645 192.097C143.161 191.811 145.811 191.956 148.5 191.923C191.606 191.943 251.136 191.97 316.888 191.999C318.919 192.04 320.934 192.322 322.871 192.896C324.791 193.518 326.615 194.395 328.288 195.501C329.937 196.644 331.406 198.019 332.675 199.552C333.933 201.099 334.912 202.844 335.683 204.661C336.444 206.49 336.853 208.434 337.079 210.379C337.24 212.336 337.139 214.3 336.785 216.216C336.366 218.114 335.764 219.973 334.853 221.68C333.924 223.367 332.837 224.975 331.487 226.338C328.825 229.084 325.419 231.071 321.761 231.943C320.86 232.222 319.917 232.282 318.997 232.447C318.059 232.483 317.141 232.578 316.193 232.556C314.309 232.557 312.435 232.557 310.57 232.558C303.112 232.561 295.811 232.564 288.687 232.567C260.194 232.588 234.535 232.607 212.984 232.623C191.442 232.658 174.008 232.686 161.948 232.706C155.93 232.727 151.255 232.744 148.072 232.755C146.493 232.766 145.287 232.775 144.464 232.781C143.651 232.789 143.235 232.807 143.235 232.807C143.235 232.807 143.651 232.825 144.464 232.834C145.287 232.84 146.494 232.849 148.072 232.86C151.254 232.871 155.929 232.888 161.948 232.909C174.008 232.929 191.442 232.957 212.984 232.992C234.535 233.008 260.194 233.027 288.687 233.048C295.811 233.051 303.112 233.054 310.57 233.057C312.435 233.058 314.309 233.058 316.193 233.059C317.13 233.082 318.096 232.987 319.049 232.949C319.992 232.782 320.958 232.719 321.882 232.435C325.632 231.542 329.125 229.508 331.854 226.694C333.238 225.298 334.354 223.651 335.307 221.921C336.241 220.171 336.861 218.266 337.29 216.319C337.654 214.355 337.758 212.341 337.593 210.335C337.363 208.34 336.943 206.346 336.163 204.47C335.373 202.606 334.369 200.816 333.079 199.23C331.778 197.658 330.271 196.248 328.58 195.075C326.864 193.94 324.994 193.04 323.024 192.402C321.037 191.812 318.969 191.523 316.888 191.482C251.136 191.512 191.606 191.539 148.5 191.558C145.807 191.597 143.18 191.455 140.601 191.753C138.039 192.078 135.602 192.867 133.452 194.035C129.141 196.383 125.995 200.079 124.28 204.023C123.445 206.01 122.923 208.04 122.695 210.031C122.644 210.528 122.639 211.025 122.609 211.515L122.574 212.247L122.609 212.971C122.634 213.451 122.66 213.926 122.685 214.397C122.757 214.862 122.828 215.323 122.899 215.779L123.006 216.458L123.177 217.117C123.29 217.554 123.402 217.985 123.513 218.412C123.839 219.23 124.065 220.069 124.456 220.816C124.814 221.577 125.172 222.315 125.615 222.983C126.007 223.682 126.479 224.301 126.94 224.902C128.798 227.298 130.954 228.993 132.976 230.135C133.462 230.458 133.989 230.66 134.467 230.902C134.709 231.017 134.946 231.131 135.178 231.241C135.419 231.33 135.655 231.416 135.885 231.501C136.348 231.664 136.784 231.836 137.208 231.968C137.639 232.077 138.047 232.179 138.433 232.277C139.197 232.504 139.903 232.544 140.497 232.647C141.092 232.756 141.6 232.758 142.007 232.775C142.819 232.804 143.235 232.807 143.235 232.807Z" fill="#121212"/>
<path d="M144.656 217.611C141.088 214.042 141.088 208.257 144.656 204.689C148.224 201.121 154.009 201.121 157.577 204.689C161.146 208.257 161.146 214.042 157.577 217.611C154.009 221.179 148.224 221.179 144.656 217.611Z" fill="white"/>
<path d="M151.112 220.786C156.426 220.786 160.749 216.463 160.749 211.149C160.749 205.836 156.426 201.512 151.112 201.512C145.799 201.512 141.475 205.835 141.475 211.149C141.476 216.463 145.799 220.786 151.112 220.786ZM151.112 202.513C155.875 202.513 159.749 206.388 159.749 211.15C159.749 215.912 155.875 219.787 151.112 219.787C146.349 219.787 142.475 215.912 142.475 211.15C142.476 206.387 146.35 202.513 151.112 202.513Z" fill="#0A4137"/>
<path d="M143.467 216.114L144.001 216.96L136.267 221.843L135.733 220.997L143.467 216.114Z" fill="#0A4137"/>
<path d="M374.358 70.71L406.601 53.684C408.829 52.507 409.681 49.747 408.505 47.519L384.938 2.89102C383.761 0.663024 381.001 -0.189975 378.773 0.987025L358.325 11.785L351.111 36.458L368.193 68.806C369.369 71.035 372.129 71.887 374.358 70.71Z" fill="#13C4A3"/>
<g opacity="0.3">
<path d="M358.325 11.785L364.957 24.345C366.051 26.417 365.259 28.984 363.187 30.079L351.111 36.458L358.325 11.785Z" fill="white"/>
</g>
<g opacity="0.2">
<path d="M365.374 25.535C365.374 25.535 367.141 28.497 364.202 31.33C364.092 31.436 363.973 31.535 363.852 31.629C362.424 32.744 353.018 40.072 352.892 39.834C352.756 39.576 351.11 36.459 351.11 36.459L363.187 30.081C363.187 30.081 366.149 28.385 365.374 25.535Z" fill="black"/>
</g>
<path d="M367.39 22.405C367.475 22.566 370.884 20.934 375.003 18.759C379.123 16.583 382.393 14.69 382.308 14.528C382.223 14.367 378.815 15.999 374.695 18.174C370.575 20.349 367.305 22.244 367.39 22.405Z" fill="#FAFAFA"/>
<path d="M361.506 34.594C361.591 34.755 367.157 31.984 373.935 28.404C380.716 24.823 386.142 21.791 386.057 21.629C385.972 21.468 380.407 24.239 373.627 27.819C366.848 31.399 361.421 34.433 361.506 34.594Z" fill="#FAFAFA"/>
<path d="M362.427 41.692C362.512 41.853 368.573 38.82 375.962 34.919C383.354 31.016 389.275 27.722 389.189 27.56C389.104 27.399 383.045 30.431 375.653 34.334C368.264 38.236 362.342 41.53 362.427 41.692Z" fill="#FAFAFA"/>
<path d="M365.381 47.286C365.466 47.448 371.527 44.415 378.916 40.513C386.308 36.61 392.229 33.316 392.143 33.154C392.058 32.993 385.999 36.025 378.607 39.928C371.218 43.83 365.296 47.125 365.381 47.286Z" fill="#FAFAFA"/>
<path d="M368.336 52.881C368.421 53.042 374.482 50.01 381.871 46.108C389.263 42.205 395.184 38.911 395.098 38.749C395.013 38.588 388.954 41.62 381.562 45.523C374.173 49.425 368.25 52.72 368.336 52.881Z" fill="#FAFAFA"/>
<path d="M371.29 58.476C371.375 58.637 377.436 55.604 384.825 51.703C392.217 47.8 398.138 44.506 398.052 44.344C397.967 44.183 391.908 47.215 384.516 51.118C377.127 55.02 371.205 58.315 371.29 58.476Z" fill="#FAFAFA"/>
<path d="M215.443 406.256C218.285 405.847 220.257 403.212 219.849 400.371L213.417 355.643C213.09 353.367 210.854 351.805 208.424 352.155L204.218 352.76C202.502 353.007 200.808 352.296 199.878 350.94L198.711 349.236C197.782 347.88 196.088 347.17 194.371 347.417L174.406 350.288C172.85 350.512 171.52 351.489 170.909 352.857L170.152 354.552C169.541 355.921 168.211 356.897 166.655 357.121L141.205 360.781C138.775 361.13 137.07 363.259 137.397 365.535L143.975 411.282C144.384 414.124 147.018 416.096 149.86 415.687L215.443 406.256Z" fill="#455A64"/>
<g opacity="0.3">
<path d="M215.443 406.256C218.285 405.847 220.257 403.212 219.849 400.371L213.417 355.643C213.09 353.367 210.854 351.805 208.424 352.155L204.218 352.76C202.502 353.007 200.808 352.296 199.878 350.94L198.711 349.236C197.782 347.88 196.088 347.17 194.371 347.417L174.406 350.288C172.85 350.512 171.52 351.489 170.909 352.857L170.152 354.552C169.541 355.921 168.211 356.897 166.655 357.121L141.205 360.781C138.775 361.13 137.07 363.259 137.397 365.535L143.975 411.282C144.384 414.124 147.018 416.096 149.86 415.687L215.443 406.256Z" fill="black"/>
</g>
<path d="M169.167 356.76L185.352 354.397L186.409 351.484C187.095 349.594 188.851 348.211 190.947 347.91L206.772 345.634C209.589 345.229 212.18 347.039 212.559 349.677L212.824 351.522L219.808 400.089C220.239 403.086 217.994 405.889 214.794 406.349L150.51 415.593C147.31 416.053 144.366 413.997 143.935 410.999L137.338 365.119C137.044 363.072 138.464 361.174 140.511 360.88L169.167 356.76Z" fill="#333333"/>
<path d="M156.189 376.718L194.447 371.218L196.761 387.314L158.503 392.814L156.189 376.718Z" fill="white"/>
<path d="M163.107 382.983C163.128 383.125 169.029 382.395 176.287 381.351C183.547 380.307 189.415 379.346 189.394 379.203C189.374 379.061 183.473 379.791 176.213 380.835C168.955 381.879 163.087 382.841 163.107 382.983Z" fill="#0A4137"/>
<path d="M163.6 386.412C163.62 386.554 169.522 385.823 176.78 384.78C184.04 383.736 189.908 382.775 189.887 382.632C189.866 382.49 183.966 383.22 176.706 384.264C169.448 385.308 163.58 386.269 163.6 386.412Z" fill="#0A4137"/>
<path d="M99.3519 386.374C101.112 387.048 103.085 386.167 103.759 384.407L114.363 356.705C114.903 355.295 114.12 353.686 112.615 353.11L110.01 352.113C108.947 351.706 108.203 350.758 108.103 349.683L107.978 348.333C107.879 347.259 107.134 346.31 106.071 345.903L93.7059 341.17C92.7419 340.801 91.6679 340.936 90.8799 341.526L89.9039 342.256C89.1159 342.845 88.0419 342.981 87.0779 342.612L71.3149 336.578C69.8099 336.002 68.1519 336.677 67.6129 338.087L56.7669 366.42C56.0929 368.18 56.9739 370.153 58.7339 370.827L99.3519 386.374Z" fill="#13C4A3"/>
<g opacity="0.3">
<path d="M99.3519 386.374C101.112 387.048 103.085 386.167 103.759 384.407L114.363 356.705C114.903 355.295 114.12 353.686 112.615 353.11L110.01 352.113C108.947 351.706 108.203 350.758 108.103 349.683L107.978 348.333C107.879 347.259 107.134 346.31 106.071 345.903L93.7059 341.17C92.7419 340.801 91.6679 340.936 90.8799 341.526L89.9039 342.256C89.1159 342.845 88.0419 342.981 87.0779 342.612L71.3149 336.578C69.8099 336.002 68.1519 336.677 67.6129 338.087L56.7669 366.42C56.0929 368.18 56.9739 370.153 58.7339 370.827L99.3519 386.374Z" fill="black"/>
</g>
<path d="M88.6328 343.206L98.6688 347.022L100.206 345.69C101.203 344.826 102.652 344.594 103.95 345.09L113.751 348.842C115.496 349.51 116.403 351.376 115.777 353.01L115.339 354.153L103.825 384.233C103.114 386.089 100.932 386.979 98.9498 386.22L59.1357 370.98C57.1537 370.221 56.1227 368.101 56.8337 366.245L67.7108 337.829C68.1958 336.561 69.6168 335.927 70.8848 336.412L88.6328 343.206Z" fill="#13C4A3"/>
<path d="M74.8159 350.506L98.5107 359.576L94.6944 369.546L70.9995 360.475L74.8159 350.506Z" fill="white"/>
<path d="M76.7788 356.306C76.7278 356.44 80.3308 357.944 84.8258 359.665C89.3228 361.386 93.0088 362.673 93.0598 362.538C93.1108 362.404 89.5088 360.9 85.0118 359.179C80.5168 357.458 76.8308 356.172 76.7788 356.306Z" fill="#0A4137"/>
<path d="M75.9658 358.43C75.9148 358.564 79.5178 360.069 84.0128 361.789C88.5098 363.51 92.1958 364.796 92.2468 364.662C92.2978 364.528 88.6958 363.024 84.1988 361.303C79.7038 359.582 76.0178 358.295 75.9658 358.43Z" fill="#0A4137"/>
<path d="M358.577 419.274L359.186 448.351L320.911 449.252C321.044 445.791 340.662 438.388 340.662 438.388L339.463 419.773L358.577 419.274Z" fill="#455A64"/>
<g opacity="0.6">
<path d="M352.456 436.542C353.202 436.716 353.734 437.491 353.581 438.203C353.428 438.914 352.599 439.433 351.85 439.272C351.101 439.11 350.432 438.198 350.668 437.508C350.905 436.817 351.914 436.259 352.6 436.585" fill="white"/>
</g>
<g opacity="0.6">
<path d="M359.186 448.351L359.003 445.423L322.374 447.382C322.374 447.382 320.688 448.123 320.911 449.253L359.186 448.351Z" fill="white"/>
</g>
<path d="M340.037 438.219C340.048 438.395 340.984 438.453 341.919 439C342.869 439.523 343.363 440.277 343.533 440.203C343.704 440.165 343.398 439.115 342.254 438.473C341.117 437.82 339.992 438.057 340.037 438.219Z" fill="#0A4137"/>
<path d="M336.063 439.882C336.025 440.054 336.842 440.335 337.496 441.068C338.173 441.782 338.355 442.586 338.541 442.574C338.718 442.597 338.82 441.56 337.987 440.665C337.164 439.762 336.063 439.714 336.063 439.882Z" fill="#0A4137"/>
<path d="M333.904 444.477C334.075 444.511 334.312 443.622 333.806 442.666C333.308 441.706 332.416 441.346 332.341 441.495C332.239 441.643 332.821 442.148 333.223 442.939C333.644 443.72 333.717 444.463 333.904 444.477Z" fill="#0A4137"/>
<path d="M340.262 433.947C340.345 434.106 341.196 433.842 342.254 433.885C343.313 433.908 344.144 434.224 344.237 434.07C344.342 433.94 343.522 433.305 342.275 433.271C341.028 433.228 340.166 433.811 340.262 433.947Z" fill="#0A4137"/>
<path d="M341.059 429.634C341.059 429.707 341.8 429.799 342.976 429.579C343.561 429.469 344.248 429.271 344.966 428.95C345.325 428.789 345.691 428.597 346.053 428.372C346.226 428.261 346.433 428.148 346.62 427.932C346.822 427.743 346.928 427.272 346.681 426.99C346.478 426.716 346.128 426.605 345.852 426.605C345.57 426.603 345.342 426.662 345.136 426.716C344.712 426.823 344.316 426.966 343.954 427.13C343.231 427.462 342.647 427.873 342.216 428.268C341.348 429.066 341.063 429.733 341.127 429.765C341.213 429.821 341.631 429.258 342.518 428.595C342.96 428.265 343.527 427.922 344.204 427.644C344.543 427.507 344.909 427.388 345.296 427.298C345.699 427.188 346.043 427.177 346.152 427.345C346.192 427.409 346.197 427.434 346.115 427.548C346.03 427.654 345.869 427.759 345.698 427.869C345.365 428.086 345.029 428.275 344.7 428.44C344.041 428.769 343.408 428.997 342.865 429.155C341.774 429.473 341.053 429.539 341.059 429.634Z" fill="#0A4137"/>
<path d="M341.31 429.882C341.377 429.908 341.731 429.266 341.77 428.12C341.787 427.552 341.706 426.866 341.456 426.143C341.329 425.783 341.159 425.415 340.939 425.055C340.705 424.703 340.419 424.231 339.692 424.169C339.313 424.164 339.006 424.451 338.905 424.693C338.785 424.941 338.765 425.151 338.726 425.362C338.667 425.786 338.686 426.2 338.757 426.582C338.897 427.349 339.248 427.982 339.625 428.434C340.397 429.354 341.183 429.546 341.197 429.486C341.257 429.396 340.596 429.07 340 428.183C339.706 427.746 339.44 427.166 339.349 426.495C339.303 426.161 339.299 425.805 339.357 425.447C339.407 425.061 339.551 424.747 339.704 424.783C339.894 424.776 340.225 425.058 340.39 425.361C340.595 425.681 340.76 426.009 340.891 426.332C341.148 426.98 341.269 427.604 341.31 428.131C341.39 429.191 341.208 429.857 341.31 429.882Z" fill="#0A4137"/>
<path d="M387.585 421.689L391.242 450.542L429.235 445.827C428.597 442.423 408.106 437.973 408.106 437.973L406.565 419.383L387.585 421.689Z" fill="#455A64"/>
<g opacity="0.6">
<path d="M396.17 437.874C395.458 438.155 395.044 439 395.3 439.681C395.556 440.362 396.452 440.754 397.169 440.484C397.886 440.214 398.415 439.214 398.08 438.566C397.745 437.917 396.665 437.512 396.034 437.936" fill="white"/>
</g>
<g opacity="0.6">
<path d="M391.242 450.542L390.994 447.619L427.514 444.191C427.514 444.191 429.29 444.677 429.235 445.827L391.242 450.542Z" fill="white"/>
</g>
<path d="M408.7 437.714C408.715 437.89 407.797 438.085 406.953 438.762C406.09 439.418 405.712 440.237 405.533 440.188C405.358 440.175 405.507 439.092 406.545 438.289C407.574 437.478 408.721 437.548 408.7 437.714Z" fill="#0A4137"/>
<path d="M412.874 438.777C412.937 438.942 412.17 439.34 411.63 440.16C411.064 440.965 411.003 441.787 410.817 441.803C410.646 441.852 410.393 440.841 411.085 439.833C411.767 438.819 412.85 438.61 412.874 438.777Z" fill="#0A4137"/>
<path d="M415.684 443.006C415.52 443.064 415.156 442.22 415.516 441.2C415.868 440.178 416.697 439.69 416.793 439.826C416.915 439.957 416.415 440.543 416.132 441.384C415.83 442.219 415.866 442.966 415.684 443.006Z" fill="#0A4137"/>
<path d="M407.852 433.521C407.793 433.691 406.913 433.554 405.873 433.752C404.828 433.93 404.053 434.364 403.938 434.225C403.815 434.112 404.533 433.363 405.762 433.147C406.989 432.922 407.927 433.373 407.852 433.521Z" fill="#0A4137"/>
<path d="M406.431 429.372C406.442 429.444 405.722 429.644 404.527 429.599C403.933 429.576 403.224 429.481 402.466 429.268C402.087 429.161 401.697 429.025 401.307 428.856C401.119 428.771 400.898 428.69 400.681 428.504C400.453 428.347 400.28 427.896 400.483 427.582C400.644 427.282 400.974 427.12 401.247 427.08C401.526 427.037 401.759 427.062 401.972 427.085C402.407 427.129 402.82 427.213 403.201 427.322C403.965 427.544 404.602 427.866 405.088 428.193C406.063 428.855 406.443 429.473 406.384 429.515C406.307 429.583 405.811 429.087 404.837 428.562C404.351 428.301 403.74 428.044 403.03 427.869C402.675 427.784 402.295 427.719 401.899 427.686C401.484 427.636 401.142 427.676 401.059 427.858C401.029 427.927 401.028 427.953 401.125 428.054C401.224 428.146 401.4 428.226 401.585 428.311C401.946 428.476 402.306 428.614 402.656 428.729C403.357 428.958 404.016 429.091 404.576 429.167C405.7 429.317 406.422 429.276 406.431 429.372Z" fill="#0A4137"/>
<path d="M406.22 429.653C406.157 429.688 405.713 429.105 405.507 427.978C405.407 427.418 405.386 426.728 405.528 425.976C405.601 425.601 405.715 425.212 405.88 424.824C406.06 424.441 406.274 423.932 406.984 423.765C407.358 423.705 407.704 423.944 407.839 424.168C407.994 424.396 408.044 424.601 408.114 424.803C408.235 425.214 408.276 425.626 408.262 426.015C408.235 426.795 407.981 427.472 407.675 427.974C407.045 428.997 406.297 429.303 406.274 429.245C406.201 429.165 406.807 428.746 407.267 427.781C407.493 427.305 407.672 426.693 407.664 426.016C407.661 425.678 407.613 425.326 407.503 424.981C407.397 424.606 407.208 424.317 407.062 424.375C406.873 424.395 406.587 424.723 406.468 425.047C406.312 425.393 406.197 425.742 406.115 426.081C405.955 426.76 405.927 427.394 405.964 427.922C406.039 428.982 406.317 429.614 406.22 429.653Z" fill="#0A4137"/>
<path d="M328.888 264.949L388.482 266.854C388.482 266.854 402.526 360.647 402.139 367.163L410.8 435.196L385.597 436.08C385.597 436.08 381.632 414.018 378.867 398.919C377.027 388.872 373.671 374.132 372.76 365.743C371.85 357.354 357.111 298.768 357.111 298.768C357.111 298.768 358.2 366.776 358.175 369.569C358.15 372.363 361.088 436.027 361.088 436.027H336.063C334.77 424.536 331.699 378.555 331.038 369.262C329.844 352.487 326.076 305.089 325.527 292.977C324.978 280.865 328.888 264.949 328.888 264.949Z" fill="#0A4137"/>
<path d="M332.815 265.407C332.935 265.407 333.033 264.45 333.033 263.27C333.033 262.089 332.935 261.132 332.815 261.132C332.695 261.132 332.597 262.089 332.597 263.27C332.597 264.45 332.695 265.407 332.815 265.407Z" fill="#455A64"/>
<path d="M330.34 266.532C330.453 266.55 330.715 265.323 330.584 263.793C330.46 262.263 329.998 261.095 329.89 261.132C329.769 261.167 330.031 262.351 330.15 263.829C330.278 265.306 330.214 266.517 330.34 266.532Z" fill="#455A64"/>
<path d="M352.6 262.066C352.582 262.143 353.264 262.06 353.861 262.769C354.139 263.105 354.377 263.632 354.273 264.181C354.186 264.731 353.659 265.198 353.011 265.319C352.363 265.444 351.701 265.203 351.418 264.723C351.119 264.251 351.148 263.674 351.283 263.258C351.579 262.379 352.244 262.206 352.198 262.141C352.194 262.121 352.031 262.118 351.777 262.25C351.524 262.378 351.201 262.673 350.994 263.149C350.801 263.614 350.71 264.297 351.075 264.932C351.431 265.584 352.305 265.907 353.091 265.746C353.881 265.607 354.575 264.986 354.667 264.249C354.773 263.524 354.438 262.923 354.088 262.561C353.721 262.194 353.312 262.038 353.03 262.012C352.747 261.983 352.597 262.046 352.6 262.066Z" fill="#455A64"/>
<path d="M380.073 365.551C380.119 365.662 382.976 364.594 386.455 363.165C389.935 361.736 392.718 360.487 392.672 360.376C392.627 360.265 389.769 361.333 386.289 362.762C382.811 364.191 380.027 365.44 380.073 365.551Z" fill="#455A64"/>
<path d="M383.312 123.99C383.115 120.521 380.982 118.387 377.993 116.616C375.004 114.845 371.128 114.669 367.99 116.162C365.892 117.161 364.055 118.867 361.75 119.164C357.954 119.654 354.362 116.137 350.637 117.015C348.432 117.535 346.752 119.741 346.837 122.004C346.922 124.268 348.762 126.342 350.999 126.695C348.514 127.055 347.107 130.199 348.026 132.536C348.945 134.873 351.553 136.229 354.064 136.284C356.575 136.339 358.988 135.314 361.16 134.053C363.332 132.793 365.36 131.276 367.625 130.192C369.89 129.108 372.496 128.475 374.923 129.121C378.209 129.995 380.537 133.098 381.394 136.388C382.251 139.678 381.882 143.154 381.371 146.516C380.86 149.878 380.213 153.268 380.532 156.653C380.57 157.05 380.658 157.505 381.008 157.698C381.513 157.976 382.092 157.5 382.463 157.059C386.661 152.082 389.868 146.272 391.843 140.068C392.99 136.464 393.622 132.957 392.246 129.434C390.869 125.912 386.231 122.559 383.312 123.99Z" fill="#0A4137"/>
<path d="M386.513 140.756L380.958 175.028C379.921 181.428 375.762 187.612 365.718 185.511C357.141 183.031 357.779 176.861 358.896 169.254C358.896 169.254 349.461 166.8 350.306 157.206C350.715 152.569 352.333 143.088 353.897 134.527C355.576 125.333 364.045 118.976 373.344 119.912L374.268 120.005C384.18 121.589 388.371 130.892 386.513 140.756Z" fill="#FFBE9D"/>
<path d="M358.895 169.254C358.895 169.254 364.9 170.216 371.743 166.82C371.743 166.82 367.98 173.948 358.505 172.124L358.895 169.254Z" fill="#EB996E"/>
<path d="M355.778 142.912C355.679 143.632 356.208 144.309 356.959 144.425C357.708 144.541 358.395 144.053 358.494 143.333C358.592 142.613 358.064 141.935 357.315 141.819C356.564 141.703 355.876 142.192 355.778 142.912Z" fill="#0A4137"/>
<path d="M355.483 139.436C355.635 139.631 356.748 138.969 358.221 139.12C359.694 139.251 360.698 140.117 360.876 139.953C360.963 139.881 360.822 139.541 360.386 139.152C359.957 138.764 359.2 138.353 358.282 138.265C357.364 138.178 356.559 138.438 356.08 138.739C355.593 139.041 355.407 139.348 355.483 139.436Z" fill="#0A4137"/>
<path d="M369.188 145.034C369.09 145.754 369.619 146.431 370.369 146.547C371.118 146.663 371.805 146.175 371.904 145.455C372.002 144.735 371.473 144.057 370.725 143.941C369.974 143.825 369.286 144.314 369.188 145.034Z" fill="#0A4137"/>
<path d="M369.653 141.163C369.805 141.359 370.92 140.696 372.391 140.848C373.863 140.979 374.868 141.845 375.046 141.681C375.132 141.609 374.993 141.27 374.555 140.88C374.126 140.492 373.37 140.081 372.452 139.992C371.534 139.905 370.729 140.165 370.25 140.466C369.765 140.767 369.578 141.075 369.653 141.163Z" fill="#0A4137"/>
<path d="M363.488 151.55C363.503 151.467 362.604 151.217 361.14 150.878C360.768 150.801 360.419 150.691 360.382 150.428C360.321 150.147 360.519 149.758 360.745 149.339C361.19 148.465 361.656 147.548 362.145 146.587C364.099 142.666 365.554 139.426 365.396 139.348C365.237 139.271 363.525 142.387 361.571 146.308C361.098 147.276 360.646 148.198 360.216 149.081C360.031 149.494 359.737 149.954 359.873 150.537C359.946 150.828 360.201 151.06 360.436 151.149C360.67 151.247 360.881 151.272 361.066 151.302C362.548 151.533 363.474 151.633 363.488 151.55Z" fill="#0A4137"/>
<path d="M370.13 135.357C370.235 135.772 371.724 135.73 373.431 136.112C375.146 136.46 376.488 137.106 376.753 136.77C376.873 136.608 376.668 136.207 376.143 135.763C375.624 135.32 374.77 134.863 373.744 134.643C372.718 134.426 371.752 134.495 371.097 134.687C370.437 134.879 370.087 135.161 370.13 135.357Z" fill="#0A4137"/>
<path d="M356.453 135.229C356.678 135.59 357.728 135.345 358.949 135.451C360.174 135.515 361.179 135.902 361.452 135.576C361.573 135.417 361.445 135.065 361.025 134.703C360.612 134.343 359.894 134.01 359.053 133.951C358.212 133.893 357.455 134.123 356.996 134.423C356.531 134.724 356.355 135.054 356.453 135.229Z" fill="#0A4137"/>
<path d="M385.016 147.772C385.187 147.718 391.796 146.487 390.928 153.017C390.06 159.548 383.683 157.329 383.696 157.14C383.711 156.952 385.016 147.772 385.016 147.772Z" fill="#FFBE9D"/>
<path d="M386.021 154.931C386.053 154.914 386.124 155.026 386.305 155.14C386.481 155.251 386.796 155.353 387.153 155.27C387.876 155.108 388.603 154.09 388.791 152.918C388.887 152.326 388.837 151.743 388.689 151.247C388.553 150.743 388.289 150.368 387.949 150.26C387.614 150.134 387.34 150.309 387.236 150.483C387.124 150.654 387.148 150.79 387.112 150.797C387.091 150.811 386.986 150.669 387.075 150.406C387.119 150.28 387.216 150.136 387.386 150.031C387.56 149.925 387.799 149.89 388.037 149.948C388.536 150.05 388.928 150.573 389.091 151.118C389.281 151.669 389.351 152.326 389.243 152.991C389.026 154.301 388.189 155.443 387.209 155.591C386.734 155.65 386.369 155.46 386.191 155.28C386.011 155.091 385.996 154.94 386.021 154.931Z" fill="#EB996E"/>
<path d="M354.679 125.591C355.721 123.794 357.393 122.441 359.168 121.361C362.994 119.033 367.531 117.8 371.993 118.179C376.456 118.558 380.81 120.61 383.722 124.012C386.052 126.735 387.402 130.222 387.833 133.78C388.264 137.338 387.81 140.966 386.828 144.413C386.397 145.926 385.816 147.483 384.621 148.506C383.874 149.145 382.667 149.494 381.952 148.82C381.531 148.423 381.425 147.804 381.341 147.232C380.589 142.05 379.891 136.489 382.233 131.805C381.145 130.046 379.839 128.38 378.138 127.204C376.437 126.028 374.295 125.384 372.267 125.791C369.256 126.396 367.171 129.057 364.641 130.799C361.025 133.289 356.176 133.88 352.068 132.332L354.679 125.591Z" fill="#0A4137"/>
<path d="M362.191 155.529C362.296 156.144 362.405 156.769 362.68 157.329C362.955 157.889 363.425 158.385 364.029 158.542C364.673 158.709 365.38 158.455 365.855 157.991C366.331 157.527 366.595 156.879 366.702 156.223C366.799 155.629 366.676 154.872 366.106 154.68C365.869 154.6 365.61 154.644 365.364 154.689C364.254 154.89 363.143 155.091 362.033 155.292" fill="#EB996E"/>
<path d="M362.889 158.312C362.925 158.219 363.542 158.634 364.569 158.452C365.066 158.363 365.645 158.103 366.042 157.586C366.437 157.076 366.653 156.319 366.503 155.586C366.471 155.404 366.402 155.229 366.331 155.071C366.236 154.918 366.257 154.928 366.121 154.92C365.989 154.927 365.767 154.98 365.589 155.01C365.403 155.044 365.221 155.077 365.042 155.11C364.329 155.238 363.685 155.346 363.143 155.429C362.059 155.594 361.381 155.658 361.366 155.583C361.351 155.507 362.001 155.305 363.066 155.041C363.598 154.909 364.233 154.761 364.941 154.604C365.119 154.565 365.3 154.526 365.485 154.486C365.68 154.45 365.833 154.398 366.094 154.372C366.221 154.363 366.395 154.38 366.547 154.481C366.695 154.581 366.774 154.712 366.83 154.82C366.929 155.032 367.011 155.245 367.053 155.474C367.239 156.389 366.957 157.3 366.445 157.911C365.922 158.536 365.2 158.797 364.623 158.845C364.035 158.9 363.568 158.759 363.282 158.618C362.992 158.474 362.87 158.34 362.889 158.312Z" fill="#0A4137"/>
<path d="M338.537 141.429L336.993 141.011L312.865 164.467L293.324 166.819C293.324 166.819 293.518 160.91 300.873 153.368C307.433 146.642 322.781 138.619 327.976 134.494C329.272 133.465 330.226 133.151 330.226 133.151L338.537 141.429Z" fill="#FFBE9D"/>
<path d="M338.549 130.27L341.018 129.578L346.838 126.816L353.459 129.28C353.459 129.28 353.312 131.546 351.567 130.928L358.506 133.216C358.506 133.216 357.938 134.86 357.626 134.969C357.314 135.078 361.697 135.448 361.697 135.448C361.697 135.448 361.736 137.678 357.555 137.635C353.373 137.592 351.795 136.883 351.795 136.883L348.463 137.772L348.596 139.753L353.128 139.687L352.922 142.23C352.257 142.546 347.077 143.121 347.077 143.121C347.077 143.121 340.075 143.224 338.18 142.311C336.285 141.398 333.862 140.075 333.862 140.075L330.227 133.155L338.549 130.27Z" fill="#FFBE9D"/>
<path d="M344.797 131.448C344.84 131.503 345.193 131.312 345.797 131.037C346.394 130.744 347.251 130.405 348.151 129.787L347.85 129.792C347.935 129.848 348.026 129.908 348.117 129.968C349.091 130.585 350.111 130.875 350.848 130.968C351.59 131.063 352.05 130.991 352.051 130.926C352.071 130.77 350.226 130.695 348.394 129.528C348.309 129.472 348.224 129.417 348.144 129.365L347.991 129.265L347.843 129.37C347.035 129.939 346.182 130.352 345.625 130.728C345.053 131.09 344.754 131.396 344.797 131.448Z" fill="#EB996E"/>
<path d="M346.934 134.969C346.922 135.013 347.375 135.129 348.054 134.847C348.739 134.596 349.473 133.88 350.42 133.444L350.18 133.424C350.578 133.694 351.028 133.956 351.515 134.185C352.891 134.843 354.274 135.074 355.259 135.105C356.25 135.138 356.851 134.993 356.844 134.931C356.854 134.773 354.38 134.978 351.737 133.714C351.274 133.496 350.843 133.253 350.457 133.007L350.333 132.928L350.217 132.987C349.142 133.531 348.508 134.267 347.917 134.563C347.347 134.894 346.932 134.897 346.934 134.969Z" fill="#EB996E"/>
<path d="M340.728 137.142C340.755 137.225 341.243 137.071 342.032 137.081C342.814 137.085 343.914 137.301 344.913 137.949C345.531 138.351 346.013 138.864 346.337 139.36L346.396 139.449L346.485 139.466C347.886 139.729 348.843 139.851 348.864 139.755C348.885 139.658 347.966 139.368 346.584 139.019L346.731 139.125C346.407 138.551 345.882 137.958 345.197 137.513C344.089 136.793 342.854 136.619 342.015 136.714C341.164 136.803 340.704 137.091 340.728 137.142Z" fill="#EB996E"/>
<path d="M333.861 140.072C333.856 140.08 333.925 140.127 334.064 140.209C334.233 140.305 334.437 140.421 334.686 140.562C335.281 140.884 336.088 141.322 337.107 141.873C337.635 142.138 338.201 142.526 338.939 142.696C339.656 142.878 340.446 142.985 341.295 143.073C342.994 143.242 344.932 143.314 347.08 143.311H347.087L347.095 143.31C347.922 143.225 348.793 143.136 349.7 143.044C350.62 142.914 351.519 142.872 352.556 142.558L352.656 142.528L352.678 142.395C352.82 141.523 352.975 140.573 353.134 139.6L353.179 139.324L352.898 139.335C351.535 139.39 350.081 139.449 348.585 139.51L348.836 139.735C348.796 139.119 348.752 138.44 348.707 137.754L348.525 138.008C349.575 137.73 350.707 137.43 351.858 137.126L351.69 137.112C353.309 137.677 354.976 137.791 356.697 137.872C357.548 137.899 358.442 137.916 359.333 137.741C360.203 137.575 361.171 137.188 361.698 136.304C361.84 136.041 361.943 135.783 361.956 135.442L361.965 135.208L361.717 135.187C360.681 135.097 359.653 135.005 358.644 134.891C358.393 134.862 358.14 134.831 357.901 134.792L357.742 134.76C357.724 134.756 357.737 134.758 357.746 134.764C357.753 134.773 357.727 134.744 357.805 134.81C357.866 134.867 357.883 134.981 357.862 135.034C357.882 135.122 357.681 135.241 357.72 135.207C357.781 135.179 357.862 135.127 357.883 135.098C358.02 134.959 358.077 134.845 358.147 134.724C358.4 134.248 358.575 133.78 358.749 133.298L358.837 133.052L358.586 132.97C356.189 132.184 353.868 131.422 351.644 130.693L351.485 131.157C351.757 131.234 352.046 131.314 352.356 131.252C352.662 131.204 352.947 131.029 353.137 130.805C353.516 130.344 353.636 129.822 353.696 129.293L353.716 129.119L353.542 129.055C351.192 128.19 348.977 127.375 346.912 126.615L346.827 126.584L346.747 126.623C344.638 127.638 342.695 128.574 340.942 129.417L340.97 129.407C340.118 129.652 339.308 129.886 338.54 130.107C337.792 130.373 337.086 130.623 336.424 130.858C335.12 131.327 333.993 131.732 333.056 132.069C332.172 132.396 331.47 132.655 330.947 132.849C330.468 133.032 330.221 133.135 330.226 133.152C330.232 133.168 330.49 133.096 330.979 132.944C331.51 132.773 332.221 132.543 333.117 132.253C334.061 131.939 335.195 131.561 336.509 131.124C337.174 130.901 337.883 130.663 338.635 130.411C339.403 130.202 340.214 129.981 341.065 129.748L341.079 129.744L341.094 129.737C342.855 128.913 344.808 127.999 346.929 127.006L346.764 127.013C348.824 127.788 351.032 128.619 353.377 129.5L353.223 129.262C353.177 129.692 353.045 130.178 352.774 130.488C352.509 130.808 352.086 130.851 351.65 130.694L351.491 131.158C353.713 131.895 356.031 132.664 358.426 133.457L358.264 133.129C358.1 133.584 357.918 134.058 357.696 134.473C357.643 134.572 357.573 134.68 357.53 134.72C357.524 134.728 357.518 134.733 357.525 134.726C357.536 134.731 357.575 134.796 357.584 134.839L357.586 134.848L357.587 134.853C357.491 134.594 357.55 134.785 357.524 134.729C357.5 134.739 357.474 134.755 357.451 134.775C357.402 134.816 357.37 134.876 357.358 134.922C357.342 134.98 357.364 135.101 357.43 135.164C357.512 135.237 357.494 135.21 357.508 135.222C357.546 135.24 357.588 135.254 357.601 135.257C357.687 135.28 357.747 135.289 357.815 135.302C358.077 135.345 358.33 135.375 358.585 135.406C359.606 135.522 360.633 135.615 361.674 135.705L361.436 135.45C361.43 135.62 361.353 135.86 361.246 136.046C360.852 136.717 360.039 137.081 359.231 137.231C358.41 137.392 357.566 137.382 356.716 137.355C355.043 137.288 353.337 137.147 351.898 136.651L351.802 136.618L351.729 136.637C350.579 136.946 349.448 137.25 348.399 137.532L348.203 137.585L348.217 137.787C348.265 138.473 348.312 139.151 348.355 139.767L348.371 140.003L348.606 139.992C350.102 139.923 351.556 139.855 352.918 139.792L352.682 139.528C352.53 140.502 352.383 141.452 352.247 142.326L352.369 142.163C351.539 142.417 350.529 142.51 349.65 142.634C348.748 142.736 347.882 142.834 347.059 142.926L347.074 142.925C344.942 142.951 343.007 142.906 341.323 142.767C340.482 142.694 339.699 142.602 339.003 142.441C338.308 142.3 337.744 141.934 337.203 141.68C336.166 141.167 335.345 140.761 334.739 140.462C334.48 140.34 334.267 140.24 334.092 140.158C333.943 140.094 333.865 140.064 333.861 140.072Z" fill="#EB996E"/>
<path d="M342.224 132.543C342.119 132.627 343.122 133.971 344.793 135.154C346.458 136.347 348.056 136.857 348.1 136.73C348.16 136.589 346.702 135.884 345.095 134.73C343.481 133.588 342.338 132.441 342.224 132.543Z" fill="#EB996E"/>
<path d="M293.493 166.095L312.864 164.467L335.696 173.157L340.728 176.214L333.583 200.612C333.583 200.612 297.794 179.526 296.272 177.721C291.586 172.169 293.493 166.095 293.493 166.095Z" fill="#13C4A3"/>
<path d="M396.892 184.043L403.553 188.177L388.175 248.721L390.961 283.579C386.991 287.04 376.96 290.011 357.931 288.932C338.902 287.853 326.243 279.62 326.243 279.62L328.064 243.712L332.388 203.193L337.283 175.496L351.925 176.553L357.626 173.174L360.185 174.453L363.466 183.548L372.013 177.377L382.01 172.558L385.662 179.374L396.892 184.043Z" fill="#13C4A3"/>
<path d="M337.282 182.54C337.248 182.529 337.062 183.009 336.755 183.887C336.444 184.764 336.035 186.047 335.564 187.642C334.621 190.832 333.495 195.297 332.603 200.298C331.716 205.302 331.235 209.882 331.021 213.202C330.913 214.862 330.855 216.207 330.845 217.137C330.831 218.067 330.84 218.582 330.875 218.583C330.911 218.584 330.97 218.073 331.047 217.147C331.136 216.125 331.25 214.809 331.388 213.231C331.695 209.927 332.232 205.373 333.115 200.389C334.003 195.407 335.068 190.947 335.918 187.74C336.333 186.211 336.679 184.936 336.947 183.946C337.196 183.052 337.317 182.551 337.282 182.54Z" fill="#0A4137"/>
<path d="M366.2 183.022C366.209 183.051 366.729 182.943 367.576 182.515C368.412 182.086 369.586 181.299 370.603 179.928L370.243 179.829C370.398 182.228 370.898 185.336 372.025 188.574L372.137 188.896L372.418 188.702C372.641 188.548 372.88 188.384 373.121 188.218C376.564 185.843 379.665 183.67 381.894 182.075C382.933 181.319 383.811 180.68 384.519 180.164C385.132 179.703 385.461 179.434 385.441 179.405C385.421 179.376 385.052 179.588 384.404 179.997C383.671 180.476 382.761 181.069 381.685 181.771C379.402 183.288 376.268 185.414 372.825 187.789C372.584 187.955 372.345 188.12 372.122 188.274L372.515 188.402C371.398 185.214 370.862 182.163 370.638 179.796L370.587 179.254L370.278 179.696C369.345 181.033 368.249 181.843 367.466 182.32C366.674 182.797 366.183 182.977 366.2 183.022Z" fill="#0A4137"/>
<path d="M352.507 177.669C352.43 177.744 353.776 179.263 355.762 181.362L355.943 181.553L356.119 181.349C356.74 180.626 357.469 179.872 358.294 179.145C358.706 178.782 359.122 178.443 359.534 178.13C359.74 177.98 359.942 177.831 360.142 177.685C360.232 177.623 360.282 177.625 360.264 177.625C360.258 177.611 360.313 177.668 360.348 177.769C360.682 178.618 360.994 179.413 361.284 180.15C361.832 181.502 362.204 182.325 362.272 182.3C362.339 182.275 362.089 181.407 361.63 180.022C361.372 179.272 361.094 178.461 360.797 177.597C360.747 177.48 360.694 177.289 360.454 177.173C360.198 177.071 359.989 177.195 359.874 177.265C359.647 177.417 359.446 177.561 359.228 177.72C358.801 178.036 358.372 178.381 357.949 178.753C357.103 179.498 356.365 180.283 355.75 181.04L356.106 181.026C354.063 178.984 352.584 177.594 352.507 177.669Z" fill="#0A4137"/>
<path d="M356.474 286.36C348.254 284.805 339.495 285.712 331.349 289.504C321.317 294.173 313.703 302.471 309.91 312.867C306.117 323.264 306.601 334.515 311.271 344.548C320.91 365.259 345.603 374.266 366.316 364.626C376.349 359.956 383.962 351.658 387.755 341.262C391.547 330.866 391.064 319.615 386.394 309.582C380.544 297.017 369.153 288.758 356.474 286.36ZM341.702 365.044C329.87 362.806 319.244 355.102 313.786 343.377C309.429 334.016 308.978 323.518 312.516 313.818C316.054 304.117 323.158 296.376 332.519 292.019C341.88 287.661 352.378 287.21 362.078 290.749C371.778 294.287 379.52 301.391 383.877 310.752C388.234 320.112 388.685 330.611 385.147 340.31C381.609 350.011 374.505 357.752 365.144 362.109C357.546 365.648 349.371 366.495 341.702 365.044Z" fill="#455A64"/>
<path d="M348.895 370.508C355.134 370.508 361.345 369.147 367.161 366.44C377.678 361.544 385.66 352.846 389.635 341.949C393.611 331.051 393.104 319.257 388.208 308.739C382.323 296.096 370.599 286.996 356.847 284.396C347.888 282.703 338.78 283.84 330.506 287.691C319.989 292.587 312.008 301.285 308.032 312.182C304.057 323.08 304.563 334.875 309.459 345.392C314.346 355.894 323.046 363.869 333.957 367.848C338.824 369.624 343.869 370.508 348.895 370.508ZM348.811 290.39C353.048 290.39 357.295 291.134 361.394 292.629C370.593 295.984 377.934 302.721 382.066 311.598C386.198 320.475 386.626 330.428 383.27 339.626C379.916 348.824 373.18 356.166 364.302 360.298C357.322 363.547 349.637 364.507 342.075 363.079C330.464 360.883 320.567 353.203 315.6 342.534C311.469 333.656 311.041 323.702 314.396 314.505C317.75 305.307 324.487 297.965 333.364 293.833C338.286 291.542 343.54 290.39 348.811 290.39Z" fill="#455A64"/>
<path d="M449.612 286.587L449.245 285.685C448.458 283.753 446.736 282.628 445.399 283.172L384.858 307.804C384.559 307.925 384.46 308.373 384.635 308.805L387.214 315.145C387.39 315.576 387.774 315.827 388.072 315.706L448.614 291.074C449.952 290.528 450.399 288.52 449.612 286.587Z" fill="#455A64"/>
<path d="M393.066 216.877L400.349 240.968L396.699 290.062L407.436 291.418C407.436 291.418 419.743 249.58 418.515 242.07C417.287 234.561 412.318 212.495 412.318 212.495L393.066 216.877Z" fill="#FFBE9D"/>
<path d="M396.725 289.714L391.725 298.253L388.601 306.281L393.317 304.424C393.317 304.424 395.336 314.082 396.128 314.339C396.921 314.596 399.19 313.807 398.961 311.954C398.961 311.954 400.093 313.091 401.51 312.796C402.927 312.501 403.265 311.586 403.109 309.823C403.109 309.823 404.762 311.169 405.749 310.33C406.736 309.491 406.644 308.032 406.644 308.032C406.644 308.032 408.795 308.218 409.09 307.1C409.386 305.982 409.462 302.798 409.209 301.584C408.956 300.369 407.924 295.41 407.924 295.41L407.436 291.419L396.725 289.714Z" fill="#FFBE9D"/>
<path d="M397.9 306.386C398.021 306.363 398.357 307.591 398.651 309.129C398.944 310.667 399.084 311.933 398.962 311.956C398.841 311.979 398.505 310.751 398.211 309.213C397.918 307.674 397.778 306.409 397.9 306.386Z" fill="#EB996E"/>
<path d="M402.284 305.27C402.405 305.246 402.704 306.224 402.951 307.455C403.198 308.687 403.3 309.705 403.179 309.729C403.058 309.753 402.759 308.775 402.512 307.543C402.265 306.312 402.163 305.294 402.284 305.27Z" fill="#EB996E"/>
<path d="M405.937 304.242C406.071 304.234 406.172 305.106 406.329 306.135C406.497 307.159 406.767 307.979 406.644 308.031C406.541 308.08 406.07 307.305 405.888 306.208C405.722 305.119 405.825 304.248 405.937 304.242Z" fill="#EB996E"/>
<path d="M392.953 301.637C393.077 301.615 393.391 302.826 393.753 304.318C394.113 305.812 394.386 307.032 394.266 307.069C394.15 307.105 393.682 305.933 393.318 304.423C392.952 302.915 392.833 301.657 392.953 301.637Z" fill="#EB996E"/>
<path d="M419.106 258.293C419.106 257.475 422.471 246.03 421.449 240.101C420.427 234.173 408.226 194.103 406.591 191.241C404.956 188.379 401.377 186.826 401.377 186.826C401.377 186.826 394.121 190.219 391.668 199.009C389.215 207.799 389.215 218.838 389.215 218.838L399.027 243.164L397.856 256.981L419.106 258.293Z" fill="#13C4A3"/>
<path d="M389.845 218.033C389.944 218.024 389.754 216.238 389.851 213.357C389.891 211.917 390.051 210.207 390.336 208.326C390.648 206.45 391.101 204.405 391.755 202.309C392.428 200.219 393.235 198.285 394.06 196.571C394.91 194.869 395.764 193.379 396.56 192.178C398.14 189.767 399.323 188.416 399.247 188.352C399.22 188.328 398.909 188.651 398.369 189.258C397.82 189.857 397.09 190.783 396.255 191.972C395.412 193.158 394.515 194.645 393.631 196.356C392.772 198.079 391.941 200.033 391.259 202.151C390.597 204.274 390.152 206.35 389.862 208.253C389.6 210.161 389.476 211.893 389.483 213.348C389.481 214.802 389.544 215.979 389.649 216.785C389.741 217.594 389.809 218.037 389.845 218.033Z" fill="#0A4137"/>
<path d="M390.473 223.122C390.41 223.146 390.777 224.313 391.488 226.156C392.196 228 393.27 230.509 394.512 233.25C395.713 235.92 396.799 238.333 397.671 240.272C398.466 242.074 398.955 243.192 399.026 243.165C399.089 243.141 398.721 241.975 398.011 240.131C397.303 238.287 396.228 235.777 394.986 233.036C393.785 230.367 392.7 227.954 391.827 226.015C391.033 224.213 390.544 223.095 390.473 223.122Z" fill="#0A4137"/>
<path d="M398.457 244.107C398.544 244.252 401.286 242.335 405.179 241.184C409.062 239.995 412.406 240.082 412.399 239.913C412.401 239.851 411.571 239.747 410.221 239.798C408.874 239.847 407.009 240.092 405.029 240.685C403.051 241.283 401.36 242.107 400.21 242.809C399.057 243.511 398.421 244.056 398.457 244.107Z" fill="#0A4137"/>
<path d="M334.599 313.017C334.506 313.126 342.389 320.025 352.206 328.425C362.026 336.827 370.06 343.548 370.153 343.439C370.246 343.33 362.364 336.432 352.545 328.03C342.728 319.63 334.693 312.908 334.599 313.017Z" fill="white"/>
<path d="M324.459 313.017C324.365 313.126 331.005 318.987 339.288 326.107C347.573 333.229 354.364 338.912 354.458 338.803C354.552 338.694 347.913 332.834 339.628 325.712C331.344 318.593 324.552 312.908 324.459 313.017Z" fill="white"/>
<path d="M309.526 327.065C309.526 327.065 309.555 326.849 309.585 326.429C309.613 325.99 309.653 325.37 309.705 324.563C309.73 324.152 309.757 323.693 309.787 323.189C309.84 322.686 309.948 322.141 310.036 321.547C310.13 320.954 310.232 320.316 310.34 319.634C310.422 318.946 310.677 318.249 310.854 317.491C311.546 314.455 312.967 310.868 315.207 307.066C317.466 303.28 320.724 299.324 325.162 295.966C325.719 295.551 326.283 295.131 326.854 294.706C327.448 294.317 328.074 293.96 328.693 293.579C329.325 293.22 329.923 292.783 330.601 292.476C331.271 292.155 331.948 291.83 332.631 291.502C332.973 291.34 333.318 291.176 333.664 291.013C334.024 290.882 334.385 290.75 334.749 290.618C335.476 290.353 336.209 290.086 336.949 289.817C337.696 289.57 338.479 289.411 339.252 289.201C340.034 289.024 340.803 288.749 341.618 288.666C343.234 288.437 344.867 288.104 346.56 288.095C347.403 288.066 348.252 287.984 349.107 287.997C349.963 288.041 350.825 288.086 351.693 288.131C352.126 288.161 352.565 288.158 352.998 288.216L354.301 288.417C355.171 288.561 356.055 288.663 356.93 288.844C358.654 289.313 360.441 289.663 362.139 290.373C363.892 290.934 365.539 291.8 367.233 292.612C368.058 293.059 368.849 293.581 369.665 294.065C370.065 294.321 370.491 294.539 370.872 294.828L372.022 295.689C373.61 296.779 374.998 298.142 376.452 299.455C377.766 300.909 379.146 302.332 380.279 303.982L381.177 305.184L381.963 306.469L382.748 307.762C383.021 308.188 383.271 308.628 383.476 309.094C383.916 310.008 384.358 310.926 384.802 311.848C385.154 312.808 385.507 313.772 385.862 314.74C387.135 318.66 387.821 322.823 387.877 327.059C387.821 331.297 387.137 335.462 385.865 339.383C385.511 340.351 385.158 341.315 384.806 342.276C384.362 343.198 383.92 344.116 383.48 345.031L383.147 345.715L382.753 346.364L381.968 347.658L381.182 348.943L380.284 350.145C379.151 351.795 377.771 353.219 376.457 354.673C375.003 355.986 373.614 357.35 372.026 358.44L370.876 359.301C370.495 359.59 370.068 359.808 369.669 360.064C368.852 360.549 368.061 361.07 367.236 361.517C365.542 362.33 363.894 363.196 362.141 363.757C360.442 364.467 358.656 364.817 356.931 365.286C356.056 365.467 355.172 365.569 354.302 365.713L352.999 365.914C352.565 365.971 352.127 365.969 351.693 365.999C350.824 366.044 349.962 366.089 349.107 366.133C348.251 366.146 347.402 366.064 346.559 366.035C344.866 366.026 343.233 365.692 341.617 365.463C340.802 365.38 340.033 365.104 339.251 364.927C338.477 364.717 337.695 364.558 336.948 364.31C336.208 364.04 335.474 363.773 334.747 363.509C334.384 363.377 334.022 363.245 333.662 363.114C333.316 362.95 332.972 362.787 332.629 362.624C331.945 362.296 331.268 361.972 330.599 361.65C329.921 361.343 329.323 360.906 328.691 360.547C328.072 360.166 327.446 359.809 326.852 359.419C326.282 358.994 325.718 358.574 325.16 358.159C320.722 354.801 317.464 350.845 315.206 347.059C312.966 343.257 311.545 339.67 310.853 336.635C310.676 335.877 310.421 335.18 310.34 334.492C310.232 333.811 310.13 333.173 310.036 332.579C309.948 331.986 309.84 331.441 309.787 330.938C309.757 330.434 309.73 329.976 309.705 329.564C309.653 328.757 309.613 328.137 309.585 327.699C309.555 327.281 309.526 327.065 309.526 327.065C309.526 327.065 309.519 327.28 309.532 327.702C309.548 328.142 309.571 328.764 309.6 329.573C309.617 329.986 309.636 330.446 309.657 330.953C309.702 331.459 309.802 332.007 309.882 332.603C309.969 333.2 310.063 333.842 310.164 334.528C310.238 335.22 310.487 335.923 310.657 336.686C311.323 339.745 312.723 343.365 314.956 347.21C317.207 351.039 320.472 355.045 324.937 358.454C325.498 358.875 326.065 359.301 326.64 359.733C327.238 360.129 327.869 360.492 328.492 360.879C329.128 361.244 329.732 361.687 330.415 362C331.091 362.327 331.773 362.657 332.463 362.991C332.809 363.156 333.156 363.322 333.505 363.489C333.868 363.623 334.233 363.757 334.6 363.892C335.333 364.162 336.074 364.434 336.821 364.709C337.576 364.961 338.366 365.125 339.147 365.34C339.937 365.521 340.714 365.801 341.538 365.888C343.171 366.125 344.823 366.465 346.534 366.48C347.386 366.512 348.245 366.596 349.111 366.585C349.977 366.542 350.849 366.499 351.727 366.456C352.166 366.426 352.609 366.43 353.048 366.373L354.367 366.173C355.247 366.029 356.143 365.927 357.028 365.746C358.775 365.276 360.584 364.923 362.305 364.208C364.08 363.642 365.751 362.77 367.467 361.949C368.303 361.497 369.105 360.971 369.933 360.481C370.338 360.222 370.771 360.002 371.157 359.71L372.323 358.839C373.932 357.736 375.341 356.359 376.815 355.029C378.149 353.559 379.547 352.117 380.697 350.447L381.608 349.23L382.406 347.929L383.202 346.619L383.601 345.962L383.939 345.27C384.386 344.343 384.834 343.413 385.284 342.479C385.641 341.506 385.999 340.529 386.359 339.548C387.651 335.575 388.345 331.354 388.401 327.061C388.345 322.769 387.649 318.549 386.357 314.578C385.997 313.598 385.639 312.621 385.281 311.648C384.831 310.714 384.383 309.784 383.936 308.858C383.728 308.387 383.475 307.941 383.198 307.509L382.402 306.199L381.604 304.898L380.694 303.681C379.545 302.011 378.146 300.57 376.813 299.1C375.34 297.771 373.931 296.394 372.322 295.291L371.156 294.421C370.77 294.129 370.338 293.908 369.933 293.65C369.106 293.16 368.304 292.634 367.468 292.183C365.752 291.362 364.081 290.49 362.306 289.924C360.585 289.21 358.777 288.857 357.03 288.387C356.145 288.205 355.249 288.104 354.369 287.96L353.05 287.761C352.611 287.704 352.168 287.707 351.729 287.678C350.85 287.635 349.978 287.592 349.113 287.549C348.247 287.538 347.389 287.622 346.537 287.654C344.826 287.668 343.174 288.008 341.541 288.245C340.717 288.332 339.94 288.611 339.15 288.793C338.368 289.008 337.579 289.172 336.824 289.423C336.077 289.698 335.336 289.97 334.603 290.24C334.236 290.375 333.871 290.509 333.509 290.643C333.16 290.81 332.813 290.976 332.467 291.141C331.778 291.475 331.095 291.805 330.42 292.132C329.737 292.445 329.134 292.888 328.497 293.253C327.873 293.64 327.243 294.003 326.645 294.399C326.071 294.83 325.503 295.256 324.942 295.678C320.477 299.086 317.212 303.093 314.96 306.921C312.726 310.766 311.326 314.387 310.66 317.446C310.49 318.21 310.242 318.912 310.167 319.604C310.067 320.29 309.973 320.932 309.885 321.529C309.804 322.126 309.705 322.674 309.66 323.18C309.639 323.686 309.62 324.146 309.603 324.56C309.573 325.37 309.55 325.991 309.534 326.431C309.519 326.85 309.526 327.065 309.526 327.065Z" fill="#0A4137"/>
<path d="M324.035 347.932C324.067 347.904 323.695 347.443 323.049 346.594C322.402 345.747 321.51 344.485 320.546 342.846C318.611 339.59 316.526 334.643 315.921 328.863C315.313 323.082 316.326 317.809 317.543 314.222C318.146 312.418 318.757 310.999 319.213 310.036C319.668 309.072 319.936 308.544 319.899 308.523C319.883 308.514 319.798 308.636 319.649 308.876C319.506 309.119 319.276 309.468 319.032 309.945C318.517 310.886 317.848 312.294 317.195 314.102C315.876 317.695 314.785 323.043 315.403 328.917C316.018 334.79 318.194 339.794 320.23 343.035C321.245 344.668 322.191 345.907 322.89 346.72C323.229 347.136 323.525 347.43 323.716 347.638C323.913 347.843 324.022 347.944 324.035 347.932Z" fill="#0A4137"/>
<path d="M326.109 351.527C326.038 351.652 326.347 351.963 326.799 352.221C327.252 352.48 327.676 352.588 327.748 352.463C327.819 352.338 327.51 352.027 327.058 351.769C326.605 351.51 326.18 351.402 326.109 351.527Z" fill="#0A4137"/>
<path d="M377.667 343.898C377.684 343.905 377.767 343.743 377.91 343.428C378.046 343.11 378.274 342.651 378.498 342.033C378.982 340.81 379.579 338.995 380.085 336.693C381.116 332.119 381.533 325.422 379.644 318.433C377.757 311.441 374.024 305.864 370.831 302.431C369.235 300.697 367.805 299.429 366.771 298.616C366.266 298.195 365.838 297.913 365.561 297.706C365.279 297.506 365.125 297.408 365.115 297.423C365.088 297.458 365.654 297.913 366.641 298.771C367.63 299.627 369.01 300.927 370.556 302.676C373.65 306.141 377.28 311.673 379.141 318.568C381.003 325.46 380.653 332.066 379.724 336.618C379.269 338.908 378.73 340.726 378.307 341.964C377.887 343.203 377.627 343.881 377.667 343.898Z" fill="white"/>
<path d="M354.457 294.882C354.445 295.025 355.482 295.229 356.773 295.336C358.064 295.444 359.12 295.415 359.132 295.271C359.144 295.128 358.107 294.924 356.816 294.817C355.525 294.71 354.469 294.739 354.457 294.882Z" fill="white"/>
</svg>
