<svg width="284" height="200" viewBox="0 0 284 200" fill="none" xmlns="http://www.w3.org/2000/svg">
<path d="M251.41 88.0731C251.41 88.0731 251.356 88.8621 251.539 90.3358C251.735 91.7953 252.206 93.9786 253.601 96.4088L253.649 96.3257H253.645L253.55 96.3252L253.596 96.4088C256.588 101.714 261.078 109.676 266.452 119.207L266.533 119.35L266.62 119.211C270.711 112.685 275.333 105.312 280.209 97.5328C280.438 97.1674 280.666 96.803 280.877 96.4661L280.981 96.3005L280.786 96.3009L280.879 96.4629C281.921 94.678 282.606 92.7201 282.927 90.7365C283.08 89.7442 283.166 88.7455 283.131 87.7574C283.103 87.2635 283.077 86.772 283.05 86.2823C282.977 85.7976 282.904 85.3148 282.831 84.8343C282.085 81.0075 280.006 77.6502 277.284 75.3485C275.913 74.2043 274.384 73.3323 272.813 72.721L272.222 72.5007L271.928 72.391L271.626 72.3106C271.224 72.2055 270.824 72.1018 270.428 71.9986C269.62 71.8769 268.828 71.7112 268.033 71.7085C267.242 71.636 266.466 71.7103 265.703 71.7503C265.323 71.7805 264.952 71.8627 264.582 71.9155C264.397 71.9453 264.213 71.9751 264.03 72.0045C263.849 72.0426 263.672 72.0977 263.494 72.1431C263.14 72.239 262.789 72.3341 262.442 72.4281C262.107 72.5562 261.774 72.6829 261.445 72.8086C261.282 72.8733 261.116 72.9293 260.957 73C260.801 73.078 260.647 73.1556 260.493 73.2327C260.186 73.3878 259.883 73.5411 259.583 73.693C257.255 75.0474 255.508 76.8153 254.304 78.5658C253.091 80.3222 252.418 82.0539 252.004 83.4863C251.829 84.2138 251.652 84.8554 251.599 85.4305C251.519 86.0005 251.441 86.4815 251.445 86.8762C251.432 87.2645 251.421 87.5619 251.414 87.7698C251.407 87.9703 251.41 88.0731 251.41 88.0731C251.41 88.0731 251.422 87.9703 251.435 87.7693C251.447 87.5619 251.464 87.2654 251.487 86.8785C251.489 86.4851 251.574 86.0064 251.66 85.4396C251.72 84.8678 251.902 84.2303 252.082 83.5079C252.507 82.086 253.187 80.37 254.401 78.6328C255.605 76.9012 257.346 75.1562 259.656 73.8234C259.953 73.6742 260.254 73.5237 260.558 73.3708C260.711 73.2951 260.864 73.2189 261.018 73.1423C261.176 73.073 261.341 73.0179 261.503 72.9546C261.828 72.8316 262.157 72.7072 262.491 72.581C262.834 72.4892 263.182 72.3965 263.532 72.3024C263.708 72.2579 263.883 72.2037 264.063 72.167C264.244 72.1385 264.426 72.1096 264.609 72.0807C264.975 72.0298 265.343 71.9494 265.719 71.9201C266.473 71.8833 267.241 71.8108 268.022 71.8852C268.808 71.8893 269.59 72.0559 270.389 72.1771C270.78 72.2799 271.175 72.3836 271.572 72.4883L271.87 72.5681L272.16 72.6769L272.743 72.8958C274.294 73.5026 275.802 74.3668 277.155 75.499C279.84 77.7773 281.889 81.0942 282.622 84.8733C282.694 85.3478 282.766 85.8247 282.838 86.3034C282.863 86.7867 282.89 87.2723 282.916 87.7601C282.951 88.7363 282.865 89.7222 282.713 90.7021C282.396 92.66 281.719 94.5922 280.691 96.3537L280.596 96.5162L280.784 96.5157L280.693 96.3509C280.481 96.6878 280.253 97.0522 280.024 97.4176C275.154 105.2 270.538 112.577 266.452 119.106L266.62 119.11C261.215 109.597 256.7 101.649 253.691 96.3532L253.643 96.4358H253.647H253.743L253.695 96.3528C252.295 93.9469 251.809 91.7797 251.595 90.3276C251.489 89.596 251.459 89.0301 251.435 88.6501C251.428 88.4642 251.423 88.3214 251.419 88.2186C251.416 88.1223 251.41 88.0731 251.41 88.0731Z" fill="#E0E0E0"/>
<path d="M257.177 87.8917C257.181 87.8917 257.187 87.8366 257.196 87.7292C257.204 87.6113 257.215 87.4539 257.229 87.2528C257.236 87.1473 257.243 87.0302 257.251 86.9022C257.265 86.7737 257.293 86.6346 257.316 86.4832C257.364 86.1807 257.41 85.8301 257.526 85.4482C257.703 84.6739 258.065 83.7588 258.636 82.789C259.211 81.8233 260.041 80.8145 261.171 79.9572C262.297 79.1086 263.718 78.3853 265.36 78.0915C266.991 77.8079 268.832 77.8543 270.587 78.5165C271.033 78.6584 271.453 78.8782 271.885 79.0838C272.294 79.3298 272.725 79.5565 273.105 79.8645C273.51 80.1412 273.864 80.4873 274.235 80.8205C274.57 81.19 274.923 81.5512 275.212 81.9707C275.806 82.7908 276.325 83.7023 276.639 84.7051C276.966 85.702 277.143 86.7608 277.16 87.8394C277.148 88.9179 276.977 89.9786 276.656 90.9773C276.346 91.9824 275.832 92.8967 275.243 93.72C274.956 94.1409 274.605 94.5044 274.272 94.8752C273.902 95.2103 273.55 95.5586 273.147 95.8372C272.767 96.1475 272.338 96.376 271.93 96.6243C271.499 96.8322 271.08 97.0544 270.634 97.1985C268.883 97.8695 267.042 97.9255 265.41 97.6496C263.767 97.3637 262.342 96.6477 261.211 95.8046C260.077 94.9532 259.242 93.9486 258.662 92.9857C258.086 92.0187 257.72 91.1058 257.539 90.3324C257.421 89.9515 257.373 89.6013 257.324 89.2989C257.3 89.1474 257.271 89.0088 257.257 88.8803C257.248 88.7523 257.241 88.6357 257.233 88.5297C257.218 88.3286 257.206 88.1712 257.197 88.0537C257.187 87.9468 257.181 87.8917 257.177 87.8917C257.173 87.8917 257.172 87.9468 257.175 88.0546C257.178 88.173 257.183 88.3314 257.189 88.5333C257.193 88.6398 257.198 88.7573 257.203 88.8863C257.214 89.0157 257.239 89.1557 257.259 89.3085C257.303 89.6137 257.344 89.968 257.456 90.3536C257.626 91.1365 257.985 92.0636 258.557 93.0481C259.135 94.0284 259.972 95.0542 261.117 95.9262C262.259 96.7905 263.705 97.5266 265.376 97.8254C267.036 98.1141 268.912 98.0641 270.701 97.3848C271.157 97.2389 271.585 97.014 272.025 96.8024C272.442 96.5509 272.881 96.3173 273.268 96.002C273.681 95.7183 274.041 95.364 274.419 95.0221C274.76 94.6444 275.118 94.2735 275.412 93.8444C276.015 93.0045 276.541 92.0705 276.858 91.0443C277.187 90.024 277.363 88.9404 277.374 87.8389C277.357 86.7379 277.176 85.6552 276.841 84.6372C276.518 83.6128 275.988 82.6821 275.381 81.8454C275.085 81.4176 274.725 81.0491 274.381 80.6727C274.002 80.3326 273.64 79.9806 273.226 79.6988C272.837 79.3853 272.396 79.1545 271.978 78.9053C271.537 78.696 271.108 78.4734 270.652 78.3297C268.86 77.6601 266.983 77.6193 265.325 77.9162C263.656 78.2237 262.214 78.9672 261.077 79.837C259.936 80.7149 259.103 81.7449 258.531 82.728C257.963 83.7156 257.609 84.6446 257.443 85.4285C257.333 85.8149 257.293 86.1692 257.251 86.4744C257.231 86.6273 257.207 86.7677 257.197 86.8971C257.192 87.0261 257.188 87.1441 257.185 87.2505C257.18 87.4525 257.175 87.6108 257.172 87.7292C257.172 87.8366 257.173 87.8917 257.177 87.8917Z" fill="#E0E0E0"/>
<path d="M266.746 92.568L260.906 88.4938L262.328 86.4565L266.243 89.1882L271.309 82.7522L273.261 84.2888L266.746 92.568Z" fill="#E0E0E0"/>
<path fill-rule="evenodd" clip-rule="evenodd" d="M104.005 17.1313C102.279 17.3479 100.611 17.7945 99.039 18.443L95.3885 15.3836L89.1177 20.1563L91.0935 24.4903C90.0494 25.8323 89.1742 27.3211 88.5055 28.9284L83.7626 29.3461L82.7038 37.1548L87.163 38.8217C87.3787 40.5488 87.8262 42.2171 88.4752 43.789L85.4158 47.4401L90.1876 53.7099L94.5215 51.7346C95.8635 52.7787 97.3524 53.653 98.9601 54.3217L99.3773 59.0646L107.187 60.1243L108.853 55.6642C110.58 55.4485 112.248 55.001 113.82 54.352L117.472 57.4119L123.743 52.6392L121.766 48.3048C122.81 46.9628 123.684 45.4739 124.354 43.8666L129.097 43.4485L130.156 35.6398L125.697 33.9733C125.481 32.2462 125.034 30.5774 124.385 29.006L127.444 25.3549L122.672 19.0846L118.338 21.0605C116.996 20.0163 115.507 19.1416 113.899 18.4728L113.482 13.7304L105.673 12.6711L104.005 17.1313ZM106.348 27.8994C111.718 28.0913 115.539 33.1086 114.293 38.3375C113.372 42.2052 109.77 44.9452 105.797 44.8001C100.429 44.6042 96.6144 39.5914 97.8563 34.3662C98.7756 30.499 102.375 27.7576 106.348 27.8994Z" fill="#F5F5F5"/>
<path fill-rule="evenodd" clip-rule="evenodd" d="M175.116 42.0973C173.995 42.2382 172.913 42.5278 171.892 42.9486L169.522 40.9627L165.452 44.0607L166.734 46.8741C166.056 47.7452 165.488 48.7118 165.054 49.755L161.975 50.0262L161.288 55.095L164.183 56.1772C164.323 57.2985 164.613 58.3811 165.035 59.4014L163.049 61.7715L166.146 65.8415L168.96 64.5592C169.831 65.2371 170.797 65.8044 171.841 66.2385L172.112 69.3172L177.181 70.0052L178.263 67.1101C179.384 66.9701 180.466 66.6796 181.487 66.2583L183.857 68.2442L187.928 65.1462L186.645 62.3328C187.323 61.4617 187.89 60.4951 188.325 59.4519L191.403 59.1802L192.091 54.1114L189.196 53.0297C189.056 51.9084 188.765 50.8253 188.344 49.805L190.33 47.435L187.232 43.3649L184.419 44.6477C183.548 43.9698 182.581 43.4021 181.538 42.9679L181.267 39.8897L176.198 39.2021L175.116 42.0973ZM176.636 49.0872C180.123 49.2116 182.602 52.4684 181.794 55.8628C181.196 58.3733 178.858 60.1518 176.279 60.0577C172.794 59.9306 170.318 56.6766 171.124 53.2849C171.721 50.7748 174.058 48.9954 176.636 49.0872Z" fill="#EBEBEB"/>
<path d="M132.584 79.1472C132.584 79.1472 131.831 79.4226 130.752 80.3589C129.696 81.2791 128.327 83.0172 127.91 85.5809C127.714 86.8453 127.748 88.2975 128.224 89.7418C128.704 91.1729 129.544 92.6305 130.845 93.7518C131.477 94.3282 132.221 94.811 133.034 95.1846C133.842 95.5702 134.73 95.8359 135.655 95.9506C137.501 96.2214 139.493 95.8561 141.235 94.9203C142.962 93.9542 144.34 92.4703 145.105 90.7676C145.505 89.9259 145.758 89.0341 145.868 88.1451C145.989 87.2584 145.982 86.3708 145.836 85.5281C145.589 83.8281 144.811 82.3361 143.862 81.163C142.899 79.9848 141.693 79.1761 140.521 78.6626C138.135 77.6359 135.934 77.8571 134.591 78.2527C133.221 78.6607 132.584 79.1472 132.584 79.1472C132.61 79.2046 133.286 78.7842 134.641 78.445C135.97 78.115 138.103 77.9645 140.375 78.9921C141.492 79.5061 142.633 80.2965 143.536 81.431C144.427 82.5614 145.153 83.9879 145.373 85.6006C145.506 86.4001 145.507 87.2414 145.386 88.0799C145.278 88.9212 145.035 89.7639 144.653 90.5579C143.924 92.1661 142.621 93.5608 140.991 94.4746C139.344 95.3577 137.468 95.7069 135.721 95.4573C134.846 95.3526 134.005 95.1052 133.238 94.744C132.466 94.3948 131.757 93.9422 131.155 93.4002C129.913 92.3478 129.101 90.9696 128.626 89.611C128.155 88.2397 128.101 86.8531 128.267 85.6351C128.621 83.1663 129.894 81.4489 130.887 80.5044C131.9 79.5442 132.618 79.2005 132.584 79.1472Z" fill="#EBEBEB"/>
<path d="M123.119 72.0008C123.125 72.0027 123.102 71.9003 123.051 71.6965C122.991 71.4721 122.912 71.171 122.81 70.7818C122.581 69.9456 122.251 68.7408 121.822 67.1767L121.783 67.2703C123.645 66.2629 126.093 64.9388 129.054 63.3366L128.895 63.3091C129.894 64.4464 131.003 65.7103 132.189 67.062L132.249 67.1299L132.337 67.1083C133.969 66.7118 135.764 66.4938 137.655 66.5456L137.756 66.5484L137.805 66.4594C138.565 65.0995 139.387 63.6276 140.242 62.0969L140.033 62.1828C142.53 62.9171 145.18 63.6964 147.962 64.5147L147.819 64.3101C147.722 65.854 147.615 67.554 147.505 69.2971L147.497 69.4238L147.606 69.4899C149.026 70.3477 150.477 71.4781 151.76 72.8329L151.852 72.9293L151.98 72.8926C153.469 72.4685 155.111 72.0008 156.783 71.5244L156.522 71.4152C157.768 73.6935 159.112 76.1498 160.489 78.6677L160.539 78.3767C159.374 79.4061 158.094 80.537 156.797 81.683L156.687 81.7799L156.722 81.9222C157.121 83.5427 157.344 85.3685 157.295 87.2153L157.291 87.364L157.422 87.4366C158.79 88.1966 160.283 89.0255 161.79 89.8626L161.672 89.5749C160.938 92.0872 160.152 94.7799 159.355 97.5098L159.613 97.328C158.038 97.2317 156.338 97.1275 154.625 97.0228L154.471 97.0137L154.392 97.1454C153.52 98.5943 152.391 100.034 151.066 101.293L151.064 101.295L151.064 101.296C151.032 101.41 151.132 101.042 150.993 101.551L150.995 101.556L150.998 101.565L151.003 101.584L151.014 101.622L151.036 101.697L151.079 101.848L151.165 102.15L151.338 102.754L151.683 103.958C151.912 104.759 152.141 105.557 152.369 106.351L152.491 106.058C150.042 107.403 147.625 108.729 145.244 110.036L145.553 110.089C144.439 108.831 143.335 107.584 142.242 106.351L142.141 106.237L141.995 106.274C140.246 106.707 138.461 106.897 136.703 106.855L136.554 106.851L136.482 106.982C135.663 108.46 134.857 109.915 134.061 111.352L134.341 111.237C131.631 110.45 128.984 109.681 126.403 108.932L126.571 109.171C126.673 107.479 126.772 105.817 126.869 104.184L126.877 104.045L126.759 103.974C125.199 103.036 123.8 101.906 122.596 100.646L122.504 100.549L122.376 100.586C120.731 101.06 119.135 101.52 117.577 101.969L117.821 102.071C116.417 99.5246 115.091 97.1206 113.83 94.8318L113.788 95.0713C115.101 93.9042 116.332 92.8087 117.52 91.7521L117.603 91.6783L117.577 91.5713C117.116 89.7203 116.947 87.9446 116.982 86.2616L116.985 86.1597L116.896 86.1111C115.306 85.2354 113.873 84.4469 112.519 83.702L112.59 83.8755C113.473 80.7973 114.225 78.1748 114.869 75.9295L114.752 76.0112C116.745 76.1195 118.379 76.209 119.741 76.2834L119.791 76.2861L119.816 76.2439C120.747 74.6848 121.622 73.648 122.213 72.9798C122.505 72.6636 122.73 72.4217 122.894 72.2441C123.054 72.0821 123.125 72.0027 123.119 72.0008C123.112 71.999 123.024 72.0733 122.865 72.217C122.704 72.3689 122.46 72.5993 122.152 72.9256C121.538 73.5783 120.638 74.6036 119.677 76.1618L119.753 76.1223C118.392 76.0305 116.759 75.9203 114.768 75.7859L114.677 75.7799L114.651 75.868C113.988 78.1077 113.212 80.7234 112.303 83.7938L112.269 83.9085L112.375 83.9673C113.723 84.7214 115.151 85.5195 116.736 86.4057L116.65 86.2557C116.604 87.9662 116.765 89.774 117.224 91.6613L117.28 91.4809C116.087 92.5315 114.85 93.621 113.532 94.7817L113.415 94.8846L113.49 95.0218C114.743 97.3152 116.058 99.7247 117.452 102.277L117.533 102.425L117.695 102.379C119.255 101.936 120.852 101.481 122.499 101.013L122.279 100.953C123.505 102.245 124.932 103.404 126.525 104.368L126.415 104.159C126.313 105.792 126.21 107.454 126.105 109.146L126.093 109.333L126.273 109.385C128.852 110.14 131.497 110.914 134.206 111.707L134.391 111.761L134.486 111.592C135.284 110.156 136.092 108.702 136.913 107.225L136.692 107.351C138.492 107.397 140.323 107.204 142.115 106.762L141.868 106.685C142.96 107.92 144.062 109.167 145.176 110.427L145.309 110.578L145.485 110.481C147.868 109.175 150.285 107.85 152.735 106.507L152.913 106.409L152.857 106.214C152.629 105.419 152.401 104.621 152.172 103.82L151.827 102.616L151.654 102.012L151.568 101.71L151.524 101.559L151.503 101.483L151.492 101.445L151.487 101.427L151.484 101.417L151.483 101.412C151.345 101.92 151.445 101.553 151.414 101.666L151.415 101.665L151.417 101.663C152.776 100.372 153.934 98.8954 154.827 97.4097L154.594 97.5318C156.307 97.636 158.007 97.7388 159.582 97.8347L159.784 97.8471L159.841 97.653C160.635 94.9226 161.419 92.229 162.15 89.7157L162.206 89.5244L162.032 89.428C160.523 88.5927 159.029 87.7656 157.66 87.0074L157.787 87.2287C157.834 85.3364 157.604 83.4666 157.191 81.8079L157.117 82.0465C158.412 80.8982 159.689 79.7651 160.853 78.7329L160.995 78.6071L160.904 78.4414C159.52 75.9268 158.171 73.4736 156.92 71.1986L156.832 71.0393L156.658 71.0893C154.987 71.5708 153.347 72.0435 151.859 72.4717L152.078 72.5314C150.763 71.1504 149.276 70.0007 147.823 69.131L147.924 69.3237C148.027 67.5806 148.128 65.8797 148.219 64.3358L148.229 64.1756L148.075 64.1311C145.289 63.3256 142.635 62.5587 140.135 61.8358L139.995 61.7954L139.925 61.9216C139.079 63.4573 138.265 64.9338 137.513 66.2978L137.663 66.2115C135.741 66.1707 133.92 66.4038 132.266 66.8187L132.413 66.8646C131.215 65.5222 130.096 64.2674 129.089 63.1379L129.019 63.0603L128.93 63.1103C125.987 64.7465 123.555 66.0991 121.705 67.1281L121.648 67.1602L121.666 67.2217C122.127 68.7615 122.481 69.9484 122.727 70.7713C122.847 71.1614 122.94 71.462 123.01 71.6869C123.075 71.8934 123.112 71.999 123.119 72.0008Z" fill="#EBEBEB"/>
<path d="M103.686 80.3002L110.888 51.6597L81.5845 51.1755L103.686 80.3002Z" fill="#EBEBEB"/>
<path d="M90.421 56.741L100.487 70.0056L46.8449 110.712L36.7791 97.4472L90.421 56.741Z" fill="#EBEBEB"/>
<path d="M51.2628 153.514L47.5407 161.954C47.5407 161.954 54.8689 168.571 54.3328 170.198L37.7098 163.569L42.9699 150.181L51.2628 153.514Z" fill="#13C4A3"/>
<path opacity="0.5" d="M51.2628 153.514L47.5407 161.954C47.5407 161.954 54.8689 168.571 54.3328 170.198L37.7098 163.569L42.9699 150.181L51.2628 153.514Z" fill="black"/>
<path d="M37.7096 163.569L38.2925 162.24L54.0123 169.093C54.0123 169.093 54.6241 169.71 54.3327 170.198L37.7096 163.569Z" fill="#263238"/>
<path d="M21.99 165.469L17.3306 173.429C17.3306 173.429 23.857 180.839 23.1392 182.394L7.37991 173.914L14.1312 161.212L21.99 165.469Z" fill="#13C4A3"/>
<path opacity="0.5" d="M21.99 165.469L17.3306 173.429C17.3306 173.429 23.857 180.839 23.1392 182.394L7.37991 173.914L14.1312 161.212L21.99 165.469Z" fill="black"/>
<path d="M7.37998 173.914L8.11064 172.661L22.9474 181.26C22.9474 181.26 23.4849 181.943 23.1397 182.394L7.37998 173.914Z" fill="#263238"/>
<path d="M42.3251 53.8059L52.5407 54.6017L52.8798 48.8826C52.8798 48.8826 57.0004 48.8225 57.6172 44.7979C58.234 40.7733 58.8367 31.4174 58.8367 31.4174C54.4518 28.7554 48.9695 28.6751 44.5084 31.2076L43.8461 31.5835L42.3251 53.8059Z" fill="#FFBE9D"/>
<path d="M52.894 48.8251C52.894 48.8251 50.317 48.6741 47.8482 46.5923C47.8482 46.5923 48.7414 49.7577 52.8156 49.9601L52.894 48.8251Z" fill="#EB996E"/>
<path d="M43.7551 35.8292C43.6904 35.7898 41.1001 34.6203 40.8008 37.3892C40.5011 40.1577 43.343 39.8874 43.3563 39.8084C43.3696 39.7295 43.7551 35.8292 43.7551 35.8292Z" fill="#FFBE9D"/>
<path d="M42.6238 38.6681C42.6128 38.658 42.5719 38.6965 42.4865 38.725C42.403 38.7525 42.2635 38.7631 42.1253 38.6933C41.8445 38.5542 41.6485 38.0632 41.6889 37.5629C41.7091 37.31 41.7875 37.0759 41.8986 36.8868C42.0051 36.6936 42.1515 36.566 42.3016 36.5559C42.4517 36.538 42.5467 36.6372 42.5719 36.7189C42.6008 36.8001 42.577 36.8538 42.5912 36.8598C42.5981 36.8676 42.6559 36.8198 42.6458 36.7033C42.6403 36.6468 42.615 36.578 42.5558 36.5178C42.4953 36.4563 42.4003 36.4187 42.2965 36.4182C42.0813 36.41 41.8679 36.5858 41.7462 36.7928C41.6127 36.9998 41.5181 37.2627 41.4956 37.5464C41.453 38.1063 41.682 38.6589 42.0698 38.8181C42.2589 38.8902 42.4278 38.8489 42.5187 38.7924C42.6114 38.7346 42.633 38.674 42.6238 38.6681Z" fill="#EB996E"/>
<path d="M57.0962 37.7528C57.0645 38.0584 56.779 38.2833 56.4591 38.2553C56.1402 38.2278 55.9066 37.9584 55.9387 37.6527C55.9708 37.3471 56.2558 37.1217 56.5753 37.1493C56.8947 37.1772 57.1283 37.4471 57.0962 37.7528Z" fill="#263238"/>
<path d="M57.2758 36.9818C57.1936 37.0469 56.803 36.6628 56.183 36.5774C55.5652 36.4833 55.0659 36.7381 55.0089 36.6527C54.9805 36.6146 55.0723 36.4893 55.2908 36.3727C55.506 36.2566 55.858 36.1639 56.2435 36.2199C56.6291 36.2763 56.9338 36.4641 57.1 36.6357C57.2698 36.8083 57.3152 36.9528 57.2758 36.9818Z" fill="#263238"/>
<path d="M51.0705 37.0555C51.0384 37.3611 50.7534 37.5856 50.4335 37.5585C50.1145 37.531 49.8809 37.2616 49.913 36.9559C49.9452 36.6502 50.2302 36.4253 50.5496 36.4524C50.8695 36.4799 51.1027 36.7498 51.0705 37.0555Z" fill="#263238"/>
<path d="M51.1691 36.2411C51.0869 36.3062 50.6954 35.9221 50.0763 35.8367C49.4585 35.7426 48.9587 35.9974 48.9023 35.912C48.8743 35.8739 48.9651 35.7486 49.1841 35.6325C49.3993 35.5164 49.7509 35.4237 50.1369 35.4792C50.5224 35.5356 50.8271 35.7234 50.9933 35.895C51.1631 36.0676 51.2085 36.2121 51.1691 36.2411Z" fill="#263238"/>
<path d="M52.7715 41.1519C52.7738 41.1161 53.168 41.1037 53.8032 41.112C53.9639 41.118 54.1176 41.1074 54.1599 41.0032C54.2131 40.894 54.1709 40.7141 54.1204 40.5195C54.0254 40.1156 53.9262 39.6924 53.822 39.2491C53.4136 37.4426 53.1414 35.9661 53.2144 35.9501C53.2874 35.934 53.6775 37.3857 54.086 39.1922C54.1828 39.6369 54.276 40.0614 54.3636 40.4672C54.398 40.6553 54.4724 40.8738 54.3586 41.0996C54.2994 41.2116 54.1713 41.2814 54.0658 41.2942C53.9602 41.3107 53.8707 41.3002 53.7918 41.2937C53.1589 41.2396 52.7692 41.1873 52.7715 41.1519Z" fill="#263238"/>
<path d="M50.8877 41.324C50.9891 41.3323 50.896 42.0051 51.4045 42.5632C51.9116 43.1227 52.6391 43.1484 52.6313 43.2429C52.635 43.2865 52.4532 43.3512 52.1498 43.3168C51.8515 43.2851 51.4316 43.1291 51.1204 42.7876C50.8106 42.4457 50.7142 42.0335 50.7303 41.7545C50.744 41.4695 50.8423 41.3134 50.8877 41.324Z" fill="#263238"/>
<path d="M51.6705 33.8355C51.5856 33.9952 50.9784 33.8286 50.239 33.814C49.5001 33.7846 48.8842 33.9149 48.8089 33.7502C48.7759 33.6717 48.9007 33.5276 49.1605 33.3981C49.4184 33.2683 49.8149 33.1664 50.2583 33.1788C50.7012 33.1925 51.0913 33.3178 51.3405 33.4629C51.5925 33.6079 51.7082 33.7589 51.6705 33.8355Z" fill="#263238"/>
<path d="M57.3 35.1565C57.171 35.2818 56.7648 35.0757 56.2526 34.9968C55.7432 34.8999 55.2916 34.9582 55.2122 34.7967C55.1782 34.7191 55.2668 34.5878 55.4751 34.4809C55.6808 34.3744 56.0094 34.3102 56.3605 34.3703C56.7116 34.4309 56.9994 34.6016 57.1577 34.771C57.3183 34.9412 57.3573 35.0945 57.3 35.1565Z" fill="#263238"/>
<path d="M61.1581 29.1482C61.2715 28.6543 61.1609 28.0921 60.7956 27.7415C60.4302 27.3908 59.7968 27.3206 59.4136 27.6515C59.6977 27.0048 59.2562 26.1512 58.5646 26.0084C57.9128 25.8744 57.2822 26.2921 56.6222 26.377C55.9783 26.46 55.333 26.2191 54.7703 25.8951C54.2076 25.571 53.6964 25.1607 53.1236 24.8555C51.9285 24.218 50.4795 24.0734 49.1821 24.4617C47.8846 24.85 46.7532 25.7666 46.1043 26.9557C45.2612 26.5564 44.1964 26.863 43.5479 27.5335C42.8994 28.2041 42.6217 29.1651 42.601 30.0978C42.5868 30.7279 42.6818 31.3521 42.8075 31.9717C42.8002 32.0235 42.7878 32.0736 42.7814 32.1259C42.5115 34.3486 42.3959 36.9877 43.34 37.135C44.9849 37.392 45.0289 34.2311 45.0289 34.2311C47.1622 33.7341 46.8345 30.5966 47.405 30.2084C47.9754 29.8196 49.1839 28.8999 53.1153 31.6605C54.6418 32.7322 56.8324 33.0135 58.0643 32.9107C58.1005 32.908 58.1363 32.9075 58.1726 32.9043C58.1804 32.9034 58.19 32.9034 58.1978 32.9029C58.2112 32.9015 58.2217 32.8956 58.235 32.8937C58.6297 32.8483 59.0171 32.7524 59.3861 32.5858C59.8037 32.3971 60.1989 32.1172 60.421 31.7165C60.6432 31.3154 60.6565 30.7779 60.3673 30.4218C60.7345 30.0716 61.0448 29.642 61.1581 29.1482Z" fill="#263238"/>
<path d="M52.894 52.3872L52.4383 68.392L42.4803 46.954L42.7295 44.969L52.894 52.3872Z" fill="#EBEBEB"/>
<path d="M46.2873 100.233C46.6521 100.353 67.3861 121.322 66.9202 125.088C66.4544 128.855 51.6947 156.749 51.6947 156.749L41.1644 151.557L51.0426 127.102L50.9131 125.585L38.8407 115.692L39.4855 99.783L46.2873 100.233Z" fill="#263238"/>
<path d="M41.8167 104.365C41.5757 104.731 37.9853 137.674 37.0228 139.378C36.0604 141.083 21.6385 169.207 21.6385 169.207L10.931 164.892L24.0031 133.983L22.5133 104.729L23.3197 96.4685L39.4861 99.7831L41.8167 104.365Z" fill="#263238"/>
<path d="M37.2104 138.799C37.2182 138.8 37.2421 138.686 37.2802 138.469C37.3196 138.23 37.371 137.913 37.4362 137.518C37.5652 136.666 37.7455 135.475 37.9668 134.013C38.3959 131.029 38.9829 126.948 39.6314 122.44C40.2542 117.926 40.8178 113.841 41.23 110.855C41.4209 109.39 41.577 108.196 41.688 107.341C41.7348 106.943 41.7725 106.625 41.8009 106.384C41.8243 106.164 41.8326 106.049 41.8248 106.048C41.817 106.047 41.7931 106.16 41.755 106.377C41.7156 106.617 41.6641 106.933 41.599 107.328C41.47 108.181 41.2896 109.371 41.0684 110.833C40.6393 113.816 40.0523 117.898 39.4033 122.408C38.781 126.921 38.2174 131.006 37.8052 133.992C37.6143 135.457 37.4582 136.651 37.3472 137.506C37.2999 137.904 37.2627 138.222 37.2343 138.463C37.2113 138.682 37.2026 138.798 37.2104 138.799Z" fill="#455A64"/>
<path d="M24.2745 133.038C24.2135 133.056 24.4921 134.225 24.8969 135.649C25.3021 137.073 25.6798 138.214 25.7409 138.197C25.8019 138.179 25.5233 137.011 25.1185 135.586C24.7133 134.162 24.3355 133.021 24.2745 133.038Z" fill="#455A64"/>
<path d="M22.6545 140.5C22.6756 140.515 22.929 140.225 23.2392 139.687C23.5495 139.151 23.8955 138.354 24.0952 137.425C24.2921 136.494 24.3013 135.625 24.2365 135.009C24.1728 134.392 24.0598 134.024 24.0341 134.029C23.9575 134.035 24.2705 135.554 23.8698 137.376C23.4926 139.203 22.587 140.463 22.6545 140.5Z" fill="#455A64"/>
<path d="M54.4963 123.554C54.4752 123.5 53.6092 123.86 52.7675 124.633C51.9207 125.4 51.4828 126.229 51.5342 126.255C51.5921 126.293 52.1029 125.544 52.9226 124.802C53.7358 124.055 54.5289 123.616 54.4963 123.554Z" fill="#455A64"/>
<path d="M52.8705 122.581C52.8287 122.538 52.3005 123.005 51.8498 123.739C51.3949 124.471 51.2137 125.152 51.271 125.17C51.3339 125.193 51.6051 124.568 52.0457 123.86C52.4813 123.15 52.9196 122.627 52.8705 122.581Z" fill="#455A64"/>
<path d="M51.439 74.5229L48.7885 87.673L46.6314 106.023C46.6314 106.023 37.7386 104.781 33.9485 103.581C29.5526 102.19 19.9875 101.005 19.9875 101.005L21.5998 102.6C18.1778 101.642 15.9986 98.3759 15.9986 98.3759C21.8976 92.9051 26.9292 81.651 26.9292 81.651L31.4146 59.3809C31.4146 59.3809 32.0953 56.2388 32.5065 54.8422C32.9177 53.4451 39.7282 48.9386 40.6723 48.3691L41.2653 48.0886L41.4539 46.3037L42.1557 45.8838L49.527 52.58C50.9594 53.8839 51.8737 55.6601 52.0921 57.5845C52.3225 59.6136 52.5291 62.5243 52.4134 65.9619C52.3253 68.5706 51.439 74.5229 51.439 74.5229Z" fill="#13C4A3"/>
<path d="M46.3791 51.7433C46.3791 51.7433 50.2734 53.8311 50.9485 55.6026C51.6236 57.3742 49.6157 76.7997 49.6157 76.7997L63.5992 77.0617L63.6433 85.3942C63.6433 85.3942 41.432 87.1492 40.5673 85.9486C39.3988 84.3252 38.0407 69.1465 38.0407 69.1465L37.5363 58.2256C37.5363 58.2256 38.8242 49.8969 46.3791 51.7433Z" fill="#13C4A3"/>
<g opacity="0.3">
<path d="M48.7888 87.6723C46.9066 88.2808 45.1612 88.3781 43.1918 88.195C41.2224 88.0119 39.2181 86.9343 38.4736 85.1016C37.9036 83.6981 38.1414 82.117 38.0551 80.6047C37.9798 79.2912 37.6544 78.0061 37.4561 76.7054C37.2579 75.4047 37.9321 73.0136 38.3612 71.7698C38.3612 71.7698 38.8601 80.7865 40.2705 84.5724C40.4628 85.0883 40.7065 85.6097 41.1352 85.9548C41.634 86.3564 42.3262 86.3918 42.9632 86.4583C44.7472 86.6446 49.0518 86.3353 49.0518 86.3353" fill="black"/>
</g>
<path d="M37.5601 59.405C37.556 59.4055 37.556 59.4725 37.5597 59.6033C37.5652 59.7442 37.5725 59.937 37.5817 60.1839C37.6069 60.7053 37.6432 61.4547 37.6891 62.4144C37.74 63.3865 37.802 64.5711 37.8741 65.9434C37.958 67.3184 38.0035 68.8876 38.1724 70.6142C38.3229 72.3417 38.5037 74.2326 38.7204 76.2603C38.9457 78.2871 39.1857 80.4534 39.5717 82.7188C39.6814 83.2851 39.7686 83.8556 39.9554 84.4316C40.1477 84.9998 40.4819 85.5446 40.9638 85.9425C41.4388 86.3313 42.0689 86.608 42.7037 86.5635C43.3205 86.5777 43.9383 86.5617 44.5629 86.5543C47.0592 86.4928 49.639 86.3648 52.2808 86.2216C56.2499 86.0022 60.0753 85.7543 63.6501 85.5038L63.7529 85.4964L63.7525 85.3931C63.7346 82.4338 63.7176 79.6456 63.7025 77.0741L63.702 76.9777L63.6065 76.9758C58.0228 76.8556 53.374 76.756 50.1094 76.6858C48.4912 76.6578 47.2162 76.6357 46.3336 76.6201C45.9068 76.616 45.5754 76.6128 45.3395 76.6105C45.1146 76.61 44.9985 76.6174 44.9985 76.6174C44.9985 76.6174 45.1141 76.6307 45.339 76.6412C45.5749 76.6504 45.9058 76.6637 46.3327 76.6803C47.2148 76.7083 48.4893 76.7486 50.1072 76.8001C53.3717 76.89 58.0196 77.0185 63.6024 77.1727L63.506 77.0745C63.5143 79.6461 63.5239 82.4342 63.5335 85.3936L63.6359 85.2835C60.062 85.5276 56.237 85.7718 52.2693 85.9907C49.6289 86.1339 47.0496 86.2633 44.5588 86.328C43.9364 86.3363 43.3182 86.3528 42.711 86.34C42.113 86.384 41.5503 86.1307 41.1042 85.7718C40.6585 85.4051 40.3446 84.8998 40.1606 84.3605C39.983 83.8194 39.8898 83.2383 39.781 82.6807C39.3914 80.4277 39.144 78.2618 38.9108 76.2383C38.6859 74.2129 38.4959 72.3238 38.3353 70.5981C38.1563 68.8738 38.0994 67.306 38.003 65.9328C37.9158 64.5614 37.841 63.3787 37.7795 62.4075C37.7148 61.4492 37.6638 60.7007 37.629 60.1797C37.6097 59.9333 37.595 59.7414 37.584 59.6005C37.5716 59.4716 37.5638 59.4046 37.5601 59.405Z" fill="#263238"/>
<path d="M60.8982 85.2716C60.962 85.2711 61.0037 83.4619 60.9922 81.2309C60.9803 78.999 60.9193 77.1907 60.8559 77.1912C60.7926 77.1916 60.7504 79.0004 60.7618 81.2323C60.7738 83.4628 60.8348 85.2716 60.8982 85.2716Z" fill="#263238"/>
<path d="M62.3809 78.4569C62.4076 78.4417 62.268 78.2862 62.0023 78.3743C61.8802 78.4133 61.7315 78.5496 61.7187 78.7442C61.7031 78.9282 61.7939 79.1435 62.0028 79.2431C62.2139 79.3344 62.4342 79.2647 62.5655 79.1398C62.7054 79.0104 62.7307 78.8227 62.7018 78.6997C62.6389 78.4358 62.4553 78.3798 62.4489 78.4064C62.4264 78.4321 62.5361 78.5299 62.5398 78.7194C62.5411 78.8117 62.5099 78.9149 62.4236 78.9815C62.3406 79.0503 62.2015 79.0815 62.0978 79.0338C61.9945 78.9879 61.928 78.8608 61.9303 78.7561C61.9284 78.6501 61.9922 78.5684 62.0702 78.5221C62.2313 78.4261 62.3667 78.4867 62.3809 78.4569Z" fill="#263238"/>
<path d="M31.3521 61.2891C31.3521 61.2891 24.0771 70.8015 23.1908 73.3937C22.3046 75.9859 22.9894 79.7076 24.4709 81.4874C25.9524 83.2673 27.1471 82.5439 27.1471 82.5439L31.3521 61.2891Z" fill="#13C4A3"/>
<path d="M27.4079 81.7797C27.3974 81.8426 28.2134 82.0349 29.2309 82.2093C30.2489 82.3841 31.0824 82.4746 31.0934 82.4121C31.104 82.3493 30.2879 82.157 29.2699 81.9826C28.2524 81.8077 27.419 81.7168 27.4079 81.7797Z" fill="#263238"/>
<path d="M26.0096 88.7933C25.9944 88.7892 25.9247 88.9681 25.8122 89.2954C25.7021 89.6231 25.535 90.0949 25.3188 90.6736C24.8897 91.8321 24.2284 93.4067 23.3646 95.0815C22.4981 96.7558 21.6013 98.2097 20.9206 99.241C20.581 99.7574 20.3006 100.172 20.1046 100.457C19.91 100.743 19.8081 100.907 19.821 100.916C19.8338 100.925 19.9596 100.781 20.1771 100.51C20.396 100.241 20.6976 99.8391 21.0556 99.3324C21.7734 98.3204 22.6977 96.871 23.5698 95.1866C24.4386 93.5017 25.0806 91.905 25.4726 90.7273C25.6699 90.1389 25.8141 89.6575 25.8981 89.3206C25.9843 88.9856 26.0247 88.7979 26.0096 88.7933Z" fill="#263238"/>
<g opacity="0.3">
<path d="M25.5151 89.9204C24.3618 91.9752 23.1772 94.0703 21.4208 95.6404C20.8007 96.1948 20.1068 96.6869 19.634 97.3712C19.1613 98.0555 18.9566 99.0124 19.4059 99.7123C19.5643 99.9592 19.8456 100.172 20.1311 100.104C20.3335 100.057 20.4785 99.8835 20.6061 99.7192C22.7958 96.9007 24.4449 93.6632 25.4367 90.2343" fill="black"/>
</g>
<g opacity="0.3">
<path d="M26.4756 82.5082C25.4797 81.7927 25.1309 80.431 25.2787 79.2134C25.4265 77.9958 25.9827 76.8727 26.4866 75.7547C28.0499 72.2863 29.1055 69.1498 30.0303 65.3624L30.7412 62.7239L27.1425 81.5504L26.4756 82.5082Z" fill="black"/>
</g>
<path d="M44.4853 50.8979C44.5257 50.8451 43.8726 50.2893 43.1295 49.5431C42.3833 48.7995 41.8279 48.1464 41.7751 48.1868C41.726 48.2226 42.2079 48.9492 42.9666 49.7055C43.723 50.4651 44.4495 50.947 44.4853 50.8979Z" fill="#263238"/>
<path d="M45.2206 52.5096C45.2092 52.5482 45.6406 52.6781 46.284 52.9966C46.9275 53.3123 47.7706 53.8516 48.5412 54.6277C49.3086 55.4075 49.8378 56.257 50.1462 56.9042C50.4569 57.5518 50.5813 57.9846 50.6203 57.9731C50.6354 57.9689 50.6171 57.8579 50.5703 57.6587C50.5267 57.4586 50.4344 57.1763 50.2949 56.8372C50.0191 56.1593 49.4954 55.268 48.7055 54.4657C47.9124 53.6662 47.028 53.1324 46.3533 52.8483C46.016 52.7047 45.7347 52.6092 45.535 52.5633C45.3363 52.5142 45.2252 52.4945 45.2206 52.5096Z" fill="#263238"/>
<path d="M25.6821 84.4C25.689 84.4033 25.728 84.3404 25.7964 84.2174C25.8744 84.071 25.9708 83.8911 26.0879 83.6717C26.3481 83.1627 26.701 82.4724 27.1347 81.6233L27.1389 81.6155L27.1412 81.605C27.596 79.5204 28.2399 76.4798 28.9393 73.0986C29.5856 69.9116 30.1698 67.0284 30.6013 64.9012C30.7981 63.8745 30.9597 63.0323 31.079 62.4118C31.1268 62.1378 31.1658 61.9133 31.1974 61.7325C31.2222 61.5769 31.2314 61.4943 31.2236 61.4925C31.2158 61.4906 31.1915 61.5705 31.152 61.7229C31.1093 61.9014 31.0561 62.1231 30.9914 62.3934C30.8546 63.0102 30.6687 63.8474 30.442 64.8681C29.9936 66.9917 29.3859 69.8703 28.7145 73.0523C28.015 76.4339 27.3995 79.48 26.9897 81.5738L26.9961 81.5554C26.5886 82.4173 26.2568 83.1182 26.0126 83.635C25.9102 83.8617 25.8263 84.0476 25.7579 84.199C25.7014 84.3275 25.6752 84.3968 25.6821 84.4Z" fill="#263238"/>
<path d="M49.8576 76.7918C49.8732 76.7932 49.9103 76.5477 49.964 76.1025C50.0168 75.616 50.0861 74.9808 50.1692 74.2148C50.3321 72.6199 50.5419 70.415 50.7594 67.9789C50.977 65.5418 51.1606 63.3347 51.2822 61.7361C51.3359 60.9678 51.3804 60.3303 51.4144 59.8425C51.4405 59.395 51.4474 59.1471 51.4313 59.1458C51.4153 59.1444 51.3786 59.3904 51.3249 59.8356C51.2721 60.3221 51.2028 60.9577 51.1197 61.7233C50.9563 63.3182 50.747 65.5225 50.5295 67.9592C50.3124 70.3949 50.1284 72.6015 50.0067 74.1996C49.953 74.9679 49.9085 75.6054 49.8745 76.0938C49.8484 76.5417 49.8415 76.79 49.8576 76.7918Z" fill="#263238"/>
<path d="M63.4244 78.0367C63.4244 78.0367 66.4402 75.7488 67.1759 75.6111C67.7395 75.5056 71.1051 75.5615 72.6536 75.5937C73.2484 75.6061 73.7716 76.0737 73.7643 76.669C73.7638 76.7076 73.7606 76.7443 73.7537 76.7782C73.6321 77.4061 73.0175 77.5429 73.0175 77.5429C73.0175 77.5429 73.8198 77.7728 73.8326 78.6467C73.8455 79.5205 72.7876 79.7046 72.7876 79.7046C72.7876 79.7046 72.8509 79.7514 72.9391 79.839C73.5173 80.416 73.2236 81.4078 72.4268 81.5891L71.95 81.6974C71.95 81.6974 72.5953 81.9659 72.5861 82.5657C72.5687 83.7163 69.9815 83.9366 69.9815 83.9366C69.9815 83.9366 63.5877 84.9486 63.4496 84.9027C63.3119 84.8564 63.4244 78.0367 63.4244 78.0367Z" fill="#FFBE9D"/>
<path d="M72.0586 74.2328C72.0307 74.6119 71.9416 75.4187 71.2963 75.7845L67.7334 75.645C67.7334 75.645 70.3867 74.7294 70.7639 74.2768C70.8961 74.118 71.0783 73.9216 71.2724 73.7793C71.6102 73.532 72.0894 73.8151 72.0586 74.2328Z" fill="#FFBE9D"/>
<path d="M69.4096 75.6101C69.4082 75.6721 70.1366 75.7418 71.0366 75.7253C71.932 75.7088 72.6586 75.6753 72.6604 75.6101C72.6618 75.5481 71.9334 75.4784 71.0334 75.4949C70.1375 75.5114 69.411 75.5449 69.4096 75.6101Z" fill="#EB996E"/>
<path d="M70.2102 77.5992C70.2038 77.6603 70.8321 77.7713 71.6146 77.7424C72.3971 77.7158 73.0163 77.5602 73.0057 77.4996C72.9952 77.4349 72.3728 77.4863 71.6068 77.512C70.8408 77.5409 70.2162 77.5336 70.2102 77.5992Z" fill="#EB996E"/>
<path d="M68.3973 77.3455C68.3445 77.378 68.4129 77.5722 68.6139 77.7021C68.815 77.8329 69.0197 77.8159 69.0279 77.7539C69.0394 77.6901 68.8957 77.6121 68.7392 77.5088C68.5809 77.4079 68.451 77.3087 68.3973 77.3455Z" fill="#EB996E"/>
<path d="M69.8178 79.8563C69.8223 79.9196 70.5099 79.9485 71.353 79.921C72.1961 79.893 72.8804 79.8191 72.8809 79.7553C72.8813 79.6915 72.1943 79.6626 71.3456 79.6906C70.497 79.7186 69.8132 79.793 69.8178 79.8563Z" fill="#EB996E"/>
<path d="M67.7817 78.904C67.7532 78.8957 67.6977 78.9673 67.6807 79.1077C67.6628 79.2445 67.6963 79.4524 67.8344 79.6282C67.973 79.804 68.1667 79.8852 68.304 79.9004C68.4439 79.9169 68.527 79.8802 68.5256 79.8503C68.5275 79.7875 68.2186 79.748 68.0153 79.4859C67.8087 79.2266 67.8427 78.9173 67.7817 78.904Z" fill="#EB996E"/>
<path d="M69.2796 82.0667C69.2874 82.1301 69.9075 82.1053 70.6648 82.0116C71.422 81.918 72.0297 81.7909 72.0219 81.728C72.0141 81.6651 71.394 81.6895 70.6368 81.7831C69.8795 81.8767 69.2718 82.0038 69.2796 82.0667Z" fill="#EB996E"/>
<path d="M67.2916 80.9433C67.2618 80.9391 67.2182 81.0172 67.2223 81.1553C67.2246 81.2921 67.287 81.4784 67.4132 81.6391C67.6739 81.9548 67.9667 82.0691 67.9993 82.0264C68.0452 81.9718 67.8102 81.7625 67.5954 81.4982C67.3761 81.2324 67.3513 80.9538 67.2916 80.9433Z" fill="#EB996E"/>
<path d="M22.8095 102.792C21.5506 102.68 20.3642 101.933 19.7198 100.846C19.6468 100.723 19.584 100.555 19.679 100.448C19.7432 100.376 19.8515 100.368 19.9484 100.367C20.9439 100.358 21.9407 100.529 22.8761 100.869C22.9825 100.908 23.0991 100.96 23.139 101.066C23.168 101.142 23.1473 101.228 23.1267 101.307C23.0014 101.79 22.8761 102.272 22.7508 102.755" fill="#13C4A3"/>
<g opacity="0.4">
<path d="M22.8095 102.792C21.5506 102.68 20.3642 101.933 19.7198 100.846C19.6468 100.723 19.584 100.555 19.679 100.448C19.7432 100.376 19.8515 100.368 19.9484 100.367C20.9439 100.358 21.9407 100.529 22.8761 100.869C22.9825 100.908 23.0991 100.96 23.139 101.066C23.168 101.142 23.1473 101.228 23.1267 101.307C23.0014 101.79 22.8761 102.272 22.7508 102.755" fill="black"/>
</g>
<path d="M52.8939 52.3872C52.8939 52.3872 54.3607 57.3114 53.9564 57.0314C53.552 56.7514 52.6754 55.974 52.6754 55.974L52.8939 52.3872Z" fill="#EBEBEB"/>
<path d="M52.8094 54.6572L53.6117 56.5743C53.6888 56.7744 53.7407 56.9809 53.7668 57.1934C53.8334 57.7304 53.91 58.7149 53.5901 58.7833C53.1486 58.8778 52.7328 58.4285 52.7328 58.4285L52.8094 54.6572Z" fill="#263238"/>
<path d="M27.9335 54.9597C27.9335 54.9597 35.7798 51.8985 40.1248 54.6018C44.4693 57.305 45.261 61.6188 47.8482 61.6188C52.894 61.6188 52.7324 58.0586 52.7324 58.0586L53.805 58.3836C53.8261 59.1119 54.9749 64.3427 49.6574 64.9912C44.3399 65.6397 42.1052 58.3905 37.3215 58.3836C32.5377 58.3767 28.9065 60.9707 28.9065 60.9707L25.4698 58.7971L27.9335 54.9597Z" fill="#263238"/>
<path d="M48.0671 64.9041C48.0671 64.9041 46.1106 63.9013 45.0403 61.4311C43.8218 58.6191 41.2048 55.4082 39.0201 54.6014C36.835 53.7945 31.7801 53.2318 28.2883 55.5069L26.0522 58.5278L28.9556 60.4109C28.9556 60.4109 31.2504 59.1501 34.0716 58.3625C37.68 57.3551 39.8733 58.4929 41.9708 60.4783C42.1011 60.6018 42.2209 60.7239 42.3256 60.8423C42.8552 61.4435 44.3184 62.8356 45.647 63.7828C46.6724 64.5153 47.5999 64.9123 48.0671 64.9041Z" fill="#455A64"/>
<path d="M210.536 22.1836C215.189 22.9005 218.601 18.9916 219.689 15.5108C220.693 12.2981 221.171 8.95549 222.582 5.89928C224.554 1.6282 229.777 -0.345326 234.465 0.0493791C239.153 0.444084 243.876 2.7935 248.023 5.01348L246.879 30.7226C246.879 30.7226 237.847 21.1051 233.507 20.9302C226.266 20.6378 226.661 32.5405 219.629 34.2974C219.629 34.2974 209.771 36.9699 203.107 28.3617C198.878 22.8987 198.503 16.2617 198.503 16.2617C198.503 16.2617 201.743 20.8292 210.536 22.1836Z" fill="#13C4A3"/>
<path d="M248.213 0.748047C248.15 0.745293 246.883 28.046 245.385 61.7185C243.886 95.4029 242.722 122.702 242.786 122.705C242.849 122.708 244.116 95.413 245.615 61.7286C247.113 28.0566 248.277 0.75126 248.213 0.748047Z" fill="#263238"/>
<g opacity="0.2">
<path d="M223.356 13.7324C222.713 16.1383 221.273 19.3505 219.933 21.4494C218.593 23.5482 216.559 25.3152 214.121 25.8237C213.68 25.9155 213.224 25.9683 212.817 26.1624C212.41 26.3566 212.053 26.7347 212.041 27.185C212.022 27.8587 212.717 28.2989 213.322 28.5967C214.182 29.0204 215.055 29.4486 215.997 29.6248C216.939 29.801 217.677 29.8993 218.324 29.192C218.869 28.5963 219.594 27.8798 220.007 27.1753C222.132 23.5555 223.183 18.3775 223.355 14.2813" fill="black"/>
</g>
<path d="M217.062 30.2419C217.067 30.2484 217.138 30.2075 217.272 30.1226C217.404 30.0372 217.593 29.9018 217.827 29.7141C218.29 29.335 218.922 28.7264 219.544 27.8494C220.171 26.9769 220.771 25.8355 221.263 24.5063C221.758 23.1776 222.164 21.6754 222.535 20.0888C223.276 16.9101 223.602 13.9645 223.721 11.8335C223.781 10.7674 223.791 9.90268 223.79 9.30603C223.784 9.02882 223.779 8.8021 223.775 8.61897C223.768 8.46201 223.761 8.37939 223.753 8.37939C223.745 8.37939 223.736 8.46201 223.728 8.61851C223.72 8.80118 223.711 9.0279 223.7 9.3042C223.673 9.89947 223.638 10.7609 223.558 11.8225C223.399 13.9443 223.048 16.8724 222.311 20.0365C221.942 21.6162 221.543 23.1143 221.064 24.4324C220.588 25.7519 220.011 26.8837 219.41 27.7553C218.814 28.6319 218.209 29.2487 217.769 29.6453C217.324 30.0391 217.051 30.2254 217.062 30.2419Z" fill="#263238"/>
<path d="M276.275 128.133L214.788 138.199V128.133H276.275Z" fill="#E0E0E0"/>
<path d="M204.637 150.872L143.15 160.938V150.872H204.637Z" fill="#E0E0E0"/>
<path d="M133.494 172.625L72.0059 182.69V172.625H133.494Z" fill="#E0E0E0"/>
<path d="M62.4431 189.934L0.955862 200V189.934H62.4431Z" fill="#E0E0E0"/>
<path d="M214.788 120.594H276.275V128.133H214.788V120.594Z" fill="#13C4A3"/>
<g opacity="0.3">
<path d="M214.788 120.594H233.975V128.133H214.788V120.594Z" fill="black"/>
</g>
<path d="M143.15 143.333H204.637V150.872H143.15V143.333Z" fill="#13C4A3"/>
<g opacity="0.3">
<path d="M143.15 143.333H162.337V150.872H143.15V143.333Z" fill="black"/>
</g>
<path d="M72.0064 165.085H133.494V172.624H72.0064V165.085Z" fill="#13C4A3"/>
<g opacity="0.3">
<path d="M72.0059 165.085H91.1931V172.624H72.0059V165.085Z" fill="black"/>
</g>
<path d="M0.86211 182.394H62.3494V189.934H0.86211V182.394Z" fill="#13C4A3"/>
<g opacity="0.3">
<path d="M0.861586 182.394H20.0488V189.934H0.861586V182.394Z" fill="black"/>
</g>
<path d="M38.7549 154.952C38.7549 155.876 38.0063 156.624 37.0829 156.624C36.1595 156.624 35.4109 155.876 35.4109 154.952C35.4109 154.029 36.1595 153.28 37.0829 153.28C38.0063 153.28 38.7549 154.029 38.7549 154.952Z" fill="#EBEBEB"/>
</svg>
