<svg width="298" height="300" viewBox="0 0 298 300" fill="none" xmlns="http://www.w3.org/2000/svg">
<path d="M285.893 159.844H72.0664C69.7609 159.844 67.9788 157.958 68.1055 155.653L75.307 24.5594C75.4337 22.2539 77.4235 20.3679 79.7291 20.3679H293.556C295.861 20.3679 297.644 22.2539 297.517 24.5594L290.315 155.653C290.189 157.958 288.199 159.844 285.893 159.844Z" fill="black"/>
<path d="M195.946 42.6622H175.277C168.385 42.6622 163.055 37.032 163.432 30.1501L163.642 26.3257C164.008 19.6575 169.772 14.2024 176.45 14.2024H197.106C204.006 14.2024 209.341 19.8386 208.962 26.7284L208.753 30.54C208.388 37.2072 202.624 42.6622 195.946 42.6622Z" fill="black"/>
<path d="M214.762 295.868H208.14L189.908 17.1223H196.531L214.762 295.868Z" fill="black"/>
<path d="M165.054 295.868H171.677L189.908 17.1223H183.286L165.054 295.868Z" fill="black"/>
<path d="M284.755 159.844H70.9285C68.623 159.844 66.8409 157.958 66.9675 155.653L74.1691 24.5594C74.2957 22.2539 76.2856 20.3679 78.5901 20.3679H292.417C294.723 20.3679 296.505 22.2539 296.378 24.5594L289.176 155.653C289.05 157.958 287.06 159.844 284.755 159.844Z" fill="#13C4A3"/>
<path opacity="0.4" d="M74.3216 155.828C72.4762 155.828 71.0563 154.327 71.1582 152.48L78.0105 27.7327C78.1114 25.8873 79.6956 24.3853 81.542 24.3853H289.024C290.87 24.3853 292.289 25.8873 292.188 27.7327L285.335 152.48C285.233 154.326 283.65 155.828 281.805 155.828H74.3216Z" fill="black"/>
<path opacity="0.1" d="M283.09 89.7047H220.636C219.066 89.7047 217.863 88.4312 217.949 86.8609L221.068 30.0778C221.079 29.8561 220.91 29.676 220.688 29.676C220.465 29.676 220.276 29.8561 220.264 30.0778L217.145 86.8609C217.059 88.4312 215.715 89.7047 214.145 89.7047H149.243C147.673 89.7047 146.469 88.4312 146.556 86.8609L149.674 30.0778C149.686 29.8561 149.517 29.676 149.294 29.676C149.072 29.676 148.883 29.8561 148.871 30.0778L145.752 86.8609C145.666 88.4312 144.323 89.7047 142.752 89.7047H80.298C80.0764 89.7047 79.8864 89.8848 79.8745 90.1064C79.8626 90.3281 80.0318 90.5082 80.2545 90.5082H142.708C144.279 90.5082 145.482 91.7817 145.396 93.352L142.277 150.135C142.265 150.357 142.434 150.537 142.657 150.537C142.879 150.537 143.069 150.357 143.08 150.135L146.199 93.352C146.285 91.7817 147.629 90.5082 149.199 90.5082H214.101C215.672 90.5082 216.875 91.7817 216.789 93.352L213.67 150.135C213.658 150.357 213.827 150.537 214.05 150.537C214.272 150.537 214.462 150.357 214.474 150.135L217.592 93.352C217.678 91.7817 219.022 90.5082 220.593 90.5082H283.046C283.268 90.5082 283.458 90.3281 283.47 90.1064C283.482 89.8848 283.312 89.7047 283.09 89.7047Z" fill="white"/>
<path opacity="0.4" d="M181.262 39.9678H156.177L154.774 65.4809L179.824 66.1508L181.262 39.9678Z" fill="black"/>
<path d="M178.542 65.0545C170.15 64.6459 161.757 64.2362 153.363 63.8276C154.756 55.1556 155.63 46.4629 155.982 37.7939C164.426 38.2026 172.868 38.6113 181.309 39.0209C180.908 47.6899 179.985 56.3846 178.542 65.0545Z" fill="white"/>
<path opacity="0.4" d="M211.504 57.012L186.386 58.9276L186.937 84.3666L212.069 83.1188L211.504 57.012Z" fill="black"/>
<path d="M210.702 82.1272C202.268 82.3617 193.833 82.5962 185.397 82.8308C186.128 74.1143 186.337 65.4166 186.026 56.7823C194.51 56.5438 202.995 56.3044 211.477 56.0669C211.74 64.7062 211.481 73.4098 210.702 82.1272Z" fill="#13C4A3"/>
<path opacity="0.4" d="M138.143 103.412L91.8326 101.644L87.6768 142.842L133.878 145.691L138.143 103.412Z" fill="black"/>
<path d="M131.58 143.826C116.113 142.572 100.644 141.318 85.1743 140.064C88.2803 126.126 90.4275 112.117 91.61 98.1094C107.172 99.366 122.731 100.623 138.287 101.88C137.014 115.887 134.775 129.895 131.58 143.826Z" fill="white"/>
<g opacity="0.3">
<path d="M90.4788 45.7326C89.043 45.7326 87.9328 44.558 88.011 43.1213C88.0901 41.6855 89.329 40.51 90.7657 40.51C92.2015 40.51 93.3117 41.6845 93.2335 43.1213C93.1544 44.558 91.9145 45.7326 90.4788 45.7326Z" fill="black"/>
<path opacity="0.8" d="M131.4 45.7326H99.2675C97.8317 45.7326 96.7215 44.558 96.7997 43.1213C96.8788 41.6855 98.1177 40.51 99.5544 40.51H131.687C133.123 40.51 134.233 41.6845 134.155 43.1213C134.076 44.558 132.836 45.7326 131.4 45.7326Z" fill="black"/>
<path d="M89.8533 57.1176C88.4175 57.1176 87.3073 55.943 87.3855 54.5073C87.4646 53.0715 88.7035 51.896 90.1392 51.896C91.575 51.896 92.6852 53.0705 92.607 54.5073C92.5289 55.943 91.289 57.1176 89.8533 57.1176Z" fill="black"/>
<path opacity="0.8" d="M136.465 57.1176H98.6421C97.2063 57.1176 96.0961 55.943 96.1752 54.5073C96.2544 53.0715 97.4933 51.896 98.929 51.896H136.752C138.188 51.896 139.298 53.0705 139.22 54.5073C139.14 55.943 137.901 57.1176 136.465 57.1176Z" fill="black"/>
<path d="M89.228 68.5038C87.7923 68.5038 86.6821 67.3293 86.7602 65.8925C86.8394 64.4568 88.0782 63.2812 89.515 63.2812C90.9507 63.2812 92.061 64.4558 91.9828 65.8925C91.9036 67.3293 90.6638 68.5038 89.228 68.5038Z" fill="black"/>
<path opacity="0.8" d="M116.426 68.5038H98.0166C96.5809 68.5038 95.4706 67.3293 95.5488 65.8925C95.628 64.4568 96.8668 63.2812 98.3026 63.2812H116.712C118.148 63.2812 119.258 64.4558 119.18 65.8925C119.101 67.3293 117.862 68.5038 116.426 68.5038Z" fill="black"/>
<path opacity="0.8" d="M133.473 79.8898H115.063C113.628 79.8898 112.518 78.7153 112.596 77.2785C112.675 75.8427 113.914 74.6672 115.35 74.6672H133.76C135.196 74.6672 136.306 75.8418 136.228 77.2785C136.149 78.7153 134.91 79.8898 133.473 79.8898Z" fill="black"/>
<path d="M88.6025 79.8898C87.1668 79.8898 86.0566 78.7153 86.1347 77.2785C86.2139 75.8427 87.4527 74.6672 88.8885 74.6672C90.3243 74.6672 91.4345 75.8418 91.3563 77.2785C91.2781 78.7153 90.0383 79.8898 88.6025 79.8898Z" fill="black"/>
<path opacity="0.8" d="M105.893 79.8898H97.3914C95.9556 79.8898 94.8454 78.7153 94.9236 77.2785C95.0027 75.8427 96.2416 74.6672 97.6773 74.6672H106.179C107.615 74.6672 108.725 75.8418 108.647 77.2785C108.568 78.7153 107.329 79.8898 105.893 79.8898Z" fill="black"/>
</g>
<path d="M168.489 113.77H156.028L154.315 144.947H166.776L168.489 113.77Z" fill="#13C4A3"/>
<path d="M187.388 120.197H174.927L173.568 144.947H186.028L187.388 120.197Z" fill="#13C4A3"/>
<path d="M207.553 103.594H195.092L192.821 144.947H205.281L207.553 103.594Z" fill="#13C4A3"/>
<path d="M158.801 131.363C157.568 131.363 156.324 131.33 155.065 131.266C152.889 131.154 150.066 130.879 147.527 129.737C147.122 129.555 146.942 129.079 147.124 128.674C147.307 128.269 147.781 128.089 148.186 128.27C150.481 129.302 153.112 129.555 155.147 129.66C170.098 130.429 183.19 126.535 196.366 117.407C199.507 115.231 204.198 111.205 207.08 107.021C207.331 106.655 207.832 106.564 208.197 106.815C208.562 107.067 208.654 107.567 208.403 107.932C205.402 112.291 200.69 116.367 197.281 118.728C184.905 127.302 172.586 131.363 158.801 131.363Z" fill="white"/>
<path d="M210.258 113.178C210.156 113.178 210.052 113.158 209.951 113.116C209.541 112.947 209.347 112.477 209.516 112.067C210.654 109.313 210.893 106.216 210.208 103.413C207.076 105.519 203.732 107.295 200.253 108.698C199.841 108.863 199.374 108.666 199.207 108.254C199.041 107.842 199.24 107.374 199.652 107.208C203.36 105.712 206.912 103.779 210.206 101.465C210.412 101.32 210.677 101.28 210.917 101.359C211.158 101.438 211.347 101.625 211.429 101.866C212.583 105.286 212.427 109.229 211 112.682C210.873 112.991 210.574 113.178 210.258 113.178Z" fill="white"/>
<path d="M275.873 82.4411H229.521C228.734 82.4411 228.01 82.1333 227.481 81.5753C226.952 81.0162 226.684 80.2741 226.727 79.4864L228.88 40.3015C228.968 38.6965 230.346 37.3914 231.951 37.3914H278.303C279.09 37.3914 279.814 37.6991 280.342 38.2572C280.872 38.8162 281.14 39.5583 281.096 40.346L278.944 79.53C278.856 81.1349 277.478 82.4411 275.873 82.4411ZM231.952 38.1948C230.767 38.1948 229.748 39.1596 229.683 40.346L227.531 79.53C227.5 80.095 227.69 80.6254 228.065 81.0231C228.44 81.4189 228.957 81.6376 229.521 81.6376H275.873C277.058 81.6376 278.076 80.6728 278.142 79.4864L280.294 40.3015C280.324 39.7365 280.134 39.2061 279.759 38.8093C279.384 38.4135 278.868 38.1948 278.304 38.1948H231.952Z" fill="#13C4A3"/>
<path d="M280.26 48.6338H228.847C228.625 48.6338 228.445 48.4537 228.445 48.232C228.445 48.0104 228.625 47.8303 228.847 47.8303H280.26C280.482 47.8303 280.662 48.0104 280.662 48.232C280.662 48.4537 280.483 48.6338 280.26 48.6338Z" fill="#13C4A3"/>
<path d="M239.13 82.4409C239.122 82.4409 239.115 82.4409 239.107 82.4399C238.885 82.428 238.716 82.238 238.728 82.0164L240.585 48.2103C240.597 47.9887 240.784 47.8155 241.009 47.8313C241.231 47.8432 241.4 48.0332 241.388 48.2548L239.531 82.0619C239.519 82.2746 239.342 82.4409 239.13 82.4409Z" fill="#13C4A3"/>
<path d="M274.372 52.6499H246.459C246.237 52.6499 246.057 52.4698 246.057 52.2482C246.057 52.0265 246.237 51.8464 246.459 51.8464H274.372C274.593 51.8464 274.774 52.0265 274.774 52.2482C274.774 52.4698 274.593 52.6499 274.372 52.6499Z" fill="#13C4A3"/>
<path d="M270.166 57.5796H246.188C245.966 57.5796 245.786 57.3995 245.786 57.1778C245.786 56.9562 245.966 56.7761 246.188 56.7761H270.166C270.388 56.7761 270.568 56.9562 270.568 57.1778C270.568 57.3995 270.388 57.5796 270.166 57.5796Z" fill="#13C4A3"/>
<path d="M259.866 62.6667H245.909C245.687 62.6667 245.507 62.4867 245.507 62.265C245.507 62.0434 245.687 61.8633 245.909 61.8633H259.866C260.087 61.8633 260.267 62.0434 260.267 62.265C260.267 62.4867 260.087 62.6667 259.866 62.6667Z" fill="#13C4A3"/>
<path d="M262.401 72.5933H245.364C245.142 72.5933 244.962 72.4132 244.962 72.1915C244.962 71.9699 245.142 71.7898 245.364 71.7898H262.401C262.622 71.7898 262.803 71.9699 262.803 72.1915C262.803 72.4142 262.622 72.5933 262.401 72.5933Z" fill="#13C4A3"/>
<path d="M259.04 77.6804H245.084C244.862 77.6804 244.682 77.5003 244.682 77.2787C244.682 77.057 244.862 76.877 245.084 76.877H259.04C259.262 76.877 259.442 77.057 259.442 77.2787C259.442 77.5003 259.262 77.6804 259.04 77.6804Z" fill="#13C4A3"/>
<path d="M267.211 77.6804H262.738C262.516 77.6804 262.336 77.5003 262.336 77.2787C262.336 77.057 262.516 76.877 262.738 76.877H267.211C267.432 76.877 267.612 77.057 267.612 77.2787C267.612 77.5003 267.432 77.6804 267.211 77.6804Z" fill="#13C4A3"/>
<path d="M271.774 67.5955H245.638C245.416 67.5955 245.236 67.4154 245.236 67.1937C245.236 66.9721 245.416 66.792 245.638 66.792H271.774C271.996 66.792 272.176 66.9721 272.176 67.1937C272.176 67.4154 271.996 67.5955 271.774 67.5955Z" fill="#13C4A3"/>
<path d="M247.41 139.448C241.354 139.448 236.393 137.658 233.31 134.329C230.02 130.776 228.656 125.187 229.565 118.997C230.122 115.205 231.361 112.024 233.248 109.54C235.142 107.049 237.881 104.995 241.39 103.434C249.131 99.9909 258.092 100.112 265.361 103.758C268.619 105.392 270.659 107.459 271.428 109.901C271.561 110.323 271.326 110.774 270.902 110.908C270.479 111.042 270.029 110.806 269.895 110.383C269.262 108.371 267.493 106.624 264.64 105.194C257.797 101.761 249.349 101.653 242.042 104.903C238.783 106.352 236.255 108.239 234.526 110.513C232.806 112.777 231.671 115.711 231.153 119.231C230.314 124.938 231.529 130.044 234.488 133.238C238.599 137.679 245.406 137.996 249.098 137.794C255.961 137.414 261.865 135.016 265.723 131.043C270.235 126.397 271.501 119.447 268.666 114.877C268.117 113.991 266.935 112.48 265.2 112.307C264.759 112.264 264.436 111.87 264.48 111.428C264.524 110.987 264.921 110.667 265.359 110.709C267.155 110.888 268.813 112.068 270.032 114.031C273.243 119.209 271.887 127.004 266.877 132.164C262.736 136.427 256.455 138.996 249.188 139.399C248.586 139.431 247.993 139.448 247.41 139.448Z" fill="white"/>
<path d="M42.0056 55.691L39.1519 60.6642L36.3556 65.7423C34.5141 69.1353 32.7548 72.556 31.1488 75.9935C30.3493 77.7172 29.5884 79.433 28.8938 81.1576L28.7652 81.4693C28.7543 81.4941 28.7404 81.5188 28.7236 81.5435C28.6791 81.594 28.6642 81.6375 28.6385 81.6801C28.5851 81.7672 28.5504 81.8513 28.5039 81.9641C28.4297 82.1867 28.4584 82.5677 28.6227 83.0733C28.9373 84.1004 29.8665 85.4402 31.0064 86.6859C32.1235 87.9406 33.5691 89.223 34.8703 90.3481L32.551 95.2886C31.3725 94.9522 30.3919 94.6128 29.3529 94.1586C28.3258 93.7252 27.3274 93.2008 26.332 92.6091C24.3659 91.395 22.3908 89.8939 20.7552 87.437C19.9596 86.207 19.2779 84.6852 19.0107 82.9239C18.889 82.0472 18.8455 81.1289 18.9583 80.2344C19.0087 79.7852 19.074 79.3389 19.1859 78.9154L19.3471 78.2723L19.4688 77.8814C20.1051 75.8579 20.7631 73.8562 21.5359 71.9257C23.0399 68.0419 24.734 64.2887 26.5823 60.6355C27.5055 58.8079 28.4634 57.0021 29.4717 55.224C30.4859 53.431 31.4734 51.7004 32.6341 49.8936L42.0056 55.691Z" fill="#FFC3BD"/>
<path d="M32.3876 89.7899L37.5874 88.4382L37.8853 96.8321C37.8853 96.8321 33.8184 97.4367 31.3279 94.9481L32.3876 89.7899Z" fill="#FFC3BD"/>
<path d="M44.9541 87.0232L43.7815 94.3929L37.8842 96.8321L37.5863 88.4382L44.9541 87.0232Z" fill="#FFC3BD"/>
<path d="M66.4599 16.133C66.5767 16.7079 66.9754 17.1116 67.3515 17.0355C67.7275 16.9593 67.9362 16.4319 67.8195 15.857C67.7027 15.2821 67.3039 14.8784 66.9279 14.9545C66.5529 15.0317 66.3432 15.5591 66.4599 16.133Z" fill="#0A4137"/>
<path d="M66.9229 17.1223C66.9229 17.1223 68.9028 20.1719 70.6661 21.4781C69.8428 22.6338 68.0261 22.5517 68.0261 22.5517L66.9229 17.1223Z" fill="#ED847E"/>
<path d="M63.708 13.3702C63.6249 13.3702 63.5408 13.3395 63.4745 13.2792C63.335 13.1495 63.3261 12.9318 63.4557 12.7923C64.749 11.3932 66.3173 11.6415 66.3846 11.6534C66.5716 11.6851 66.6983 11.8632 66.6666 12.0502C66.6339 12.2372 66.4548 12.3619 66.2708 12.3322C66.2193 12.3243 64.9924 12.1442 63.9603 13.2594C63.893 13.3336 63.801 13.3702 63.708 13.3702Z" fill="#0A4137"/>
<path d="M50.0928 24.2148C51.1357 29.5324 52.1757 39.2769 48.4552 42.8253C48.4552 42.8253 49.9088 48.22 59.7899 48.22C70.6555 48.22 64.9827 42.8263 64.9827 42.8263C59.0527 41.4103 59.2061 37.01 60.2391 32.8789L50.0928 24.2148Z" fill="#FFC3BD"/>
<path d="M46.3118 43.8119C45.5172 42.3345 44.6425 40.6435 46.4523 40.1141C48.4431 39.5313 61.2314 38.4508 64.9885 39.5442C63.8337 41.5974 65.788 44.1206 65.788 44.1206L46.3118 43.8119Z" fill="#0A4137"/>
<path d="M14.1204 291.732C14.8497 291.889 15.579 291.932 15.9302 291.633C16.0777 291.507 16.2261 291.267 16.0975 290.833C16.0302 290.606 15.8808 290.435 15.6542 290.327C14.6726 289.858 12.4175 290.778 12.3206 290.817C12.2582 290.842 12.2167 290.903 12.2147 290.971C12.2127 291.039 12.2503 291.101 12.3116 291.131C12.656 291.296 13.3882 291.572 14.1204 291.732ZM15.3029 290.569C15.3771 290.585 15.4454 290.608 15.5047 290.636C15.6413 290.702 15.7274 290.798 15.767 290.93C15.859 291.24 15.7442 291.338 15.7066 291.37C15.3158 291.702 13.8642 291.395 12.842 290.987C13.5357 290.742 14.6577 290.43 15.3029 290.569Z" fill="#13C4A3"/>
<path d="M12.3504 291.143C12.3781 291.149 12.4068 291.148 12.4355 291.14C13.2568 290.9 15.0151 289.651 15.0369 288.827C15.0408 288.677 14.9884 288.406 14.5965 288.27C14.3422 288.18 14.086 288.202 13.8336 288.331C12.862 288.827 12.2485 290.84 12.2227 290.925C12.2049 290.986 12.2208 291.051 12.2653 291.096C12.288 291.12 12.3177 291.136 12.3504 291.143ZM14.4075 288.573C14.4323 288.578 14.458 288.586 14.4827 288.595C14.6955 288.669 14.6925 288.773 14.6915 288.818C14.6797 289.305 13.519 290.285 12.668 290.682C12.8808 290.101 13.3666 288.955 13.989 288.638C14.1315 288.564 14.269 288.544 14.4075 288.573Z" fill="#13C4A3"/>
<path d="M67.7898 292.951C68.7229 292.951 69.6243 292.822 69.9261 292.404C70.032 292.257 70.1151 292.007 69.9112 291.652C69.7974 291.452 69.6134 291.316 69.366 291.249C68.1559 290.92 65.6158 292.368 65.508 292.429C65.4456 292.465 65.412 292.535 65.4239 292.606C65.4357 292.678 65.4902 292.733 65.5604 292.748C66.0235 292.839 66.92 292.951 67.7898 292.951ZM68.9425 291.541C69.0642 291.541 69.176 291.553 69.275 291.58C69.4343 291.624 69.5441 291.702 69.6124 291.821C69.7341 292.035 69.6896 292.14 69.6461 292.202C69.3077 292.672 67.4701 292.683 66.1195 292.492C66.7923 292.145 68.0926 291.541 68.9425 291.541Z" fill="#13C4A3"/>
<path d="M65.594 292.75C65.6178 292.75 65.6415 292.745 65.6643 292.735C66.542 292.341 68.2795 290.769 68.1469 289.948C68.1153 289.755 67.9787 289.514 67.5057 289.467C67.1525 289.431 66.8329 289.53 66.5509 289.762C65.6257 290.521 65.4307 292.479 65.4218 292.562C65.4159 292.622 65.4426 292.683 65.4931 292.718C65.5228 292.739 65.5584 292.75 65.594 292.75ZM67.3672 289.803C67.4008 289.803 67.4355 289.805 67.4711 289.808C67.7808 289.84 67.8006 289.962 67.8065 290.002C67.8867 290.495 66.7052 291.731 65.8097 292.269C65.9027 291.697 66.162 290.526 66.7695 290.028C66.9526 289.876 67.1485 289.803 67.3672 289.803Z" fill="#13C4A3"/>
<path d="M57.5999 292.578H64.8697L65.593 275.743H58.3242L57.5999 292.578Z" fill="#FFC3BD"/>
<path d="M4.24744 289.213L11.352 290.751L18.4843 275.072L11.3797 273.533L4.24744 289.213Z" fill="#FFC3BD"/>
<path d="M12.0347 290.038L4.05343 288.31C3.76252 288.247 3.46766 288.394 3.34397 288.664L0.573381 294.675C0.286427 295.299 0.666395 296.03 1.34024 296.164C4.13655 296.719 5.5258 296.848 9.03653 297.608C11.1956 298.075 16.0709 299.264 19.0532 299.909C21.9702 300.54 23.0626 297.69 21.9 297.159C16.6853 294.776 14.5065 292.679 13.0954 290.723C12.8392 290.371 12.4592 290.13 12.0347 290.038Z" fill="#0A4137"/>
<path d="M64.8213 291.736H56.8826C56.5857 291.736 56.3285 291.943 56.2632 292.233L54.8274 298.694C54.679 299.364 55.1876 299.999 55.8733 299.987C58.7369 299.939 62.875 299.771 66.4738 299.771C70.6821 299.771 74.3165 300 79.2521 300C82.2364 300 83.0646 296.983 81.8149 296.71C76.1283 295.466 71.4856 295.333 66.5707 292.303C66.0384 291.973 65.4486 291.736 64.8213 291.736Z" fill="#0A4137"/>
<path d="M35.4402 44.469C28.6275 46.0314 23.0101 63.4237 23.0101 63.4237L36.6919 73.852C36.6919 73.852 41.7136 69.1173 43.9478 60.4177C46.289 51.3014 42.4062 42.8719 35.4402 44.469Z" fill="#13C4A3"/>
<path opacity="0.2" d="M35.4402 44.469C28.6275 46.0314 23.0101 63.4237 23.0101 63.4237L36.6919 73.852C36.6919 73.852 41.7136 69.1173 43.9478 60.4177C46.289 51.3014 42.4062 42.8719 35.4402 44.469Z" fill="#FAFAFA"/>
<path opacity="0.2" d="M41.2793 57.259C37.5786 60.9202 36.3714 67.5894 36.0845 73.3878L36.6881 73.8529C36.6881 73.8529 41.7147 69.1132 43.951 60.4155C44.0895 59.8713 44.2082 59.3271 44.3072 58.7928L41.2793 57.259Z" fill="black"/>
<path d="M76.1639 44.843C76.1639 44.843 83.9008 53.5822 76.5944 107.673C64.8797 107.673 43.4146 107.673 37.7142 107.673C37.446 101.704 41.1962 72.5894 35.4403 44.468C35.4403 44.468 42.1045 43.1302 48.4561 42.8244C53.4244 42.5849 60.616 42.4266 64.9837 42.8254C70.7405 43.3508 76.1639 44.843 76.1639 44.843Z" fill="#13C4A3"/>
<path opacity="0.2" d="M76.1639 44.843C76.1639 44.843 83.9008 53.5822 76.5944 107.673C64.8797 107.673 43.4146 107.673 37.7142 107.673C37.446 101.704 41.1962 72.5894 35.4403 44.468C35.4403 44.468 42.1045 43.1302 48.4561 42.8244C53.4244 42.5849 60.616 42.4266 64.9837 42.8254C70.7405 43.3508 76.1639 44.843 76.1639 44.843Z" fill="#FAFAFA"/>
<path opacity="0.2" d="M79.5628 61.3755L79.4144 61.2468L70.5782 63.3643C70.0736 69.3409 76.2183 76.485 79.3847 79.7504C79.8201 72.1214 79.8102 66.1053 79.5628 61.3755Z" fill="black"/>
<path opacity="0.2" d="M65.5917 275.749L65.2197 284.425H57.9469L58.319 275.749H65.5917Z" fill="black"/>
<path opacity="0.2" d="M11.3766 273.537L18.4841 275.076L14.8032 283.157L7.69666 281.618L11.3766 273.537Z" fill="black"/>
<path d="M47.048 18.8103C48.9152 25.7783 49.6544 29.952 53.9547 32.8492C60.4231 37.208 68.4766 32.2061 68.7289 24.8195C68.9555 18.1711 65.8633 7.8922 58.3857 6.48811C51.0179 5.10579 45.1809 11.8423 47.048 18.8103Z" fill="#FFC3BD"/>
<path d="M50.2479 30.1738C53.2105 31.8698 64.0128 26.203 61.7943 17.6142C61.7943 17.6142 65.9097 12.6657 65.4446 7.20468C64.9795 1.74366 61.2313 -0.337245 57.2436 0.834317C53.729 1.86735 53.8309 3.79192 53.8309 3.79192C53.8309 3.79192 37.2192 5.74715 40.7646 12.4995C34.0034 19.8712 46.5502 28.0573 50.2479 30.1738Z" fill="#0A4137"/>
<path d="M41.2308 13.0615C41.2308 13.0615 39.2518 9.63686 36.3655 11.5545C37.727 11.5743 39.9534 11.8068 41.2308 13.0615Z" fill="#0A4137"/>
<path d="M64.9151 10.8033C64.9151 10.8033 68.5357 2.63107 62.8916 0C64.7944 2.64789 65.8294 6.92251 64.9151 10.8033Z" fill="#0A4137"/>
<path d="M58.9051 19.1023C59.3791 20.9309 60.5813 22.5042 61.839 23.4392C63.7309 24.8463 65.1439 23.461 65.0093 21.3207C64.8886 19.3942 63.7586 16.3396 61.6718 15.7687C59.6146 15.2066 58.3629 17.0115 58.9051 19.1023Z" fill="#FFC3BD"/>
<path d="M62.8017 107.674C62.8017 107.674 54.5523 163.226 50.0234 184.038C45.064 206.829 18.4704 282.232 18.4704 282.232L5.45752 279.415C5.45752 279.415 24.0531 217.966 28.2159 186.104C31.413 161.63 37.7141 107.674 37.7141 107.674H62.8017Z" fill="#0A4137"/>
<path d="M21.5862 277.888C21.6416 277.899 19.161 282.594 19.161 282.594L4.52039 279.424L5.75429 275.023L21.5862 277.888Z" fill="#13C4A3"/>
<path opacity="0.3" d="M57.5879 127.467C48.0492 129.337 49.0585 164.909 50.2063 183.205C52.9571 170.272 56.9843 145.386 59.7351 127.724C59.1019 127.407 58.3894 127.308 57.5879 127.467Z" fill="black"/>
<path d="M76.5567 108C76.5567 108 77.558 162.35 76.7674 184.518C75.9452 207.575 67.8917 283.072 67.8917 283.072H55.5774C55.5774 283.072 55.1252 208.923 54.578 186.278C53.9804 161.591 51 108.001 51 108.001L76.5567 108Z" fill="#0A4137"/>
<path opacity="0.4" d="M144.957 69.3569H119.871L118.47 94.8701L143.519 95.54L144.957 69.3569Z" fill="#0A4137"/>
<path d="M131.771 85.7714C123.396 84.7384 115.022 83.7043 106.646 82.6713C108.677 74.1626 110.188 65.5946 111.175 57.0117C119.6 58.0487 128.024 59.0847 136.447 60.1217C135.411 68.7036 133.85 77.2696 131.771 85.7714Z" fill="#13C4A3"/>
<path d="M70.2982 277.84C70.3546 277.84 69.6035 282.953 69.6035 282.953H54.6236L54.2189 278.39L70.2982 277.84Z" fill="#13C4A3"/>
<path d="M79.7497 51.4744C80.8669 53.2149 82.1414 55.1701 83.4129 56.976C84.7101 58.7976 86.0053 60.6193 87.3698 62.3697C90.0741 65.8745 92.9417 69.2417 96.0299 72.0361C96.7948 72.7436 97.5775 73.3986 98.3681 74.0032L98.9618 74.4504C98.9083 74.4188 98.7194 74.3554 98.6135 74.3307C98.3552 74.2812 98.2296 74.3257 98.2988 74.3614C98.4492 74.4395 99.1725 74.3149 99.9275 73.9873C100.694 73.6618 101.566 73.2205 102.43 72.6881C105.91 70.531 109.504 67.517 112.882 64.5881L117.128 68.0177C114.494 72.2617 111.595 76.0999 107.612 79.6275C106.6 80.4972 105.516 81.3611 104.211 82.1299C102.899 82.8869 101.408 83.6616 99.219 83.9842C98.1257 84.1267 96.8017 84.099 95.4352 83.6636C94.7683 83.4657 94.0638 83.1135 93.5126 82.775L92.6547 82.2318C91.5218 81.4986 90.4442 80.7258 89.4211 79.9194C85.3295 76.6778 81.9138 73.0226 78.7632 69.221C77.2127 67.3033 75.7096 65.3629 74.3164 63.3473C72.9064 61.3109 71.5825 59.3636 70.2704 57.0957L79.7497 51.4744Z" fill="#FFC3BD"/>
<path d="M65.4705 55.8381C63.1451 65.5836 80.7789 75.1273 80.7789 75.1273L92.2323 61.7078C92.2323 61.7078 87.0177 53.8057 80.5306 47.5798C72.5176 39.8894 67.2397 48.4199 65.4705 55.8381Z" fill="#13C4A3"/>
<path opacity="0.2" d="M65.4705 55.8381C63.1451 65.5836 80.7789 75.1273 80.7789 75.1273L92.2323 61.7078C92.2323 61.7078 87.0177 53.8057 80.5306 47.5798C72.5176 39.8894 67.2397 48.4199 65.4705 55.8381Z" fill="#FAFAFA"/>
<path d="M111.73 66.6159L114.434 57.9351L121.548 61.4804C121.548 61.4804 120.511 67.8142 115.333 68.9125L111.73 66.6159Z" fill="#FFC3BD"/>
<path d="M117.286 55.5283L123.702 57.2936L121.547 61.4791L114.433 57.9348L117.286 55.5283Z" fill="#FFC3BD"/>
</svg>
