<svg width="230" height="200" viewBox="0 0 230 200" fill="none" xmlns="http://www.w3.org/2000/svg">
<path d="M31.6774 175.671H24.3357V175.785H31.6774V175.671Z" fill="#E0E0E0"/>
<path d="M103.06 174.432H78.5894V174.546H103.06V174.432Z" fill="#E0E0E0"/>
<path d="M48.706 179.917H32.1345V180.032H48.706V179.917Z" fill="#E0E0E0"/>
<path d="M193.419 174.372H173.675V174.487H193.419V174.372Z" fill="#E0E0E0"/>
<path d="M200.386 174.372H197.492V174.487H200.386V174.372Z" fill="#E0E0E0"/>
<path d="M169.904 177.22H145.268V177.335H169.904V177.22Z" fill="#E0E0E0"/>
<path d="M87.7591 82.0718C86.6624 83.7422 85.9246 85.5772 85.5315 87.4697L82.5171 87.7536L82.5166 93.5909L85.5315 93.8748C85.9241 95.7669 86.662 97.6014 87.7587 99.2723L85.8336 101.598L89.9616 105.725L92.2871 103.8C93.9575 104.897 95.7925 105.635 97.6846 106.027L97.9685 109.042L103.806 109.041L104.09 106.027C105.982 105.634 107.817 104.896 109.488 103.8L111.813 105.725L115.941 101.597L114.016 99.2718C115.112 97.6009 115.85 95.7664 116.243 93.8743L119.257 93.59L119.257 87.7527L116.243 87.4688C115.85 85.5767 115.112 83.7417 114.015 82.0713L115.94 79.7458L111.813 75.6183L109.487 77.5433C107.816 76.4466 105.981 75.7084 104.09 75.3157L103.806 72.3013L97.9685 72.3017L97.6846 75.3157C95.7925 75.7084 93.9575 76.4462 92.2871 77.5429L89.9616 75.6178L85.8336 79.7458L87.7591 82.0718ZM106.475 85.0848C109.561 88.1705 109.561 93.1744 106.475 96.2606C103.389 99.3468 98.385 99.3463 95.2992 96.2606C92.2131 93.1744 92.2131 88.171 95.2992 85.0848C98.3859 81.9987 103.389 81.9987 106.475 85.0848Z" fill="#EBEBEB"/>
<path d="M64.7497 67.4041C64.0909 68.4075 63.648 69.5092 63.4116 70.6461L61.6013 70.8166V74.3225L63.4121 74.493C63.6479 75.6294 64.0909 76.7311 64.7497 77.735L63.5935 79.1316L66.0726 81.6107L67.4692 80.4546C68.4726 81.1133 69.5748 81.5563 70.7113 81.7922L70.8818 83.6029H74.3876L74.5581 81.7926C75.6946 81.5568 76.7968 81.1133 77.8002 80.4546L79.1968 81.6107L81.6759 79.1316L80.5197 77.735C81.1785 76.7316 81.6215 75.6299 81.8573 74.493L83.6676 74.3225V70.8166L81.8573 70.6461C81.6215 69.5096 81.178 68.4075 80.5193 67.4045L81.6754 66.0079L79.1963 63.5288L77.7997 64.685C76.7963 64.0262 75.6941 63.5828 74.5577 63.3469L74.3872 61.5366H70.8813L70.7108 63.3469C69.5744 63.5828 68.4722 64.0258 67.4688 64.6845L66.0722 63.5284L63.5931 66.0075L64.7497 67.4041ZM75.9913 69.2134C77.8445 71.0667 77.8445 74.0719 75.9913 75.9257C74.1376 77.7794 71.1323 77.7789 69.279 75.9257C67.4253 74.0719 67.4253 71.0671 69.279 69.2134C71.1323 67.3602 74.1376 67.3602 75.9913 69.2134Z" fill="#F5F5F5"/>
<path d="M150.287 149.399C149.629 150.402 149.186 151.504 148.949 152.641L147.139 152.811V156.317L148.95 156.488C149.186 157.624 149.629 158.726 150.287 159.73L149.131 161.126L151.61 163.605L153.007 162.449C154.01 163.108 155.112 163.551 156.249 163.787L156.419 165.598H159.925L160.096 163.787C161.232 163.551 162.334 163.108 163.338 162.449L164.734 163.605L167.213 161.126L166.057 159.73C166.716 158.726 167.159 157.625 167.395 156.488L169.205 156.317L169.206 152.811L167.395 152.641C167.16 151.504 166.716 150.402 166.057 149.399L167.214 148.003L164.735 145.523L163.338 146.68C162.335 146.021 161.233 145.577 160.096 145.342L159.926 143.531H156.42L156.249 145.342C155.113 145.577 154.011 146.02 153.008 146.679L151.611 145.523L149.132 148.002L150.287 149.399ZM161.528 151.208C163.382 153.061 163.382 156.067 161.528 157.92C159.675 159.774 156.669 159.774 154.816 157.92C152.962 156.067 152.962 153.062 154.816 151.208C156.67 149.355 159.675 149.355 161.528 151.208Z" fill="#F5F5F5"/>
<path d="M24.4027 110.398C23.8775 111.198 23.5241 112.076 23.3357 112.983L21.8921 113.118V115.914L23.3357 116.05C23.5236 116.956 23.877 117.835 24.4023 118.635L23.4802 119.749L25.4569 121.726L26.5705 120.803C27.3705 121.329 28.2491 121.682 29.1556 121.87L29.2914 123.314H32.0868L32.2231 121.87C33.1296 121.682 34.0082 121.328 34.8082 120.803L35.9218 121.725L37.8985 119.748L36.9764 118.635C37.5017 117.835 37.8551 116.956 38.043 116.05L39.4866 115.913L39.4871 113.118L38.0434 112.982C37.8551 112.076 37.5017 111.197 36.9764 110.397L37.8985 109.283L35.9218 107.306L34.8082 108.228C34.0082 107.703 33.1291 107.35 32.2231 107.161L32.0868 105.718H29.2914L29.1556 107.161C28.2496 107.35 27.3705 107.703 26.5705 108.228L25.4569 107.306L23.4797 109.283L24.4027 110.398ZM33.3664 111.841C34.8443 113.319 34.8443 115.715 33.3664 117.193C31.8884 118.671 29.4921 118.671 28.0142 117.193C26.5362 115.715 26.5362 113.319 28.0142 111.841C29.4921 110.363 31.888 110.362 33.3664 111.841Z" fill="#F5F5F5"/>
<path d="M24.4418 160.099C23.9165 160.899 23.5632 161.778 23.3748 162.684L21.9312 162.82V165.616L23.3748 165.752C23.5627 166.658 23.9161 167.537 24.4413 168.337L23.5193 169.451L25.496 171.427L26.6096 170.505C27.4096 171.031 28.2882 171.384 29.1947 171.572L29.3305 173.016H32.1259L32.2621 171.572C33.1686 171.384 34.0473 171.03 34.8473 170.505L35.9609 171.427L37.9376 169.45L37.0155 168.337C37.5408 167.537 37.8941 166.658 38.082 165.752L39.5257 165.615V162.82L38.082 162.684C37.8937 161.778 37.5403 160.899 37.0151 160.099L37.9371 158.985L35.9604 157.009L34.8468 157.931C34.0468 157.406 33.1677 157.052 32.2617 156.864L32.1254 155.42H29.33L29.1942 156.864C28.2882 157.052 27.4091 157.405 26.6091 157.93L25.4955 157.008L23.5184 158.985L24.4418 160.099ZM33.4054 161.542C34.8834 163.02 34.8834 165.416 33.4054 166.894C31.9275 168.372 29.5312 168.372 28.0532 166.894C26.5753 165.416 26.5753 163.02 28.0532 161.542C29.5312 160.064 31.9275 160.064 33.4054 161.542Z" fill="#F5F5F5"/>
<path d="M172.866 96.2481C172.207 97.2515 171.764 98.3532 171.528 99.4901L169.717 99.6606V103.166L171.528 103.337C171.764 104.473 172.207 105.576 172.866 106.579L171.71 107.976L174.189 110.455L175.585 109.299C176.589 109.957 177.691 110.4 178.827 110.636L178.998 112.447H182.504L182.674 110.637C183.811 110.4 184.913 109.957 185.916 109.299L187.313 110.455L189.792 107.976L188.636 106.579C189.294 105.576 189.737 104.474 189.973 103.337L191.784 103.166L191.784 99.6606L189.974 99.4901C189.738 98.3537 189.294 97.2519 188.636 96.2485L189.792 94.8519L187.313 92.3728L185.916 93.529C184.913 92.8702 183.811 92.4268 182.674 92.1909L182.504 90.3806L178.998 90.3811L178.827 92.1914C177.691 92.4272 176.589 92.8702 175.585 93.529L174.189 92.3728L171.71 94.8519L172.866 96.2481ZM184.107 98.0574C185.96 99.9107 185.96 102.916 184.107 104.77C182.253 106.623 179.248 106.623 177.395 104.77C175.541 102.916 175.541 99.9111 177.395 98.0574C179.248 96.2042 182.253 96.2037 184.107 98.0574Z" fill="#F5F5F5"/>
<path d="M56.7887 90.5813C56.13 91.5847 55.687 92.6864 55.4507 93.8234L53.6404 93.9939V97.4997L55.4511 97.6702C55.687 98.8067 56.13 99.9088 56.7887 100.912L55.6326 102.309L58.1117 104.788L59.5083 103.632C60.5117 104.291 61.6139 104.734 62.7503 104.969L62.9208 106.78H66.4267L66.5972 104.97C67.7337 104.734 68.8358 104.291 69.8392 103.632L71.2358 104.788L73.7149 102.309L72.5588 100.912C73.2175 99.9088 73.6605 98.8071 73.8964 97.6702L75.7067 97.4997L75.7071 93.9939L73.8969 93.8234C73.661 92.6869 73.2175 91.5852 72.5588 90.5818L73.7149 89.1852L71.2358 86.7061L69.8392 87.8622C68.8358 87.2035 67.7337 86.76 66.5972 86.5242L66.4267 84.7139L62.9208 84.7143L62.7503 86.5246C61.6139 86.7605 60.5117 87.2035 59.5083 87.8622L58.1117 86.7061L55.6326 89.1852L56.7887 90.5813ZM68.0299 92.3907C69.8831 94.2439 69.8831 97.2492 68.0299 99.1029C66.1762 100.957 63.1709 100.956 61.3176 99.1029C59.4639 97.2492 59.4639 94.2444 61.3176 92.3907C63.1714 90.537 66.1762 90.537 68.0299 92.3907Z" fill="#EBEBEB"/>
<path d="M31.4626 135.953C30.8038 136.956 30.3608 138.058 30.1245 139.195L28.3142 139.365V142.871L30.125 143.042C30.3608 144.178 30.8038 145.28 31.4626 146.284L30.306 147.68L32.7851 150.159L34.1816 149.003C35.1851 149.662 36.2872 150.105 37.4237 150.341L37.5942 152.152H41.1L41.2706 150.341C42.407 150.105 43.5092 149.662 44.5126 149.003L45.9092 150.159L48.3883 147.68L47.2322 146.284C47.8909 145.28 48.3339 144.178 48.5698 143.042L50.3801 142.871L50.3805 139.365L48.5702 139.195C48.3343 138.058 47.8909 136.957 47.2322 135.953L48.3883 134.557L45.9092 132.077L44.5126 133.234C43.5092 132.575 42.407 132.131 41.2706 131.896L41.1 130.085H37.5942L37.4237 131.896C36.2872 132.131 35.1851 132.574 34.1821 133.233L32.7855 132.077L30.3064 134.556L31.4626 135.953ZM42.7037 137.762C44.557 139.615 44.557 142.621 42.7037 144.474C40.85 146.328 37.8447 146.328 35.9915 144.474C34.1378 142.621 34.1378 139.616 35.9915 137.762C37.8452 135.909 40.85 135.909 42.7037 137.762Z" fill="#EBEBEB"/>
<path d="M137.074 112.589C136.047 114.155 135.355 115.874 134.987 117.648L132.162 117.914V123.384L134.987 123.65C135.355 125.423 136.047 127.142 137.075 128.708L135.271 130.887L139.139 134.755L141.318 132.951C142.883 133.979 144.603 134.67 146.376 135.038L146.642 137.863L152.112 137.862L152.378 135.038C154.151 134.67 155.87 133.979 157.436 132.951L159.615 134.755L163.483 130.887L161.679 128.708C162.707 127.142 163.398 125.423 163.766 123.65L166.591 123.384L166.591 117.914L163.766 117.648C163.398 115.875 162.707 114.155 161.679 112.59L163.483 110.411L159.615 106.543L157.436 108.347C155.87 107.319 154.151 106.628 152.378 106.259L152.112 103.435L146.642 103.435L146.376 106.259C144.603 106.627 142.883 107.318 141.318 108.347L139.139 106.543L135.271 110.411L137.074 112.589ZM154.613 115.412C157.504 118.304 157.505 122.993 154.613 125.884C151.721 128.776 147.032 128.776 144.14 125.884C141.249 122.993 141.249 118.304 144.14 115.412C147.032 112.52 151.721 112.52 154.613 115.412Z" fill="#EBEBEB"/>
<path d="M120.757 35.4081C127.85 30.3079 129.465 20.4236 124.365 13.3308C119.265 6.23797 109.38 4.62256 102.288 9.72268C95.1947 14.8228 93.5793 24.7071 98.6794 31.8C103.78 38.8928 113.664 40.5082 120.757 35.4081Z" fill="#E0E0E0"/>
<path d="M121.529 33.5548C127.707 27.3776 127.707 17.3622 121.529 11.1849C115.352 5.00763 105.337 5.00764 99.1593 11.1849C92.982 17.3622 92.982 27.3775 99.1593 33.5548C105.337 39.7321 115.352 39.7321 121.529 33.5548Z" fill="#F0F0F0"/>
<path d="M113.32 35.1697C120.39 33.528 124.79 26.4658 123.149 19.396C121.507 12.3261 114.445 7.92571 107.375 9.56743C100.305 11.2092 95.9046 18.2713 97.5463 25.3412C99.1881 32.411 106.25 36.8114 113.32 35.1697Z" fill="white"/>
<path d="M110.797 33.6176L110.669 30.4999C110.73 30.4972 110.792 30.4939 110.853 30.4903L111.057 33.6039C110.971 33.6098 110.883 33.6144 110.797 33.6176ZM105.754 32.648C105.675 32.6124 105.595 32.5758 105.516 32.5378L106.86 29.7227C106.916 29.7493 106.972 29.7749 107.027 29.8L105.754 32.648ZM115.972 32.1209L114.408 29.421L114.576 29.3223L116.189 31.9925C116.117 32.0359 116.045 32.0789 115.972 32.1209ZM101.504 29.3401C101.45 29.2725 101.398 29.2039 101.346 29.1349L103.839 27.2592L103.954 27.4087L101.504 29.3401ZM119.855 28.3915L117.217 26.7253L117.317 26.5643L120.015 28.131L119.974 28.1995C119.946 28.2462 119.901 28.3193 119.855 28.3915ZM99.2806 24.4382C99.2646 24.3527 99.2495 24.2672 99.2354 24.1817L102.314 23.6757C102.324 23.7365 102.335 23.7977 102.346 23.8585L99.2806 24.4382ZM118.459 23C118.464 22.9415 118.467 22.8825 118.471 22.824L121.586 22.9913C121.582 23.0809 121.575 23.1701 121.568 23.2597L118.459 23ZM102.566 19.9792L99.5864 19.0549L99.6628 18.8167L102.626 19.7922L102.566 19.9792ZM117.824 19.165L117.747 18.9909L120.591 17.7063C120.626 17.784 120.66 17.8622 120.694 17.9408L117.824 19.165ZM104.57 16.6352L102.354 14.4386C102.413 14.3787 102.473 14.3198 102.533 14.2617L104.709 16.4971L104.57 16.6352ZM115.481 16.0574C115.434 16.019 115.387 15.9815 115.339 15.9445L117.246 13.475C117.316 13.5289 117.385 13.5838 117.453 13.6391L115.481 16.0574ZM107.895 14.611L106.954 11.6359C107.04 11.6089 107.125 11.5833 107.211 11.5586L108.066 14.5598C108.008 14.5753 107.951 14.5927 107.895 14.611ZM111.962 14.3929L111.779 14.3582L112.329 11.2866C112.414 11.3017 112.499 11.3182 112.584 11.3351L111.962 14.3929Z" fill="#E6E6E6"/>
<path d="M104.785 20.3977L110.533 22.7474L111.691 15.7632" stroke="#E0E0E0" stroke-miterlimit="10" stroke-linecap="round" stroke-linejoin="round"/>
<path d="M111.393 22.5359C111.346 23.0758 110.872 23.4762 110.332 23.4305C109.792 23.3843 109.391 22.9094 109.437 22.3695C109.484 21.8296 109.959 21.4291 110.498 21.4753C111.038 21.521 111.439 21.996 111.393 22.5359Z" fill="#E0E0E0"/>
<path d="M50.7009 63.3474C56.8406 60.9152 59.8461 53.9663 57.4138 47.8266C54.9816 41.6869 48.0327 38.6814 41.893 41.1136C35.7533 43.5459 32.7478 50.4948 35.1801 56.6345C37.6123 62.7741 44.5612 65.7796 50.7009 63.3474Z" fill="#E0E0E0"/>
<path d="M53.4825 60.7371C58.3826 56.3105 58.7665 48.7497 54.3399 43.8496C49.9132 38.9494 42.3524 38.5656 37.4523 42.9922C32.5522 47.4188 32.1683 54.9797 36.5949 59.8798C41.0216 64.7799 48.5824 65.1638 53.4825 60.7371Z" fill="#F0F0F0"/>
<path d="M52.8141 58.5625C56.5125 54.5096 56.2252 48.2259 52.1723 44.5274C48.1194 40.829 41.8357 41.1163 38.1373 45.1692C34.4389 49.2221 34.7262 55.5058 38.7791 59.2042C42.8319 62.9026 49.1156 62.6153 52.8141 58.5625Z" fill="white"/>
<path d="M43.675 60.1834L44.171 57.8776C44.2167 57.8876 44.2625 57.8968 44.3082 57.9055L43.8684 60.2227C43.8039 60.2104 43.739 60.1971 43.675 60.1834ZM40.1678 58.5194C40.1162 58.4783 40.065 58.4362 40.0142 58.3937L41.531 56.5875C41.5667 56.6172 41.6028 56.6469 41.6389 56.6757L40.1678 58.5194ZM47.7459 60.0664L47.1123 57.7944L47.2535 57.7537L47.9292 60.0133C47.8679 60.0321 47.8067 60.0495 47.7459 60.0664ZM37.6828 55.2943C37.6563 55.2344 37.6311 55.1745 37.606 55.1141L39.7861 54.2131L39.8419 54.3439L37.6828 55.2943ZM51.2933 58.0719L49.6778 56.3535L49.7811 56.2547L51.4597 57.9114L51.4163 57.9539C51.3875 57.9827 51.3404 58.0275 51.2933 58.0719ZM36.9829 51.286C36.987 51.2207 36.9925 51.1553 36.998 51.0899L39.3473 51.302C39.3427 51.3487 39.3395 51.3953 39.3363 51.4419L36.9829 51.286ZM51.291 53.8616C51.3057 53.8195 51.3194 53.7775 51.3331 53.7349L53.5818 54.4467C53.5612 54.5112 53.5402 54.5752 53.5178 54.6396L51.291 53.8616ZM40.2309 48.6442L38.225 47.404L38.326 47.244L40.31 48.5185L40.2309 48.6442ZM51.5525 50.9345L51.5292 50.7923L53.8533 50.39C53.8643 50.4536 53.8748 50.5176 53.8844 50.5811L51.5525 50.9345ZM42.3301 46.5761L41.1237 44.5496C41.1781 44.5171 41.2334 44.4851 41.2883 44.454L42.4577 46.502L42.3301 46.5761ZM50.4252 48.2172C50.3982 48.1802 50.3708 48.1441 50.3425 48.1075L52.2053 46.6611C52.2465 46.7141 52.2862 46.7672 52.3256 46.8206L50.4252 48.2172ZM45.1466 45.7231L45.0213 43.3679C45.089 43.3642 45.1562 43.3614 45.2238 43.3596L45.2819 45.7176C45.2362 45.7189 45.1909 45.7208 45.1466 45.7231ZM48.1646 46.3333L48.0375 46.273L49.0209 44.129C49.0803 44.1564 49.1397 44.1843 49.1982 44.2127L48.1646 46.3333Z" fill="#E6E6E6"/>
<path d="M41.7761 49.3706L45.538 52.1775L47.7071 47.2847" stroke="#E0E0E0" stroke-miterlimit="10" stroke-linecap="round" stroke-linejoin="round"/>
<path d="M46.2076 52.1853C46.0718 52.5715 45.6485 52.775 45.2617 52.6392C44.875 52.5034 44.672 52.0801 44.8078 51.6934C44.9436 51.3066 45.3669 51.1037 45.7536 51.2394C46.1399 51.3757 46.3433 51.799 46.2076 52.1853Z" fill="#E0E0E0"/>
<path d="M203.993 145.472C208.315 142.911 209.742 137.332 207.182 133.01C204.621 128.688 199.041 127.261 194.719 129.822C190.398 132.383 188.97 137.962 191.531 142.284C194.092 146.606 199.672 148.033 203.993 145.472Z" fill="#E0E0E0"/>
<path d="M205.385 143.566C208.807 139.889 208.601 134.134 204.923 130.711C201.246 127.289 195.491 127.495 192.069 131.172C188.646 134.849 188.853 140.604 192.53 144.027C196.207 147.449 201.963 147.243 205.385 143.566Z" fill="#F0F0F0"/>
<path d="M205.557 140.578C207.33 136.8 205.705 132.3 201.927 130.527C198.15 128.754 193.65 130.379 191.876 134.157C190.103 137.934 191.728 142.434 195.506 144.208C199.283 145.981 203.783 144.356 205.557 140.578Z" fill="white"/>
<path d="M197.361 143.697L197.738 141.943C197.772 141.95 197.807 141.957 197.842 141.964L197.507 143.726C197.459 143.717 197.409 143.707 197.361 143.697ZM194.693 142.431C194.653 142.4 194.614 142.368 194.576 142.336L195.729 140.962C195.756 140.985 195.784 141.007 195.811 141.029L194.693 142.431ZM200.457 143.608L199.975 141.88L200.083 141.849L200.597 143.568C200.55 143.581 200.503 143.595 200.457 143.608ZM192.802 139.978C192.782 139.933 192.763 139.887 192.744 139.841L194.402 139.155L194.444 139.255L192.802 139.978ZM203.156 142.09L201.927 140.783L202.006 140.708L203.282 141.969L203.249 142.001C203.227 142.023 203.191 142.057 203.156 142.09ZM192.27 136.929C192.273 136.879 192.278 136.829 192.282 136.78L194.069 136.941C194.065 136.976 194.063 137.012 194.06 137.048L192.27 136.929ZM203.154 138.888C203.165 138.856 203.175 138.824 203.186 138.792L204.897 139.333C204.881 139.382 204.865 139.431 204.848 139.48L203.154 138.888ZM194.741 134.92L193.215 133.976L193.292 133.855L194.801 134.824L194.741 134.92ZM203.353 136.662L203.335 136.554L205.103 136.248C205.111 136.296 205.119 136.345 205.127 136.393L203.353 136.662ZM196.338 133.346L195.42 131.805C195.462 131.78 195.504 131.756 195.546 131.732L196.435 133.289L196.338 133.346ZM202.495 134.595C202.475 134.566 202.454 134.539 202.432 134.511L203.849 133.411C203.88 133.451 203.911 133.491 203.941 133.532L202.495 134.595ZM198.48 132.697L198.385 130.906C198.436 130.903 198.487 130.901 198.539 130.899L198.583 132.693C198.548 132.694 198.514 132.696 198.48 132.697ZM200.776 133.162L200.679 133.116L201.427 131.485C201.472 131.506 201.517 131.527 201.562 131.549L200.776 133.162Z" fill="#E6E6E6"/>
<path d="M195.916 135.472L198.778 137.607L200.428 133.885" stroke="#E0E0E0" stroke-miterlimit="10" stroke-linecap="round" stroke-linejoin="round"/>
<path d="M199.287 137.613C199.184 137.907 198.861 138.061 198.567 137.958C198.273 137.855 198.119 137.532 198.222 137.239C198.326 136.945 198.647 136.79 198.942 136.893C199.236 136.997 199.39 137.319 199.287 137.613Z" fill="#E0E0E0"/>
<path d="M200.195 67.9528C203.521 62.106 201.478 54.6697 195.631 51.3434C189.784 48.017 182.348 50.0603 179.021 55.9071C175.695 61.7539 177.738 69.1902 183.585 72.5165C189.432 75.8428 196.868 73.7996 200.195 67.9528Z" fill="#E0E0E0"/>
<path d="M200.926 62.2683C201.319 55.5531 196.194 49.7908 189.479 49.398C182.763 49.0052 177.001 54.1305 176.608 60.8457C176.215 67.5609 181.341 73.3231 188.056 73.7159C194.771 74.1088 200.533 68.9835 200.926 62.2683Z" fill="#F0F0F0"/>
<path d="M190.308 71.5642C195.832 70.7142 199.621 65.5473 198.771 60.0237C197.921 54.5 192.754 50.7113 187.23 51.5613C181.706 52.4113 177.918 57.5782 178.768 63.1018C179.618 68.6255 184.784 72.4142 190.308 71.5642Z" fill="white"/>
<path d="M186.933 70.0291L187.438 67.6803C187.484 67.6903 187.531 67.6999 187.577 67.7086L187.129 70.0688C187.064 70.057 186.998 70.0433 186.933 70.0291ZM183.36 68.3344C183.307 68.2924 183.255 68.2499 183.204 68.2065L184.748 66.3669C184.785 66.3975 184.822 66.4272 184.858 66.4565L183.36 68.3344ZM191.078 69.9102L190.433 67.5962L190.577 67.5546L191.265 69.8563C191.203 69.875 191.141 69.8928 191.078 69.9102ZM180.829 65.0499C180.802 64.9891 180.776 64.9278 180.751 64.8666L182.971 63.9491L183.028 64.0826L180.829 65.0499ZM194.693 67.8787L193.047 66.1283L193.152 66.0277L194.862 67.7155L194.817 67.7589C194.788 67.7877 194.741 67.8334 194.693 67.8787ZM180.116 60.9667C180.12 60.8999 180.125 60.8332 180.131 60.7669L182.524 60.9831C182.519 61.0307 182.516 61.0782 182.513 61.1258L180.116 60.9667ZM194.69 63.5902C194.705 63.5477 194.719 63.5043 194.733 63.4613L197.024 64.1863C197.003 64.2522 196.981 64.3175 196.958 64.3829L194.69 63.5902ZM183.425 58.2759L181.381 57.0128L181.484 56.8501L183.505 58.1484L183.425 58.2759ZM194.956 60.6087L194.933 60.4643L197.3 60.0547C197.311 60.1196 197.322 60.1845 197.332 60.2494L194.956 60.6087ZM185.563 56.1694L184.334 54.105C184.389 54.0716 184.445 54.0396 184.502 54.0076L185.693 56.0935L185.563 56.1694ZM193.808 57.8407C193.78 57.8032 193.752 57.7662 193.724 57.7292L195.622 56.2558C195.663 56.3098 195.704 56.3637 195.744 56.4181L193.808 57.8407ZM188.431 55.3004L188.304 52.9013C188.372 52.8976 188.441 52.8949 188.51 52.8931L188.569 55.2949C188.523 55.2963 188.477 55.2981 188.431 55.3004ZM191.505 55.9221L191.376 55.8608L192.377 53.6771C192.438 53.705 192.498 53.7333 192.558 53.7625L191.505 55.9221Z" fill="#E6E6E6"/>
<path d="M184.998 59.0155L188.831 61.8749L191.039 56.8911" stroke="#E0E0E0" stroke-miterlimit="10" stroke-linecap="round" stroke-linejoin="round"/>
<path d="M189.512 61.8827C189.374 62.2763 188.942 62.4834 188.549 62.3449C188.155 62.2063 187.948 61.7753 188.087 61.3817C188.225 60.9881 188.656 60.781 189.05 60.9195C189.444 61.058 189.651 61.4891 189.512 61.8827Z" fill="#E0E0E0"/>
<path d="M59.7337 187.856C62.248 181.609 59.2222 174.506 52.9754 171.992C46.7285 169.478 39.6261 172.503 37.1117 178.75C34.5974 184.997 37.6232 192.1 43.87 194.614C50.1169 197.128 57.2193 194.103 59.7337 187.856Z" fill="#263238"/>
<path opacity="0.3" d="M59.7337 187.856C62.248 181.609 59.2222 174.506 52.9754 171.992C46.7285 169.478 39.6261 172.503 37.1117 178.75C34.5974 184.997 37.6232 192.1 43.87 194.614C50.1169 197.128 57.2193 194.103 59.7337 187.856Z" fill="black"/>
<path d="M54.1058 193.407C59.7702 189.767 61.4105 182.223 57.7696 176.559C54.1287 170.894 46.5853 169.254 40.9209 172.895C35.2565 176.536 33.6161 184.079 37.257 189.744C40.8979 195.408 48.4414 197.048 54.1058 193.407Z" fill="#263238"/>
<path d="M53.0439 191.645C57.7319 188.592 59.0575 182.317 56.0047 177.629C52.9519 172.941 46.6767 171.615 41.9887 174.668C37.3006 177.721 35.975 183.996 39.0278 188.684C42.0807 193.372 48.3558 194.698 53.0439 191.645Z" fill="white"/>
<path d="M47.8571 191.83L47.7583 189.427C47.8059 189.425 47.8534 189.422 47.901 189.419L48.0582 191.819C47.991 191.823 47.9238 191.827 47.8571 191.83ZM43.97 191.082C43.9087 191.054 43.8475 191.026 43.7862 190.997L44.8226 188.827C44.8655 188.847 44.9085 188.867 44.9515 188.886L43.97 191.082ZM51.8457 190.676L50.6406 188.595L50.7695 188.518L52.013 190.577C51.9577 190.61 51.9019 190.643 51.8457 190.676ZM40.6936 188.532C40.6525 188.48 40.6118 188.427 40.5716 188.374L42.4939 186.929L42.5821 187.044L40.6936 188.532ZM54.839 187.801L52.8057 186.516L52.8825 186.392L54.9625 187.6L54.9305 187.653C54.9094 187.689 54.8742 187.746 54.839 187.801ZM38.9803 184.754C38.9679 184.688 38.9565 184.622 38.9451 184.557L41.3186 184.167C41.3259 184.214 41.3346 184.261 41.3432 184.307L38.9803 184.754ZM53.7629 183.646C53.7666 183.6 53.7693 183.555 53.7721 183.51L56.1739 183.639C56.1702 183.708 56.1657 183.776 56.1597 183.845L53.7629 183.646ZM41.5128 181.317L39.2162 180.605L39.2751 180.421L41.5595 181.173L41.5128 181.317ZM53.2738 180.689L53.2143 180.555L55.4063 179.565C55.4333 179.624 55.4603 179.685 55.4859 179.745L53.2738 180.689ZM43.0575 178.739L41.3496 177.047C41.3949 177 41.4415 176.955 41.4877 176.91L43.165 178.633L43.0575 178.739ZM51.4671 178.294C51.431 178.264 51.3944 178.236 51.3574 178.207L52.8276 176.304C52.8815 176.345 52.9346 176.387 52.9871 176.43L51.4671 178.294ZM45.6198 177.179L44.8952 174.886C44.9611 174.866 45.0264 174.846 45.0932 174.826L45.7519 177.139C45.7076 177.152 45.6632 177.166 45.6198 177.179ZM48.7554 177.011L48.6141 176.984L49.0379 174.617C49.1037 174.629 49.1691 174.641 49.2344 174.654L48.7554 177.011Z" fill="black"/>
<path d="M43.2229 181.64L47.6531 183.451L48.5459 178.067" stroke="black" stroke-miterlimit="10" stroke-linecap="round" stroke-linejoin="round"/>
<path d="M48.3159 183.288C48.2803 183.704 47.9141 184.013 47.4981 183.977C47.0821 183.942 46.7731 183.575 46.8087 183.159C46.8444 182.743 47.2105 182.434 47.6265 182.47C48.043 182.505 48.3516 182.871 48.3159 183.288Z" fill="black"/>
<path d="M198.921 179.934C202.01 174.449 200.068 167.499 194.583 164.41C189.099 161.321 182.149 163.264 179.06 168.748C175.971 174.233 177.913 181.183 183.398 184.271C188.882 187.36 195.833 185.418 198.921 179.934Z" fill="#13C4A3"/>
<path opacity="0.3" d="M198.921 179.934C202.01 174.449 200.068 167.499 194.583 164.41C189.099 161.321 182.149 163.264 179.06 168.748C175.971 174.233 177.913 181.183 183.398 184.271C188.882 187.36 195.833 185.418 198.921 179.934Z" fill="black"/>
<path d="M190.837 185.274C196.953 183.785 200.704 177.62 199.216 171.505C197.727 165.389 191.562 161.638 185.446 163.126C179.33 164.615 175.579 170.78 177.068 176.896C178.557 183.011 184.721 186.763 190.837 185.274Z" fill="#13C4A3"/>
<path d="M188.15 183.671C193.38 183.671 197.619 179.432 197.619 174.202C197.619 168.972 193.38 164.733 188.15 164.733C182.92 164.733 178.681 168.972 178.681 174.202C178.681 179.432 182.92 183.671 188.15 183.671Z" fill="white"/>
<path d="M188.475 182.307L188.383 180.06C188.427 180.058 188.472 180.056 188.516 180.053L188.663 182.297C188.601 182.301 188.538 182.304 188.475 182.307ZM184.842 181.608C184.784 181.583 184.727 181.556 184.67 181.529L185.639 179.5C185.679 179.519 185.719 179.538 185.759 179.556L184.842 181.608ZM192.204 181.228L191.078 179.283L191.198 179.211L192.361 181.135C192.309 181.167 192.257 181.198 192.204 181.228ZM181.779 179.225C181.741 179.176 181.703 179.126 181.665 179.077L183.462 177.726L183.545 177.833L181.779 179.225ZM195.002 178.541L193.102 177.341L193.173 177.225L195.118 178.354L195.088 178.403C195.068 178.436 195.035 178.489 195.002 178.541ZM180.177 175.692C180.166 175.631 180.155 175.569 180.144 175.508L182.363 175.143C182.37 175.187 182.378 175.231 182.386 175.275L180.177 175.692ZM193.996 174.656C194 174.614 194.002 174.572 194.004 174.529L196.249 174.65C196.246 174.714 196.242 174.779 196.236 174.843L193.996 174.656ZM182.545 172.479L180.398 171.813L180.452 171.642L182.588 172.345L182.545 172.479ZM193.539 171.893L193.484 171.768L195.533 170.842C195.558 170.898 195.583 170.954 195.607 171.011L193.539 171.893ZM183.988 170.07L182.392 168.488C182.434 168.445 182.478 168.402 182.521 168.36L184.089 169.971L183.988 170.07ZM191.85 169.654C191.817 169.626 191.783 169.599 191.748 169.572L193.122 167.793C193.172 167.832 193.222 167.871 193.271 167.912L191.85 169.654ZM186.384 168.612L185.707 166.468C185.768 166.449 185.829 166.43 185.892 166.412L186.507 168.574C186.466 168.586 186.425 168.598 186.384 168.612ZM189.315 168.455L189.183 168.43L189.579 166.217C189.641 166.228 189.702 166.239 189.763 166.252L189.315 168.455Z" fill="black"/>
<path d="M184.144 172.781L188.285 174.474L189.119 169.442" stroke="black" stroke-miterlimit="10" stroke-linecap="round" stroke-linejoin="round"/>
<path d="M188.905 174.322C188.872 174.711 188.53 175 188.141 174.967C187.752 174.933 187.463 174.591 187.496 174.202C187.529 173.813 187.871 173.525 188.26 173.558C188.649 173.591 188.938 173.933 188.905 174.322Z" fill="black"/>
<path d="M205.299 191.514H179.833V194.394H205.299V191.514Z" fill="#13C4A3"/>
<path d="M204.28 185.692H178.813V188.572H204.28V185.692Z" fill="#13C4A3"/>
<path d="M206.71 188.612H181.244V191.514H206.71V188.612Z" fill="#13C4A3"/>
<path opacity="0.2" d="M206.71 188.612H181.244V191.514H206.71V188.612Z" fill="black"/>
<path d="M134.251 194.408L132.343 169.872L116.223 184L121.377 194.408H134.251Z" fill="#13C4A3"/>
<path opacity="0.2" d="M134.251 194.408L132.343 169.872L116.223 184L121.377 194.408H134.251Z" fill="black"/>
<path d="M51.5179 109.797C51.5179 109.797 43.5284 96.0797 46.0431 94.2736C48.5583 92.4674 56.1314 91.8315 65.1732 98.0208C62.5478 103.743 57.5641 108.041 51.5179 109.797Z" fill="#13C4A3"/>
<path opacity="0.2" d="M52.2885 108.953C52.2885 108.953 47.7706 99.3094 49.1772 98.471C50.5838 97.6326 55.777 99.2363 60.8691 104.238C58.3937 109.831 52.2885 108.953 52.2885 108.953Z" fill="black"/>
<path d="M144.512 139.745C147.351 142.403 151.73 143.073 155.172 141.194C156.78 140.317 158.15 138.891 158.965 137.252C159.826 135.519 160.318 133.311 159.625 131.438C158.845 129.33 156.648 128.051 154.484 128.977C152.632 129.77 151.412 131.731 150.838 133.591C149.621 137.529 151.458 141.788 155.312 143.356C159.473 145.048 164.258 142.1 164.564 137.61C164.614 136.871 163.897 136.239 163.192 136.239C162.408 136.239 161.872 136.868 161.821 137.61C161.669 139.848 159.167 141.54 156.989 141.024C154.46 140.423 152.929 137.993 153.233 135.418C153.374 134.219 153.947 132.883 154.85 131.997C155.655 131.207 156.541 131.151 157.007 132.235C157.48 133.334 157.091 134.845 156.632 135.794C156.106 136.885 155.32 137.843 154.349 138.487C151.937 140.088 148.613 139.83 146.45 137.805C145.163 136.6 143.219 138.535 144.512 139.745Z" fill="#13C4A3"/>
<path d="M92.6032 88.8157C122.964 88.8157 147.575 111.457 147.575 139.393C147.575 167.328 122.964 189.97 92.6032 189.97C62.2425 189.97 41.2102 167.328 41.2102 139.393C41.2102 111.457 62.242 88.8157 92.6032 88.8157Z" fill="#13C4A3"/>
<path opacity="0.2" d="M139.726 113.336C139.726 113.336 136.195 124.249 136.857 130.017C137.825 138.451 142.591 160.459 142.591 160.459C142.591 160.459 146.649 154.69 147.111 147.041C147.574 139.393 141.976 116.529 141.976 116.529L139.726 113.336Z" fill="black"/>
<path opacity="0.1" d="M97.2842 189.779C98.9235 189.662 100.538 189.475 102.129 189.216L99.9283 184.613L97.2842 189.779Z" fill="black"/>
<path d="M119.751 195.371L117.163 176.607L96.9355 184L103.26 195.371H119.751Z" fill="#13C4A3"/>
<path d="M58.7424 195.371L60.0197 176.607L79.2791 184L73.7989 195.371H58.7424Z" fill="#13C4A3"/>
<path d="M125.422 107.671C125.422 107.671 133.294 91.7643 130.267 90.29C127.239 88.8157 118.468 89.4461 108.672 97.5595C114.676 107.04 125.422 107.671 125.422 107.671Z" fill="#13C4A3"/>
<path opacity="0.2" d="M124.461 106.899C124.461 106.899 128.754 95.9165 127.06 95.2752C125.366 94.6338 119.56 97.2107 114.186 103.4C117.54 108.891 124.461 106.899 124.461 106.899Z" fill="black"/>
<path opacity="0.4" d="M102.322 91.0776C98.9122 90.423 94.392 89.6614 88.5237 90.6328C82.413 91.2349 80.6128 93.2152 80.6128 93.2152H88.8894C92.0574 91.0438 102.322 91.0776 102.322 91.0776Z" fill="black"/>
<path d="M57.2098 130.182C56.9812 133.078 58.2868 135.647 60.1264 135.921C61.9655 136.196 63.6414 134.072 63.8699 131.177C64.099 128.283 62.7934 125.713 60.9543 125.438C59.1156 125.163 57.4398 127.286 57.2098 130.182Z" fill="#263238"/>
<path d="M56.4217 124.44C56.6366 124.463 56.8542 124.401 57.021 124.248C59.6162 121.845 62.5383 122.689 62.5721 122.698C63.005 122.824 63.4434 122.579 63.5426 122.137C63.6405 121.696 63.3657 121.232 62.9269 121.1C62.7742 121.054 59.107 119.992 55.8864 122.975C55.566 123.272 55.5591 123.799 55.8718 124.151C56.0231 124.319 56.221 124.417 56.4217 124.44Z" fill="#263238"/>
<path d="M98.8961 131.127C99.1247 134.023 97.8191 136.592 95.9796 136.866C94.1405 137.141 92.4646 135.017 92.236 132.122C92.007 129.227 93.3126 126.657 95.1517 126.382C96.9908 126.108 98.6667 128.232 98.8961 131.127Z" fill="#263238"/>
<path d="M99.6846 125.385C99.4698 125.408 99.2522 125.346 99.0853 125.192C96.4901 122.789 93.5681 123.633 93.5342 123.643C93.1013 123.769 92.6629 123.524 92.5637 123.082C92.4659 122.641 92.7406 122.177 93.1795 122.044C93.3322 121.999 96.9994 120.937 100.22 123.92C100.541 124.217 100.547 124.744 100.235 125.095C100.083 125.264 99.8858 125.362 99.6846 125.385Z" fill="#263238"/>
<path opacity="0.2" d="M78.1989 133.133C87.0396 133.133 94.209 139.727 94.209 147.865C94.209 156.003 87.0456 162.598 78.1989 162.598C69.3523 162.598 62.1587 156.003 62.1587 147.865C62.1587 139.727 69.3582 133.133 78.1989 133.133Z" fill="black"/>
<path d="M75.4882 133.133C84.3289 133.133 91.4983 139.727 91.4983 147.865C91.4983 156.003 84.3349 162.598 75.4882 162.598C66.6416 162.598 59.448 156.003 59.448 147.865C59.448 139.727 66.6475 133.133 75.4882 133.133Z" fill="#13C4A3"/>
<path opacity="0.2" d="M79.7954 151.331C81.0681 151.331 82.0999 149.41 82.0999 147.041C82.0999 144.672 81.0681 142.751 79.7954 142.751C78.5227 142.751 77.491 144.672 77.491 147.041C77.491 149.41 78.5227 151.331 79.7954 151.331Z" fill="black"/>
<path opacity="0.2" d="M72.1434 147.041C72.1434 149.41 71.1116 151.331 69.8389 151.331C68.5662 151.331 67.5349 149.41 67.5349 147.041C67.5349 144.672 68.5667 142.751 69.8389 142.751C71.1111 142.751 72.1434 144.672 72.1434 147.041Z" fill="black"/>
<path d="M75.4882 162.598C67.2134 162.882 59.1897 156.449 59.2198 147.866C59.1869 139.285 67.2171 132.846 75.4882 133.133C69.4722 133.243 63.5316 136.607 60.9579 142.107C56.2667 152.315 64.9401 162.494 75.4882 162.598Z" fill="#263238"/>
<path opacity="0.2" d="M59.8543 179.038C59.8543 179.038 65.9169 185.133 77.3812 187.938L75.8671 191.079L59.468 184.711L59.8543 179.038Z" fill="black"/>
<path d="M100.256 153.181C103.981 151.5 105.963 146.804 104.595 142.959C104.302 142.133 102.976 142.489 103.273 143.323C104.454 146.643 102.771 150.55 99.5632 151.996C99.2231 152.15 99.1481 152.637 99.3173 152.934C99.5166 153.285 99.9202 153.333 100.256 153.181Z" fill="#263238"/>
<path d="M48.5326 109.352L48.0769 109.004C46.1852 111.485 44.5221 114.133 43.1086 116.915L43.6206 117.173C45.0209 114.424 46.6648 111.807 48.5326 109.352Z" fill="#13C4A3"/>
<path d="M42.349 119.851L41.8201 119.62C41.2912 120.836 40.8075 122.09 40.3796 123.345L40.9424 123.531C41.3643 122.282 41.843 121.044 42.349 119.851Z" fill="#13C4A3"/>
<path d="M155.303 155.002L155.627 165.62L152.12 165.875L149.239 155.698L155.303 155.002Z" fill="#E9B376"/>
<path d="M156.157 170.807L153.124 170.784C153.124 170.784 152.513 170.453 152.153 170.494C151.793 170.535 150.543 170.764 150.543 170.764L142.488 170.703C142.555 170.366 142.637 170.067 142.73 169.801C142.843 169.476 142.973 169.202 143.117 168.97C143.622 168.16 144.305 167.875 145.046 167.834C146.174 167.772 149.741 165.429 149.741 165.429L151.257 164.499C151.212 163.987 151.131 163.313 151.675 163.111C152.373 162.851 152.977 162.715 153.291 163.48L153.631 164.397L154.427 164.279C154.427 164.279 155.991 163.238 155.901 164.084C155.849 164.567 156.622 166.763 156.427 168.468C156.381 168.865 156.338 169.241 156.301 169.571L156.3 169.571C156.216 170.303 156.157 170.807 156.157 170.807Z" fill="#263238"/>
<g opacity="0.2">
<path d="M142.489 170.703L150.543 170.764C150.543 170.764 151.794 170.535 152.153 170.494C152.514 170.453 153.125 170.784 153.125 170.784L156.158 170.807C156.158 170.807 156.216 170.304 156.3 169.572L142.73 169.801C142.637 170.067 142.556 170.366 142.489 170.703Z" fill="white"/>
</g>
<path d="M147.968 166.295C148.005 166.259 148.063 166.255 148.106 166.284C148.305 166.418 148.471 166.607 148.583 166.843C148.642 166.967 148.461 167.085 148.401 166.96C148.302 166.75 148.156 166.584 147.983 166.466C147.925 166.427 147.916 166.345 147.966 166.297C147.967 166.296 147.968 166.295 147.968 166.295Z" fill="#13C4A3"/>
<path d="M148.611 165.922C148.649 165.886 148.706 165.883 148.75 165.912C148.949 166.046 149.115 166.235 149.227 166.47C149.286 166.594 149.105 166.712 149.045 166.587C148.946 166.378 148.8 166.211 148.626 166.093C148.568 166.054 148.559 165.973 148.61 165.924C148.61 165.923 148.611 165.922 148.611 165.922Z" fill="#13C4A3"/>
<path d="M149.275 165.575C149.312 165.539 149.37 165.535 149.413 165.564C149.612 165.698 149.778 165.887 149.891 166.123C149.95 166.247 149.768 166.365 149.709 166.24C149.609 166.03 149.464 165.864 149.29 165.746C149.232 165.707 149.223 165.626 149.274 165.577C149.274 165.576 149.274 165.575 149.275 165.575Z" fill="#13C4A3"/>
<path d="M166.061 155.077L167.538 165.917L171.071 166.096L172.215 155.645L166.061 155.077Z" fill="#E9B376"/>
<path d="M174.079 170.95H166.176C166.176 170.95 166.004 170.618 166.201 169.735C166.231 169.597 166.27 169.446 166.321 169.281C166.324 169.273 166.326 169.264 166.329 169.256C166.403 169.012 166.487 168.711 166.577 168.386C166.939 167.063 167.365 165.334 167.365 165.334C167.365 165.334 168.68 162.52 170.218 163.222C171.568 163.839 171.248 165.603 171.248 165.603C171.248 165.603 171.38 166.639 172.403 167.552C173.035 168.116 173.664 168.553 173.968 169.256C174.024 169.387 174.069 169.526 174.101 169.678C174.104 169.696 174.108 169.715 174.111 169.734C174.174 170.073 174.17 170.47 174.079 170.95Z" fill="#263238"/>
<g opacity="0.2">
<path d="M166.201 169.735C166.004 170.618 166.176 170.95 166.176 170.95H174.079C174.17 170.47 174.174 170.073 174.111 169.735H166.201Z" fill="white"/>
</g>
<path d="M170.929 166.046C170.485 165.7 169.902 165.745 169.502 166.135C169.394 166.24 169.229 166.075 169.337 165.97C169.835 165.483 170.548 165.456 171.094 165.881C171.213 165.974 171.046 166.138 170.929 166.046Z" fill="#13C4A3"/>
<path d="M171.153 166.785C170.709 166.438 170.125 166.483 169.725 166.873C169.618 166.978 169.453 166.813 169.56 166.708C170.059 166.221 170.772 166.194 171.318 166.62C171.436 166.711 171.27 166.876 171.153 166.785Z" fill="#13C4A3"/>
<path d="M171.377 167.463C170.932 167.117 170.349 167.162 169.949 167.551C169.842 167.657 169.676 167.491 169.784 167.386C170.283 166.9 170.995 166.873 171.541 167.298C171.66 167.39 171.494 167.554 171.377 167.463Z" fill="#13C4A3"/>
<path d="M173.713 86.3192L157.168 86.4595L146.785 86.1445C146.785 86.1445 142.18 118.476 141.561 124.396C140.943 130.316 149.002 162.617 149.002 162.617H157.702C157.702 162.617 152.879 129.932 153.541 126.729C154.118 123.937 157.808 105.144 159.436 100.593C159.6 101.526 159.768 102.461 159.94 103.39C160.352 107.585 161.673 120.963 162.248 125.941C162.248 125.941 163.498 154.378 164.949 162.636L172.547 162.648C173.55 150.925 174.193 109.748 174.193 109.748L174.192 109.747C174.755 100.804 173.713 86.3192 173.713 86.3192Z" fill="#263238"/>
<g opacity="0.5">
<path d="M152.242 90.8448C151.277 94.016 148.697 96.5632 145.514 97.4894C145.343 97.5392 145.416 97.808 145.588 97.7578C148.865 96.8042 151.517 94.1829 152.51 90.9184C152.563 90.747 152.294 90.6734 152.242 90.8448Z" fill="black"/>
<path d="M159.708 90.8444C159.52 93.6188 159.336 96.3978 159.149 99.1722C159.139 99.351 158.862 99.351 158.871 99.1722C158.969 97.7491 159.063 96.3215 159.157 94.8943C158.472 95.4223 157.671 94.7823 157.448 94.0755C157.081 92.9299 157.22 91.5695 157.506 90.4239C157.551 90.2492 157.819 90.3256 157.774 90.4956C157.573 91.3011 157.488 92.1244 157.546 92.9523C157.573 93.3729 157.613 93.8561 157.81 94.241C158.029 94.6707 158.584 95.0328 159.027 94.6438C159.077 94.6035 159.13 94.5989 159.175 94.6213C159.26 93.3637 159.345 92.102 159.43 90.8444C159.44 90.6652 159.717 90.6652 159.708 90.8444Z" fill="black"/>
<path d="M167.867 91.3172C167.827 94.9949 170.659 98.0751 174.32 98.364C174.495 98.3777 174.494 98.1044 174.32 98.0906C170.807 97.8132 168.102 94.8367 168.14 91.3172C168.142 91.1407 167.868 91.1407 167.867 91.3172Z" fill="black"/>
</g>
<path d="M156.058 42.3827C156.058 42.3827 155.093 39.7167 155.693 34.6145C155.692 34.6095 155.417 34.5381 155.416 34.5331C155.497 33.82 155.599 33.1567 155.703 32.5788C155.705 32.5624 155.704 32.5569 155.704 32.5569L149.733 37.7811C150.148 39.3116 150.091 42.412 149.969 43.7377C149.969 43.7377 149.512 46.1779 152.588 45.7688C154.837 45.4694 156.058 42.3827 156.058 42.3827Z" fill="#E9B376"/>
<path opacity="0.2" d="M149.983 39.9887L153.671 38.4866C153.522 39.7359 152.703 41.3241 150.056 41.8841C150.056 41.8841 150.099 40.5058 149.983 39.9887Z" fill="black"/>
<path d="M155.217 29.3143C155.472 33.6096 155.702 36.0274 153.807 38.4571C150.956 42.1124 145.577 40.8311 144.04 36.6861C142.657 32.9549 142.473 26.5572 146.454 24.394C150.376 22.2628 154.962 25.0189 155.217 29.3143Z" fill="#E9B376"/>
<path d="M153.996 23.2115C152.186 20.7667 148.375 22.5308 146.876 23.9306C146.652 24.1399 150.352 25.4693 150.131 25.4181L151.254 26.4901C151.412 26.4343 151.628 27.9196 151.809 29.206C151.975 30.3873 152.456 31.4981 153.206 32.4247C153.836 33.2014 154.686 34.1386 155.66 34.9185C157.06 34.0124 156.833 31.4108 157.116 29.8108C157.537 27.4273 157.795 22.9285 153.996 23.2115Z" fill="#263238"/>
<path d="M157.331 32.6649C157.123 33.8041 156.406 34.7362 155.611 35.2587C154.415 36.045 153.772 34.7111 153.73 33.3534C153.692 32.131 153.867 30.6155 155.247 30.3746C156.607 30.1374 157.569 31.3625 157.331 32.6649Z" fill="#E9B376"/>
<path d="M149.263 31.2848C149.316 31.7209 149.127 32.1008 148.841 32.1323C148.556 32.1643 148.28 31.8361 148.228 31.4C148.175 30.9639 148.364 30.584 148.65 30.5525C148.936 30.5205 149.21 30.8482 149.263 31.2848Z" fill="#263238"/>
<path d="M144.994 31.8881C145.047 32.3242 144.858 32.7036 144.572 32.7356C144.286 32.7672 144.011 32.4394 143.959 32.0033C143.906 31.5672 144.095 31.1873 144.381 31.1557C144.666 31.1237 144.941 31.4515 144.994 31.8881Z" fill="#263238"/>
<path d="M146.357 31.4775C146.357 31.4775 145.239 33.8126 144.903 34.7493C145.576 35.2243 146.592 34.8449 146.592 34.8449L146.357 31.4775Z" fill="#D58745"/>
<path d="M150.081 29.0991C150.018 29.1338 149.938 29.1352 149.872 29.095C149.083 28.62 148.395 28.9372 148.388 28.9404C148.285 28.9894 148.162 28.9459 148.112 28.844C148.062 28.742 148.105 28.6195 148.207 28.5711C148.243 28.5537 149.106 28.1555 150.085 28.7452C150.183 28.8042 150.214 28.9299 150.156 29.0268C150.136 29.0579 150.11 29.0822 150.081 29.0991Z" fill="#263238"/>
<path d="M148.19 36.0617C148.898 35.9813 149.405 35.5621 149.889 34.9683" stroke="#263238" stroke-width="0.75" stroke-miterlimit="10" stroke-linecap="round" stroke-linejoin="round"/>
<path opacity="0.2" d="M156.215 31.6038C156.012 31.3702 155.651 31.319 155.361 31.4282C155.072 31.538 154.85 31.7807 154.698 32.0504C154.515 32.3736 154.419 32.7453 154.422 33.1169" stroke="black" stroke-width="0.5" stroke-miterlimit="10" stroke-linecap="round" stroke-linejoin="round"/>
<path d="M142.883 30.2753C142.844 30.2717 142.806 30.257 142.773 30.2305C142.684 30.1587 142.669 30.0294 142.739 29.9407C143.446 29.0529 144.387 29.1462 144.43 29.1448C144.543 29.1567 144.626 29.2577 144.615 29.3706C144.605 29.4835 144.506 29.5654 144.394 29.5549C144.355 29.5494 143.629 29.4872 143.062 30.1994C143.017 30.2552 142.949 30.2813 142.883 30.2753Z" fill="#263238"/>
<path d="M153.996 23.2116C153.996 23.2116 151.601 19.7903 146.994 20.5423C143.287 21.1471 141.2 23.6815 140.951 26.2287C140.844 27.3231 141.031 28.1561 141.278 28.7499C141.465 29.1983 142.092 29.1769 142.264 28.7225C142.313 28.5935 142.37 28.4669 142.434 28.3439C142.447 28.3737 142.46 28.4034 142.475 28.4317C142.71 28.8953 143.427 28.781 143.474 28.2635C143.49 28.1003 143.519 27.9375 143.564 27.7785C143.567 27.7826 143.569 27.7862 143.571 27.7903C143.787 28.1977 144.404 28.1218 144.532 27.6793C145.1 25.7259 147.621 24.4047 149.743 25.4438L151.253 26.4898C153.134 25.5604 153.996 23.2116 153.996 23.2116Z" fill="#263238"/>
<path d="M118.782 71.2623C118.934 71.3862 137.576 70.5259 137.576 70.5259L139.322 57.2175C139.322 57.2175 147.21 60.1753 147.059 60.3385C146.908 60.5017 147.082 70.674 145.154 75.9618C143.54 80.391 128.698 78.6484 120.276 76.6027L118.782 71.2623Z" fill="#D58745"/>
<path d="M141.931 45.6995C145.548 45.7319 147.426 51.7909 147.588 67.5322L137.515 66.5027C137.515 66.5027 137.326 59.5477 137.298 54.7696C137.875 46.5584 141.931 45.6995 141.931 45.6995Z" fill="#263238"/>
<path opacity="0.5" d="M141.931 45.6995C145.548 45.7319 147.426 51.7909 147.588 67.5322L137.515 66.5027C137.515 66.5027 137.326 59.5477 137.298 54.7696C137.875 46.5584 141.931 45.6995 141.931 45.6995Z" fill="white"/>
<path d="M143.419 45.0767C145.66 44.4549 154.513 41.7811 164.177 41.6787L171.725 74.7663C171.725 74.7663 173.291 81.2961 174.031 86.4138C165.129 92.2136 152.429 93.7414 145.439 91.2006C145.537 91.3391 145.113 87.3725 144.513 81.5594C143.455 71.3153 141.851 55.3354 141.596 45.9745C141.594 45.7427 143.196 45.1388 143.419 45.0767Z" fill="#263238"/>
<path opacity="0.2" d="M142.932 65.439L141.997 53.8403L141.144 66.8735L143.104 67.0737L142.932 65.439Z" fill="black"/>
<path opacity="0.5" d="M143.419 45.0767C145.66 44.4549 154.513 41.7811 164.177 41.6787L171.725 74.7663C171.725 74.7663 173.291 81.2961 174.031 86.4138C165.129 92.2136 152.429 93.7414 145.439 91.2006C145.537 91.3391 145.113 87.3725 144.513 81.5594C143.455 71.3153 141.851 55.3354 141.596 45.9745C141.594 45.7427 143.196 45.1388 143.419 45.0767Z" fill="white"/>
<path d="M155.553 39.186L151.611 43.1348L149.86 41.6034L148.107 43.7044L151.611 47.4274L157.684 42.1044L155.553 39.186Z" fill="#263238"/>
<path opacity="0.7" d="M155.553 39.186L151.611 43.1348L149.86 41.6034L148.107 43.7044L151.611 47.4274L157.684 42.1044L155.553 39.186Z" fill="white"/>
<path d="M139.317 77.6956C143.987 72.844 143.839 65.1253 138.988 60.4555C134.136 55.7856 126.418 55.933 121.748 60.7847C117.078 65.6363 117.225 73.355 122.077 78.0248C126.929 82.6946 134.647 82.5473 139.317 77.6956Z" fill="#13C4A3"/>
<path opacity="0.3" d="M139.317 77.6956C143.987 72.844 143.839 65.1253 138.988 60.4555C134.136 55.7856 126.418 55.933 121.748 60.7847C117.078 65.6363 117.225 73.355 122.077 78.0248C126.929 82.6946 134.647 82.5473 139.317 77.6956Z" fill="black"/>
<path d="M141.858 68.9966C141.896 62.2629 136.468 56.7735 129.734 56.7358C123 56.6981 117.511 62.1263 117.473 68.86C117.435 75.5937 122.864 81.0831 129.597 81.1208C136.331 81.1585 141.82 75.7303 141.858 68.9966Z" fill="#13C4A3"/>
<path d="M133.673 78.2254C138.808 76.0061 141.172 70.0443 138.952 64.9093C136.733 59.7743 130.771 57.4106 125.636 59.6299C120.501 61.8491 118.138 67.8109 120.357 72.946C122.576 78.081 128.538 80.4446 133.673 78.2254Z" fill="white"/>
<path d="M128.462 77.5226L128.792 75.1404C128.839 75.1468 128.887 75.1527 128.934 75.1582L128.662 77.5477C128.595 77.5399 128.529 77.5317 128.462 77.5226ZM124.77 76.0954C124.714 76.0574 124.659 76.0186 124.604 75.9793L126.01 74.0282C126.048 74.0561 126.087 74.083 126.126 74.1095L124.77 76.0954ZM132.593 77.0961L131.777 74.8337L131.917 74.7815L132.775 77.0284C132.714 77.0517 132.653 77.0741 132.593 77.0961ZM122 73.0037C121.968 72.9447 121.938 72.8858 121.908 72.8263L124.056 71.7457L124.123 71.8746L122 73.0037ZM136.05 74.7998L134.277 73.1742L134.375 73.0659L136.207 74.6238L136.166 74.6705C136.138 74.702 136.094 74.7514 136.05 74.7998ZM120.985 68.9809C120.985 68.9137 120.985 68.8469 120.986 68.7802L123.391 68.8186C123.39 68.8661 123.39 68.9141 123.391 68.9617L120.985 68.9809ZM135.729 70.5187C135.741 70.4748 135.751 70.4309 135.762 70.3866L138.103 70.9406C138.087 71.0078 138.07 71.0746 138.052 71.1413L135.729 70.5187ZM124.088 66.0492L121.955 64.9397L122.045 64.7697L124.159 65.9157L124.088 66.0492ZM135.774 67.523L135.74 67.3804L138.072 66.7957C138.088 66.8597 138.104 66.9237 138.118 66.9877L135.774 67.523ZM126.067 63.7873L124.687 61.8174C124.74 61.7804 124.794 61.7438 124.847 61.7077L126.191 63.7018L126.067 63.7873ZM134.422 64.8446C134.392 64.809 134.361 64.7742 134.33 64.7395L136.115 63.1281C136.161 63.1788 136.205 63.2295 136.249 63.2812L134.422 64.8446ZM128.866 62.7075L128.561 60.3221C128.629 60.3134 128.697 60.3057 128.766 60.2983L129.003 62.6919C128.957 62.6965 128.911 62.7015 128.866 62.7075ZM131.981 63.0997L131.847 63.0481L132.685 60.7939C132.748 60.8172 132.81 60.841 132.872 60.8657L131.981 63.0997Z" fill="black"/>
<path d="M125.714 66.6709L129.716 69.3401L131.552 64.2009" stroke="black" stroke-miterlimit="10" stroke-linecap="round" stroke-linejoin="round"/>
<path d="M130.433 69.1982C130.324 69.6014 129.909 69.8401 129.506 69.7313C129.102 69.6225 128.864 69.2074 128.973 68.8037C129.081 68.4005 129.497 68.1619 129.9 68.2707C130.303 68.3799 130.542 68.795 130.433 69.1982Z" fill="black"/>
<path opacity="0.3" d="M120.721 66.0518C122.608 60.7855 128.407 58.0467 133.674 59.9343C134.968 60.3983 136.107 61.1 137.064 61.9704C135.995 60.8165 134.646 59.8904 133.062 59.3226C127.796 57.4351 121.996 60.1738 120.109 65.4401C118.685 69.4122 119.896 73.6856 122.835 76.3571C120.349 73.6732 119.401 69.7345 120.721 66.0518Z" fill="black"/>
<path d="M117.662 71.0867C117.662 71.0867 122.662 71.2375 123.304 72.0709C123.946 72.9047 122.467 73.1612 122.467 73.1612C122.467 73.1612 124.112 72.9788 124.284 73.6668C124.491 74.4924 122.939 74.7548 122.939 74.7548C122.939 74.7548 124.289 74.6606 124.401 75.2828C124.517 75.9283 122.787 76.3488 122.787 76.3488C122.787 76.3488 123.75 76.4622 123.583 76.939C123.415 77.4158 119.761 78.3786 118.522 77.9324C117.282 77.4862 116.216 72.752 116.196 71.6709C116.176 70.5902 116.324 69.8528 117.442 69.3911L117.662 71.0867Z" fill="#E9B376"/>
<path opacity="0.2" d="M122.481 73.2399C122.478 73.2403 122.476 73.2408 122.474 73.2408L119.59 73.4218C119.551 73.4241 119.517 73.3907 119.513 73.3468C119.51 73.3029 119.539 73.2645 119.577 73.2632L122.46 73.0821C122.499 73.0799 122.533 73.1132 122.537 73.1571C122.54 73.1983 122.516 73.2339 122.481 73.2399Z" fill="black"/>
<path opacity="0.2" d="M122.872 74.8476C122.872 74.8476 122.871 74.8476 122.87 74.8481L120.114 75.2421C120.076 75.2476 120.04 75.217 120.033 75.1736C120.027 75.1297 120.048 75.0981 120.091 75.0849L122.846 74.6908C122.885 74.6853 122.921 74.716 122.928 74.7594C122.935 74.8019 122.909 74.8412 122.872 74.8476Z" fill="black"/>
<path opacity="0.2" d="M122.707 76.4435L120.668 76.7951C120.629 76.8015 120.592 76.7718 120.585 76.7283C120.577 76.6854 120.602 76.6447 120.64 76.6378L122.679 76.2863C122.718 76.2799 122.755 76.3096 122.762 76.353C122.77 76.3964 122.745 76.4371 122.707 76.4435Z" fill="black"/>
<path d="M143.545 70.1803C143.545 70.1803 142.092 68.9816 140.542 69.1485C138.993 69.3158 137.712 69.037 136.569 69.2408C135.426 69.4447 136.773 70.2452 137.576 70.5259C138.379 70.8066 139.286 71.133 138.977 71.7016C138.669 72.2708 133.934 75.1965 133.596 76.034C133.259 76.8715 134.172 76.6379 134.172 76.6379C134.172 76.6379 133.041 77.3794 133.213 77.9074C133.258 78.0445 133.584 78.2909 134.152 78.034C135.431 77.4552 138.051 76.103 138.051 76.103C137.9 76.1775 134.784 78.0779 134.354 78.4235C133.793 78.8751 133.759 79.3743 134.031 79.6911C134.419 80.1423 138.362 77.9179 138.594 77.9403C138.594 77.9403 136.281 79.1453 136.265 79.9124C136.25 80.6795 137.747 80.0006 138.953 79.1513C140.059 78.3727 142.433 77.1343 143.48 76.2338C144.771 75.1238 145.388 74.0888 144.942 72.556C144.496 71.0232 143.545 70.1803 143.545 70.1803Z" fill="#E9B376"/>
<path opacity="0.3" d="M134.303 76.5118C135.224 75.9404 136.171 75.4105 137.141 74.925" stroke="black" stroke-width="0.25" stroke-miterlimit="10" stroke-linecap="round" stroke-linejoin="round"/>
<path d="M160.739 59.3212L160.312 67.0487L143.422 70.0288L144.263 75.8634C138.048 76.3169 163.374 75.5886 166.523 74.465C169.269 73.4853 168.557 59.083 168.557 59.083L160.739 59.3212Z" fill="#E9B376"/>
<path d="M164.177 41.6787C164.177 41.6787 168.938 42.076 169.196 46.8293C169.434 51.2065 169.493 61.8648 169.493 61.8648L160.076 61.8012L159.725 50.454L164.177 41.6787Z" fill="#263238"/>
<path opacity="0.5" d="M164.177 41.6787C164.177 41.6787 168.938 42.076 169.196 46.8293C169.434 51.2065 169.493 61.8648 169.493 61.8648L160.076 61.8012L159.725 50.454L164.177 41.6787Z" fill="white"/>
<path d="M142.816 173.383H139.73V194.408H142.816V173.383Z" fill="#263238"/>
<path d="M162.011 173.383H158.926V194.408H162.011V173.383Z" fill="#263238"/>
<path d="M175.928 173.383H172.843V194.408H175.928V173.383Z" fill="#263238"/>
<path d="M156.045 173.383H152.96V194.408H156.045V173.383Z" fill="#263238"/>
<path d="M176.75 169.956H138.085V174.294H176.75V169.956Z" fill="#263238"/>
</svg>
