<svg width="334" height="300" viewBox="0 0 334 300" fill="none" xmlns="http://www.w3.org/2000/svg">
<path d="M64.5543 103.34H0.397705V299.87H64.5543V103.34Z" fill="#F5F5F5"/>
<path d="M115.06 103.34H64.3552V299.87H115.06V103.34Z" fill="#FAFAFA"/>
<path d="M58.2645 134.794H3.84155V150.116H58.2645V134.794Z" fill="#E0E0E0"/>
<path d="M8.40811 136.719H5.36011V148.446H8.40811V136.719Z" fill="#F5F5F5"/>
<path d="M11.9979 139.186C11.9979 139.721 11.5642 140.155 11.0291 140.155C10.494 140.155 10.0603 139.721 10.0603 139.186C10.0603 138.651 10.494 138.217 11.0291 138.217C11.5642 138.218 11.9979 138.652 11.9979 139.186Z" fill="#FAFAFA"/>
<path d="M11.0299 144.299C11.5649 144.299 11.9987 143.865 11.9987 143.33C11.9987 142.795 11.5649 142.361 11.0299 142.361C10.4948 142.361 10.061 142.795 10.061 143.33C10.061 143.865 10.4948 144.299 11.0299 144.299Z" fill="#FAFAFA"/>
<path d="M18.8644 138.218H15.8694V147.226H18.8644V138.218Z" fill="#F5F5F5"/>
<path d="M23.1901 138.218H20.1951V147.226H23.1901V138.218Z" fill="#F5F5F5"/>
<path d="M27.5158 138.218H24.5208V147.226H27.5158V138.218Z" fill="#F5F5F5"/>
<path d="M31.8412 138.218H28.8462V147.226H31.8412V138.218Z" fill="#F5F5F5"/>
<path d="M36.1664 138.218H33.1721V147.226H36.1664V138.218Z" fill="#F5F5F5"/>
<path d="M40.4921 138.218H37.4978V147.226H40.4921V138.218Z" fill="#F5F5F5"/>
<path d="M44.8175 138.218H41.8232V147.226H44.8175V138.218Z" fill="#F5F5F5"/>
<path d="M49.1432 138.218H46.1489V147.226H49.1432V138.218Z" fill="#F5F5F5"/>
<path d="M53.4696 138.218H50.4746V147.226H53.4696V138.218Z" fill="#F5F5F5"/>
<path d="M57.7953 138.218H54.8003V147.226H57.7953V138.218Z" fill="#F5F5F5"/>
<path d="M58.2645 159.335H3.84155V174.657H58.2645V159.335Z" fill="#E0E0E0"/>
<path d="M8.40811 161.261H5.36011V172.988H8.40811V161.261Z" fill="#F5F5F5"/>
<path d="M11.9979 163.728C11.9979 164.263 11.5642 164.697 11.0291 164.697C10.494 164.697 10.0603 164.263 10.0603 163.728C10.0603 163.193 10.494 162.759 11.0291 162.759C11.5642 162.759 11.9979 163.193 11.9979 163.728Z" fill="#FAFAFA"/>
<path d="M11.0299 168.84C11.5649 168.84 11.9987 168.406 11.9987 167.871C11.9987 167.336 11.5649 166.902 11.0299 166.902C10.4948 166.902 10.061 167.336 10.061 167.871C10.061 168.406 10.4948 168.84 11.0299 168.84Z" fill="#FAFAFA"/>
<path d="M18.8644 162.759H15.8694V171.767H18.8644V162.759Z" fill="#F5F5F5"/>
<path d="M23.1901 162.759H20.1951V171.767H23.1901V162.759Z" fill="#F5F5F5"/>
<path d="M27.5158 162.759H24.5208V171.767H27.5158V162.759Z" fill="#F5F5F5"/>
<path d="M31.8412 162.759H28.8462V171.767H31.8412V162.759Z" fill="#F5F5F5"/>
<path d="M36.1664 162.759H33.1721V171.767H36.1664V162.759Z" fill="#F5F5F5"/>
<path d="M40.4921 162.759H37.4978V171.767H40.4921V162.759Z" fill="#F5F5F5"/>
<path d="M44.8175 162.759H41.8232V171.767H44.8175V162.759Z" fill="#F5F5F5"/>
<path d="M49.1432 162.759H46.1489V171.767H49.1432V162.759Z" fill="#F5F5F5"/>
<path d="M53.4696 162.759H50.4746V171.767H53.4696V162.759Z" fill="#F5F5F5"/>
<path d="M57.7953 162.759H54.8003V171.767H57.7953V162.759Z" fill="#F5F5F5"/>
<path d="M58.2645 183.876H3.84155V199.198H58.2645V183.876Z" fill="#E0E0E0"/>
<path d="M8.40811 185.803H5.36011V197.529H8.40811V185.803Z" fill="#F5F5F5"/>
<path d="M11.9979 188.27C11.9979 188.805 11.5642 189.238 11.0291 189.238C10.494 189.238 10.0603 188.805 10.0603 188.27C10.0603 187.734 10.494 187.301 11.0291 187.301C11.5642 187.301 11.9979 187.734 11.9979 188.27Z" fill="#FAFAFA"/>
<path d="M11.0299 193.382C11.5649 193.382 11.9987 192.948 11.9987 192.413C11.9987 191.878 11.5649 191.444 11.0299 191.444C10.4948 191.444 10.061 191.878 10.061 192.413C10.061 192.948 10.4948 193.382 11.0299 193.382Z" fill="#FAFAFA"/>
<path d="M18.8644 187.301H15.8694V196.309H18.8644V187.301Z" fill="#F5F5F5"/>
<path d="M23.1901 187.301H20.1951V196.309H23.1901V187.301Z" fill="#F5F5F5"/>
<path d="M27.5158 187.301H24.5208V196.309H27.5158V187.301Z" fill="#F5F5F5"/>
<path d="M31.8412 187.301H28.8462V196.309H31.8412V187.301Z" fill="#F5F5F5"/>
<path d="M36.1664 187.301H33.1721V196.309H36.1664V187.301Z" fill="#F5F5F5"/>
<path d="M40.4921 187.301H37.4978V196.309H40.4921V187.301Z" fill="#F5F5F5"/>
<path d="M44.8175 187.301H41.8232V196.309H44.8175V187.301Z" fill="#F5F5F5"/>
<path d="M49.1432 187.301H46.1489V196.309H49.1432V187.301Z" fill="#F5F5F5"/>
<path d="M53.4696 187.301H50.4746V196.309H53.4696V187.301Z" fill="#F5F5F5"/>
<path d="M57.7953 187.301H54.8003V196.309H57.7953V187.301Z" fill="#F5F5F5"/>
<path d="M58.2645 208.417H3.84155V223.739H58.2645V208.417Z" fill="#E0E0E0"/>
<path d="M8.40811 210.343H5.36011V222.07H8.40811V210.343Z" fill="#F5F5F5"/>
<path d="M11.9979 212.81C11.9979 213.345 11.5642 213.779 11.0291 213.779C10.494 213.779 10.0603 213.345 10.0603 212.81C10.0603 212.275 10.494 211.841 11.0291 211.841C11.5642 211.842 11.9979 212.276 11.9979 212.81Z" fill="#FAFAFA"/>
<path d="M11.0299 217.922C11.5649 217.922 11.9987 217.488 11.9987 216.953C11.9987 216.418 11.5649 215.984 11.0299 215.984C10.4948 215.984 10.061 216.418 10.061 216.953C10.061 217.488 10.4948 217.922 11.0299 217.922Z" fill="#FAFAFA"/>
<path d="M18.8644 211.842H15.8694V220.85H18.8644V211.842Z" fill="#F5F5F5"/>
<path d="M23.1901 211.842H20.1951V220.85H23.1901V211.842Z" fill="#F5F5F5"/>
<path d="M27.5158 211.842H24.5208V220.85H27.5158V211.842Z" fill="#F5F5F5"/>
<path d="M31.8412 211.842H28.8462V220.85H31.8412V211.842Z" fill="#F5F5F5"/>
<path d="M36.1664 211.842H33.1721V220.85H36.1664V211.842Z" fill="#F5F5F5"/>
<path d="M40.4921 211.842H37.4978V220.85H40.4921V211.842Z" fill="#F5F5F5"/>
<path d="M44.8175 211.842H41.8232V220.85H44.8175V211.842Z" fill="#F5F5F5"/>
<path d="M49.1432 211.842H46.1489V220.85H49.1432V211.842Z" fill="#F5F5F5"/>
<path d="M53.4696 211.842H50.4746V220.85H53.4696V211.842Z" fill="#F5F5F5"/>
<path d="M57.7953 211.842H54.8003V220.85H57.7953V211.842Z" fill="#F5F5F5"/>
<path d="M58.2645 232.958H3.84155V248.28H58.2645V232.958Z" fill="#E0E0E0"/>
<path d="M8.40811 234.885H5.36011V246.611H8.40811V234.885Z" fill="#F5F5F5"/>
<path d="M11.9979 237.352C11.9979 237.887 11.5642 238.32 11.0291 238.32C10.494 238.32 10.0603 237.887 10.0603 237.352C10.0603 236.817 10.494 236.383 11.0291 236.383C11.5642 236.383 11.9979 236.817 11.9979 237.352Z" fill="#FAFAFA"/>
<path d="M11.0299 242.464C11.5649 242.464 11.9987 242.03 11.9987 241.495C11.9987 240.96 11.5649 240.526 11.0299 240.526C10.4948 240.526 10.061 240.96 10.061 241.495C10.061 242.03 10.4948 242.464 11.0299 242.464Z" fill="#FAFAFA"/>
<path d="M18.8644 236.383H15.8694V245.391H18.8644V236.383Z" fill="#F5F5F5"/>
<path d="M23.1901 236.383H20.1951V245.391H23.1901V236.383Z" fill="#F5F5F5"/>
<path d="M27.5158 236.383H24.5208V245.391H27.5158V236.383Z" fill="#F5F5F5"/>
<path d="M31.8412 236.383H28.8462V245.391H31.8412V236.383Z" fill="#F5F5F5"/>
<path d="M36.1664 236.383H33.1721V245.391H36.1664V236.383Z" fill="#F5F5F5"/>
<path d="M40.4921 236.383H37.4978V245.391H40.4921V236.383Z" fill="#F5F5F5"/>
<path d="M44.8175 236.383H41.8232V245.391H44.8175V236.383Z" fill="#F5F5F5"/>
<path d="M49.1432 236.383H46.1489V245.391H49.1432V236.383Z" fill="#F5F5F5"/>
<path d="M53.4696 236.383H50.4746V245.391H53.4696V236.383Z" fill="#F5F5F5"/>
<path d="M57.7953 236.383H54.8003V245.391H57.7953V236.383Z" fill="#F5F5F5"/>
<path d="M58.2645 257.5H3.84155V272.822H58.2645V257.5Z" fill="#E0E0E0"/>
<path d="M8.40811 259.426H5.36011V271.152H8.40811V259.426Z" fill="#F5F5F5"/>
<path d="M11.9979 261.892C11.9979 262.427 11.5642 262.861 11.0291 262.861C10.494 262.861 10.0603 262.427 10.0603 261.892C10.0603 261.357 10.494 260.923 11.0291 260.923C11.5642 260.924 11.9979 261.358 11.9979 261.892Z" fill="#FAFAFA"/>
<path d="M11.0299 267.005C11.5649 267.005 11.9987 266.571 11.9987 266.036C11.9987 265.501 11.5649 265.067 11.0299 265.067C10.4948 265.067 10.061 265.501 10.061 266.036C10.061 266.571 10.4948 267.005 11.0299 267.005Z" fill="#FAFAFA"/>
<path d="M18.8644 260.924H15.8694V269.932H18.8644V260.924Z" fill="#F5F5F5"/>
<path d="M23.1901 260.924H20.1951V269.932H23.1901V260.924Z" fill="#F5F5F5"/>
<path d="M27.5158 260.924H24.5208V269.932H27.5158V260.924Z" fill="#F5F5F5"/>
<path d="M31.8412 260.924H28.8462V269.932H31.8412V260.924Z" fill="#F5F5F5"/>
<path d="M36.1664 260.924H33.1721V269.932H36.1664V260.924Z" fill="#F5F5F5"/>
<path d="M40.4921 260.924H37.4978V269.932H40.4921V260.924Z" fill="#F5F5F5"/>
<path d="M44.8175 260.924H41.8232V269.932H44.8175V260.924Z" fill="#F5F5F5"/>
<path d="M49.1432 260.924H46.1489V269.932H49.1432V260.924Z" fill="#F5F5F5"/>
<path d="M53.4696 260.924H50.4746V269.932H53.4696V260.924Z" fill="#F5F5F5"/>
<path d="M57.7953 260.924H54.8003V269.932H57.7953V260.924Z" fill="#F5F5F5"/>
<path d="M58.2645 282.041H3.84155V297.362H58.2645V282.041Z" fill="#E0E0E0"/>
<path d="M8.40811 283.967H5.36011V295.693H8.40811V283.967Z" fill="#F5F5F5"/>
<path d="M11.0299 287.402C11.5649 287.402 11.9987 286.969 11.9987 286.434C11.9987 285.899 11.5649 285.465 11.0299 285.465C10.4948 285.465 10.061 285.899 10.061 286.434C10.061 286.969 10.4948 287.402 11.0299 287.402Z" fill="#FAFAFA"/>
<path d="M11.0299 291.546C11.5649 291.546 11.9987 291.112 11.9987 290.577C11.9987 290.042 11.5649 289.608 11.0299 289.608C10.4948 289.608 10.061 290.042 10.061 290.577C10.061 291.112 10.4948 291.546 11.0299 291.546Z" fill="#FAFAFA"/>
<path d="M18.8644 285.465H15.8694V294.473H18.8644V285.465Z" fill="#F5F5F5"/>
<path d="M23.1901 285.465H20.1951V294.473H23.1901V285.465Z" fill="#F5F5F5"/>
<path d="M27.5158 285.465H24.5208V294.473H27.5158V285.465Z" fill="#F5F5F5"/>
<path d="M31.8412 285.465H28.8462V294.473H31.8412V285.465Z" fill="#F5F5F5"/>
<path d="M36.1664 285.465H33.1721V294.473H36.1664V285.465Z" fill="#F5F5F5"/>
<path d="M40.4921 285.465H37.4978V294.473H40.4921V285.465Z" fill="#F5F5F5"/>
<path d="M44.8175 285.465H41.8232V294.473H44.8175V285.465Z" fill="#F5F5F5"/>
<path d="M49.1432 285.465H46.1489V294.473H49.1432V285.465Z" fill="#F5F5F5"/>
<path d="M53.4696 285.465H50.4746V294.473H53.4696V285.465Z" fill="#F5F5F5"/>
<path d="M57.7953 285.465H54.8003V294.473H57.7953V285.465Z" fill="#F5F5F5"/>
<path d="M37.4977 134.794C37.4848 134.795 37.4621 134.632 37.4379 134.321C37.4144 134.01 37.3955 133.55 37.3796 132.959C37.363 132.368 37.3509 131.646 37.31 130.811C37.2593 129.979 37.2033 129.019 36.9346 128.018C36.647 127.022 36.1921 125.952 35.4813 124.96C34.7782 123.967 33.7761 123.08 32.5052 122.569C31.2405 122.043 29.7865 121.847 28.281 121.713C26.7665 121.582 25.1997 121.446 23.5943 121.307C17.1706 120.75 11.3463 120.391 7.12432 120.31C5.01334 120.262 3.30503 120.274 2.12428 120.278C1.56796 120.282 1.11686 120.286 0.764143 120.289C0.45306 120.287 0.288821 120.281 0.288821 120.267C0.288064 120.253 0.450791 120.234 0.761117 120.209C1.11383 120.188 1.56419 120.16 2.1205 120.124C3.30201 120.073 5.01334 120.019 7.12886 120.031C11.3599 120.04 17.2009 120.356 23.6284 120.913C25.2345 121.055 26.802 121.193 28.3173 121.327C29.8311 121.469 31.323 121.674 32.6453 122.233C33.9759 122.778 35.0325 123.731 35.7478 124.77C36.4751 125.81 36.924 126.911 37.204 127.944C37.4659 128.992 37.4992 129.96 37.5302 130.8C37.5507 131.642 37.5393 132.366 37.5325 132.956C37.5265 133.513 37.5212 133.964 37.5166 134.316C37.5159 134.629 37.5121 134.793 37.4977 134.794Z" fill="#E0E0E0"/>
<path d="M20.9883 134.794C20.9747 134.794 20.9626 134.641 20.9512 134.348C20.9467 134.012 20.9406 133.588 20.9331 133.067C20.9278 132.511 20.927 131.832 20.8657 131.051C20.7915 130.278 20.6689 129.374 20.1958 128.533C19.7228 127.698 18.7956 127.075 17.7435 126.651C16.6831 126.237 15.4304 126.072 14.1687 126.289C13.5412 126.398 12.907 126.6 12.3249 126.916C11.7497 127.236 11.2092 127.681 10.8959 128.268C10.5674 128.85 10.5583 129.572 10.9012 130.169C11.2342 130.761 11.8382 131.229 12.5172 131.384C13.1976 131.55 13.9136 131.313 14.4064 130.837C14.9044 130.366 15.2079 129.699 15.2564 129.034C15.3215 128.362 15.0747 127.729 14.691 127.189C14.3133 126.651 13.8145 126.212 13.2597 125.923C12.7109 125.615 12.088 125.565 11.4674 125.461C10.8535 125.37 10.2563 125.289 9.67806 125.224C8.52077 125.093 7.43765 125.018 6.44763 124.977C4.46684 124.897 2.85768 124.926 1.7458 124.924C1.22506 124.921 0.801198 124.919 0.465137 124.918C0.17222 124.912 0.0185792 124.902 0.0178223 124.889C0.0178223 124.875 0.170713 124.858 0.462874 124.838C0.798178 124.82 1.22128 124.798 1.74203 124.77C2.85315 124.725 4.46229 124.653 6.45671 124.697C7.45278 124.721 8.54498 124.781 9.71287 124.899C10.2964 124.957 10.8989 125.032 11.5181 125.117C11.8291 125.167 12.1357 125.205 12.4627 125.265C12.7942 125.329 13.1189 125.444 13.4254 125.6C14.0393 125.913 14.5827 126.387 14.999 126.972C15.4161 127.542 15.7166 128.294 15.6416 129.064C15.5864 129.824 15.2511 130.574 14.6758 131.122C14.1135 131.675 13.2377 131.969 12.4301 131.768C11.6301 131.582 10.9489 131.053 10.5576 130.359C10.1503 129.666 10.167 128.75 10.5545 128.087C10.9231 127.405 11.5226 126.927 12.1432 126.586C12.7737 126.248 13.4413 126.042 14.1074 125.93C15.4418 125.711 16.755 125.898 17.8631 126.347C18.9553 126.802 19.9317 127.473 20.4373 128.395C20.9293 129.311 21.0284 130.247 21.0852 131.035C21.1268 131.83 21.1041 132.512 21.086 133.069C21.0632 133.589 21.0451 134.012 21.0307 134.348C21.0163 134.641 21.0019 134.794 20.9883 134.794Z" fill="#E0E0E0"/>
<path d="M41.9407 134.794C41.9271 134.795 41.8877 134.621 41.8256 134.288C41.7651 133.954 41.6705 133.463 41.535 132.834C41.2587 131.58 40.8235 129.758 39.9258 127.647C39.0365 125.552 37.6211 123.119 35.1922 121.301C34.0092 120.377 32.4833 119.871 30.8605 119.653C29.2377 119.418 27.5181 119.429 25.7598 119.38C18.7275 119.247 12.3522 119.272 7.74043 119.088C5.43494 119.007 3.57071 118.896 2.28324 118.802C1.67243 118.749 1.18121 118.708 0.802759 118.675C0.464428 118.641 0.287314 118.617 0.288828 118.603C0.289585 118.59 0.468204 118.587 0.808049 118.596C1.18725 118.609 1.68 118.627 2.29157 118.649C3.5798 118.696 5.44326 118.764 7.74725 118.81C12.3552 118.922 18.7245 118.853 25.7674 118.985C27.5234 119.035 29.2506 119.026 30.915 119.271C32.5688 119.496 34.1818 120.037 35.4102 121.011C36.6273 121.963 37.6476 123.041 38.4075 124.185C39.1765 125.32 39.7419 126.468 40.1817 127.541C41.0566 129.692 41.4525 131.536 41.6841 132.805C41.7976 133.441 41.868 133.938 41.9028 134.276C41.9407 134.614 41.9536 134.792 41.9407 134.794Z" fill="#E0E0E0"/>
<path d="M57.5161 105.785H4.59033V113.467H57.5161V105.785Z" fill="#E0E0E0"/>
<path d="M45.0447 109.625H16.2297V113.467H45.0447V109.625Z" fill="#F5F5F5"/>
<path d="M126.457 74.5511C126.348 74.5511 126.26 66.1995 126.26 55.8997C126.26 45.5961 126.349 37.2461 126.457 37.2461C126.565 37.2461 126.654 45.5961 126.654 55.8997C126.654 66.1995 126.566 74.5511 126.457 74.5511Z" fill="#263238"/>
<path d="M318.031 201.039H232.725V294.634H318.031V201.039Z" fill="#263238"/>
<path d="M313.525 219.759H220.269V242.896H313.525V219.759Z" fill="#455A64"/>
<path d="M242.771 224.525H224.409V227.35H242.771V224.525Z" fill="#263238"/>
<path d="M242.771 229.386H224.409V232.21H242.771V229.386Z" fill="#263238"/>
<path d="M242.771 234.412H224.409V237.237H242.771V234.412Z" fill="#263238"/>
<path d="M250.032 226.232C250.032 226.813 249.56 227.285 248.978 227.285C248.396 227.285 247.925 226.814 247.925 226.232C247.925 225.65 248.396 225.178 248.978 225.178C249.56 225.178 250.032 225.65 250.032 226.232Z" fill="#263238"/>
<path d="M254.681 226.232C254.681 226.813 254.209 227.285 253.627 227.285C253.045 227.285 252.574 226.814 252.574 226.232C252.574 225.65 253.045 225.178 253.627 225.178C254.209 225.178 254.681 225.65 254.681 226.232Z" fill="#263238"/>
<path d="M259.329 226.232C259.329 226.813 258.858 227.285 258.276 227.285C257.693 227.285 257.222 226.814 257.222 226.232C257.222 225.65 257.693 225.178 258.276 225.178C258.858 225.178 259.329 225.65 259.329 226.232Z" fill="#263238"/>
<path d="M263.977 226.232C263.977 226.813 263.505 227.285 262.923 227.285C262.341 227.285 261.87 226.814 261.87 226.232C261.87 225.65 262.341 225.178 262.923 225.178C263.505 225.178 263.977 225.65 263.977 226.232Z" fill="#263238"/>
<path d="M299.997 226.232C299.997 226.813 299.526 227.285 298.944 227.285C298.361 227.285 297.89 226.814 297.89 226.232C297.89 225.65 298.361 225.178 298.944 225.178C299.526 225.178 299.997 225.65 299.997 226.232Z" fill="#263238"/>
<path d="M304.737 226.232C304.737 226.813 304.265 227.285 303.683 227.285C303.101 227.285 302.629 226.814 302.629 226.232C302.629 225.65 303.101 225.178 303.683 225.178C304.265 225.178 304.737 225.65 304.737 226.232Z" fill="#263238"/>
<path d="M268.625 226.232C268.625 226.813 268.153 227.285 267.571 227.285C266.989 227.285 266.518 226.814 266.518 226.232C266.518 225.65 266.989 225.178 267.571 225.178C268.153 225.178 268.625 225.65 268.625 226.232Z" fill="#263238"/>
<path d="M291.453 226.232C291.453 226.813 290.982 227.285 290.4 227.285C289.817 227.285 289.346 226.814 289.346 226.232C289.346 225.65 289.817 225.178 290.4 225.178C290.982 225.178 291.453 225.65 291.453 226.232Z" fill="#263238"/>
<path d="M273.273 226.232C273.273 226.813 272.802 227.285 272.22 227.285C271.638 227.285 271.166 226.814 271.166 226.232C271.166 225.65 271.638 225.178 272.22 225.178C272.802 225.178 273.273 225.65 273.273 226.232Z" fill="#F5F5F5"/>
<path d="M277.922 226.232C277.922 226.813 277.451 227.285 276.869 227.285C276.287 227.285 275.815 226.814 275.815 226.232C275.815 225.65 276.287 225.178 276.869 225.178C277.451 225.178 277.922 225.65 277.922 226.232Z" fill="#F5F5F5"/>
<path d="M287.352 226.232C287.352 226.813 286.881 227.285 286.299 227.285C285.717 227.285 285.245 226.814 285.245 226.232C285.245 225.65 285.717 225.178 286.299 225.178C286.881 225.178 287.352 225.65 287.352 226.232Z" fill="#F5F5F5"/>
<path d="M308.594 226.232C308.594 226.813 308.122 227.285 307.54 227.285C306.958 227.285 306.487 226.814 306.487 226.232C306.487 225.65 306.958 225.178 307.54 225.178C308.122 225.178 308.594 225.65 308.594 226.232Z" fill="#F5F5F5"/>
<path d="M282.57 226.232C282.57 226.813 282.099 227.285 281.517 227.285C280.934 227.285 280.463 226.814 280.463 226.232C280.463 225.65 280.934 225.178 281.517 225.178C282.099 225.178 282.57 225.65 282.57 226.232Z" fill="#13C4A3"/>
<path d="M295.878 226.232C295.878 226.813 295.407 227.285 294.825 227.285C294.243 227.285 293.771 226.814 293.771 226.232C293.771 225.65 294.243 225.178 294.825 225.178C295.407 225.178 295.878 225.65 295.878 226.232Z" fill="#13C4A3"/>
<path d="M306.487 231.309C306.487 230.727 306.958 230.255 307.54 230.255C308.121 230.255 308.594 230.727 308.594 231.309C308.594 231.89 308.122 232.363 307.54 232.363C306.958 232.363 306.487 231.89 306.487 231.309Z" fill="#263238"/>
<path d="M301.838 231.309C301.838 230.727 302.31 230.255 302.892 230.255C303.474 230.255 303.946 230.727 303.946 231.309C303.946 231.89 303.474 232.363 302.892 232.363C302.31 232.363 301.838 231.89 301.838 231.309Z" fill="#263238"/>
<path d="M297.19 231.309C297.19 230.727 297.662 230.255 298.244 230.255C298.825 230.255 299.297 230.727 299.297 231.309C299.297 231.89 298.826 232.363 298.244 232.363C297.662 232.363 297.19 231.89 297.19 231.309Z" fill="#263238"/>
<path d="M292.542 231.309C292.542 230.727 293.014 230.255 293.596 230.255C294.177 230.255 294.649 230.727 294.649 231.309C294.649 231.89 294.178 232.363 293.596 232.363C293.014 232.363 292.542 231.89 292.542 231.309Z" fill="#263238"/>
<path d="M256.522 231.309C256.522 230.727 256.994 230.255 257.576 230.255C258.157 230.255 258.63 230.727 258.63 231.309C258.63 231.89 258.158 232.363 257.576 232.363C256.994 232.363 256.522 231.89 256.522 231.309Z" fill="#263238"/>
<path d="M251.782 231.309C251.782 230.727 252.254 230.255 252.836 230.255C253.418 230.255 253.889 230.727 253.889 231.309C253.889 231.89 253.418 232.363 252.836 232.363C252.254 232.363 251.782 231.89 251.782 231.309Z" fill="#263238"/>
<path d="M287.894 231.309C287.894 230.727 288.366 230.255 288.948 230.255C289.529 230.255 290.001 230.727 290.001 231.309C290.001 231.89 289.53 232.363 288.948 232.363C288.366 232.363 287.894 231.89 287.894 231.309Z" fill="#263238"/>
<path d="M265.066 231.309C265.066 230.727 265.538 230.255 266.12 230.255C266.702 230.255 267.173 230.727 267.173 231.309C267.173 231.89 266.702 232.363 266.12 232.363C265.538 232.363 265.066 231.89 265.066 231.309Z" fill="#263238"/>
<path d="M283.245 231.309C283.245 230.727 283.717 230.255 284.299 230.255C284.88 230.255 285.353 230.727 285.353 231.309C285.353 231.89 284.881 232.363 284.299 232.363C283.717 232.363 283.245 231.89 283.245 231.309Z" fill="#F5F5F5"/>
<path d="M278.597 231.309C278.597 230.727 279.069 230.255 279.651 230.255C280.232 230.255 280.704 230.727 280.704 231.309C280.704 231.89 280.233 232.363 279.651 232.363C279.069 232.363 278.597 231.89 278.597 231.309Z" fill="#F5F5F5"/>
<path d="M269.166 231.309C269.166 230.727 269.638 230.255 270.22 230.255C270.802 230.255 271.273 230.727 271.273 231.309C271.273 231.89 270.802 232.363 270.22 232.363C269.639 232.363 269.166 231.89 269.166 231.309Z" fill="#F5F5F5"/>
<path d="M247.926 231.309C247.926 230.727 248.397 230.255 248.979 230.255C249.561 230.255 250.033 230.727 250.033 231.309C250.033 231.89 249.561 232.363 248.979 232.363C248.397 232.363 247.926 231.89 247.926 231.309Z" fill="#F5F5F5"/>
<path d="M273.949 231.309C273.949 230.727 274.42 230.255 275.003 230.255C275.584 230.255 276.056 230.727 276.056 231.309C276.056 231.89 275.585 232.363 275.003 232.363C274.42 232.363 273.949 231.89 273.949 231.309Z" fill="#13C4A3"/>
<path d="M260.641 231.309C260.641 230.727 261.112 230.255 261.694 230.255C262.276 230.255 262.748 230.727 262.748 231.309C262.748 231.89 262.276 232.363 261.694 232.363C261.112 232.363 260.641 231.89 260.641 231.309Z" fill="#13C4A3"/>
<path d="M248.979 236.878C249.561 236.878 250.033 236.406 250.033 235.825C250.033 235.243 249.561 234.771 248.979 234.771C248.397 234.771 247.926 235.243 247.926 235.825C247.926 236.406 248.397 236.878 248.979 236.878Z" fill="#263238"/>
<path d="M253.627 236.878C254.209 236.878 254.681 236.406 254.681 235.825C254.681 235.243 254.209 234.771 253.627 234.771C253.045 234.771 252.574 235.243 252.574 235.825C252.574 236.406 253.045 236.878 253.627 236.878Z" fill="#263238"/>
<path d="M258.276 236.878C258.857 236.878 259.329 236.406 259.329 235.825C259.329 235.243 258.857 234.771 258.276 234.771C257.694 234.771 257.222 235.243 257.222 235.825C257.222 236.406 257.694 236.878 258.276 236.878Z" fill="#263238"/>
<path d="M262.923 236.878C263.505 236.878 263.977 236.406 263.977 235.825C263.977 235.243 263.505 234.771 262.923 234.771C262.341 234.771 261.87 235.243 261.87 235.825C261.87 236.406 262.341 236.878 262.923 236.878Z" fill="#263238"/>
<path d="M298.943 236.878C299.525 236.878 299.997 236.406 299.997 235.825C299.997 235.243 299.525 234.771 298.943 234.771C298.361 234.771 297.889 235.243 297.889 235.825C297.889 236.406 298.361 236.878 298.943 236.878Z" fill="#263238"/>
<path d="M303.684 236.878C304.266 236.878 304.737 236.406 304.737 235.825C304.737 235.243 304.266 234.771 303.684 234.771C303.102 234.771 302.63 235.243 302.63 235.825C302.63 236.406 303.102 236.878 303.684 236.878Z" fill="#263238"/>
<path d="M267.572 236.878C268.154 236.878 268.626 236.406 268.626 235.825C268.626 235.243 268.154 234.771 267.572 234.771C266.99 234.771 266.519 235.243 266.519 235.825C266.519 236.406 266.99 236.878 267.572 236.878Z" fill="#263238"/>
<path d="M291.453 235.825C291.453 236.407 290.982 236.878 290.4 236.878C289.817 236.878 289.346 236.407 289.346 235.825C289.346 235.243 289.817 234.771 290.4 234.771C290.982 234.771 291.453 235.243 291.453 235.825Z" fill="#263238"/>
<path d="M272.22 236.878C272.802 236.878 273.274 236.406 273.274 235.825C273.274 235.243 272.802 234.771 272.22 234.771C271.638 234.771 271.167 235.243 271.167 235.825C271.167 236.406 271.638 236.878 272.22 236.878Z" fill="#F5F5F5"/>
<path d="M277.922 235.825C277.922 236.407 277.451 236.878 276.869 236.878C276.287 236.878 275.815 236.407 275.815 235.825C275.815 235.243 276.287 234.771 276.869 234.771C277.451 234.771 277.922 235.243 277.922 235.825Z" fill="#F5F5F5"/>
<path d="M286.299 236.878C286.881 236.878 287.353 236.406 287.353 235.825C287.353 235.243 286.881 234.771 286.299 234.771C285.718 234.771 285.246 235.243 285.246 235.825C285.246 236.406 285.718 236.878 286.299 236.878Z" fill="#F5F5F5"/>
<path d="M308.594 235.825C308.594 236.407 308.122 236.878 307.54 236.878C306.958 236.878 306.487 236.407 306.487 235.825C306.487 235.243 306.958 234.771 307.54 234.771C308.122 234.771 308.594 235.243 308.594 235.825Z" fill="#F5F5F5"/>
<path d="M281.517 236.878C282.098 236.878 282.57 236.406 282.57 235.825C282.57 235.243 282.098 234.771 281.517 234.771C280.935 234.771 280.463 235.243 280.463 235.825C280.463 236.406 280.935 236.878 281.517 236.878Z" fill="#13C4A3"/>
<path d="M294.826 236.878C295.407 236.878 295.879 236.406 295.879 235.825C295.879 235.243 295.407 234.771 294.826 234.771C294.244 234.771 293.772 235.243 293.772 235.825C293.772 236.406 294.244 236.878 294.826 236.878Z" fill="#13C4A3"/>
<path d="M313.525 248.311H220.269V271.448H313.525V248.311Z" fill="#455A64"/>
<path d="M249.801 254.553C249.801 255.135 249.329 255.607 248.747 255.607C248.165 255.607 247.694 255.135 247.694 254.553C247.694 253.971 248.165 253.5 248.747 253.5C249.329 253.5 249.801 253.972 249.801 254.553Z" fill="#263238"/>
<path d="M254.449 254.553C254.449 255.135 253.978 255.607 253.396 255.607C252.814 255.607 252.342 255.135 252.342 254.553C252.342 253.971 252.814 253.5 253.396 253.5C253.978 253.5 254.449 253.972 254.449 254.553Z" fill="#263238"/>
<path d="M259.098 254.553C259.098 255.135 258.627 255.607 258.045 255.607C257.463 255.607 256.991 255.135 256.991 254.553C256.991 253.971 257.463 253.5 258.045 253.5C258.627 253.5 259.098 253.972 259.098 254.553Z" fill="#263238"/>
<path d="M263.746 254.553C263.746 255.135 263.274 255.607 262.692 255.607C262.11 255.607 261.639 255.135 261.639 254.553C261.639 253.971 262.11 253.5 262.692 253.5C263.274 253.5 263.746 253.972 263.746 254.553Z" fill="#263238"/>
<path d="M299.766 254.553C299.766 255.135 299.295 255.607 298.713 255.607C298.131 255.607 297.659 255.135 297.659 254.553C297.659 253.971 298.131 253.5 298.713 253.5C299.295 253.5 299.766 253.972 299.766 254.553Z" fill="#263238"/>
<path d="M304.505 254.553C304.505 255.135 304.034 255.607 303.452 255.607C302.87 255.607 302.398 255.135 302.398 254.553C302.398 253.971 302.87 253.5 303.452 253.5C304.034 253.5 304.505 253.972 304.505 254.553Z" fill="#263238"/>
<path d="M268.394 254.553C268.394 255.135 267.923 255.607 267.34 255.607C266.758 255.607 266.287 255.135 266.287 254.553C266.287 253.971 266.758 253.5 267.34 253.5C267.923 253.5 268.394 253.972 268.394 254.553Z" fill="#263238"/>
<path d="M291.221 254.553C291.221 255.135 290.75 255.607 290.168 255.607C289.586 255.607 289.114 255.135 289.114 254.553C289.114 253.971 289.586 253.5 290.168 253.5C290.75 253.5 291.221 253.972 291.221 254.553Z" fill="#263238"/>
<path d="M273.042 254.553C273.042 255.135 272.571 255.607 271.989 255.607C271.407 255.607 270.935 255.135 270.935 254.553C270.935 253.971 271.407 253.5 271.989 253.5C272.571 253.5 273.042 253.972 273.042 254.553Z" fill="#F5F5F5"/>
<path d="M277.691 254.553C277.691 255.135 277.22 255.607 276.638 255.607C276.056 255.607 275.584 255.135 275.584 254.553C275.584 253.971 276.056 253.5 276.638 253.5C277.219 253.5 277.691 253.972 277.691 254.553Z" fill="#F5F5F5"/>
<path d="M287.121 254.553C287.121 255.135 286.65 255.607 286.068 255.607C285.486 255.607 285.014 255.135 285.014 254.553C285.014 253.971 285.486 253.5 286.068 253.5C286.65 253.5 287.121 253.972 287.121 254.553Z" fill="#F5F5F5"/>
<path d="M308.363 254.553C308.363 255.135 307.891 255.607 307.309 255.607C306.727 255.607 306.256 255.135 306.256 254.553C306.256 253.971 306.727 253.5 307.309 253.5C307.891 253.5 308.363 253.972 308.363 254.553Z" fill="#F5F5F5"/>
<path d="M282.339 254.553C282.339 255.135 281.868 255.607 281.286 255.607C280.704 255.607 280.232 255.135 280.232 254.553C280.232 253.971 280.704 253.5 281.286 253.5C281.868 253.5 282.339 253.972 282.339 254.553Z" fill="#13C4A3"/>
<path d="M295.647 254.553C295.647 255.135 295.176 255.607 294.594 255.607C294.012 255.607 293.54 255.135 293.54 254.553C293.54 253.971 294.012 253.5 294.594 253.5C295.176 253.5 295.647 253.972 295.647 254.553Z" fill="#13C4A3"/>
<path d="M306.256 259.631C306.256 259.049 306.727 258.578 307.309 258.578C307.891 258.578 308.363 259.049 308.363 259.631C308.363 260.213 307.891 260.685 307.309 260.685C306.727 260.685 306.256 260.213 306.256 259.631Z" fill="#263238"/>
<path d="M301.607 259.631C301.607 259.049 302.079 258.578 302.661 258.578C303.243 258.578 303.715 259.049 303.715 259.631C303.715 260.213 303.243 260.685 302.661 260.685C302.079 260.684 301.607 260.213 301.607 259.631Z" fill="#263238"/>
<path d="M296.959 259.631C296.959 259.049 297.431 258.578 298.013 258.578C298.594 258.578 299.066 259.049 299.066 259.631C299.066 260.213 298.595 260.685 298.013 260.685C297.431 260.684 296.959 260.213 296.959 259.631Z" fill="#263238"/>
<path d="M292.311 259.631C292.311 259.049 292.783 258.578 293.365 258.578C293.946 258.578 294.418 259.049 294.418 259.631C294.418 260.213 293.947 260.685 293.365 260.685C292.783 260.684 292.311 260.213 292.311 259.631Z" fill="#263238"/>
<path d="M256.291 259.631C256.291 259.049 256.763 258.578 257.345 258.578C257.926 258.578 258.398 259.049 258.398 259.631C258.398 260.213 257.927 260.685 257.345 260.685C256.763 260.684 256.291 260.213 256.291 259.631Z" fill="#263238"/>
<path d="M251.551 259.631C251.551 259.049 252.023 258.578 252.605 258.578C253.187 258.578 253.658 259.049 253.658 259.631C253.658 260.213 253.187 260.685 252.605 260.685C252.023 260.684 251.551 260.213 251.551 259.631Z" fill="#263238"/>
<path d="M287.663 259.631C287.663 259.049 288.134 258.578 288.716 258.578C289.298 258.578 289.77 259.049 289.77 259.631C289.77 260.213 289.298 260.685 288.716 260.685C288.134 260.685 287.663 260.213 287.663 259.631Z" fill="#263238"/>
<path d="M264.835 259.631C264.835 259.049 265.307 258.578 265.889 258.578C266.47 258.578 266.942 259.049 266.942 259.631C266.942 260.213 266.471 260.685 265.889 260.685C265.307 260.684 264.835 260.213 264.835 259.631Z" fill="#263238"/>
<path d="M283.014 259.631C283.014 259.049 283.486 258.578 284.068 258.578C284.649 258.578 285.122 259.049 285.122 259.631C285.122 260.213 284.65 260.685 284.068 260.685C283.486 260.684 283.014 260.213 283.014 259.631Z" fill="#F5F5F5"/>
<path d="M278.366 259.631C278.366 259.049 278.838 258.578 279.42 258.578C280.001 258.578 280.473 259.049 280.473 259.631C280.473 260.213 280.002 260.685 279.42 260.685C278.838 260.684 278.366 260.213 278.366 259.631Z" fill="#F5F5F5"/>
<path d="M268.935 259.631C268.935 259.049 269.407 258.578 269.989 258.578C270.571 258.578 271.042 259.049 271.042 259.631C271.042 260.213 270.571 260.685 269.989 260.685C269.407 260.684 268.935 260.213 268.935 259.631Z" fill="#F5F5F5"/>
<path d="M247.695 259.631C247.695 259.049 248.166 258.578 248.748 258.578C249.33 258.578 249.802 259.049 249.802 259.631C249.802 260.213 249.33 260.685 248.748 260.685C248.166 260.684 247.695 260.213 247.695 259.631Z" fill="#F5F5F5"/>
<path d="M273.718 259.631C273.718 259.049 274.19 258.578 274.772 258.578C275.353 258.578 275.825 259.049 275.825 259.631C275.825 260.213 275.354 260.685 274.772 260.685C274.19 260.684 273.718 260.213 273.718 259.631Z" fill="#13C4A3"/>
<path d="M260.41 259.631C260.41 259.049 260.881 258.578 261.463 258.578C262.045 258.578 262.517 259.049 262.517 259.631C262.517 260.213 262.045 260.685 261.463 260.685C260.881 260.684 260.41 260.213 260.41 259.631Z" fill="#13C4A3"/>
<path d="M248.748 265.199C249.33 265.199 249.802 264.728 249.802 264.146C249.802 263.564 249.33 263.092 248.748 263.092C248.166 263.092 247.695 263.564 247.695 264.146C247.695 264.728 248.166 265.199 248.748 265.199Z" fill="#263238"/>
<path d="M253.396 265.199C253.978 265.199 254.45 264.728 254.45 264.146C254.45 263.564 253.978 263.092 253.396 263.092C252.814 263.092 252.343 263.564 252.343 264.146C252.343 264.728 252.814 265.199 253.396 265.199Z" fill="#263238"/>
<path d="M258.045 265.199C258.626 265.199 259.098 264.728 259.098 264.146C259.098 263.564 258.626 263.092 258.045 263.092C257.463 263.092 256.991 263.564 256.991 264.146C256.991 264.728 257.463 265.199 258.045 265.199Z" fill="#263238"/>
<path d="M262.692 265.199C263.274 265.199 263.746 264.728 263.746 264.146C263.746 263.564 263.274 263.092 262.692 263.092C262.11 263.092 261.639 263.564 261.639 264.146C261.639 264.728 262.11 265.199 262.692 265.199Z" fill="#263238"/>
<path d="M298.713 265.199C299.294 265.199 299.766 264.728 299.766 264.146C299.766 263.564 299.294 263.092 298.713 263.092C298.131 263.092 297.659 263.564 297.659 264.146C297.659 264.728 298.131 265.199 298.713 265.199Z" fill="#263238"/>
<path d="M303.453 265.199C304.034 265.199 304.506 264.728 304.506 264.146C304.506 263.564 304.034 263.092 303.453 263.092C302.871 263.092 302.399 263.564 302.399 264.146C302.399 264.728 302.871 265.199 303.453 265.199Z" fill="#263238"/>
<path d="M267.34 265.199C267.922 265.199 268.394 264.728 268.394 264.146C268.394 263.564 267.922 263.092 267.34 263.092C266.759 263.092 266.287 263.564 266.287 264.146C266.287 264.728 266.759 265.199 267.34 265.199Z" fill="#263238"/>
<path d="M290.169 265.199C290.75 265.199 291.222 264.728 291.222 264.146C291.222 263.564 290.75 263.092 290.169 263.092C289.587 263.092 289.115 263.564 289.115 264.146C289.115 264.728 289.587 265.199 290.169 265.199Z" fill="#263238"/>
<path d="M271.989 265.199C272.571 265.199 273.043 264.728 273.043 264.146C273.043 263.564 272.571 263.092 271.989 263.092C271.407 263.092 270.936 263.564 270.936 264.146C270.936 264.728 271.407 265.199 271.989 265.199Z" fill="#F5F5F5"/>
<path d="M276.638 265.199C277.219 265.199 277.691 264.728 277.691 264.146C277.691 263.564 277.219 263.092 276.638 263.092C276.056 263.092 275.584 263.564 275.584 264.146C275.584 264.728 276.056 265.199 276.638 265.199Z" fill="#F5F5F5"/>
<path d="M286.068 265.199C286.65 265.199 287.122 264.728 287.122 264.146C287.122 263.564 286.65 263.092 286.068 263.092C285.487 263.092 285.015 263.564 285.015 264.146C285.015 264.728 285.487 265.199 286.068 265.199Z" fill="#F5F5F5"/>
<path d="M308.363 264.146C308.363 264.728 307.891 265.199 307.309 265.199C306.727 265.199 306.256 264.728 306.256 264.146C306.256 263.564 306.727 263.092 307.309 263.092C307.891 263.092 308.363 263.565 308.363 264.146Z" fill="#F5F5F5"/>
<path d="M281.286 265.199C281.867 265.199 282.339 264.728 282.339 264.146C282.339 263.564 281.867 263.092 281.286 263.092C280.704 263.092 280.232 263.564 280.232 264.146C280.232 264.728 280.704 265.199 281.286 265.199Z" fill="#13C4A3"/>
<path d="M294.594 265.199C295.176 265.199 295.647 264.728 295.647 264.146C295.647 263.564 295.176 263.092 294.594 263.092C294.012 263.092 293.54 263.564 293.54 264.146C293.54 264.728 294.012 265.199 294.594 265.199Z" fill="#13C4A3"/>
<path d="M242.771 253.076H224.409V255.901H242.771V253.076Z" fill="#263238"/>
<path d="M242.771 257.937H224.409V260.762H242.771V257.937Z" fill="#263238"/>
<path d="M242.771 262.963H224.409V265.788H242.771V262.963Z" fill="#263238"/>
<path d="M313.525 276.862H220.269V299.999H313.525V276.862Z" fill="#455A64"/>
<path d="M242.771 281.629H224.409V284.454H242.771V281.629Z" fill="#263238"/>
<path d="M242.771 286.489H224.409V289.314H242.771V286.489Z" fill="#263238"/>
<path d="M242.771 291.515H224.409V294.34H242.771V291.515Z" fill="#263238"/>
<path d="M249.464 283.105C249.464 283.687 248.992 284.159 248.41 284.159C247.828 284.159 247.356 283.687 247.356 283.105C247.356 282.524 247.828 282.052 248.41 282.052C248.992 282.052 249.464 282.523 249.464 283.105Z" fill="#263238"/>
<path d="M254.112 283.105C254.112 283.687 253.64 284.159 253.058 284.159C252.476 284.159 252.005 283.687 252.005 283.105C252.005 282.524 252.476 282.052 253.058 282.052C253.64 282.052 254.112 282.523 254.112 283.105Z" fill="#263238"/>
<path d="M258.76 283.105C258.76 283.687 258.288 284.159 257.706 284.159C257.124 284.159 256.653 283.687 256.653 283.105C256.653 282.524 257.124 282.052 257.706 282.052C258.288 282.052 258.76 282.523 258.76 283.105Z" fill="#263238"/>
<path d="M263.408 283.105C263.408 283.687 262.937 284.159 262.355 284.159C261.773 284.159 261.301 283.687 261.301 283.105C261.301 282.524 261.773 282.052 262.355 282.052C262.937 282.052 263.408 282.523 263.408 283.105Z" fill="#263238"/>
<path d="M299.429 283.105C299.429 283.687 298.957 284.159 298.375 284.159C297.793 284.159 297.322 283.687 297.322 283.105C297.322 282.524 297.793 282.052 298.375 282.052C298.957 282.052 299.429 282.523 299.429 283.105Z" fill="#263238"/>
<path d="M304.168 283.105C304.168 283.687 303.696 284.159 303.114 284.159C302.532 284.159 302.061 283.687 302.061 283.105C302.061 282.524 302.532 282.052 303.114 282.052C303.696 282.052 304.168 282.523 304.168 283.105Z" fill="#263238"/>
<path d="M268.057 283.105C268.057 283.687 267.585 284.159 267.003 284.159C266.421 284.159 265.949 283.687 265.949 283.105C265.949 282.524 266.421 282.052 267.003 282.052C267.585 282.052 268.057 282.523 268.057 283.105Z" fill="#263238"/>
<path d="M290.884 283.105C290.884 283.687 290.413 284.159 289.83 284.159C289.248 284.159 288.777 283.687 288.777 283.105C288.777 282.524 289.248 282.052 289.83 282.052C290.413 282.052 290.884 282.523 290.884 283.105Z" fill="#263238"/>
<path d="M272.705 283.105C272.705 283.687 272.233 284.159 271.651 284.159C271.069 284.159 270.598 283.687 270.598 283.105C270.598 282.524 271.069 282.052 271.651 282.052C272.233 282.052 272.705 282.523 272.705 283.105Z" fill="#F5F5F5"/>
<path d="M277.353 283.105C277.353 283.687 276.882 284.159 276.299 284.159C275.717 284.159 275.246 283.687 275.246 283.105C275.246 282.524 275.717 282.052 276.299 282.052C276.882 282.052 277.353 282.523 277.353 283.105Z" fill="#F5F5F5"/>
<path d="M286.784 283.105C286.784 283.687 286.312 284.159 285.73 284.159C285.148 284.159 284.677 283.687 284.677 283.105C284.677 282.524 285.148 282.052 285.73 282.052C286.312 282.052 286.784 282.523 286.784 283.105Z" fill="#F5F5F5"/>
<path d="M308.025 283.105C308.025 283.687 307.553 284.159 306.971 284.159C306.389 284.159 305.917 283.687 305.917 283.105C305.917 282.524 306.389 282.052 306.971 282.052C307.553 282.052 308.025 282.523 308.025 283.105Z" fill="#F5F5F5"/>
<path d="M282.001 283.105C282.001 283.687 281.529 284.159 280.947 284.159C280.365 284.159 279.894 283.687 279.894 283.105C279.894 282.524 280.365 282.052 280.947 282.052C281.529 282.052 282.001 282.523 282.001 283.105Z" fill="#13C4A3"/>
<path d="M295.31 283.105C295.31 283.687 294.839 284.159 294.257 284.159C293.675 284.159 293.203 283.687 293.203 283.105C293.203 282.524 293.675 282.052 294.257 282.052C294.839 282.052 295.31 282.523 295.31 283.105Z" fill="#13C4A3"/>
<path d="M305.918 288.183C305.918 287.601 306.39 287.129 306.972 287.129C307.554 287.129 308.025 287.6 308.025 288.183C308.025 288.765 307.554 289.236 306.972 289.236C306.39 289.236 305.918 288.765 305.918 288.183Z" fill="#263238"/>
<path d="M301.27 288.183C301.27 287.601 301.742 287.129 302.324 287.129C302.906 287.129 303.377 287.6 303.377 288.183C303.377 288.765 302.906 289.236 302.324 289.236C301.742 289.236 301.27 288.765 301.27 288.183Z" fill="#263238"/>
<path d="M296.622 288.183C296.622 287.601 297.093 287.129 297.675 287.129C298.257 287.129 298.729 287.6 298.729 288.183C298.729 288.765 298.257 289.236 297.675 289.236C297.093 289.236 296.622 288.765 296.622 288.183Z" fill="#263238"/>
<path d="M291.973 288.183C291.973 287.601 292.444 287.129 293.026 287.129C293.608 287.129 294.08 287.6 294.08 288.183C294.08 288.765 293.609 289.236 293.026 289.236C292.444 289.236 291.973 288.765 291.973 288.183Z" fill="#263238"/>
<path d="M255.953 288.183C255.953 287.601 256.425 287.129 257.007 287.129C257.589 287.129 258.06 287.6 258.06 288.183C258.06 288.765 257.589 289.236 257.007 289.236C256.425 289.236 255.953 288.765 255.953 288.183Z" fill="#263238"/>
<path d="M251.214 288.183C251.214 287.601 251.685 287.129 252.267 287.129C252.849 287.129 253.321 287.6 253.321 288.183C253.321 288.765 252.849 289.236 252.267 289.236C251.685 289.236 251.214 288.765 251.214 288.183Z" fill="#263238"/>
<path d="M287.325 288.183C287.325 287.601 287.797 287.129 288.379 287.129C288.96 287.129 289.432 287.6 289.432 288.183C289.432 288.765 288.961 289.236 288.379 289.236C287.797 289.236 287.325 288.765 287.325 288.183Z" fill="#263238"/>
<path d="M264.498 288.183C264.498 287.601 264.969 287.129 265.551 287.129C266.133 287.129 266.605 287.6 266.605 288.183C266.605 288.765 266.133 289.236 265.551 289.236C264.969 289.236 264.498 288.765 264.498 288.183Z" fill="#263238"/>
<path d="M282.677 288.183C282.677 287.601 283.149 287.129 283.731 287.129C284.312 287.129 284.784 287.6 284.784 288.183C284.784 288.765 284.313 289.236 283.731 289.236C283.149 289.236 282.677 288.765 282.677 288.183Z" fill="#F5F5F5"/>
<path d="M278.029 288.183C278.029 287.601 278.5 287.129 279.082 287.129C279.664 287.129 280.136 287.6 280.136 288.183C280.136 288.765 279.664 289.236 279.082 289.236C278.5 289.236 278.029 288.765 278.029 288.183Z" fill="#F5F5F5"/>
<path d="M268.598 288.183C268.598 287.601 269.069 287.129 269.651 287.129C270.234 287.129 270.705 287.6 270.705 288.183C270.705 288.765 270.234 289.236 269.651 289.236C269.069 289.236 268.598 288.765 268.598 288.183Z" fill="#F5F5F5"/>
<path d="M247.357 288.183C247.357 287.601 247.829 287.129 248.411 287.129C248.993 287.129 249.464 287.6 249.464 288.183C249.464 288.765 248.993 289.236 248.411 289.236C247.829 289.236 247.357 288.765 247.357 288.183Z" fill="#F5F5F5"/>
<path d="M273.381 288.183C273.381 287.601 273.852 287.129 274.434 287.129C275.016 287.129 275.488 287.6 275.488 288.183C275.488 288.765 275.016 289.236 274.434 289.236C273.852 289.236 273.381 288.765 273.381 288.183Z" fill="#13C4A3"/>
<path d="M260.071 288.183C260.071 287.601 260.543 287.129 261.125 287.129C261.706 287.129 262.178 287.6 262.178 288.183C262.178 288.765 261.707 289.236 261.125 289.236C260.543 289.236 260.071 288.765 260.071 288.183Z" fill="#13C4A3"/>
<path d="M249.464 292.698C249.464 293.28 248.992 293.752 248.41 293.752C247.828 293.752 247.356 293.28 247.356 292.698C247.356 292.116 247.828 291.645 248.41 291.645C248.992 291.645 249.464 292.116 249.464 292.698Z" fill="#263238"/>
<path d="M254.112 292.698C254.112 293.28 253.64 293.752 253.058 293.752C252.476 293.752 252.005 293.28 252.005 292.698C252.005 292.116 252.476 291.645 253.058 291.645C253.64 291.645 254.112 292.116 254.112 292.698Z" fill="#263238"/>
<path d="M258.76 292.698C258.76 293.28 258.288 293.752 257.706 293.752C257.124 293.752 256.653 293.28 256.653 292.698C256.653 292.116 257.124 291.645 257.706 291.645C258.288 291.645 258.76 292.116 258.76 292.698Z" fill="#263238"/>
<path d="M263.408 292.698C263.408 293.28 262.937 293.752 262.355 293.752C261.773 293.752 261.301 293.28 261.301 292.698C261.301 292.116 261.773 291.645 262.355 291.645C262.937 291.645 263.408 292.116 263.408 292.698Z" fill="#263238"/>
<path d="M299.429 292.698C299.429 293.28 298.957 293.752 298.375 293.752C297.793 293.752 297.322 293.28 297.322 292.698C297.322 292.116 297.793 291.645 298.375 291.645C298.957 291.645 299.429 292.116 299.429 292.698Z" fill="#263238"/>
<path d="M304.168 292.698C304.168 293.28 303.696 293.752 303.114 293.752C302.532 293.752 302.061 293.28 302.061 292.698C302.061 292.116 302.532 291.645 303.114 291.645C303.696 291.645 304.168 292.116 304.168 292.698Z" fill="#263238"/>
<path d="M268.057 292.698C268.057 293.28 267.585 293.752 267.003 293.752C266.421 293.752 265.949 293.28 265.949 292.698C265.949 292.116 266.421 291.645 267.003 291.645C267.585 291.645 268.057 292.116 268.057 292.698Z" fill="#263238"/>
<path d="M290.884 292.698C290.884 293.28 290.413 293.752 289.83 293.752C289.248 293.752 288.777 293.28 288.777 292.698C288.777 292.116 289.248 291.645 289.83 291.645C290.413 291.645 290.884 292.116 290.884 292.698Z" fill="#263238"/>
<path d="M272.705 292.698C272.705 293.28 272.233 293.752 271.651 293.752C271.069 293.752 270.598 293.28 270.598 292.698C270.598 292.116 271.069 291.645 271.651 291.645C272.233 291.645 272.705 292.116 272.705 292.698Z" fill="#F5F5F5"/>
<path d="M277.353 292.698C277.353 293.28 276.882 293.752 276.299 293.752C275.717 293.752 275.246 293.28 275.246 292.698C275.246 292.116 275.717 291.645 276.299 291.645C276.882 291.645 277.353 292.116 277.353 292.698Z" fill="#F5F5F5"/>
<path d="M286.784 292.698C286.784 293.28 286.312 293.752 285.73 293.752C285.148 293.752 284.677 293.28 284.677 292.698C284.677 292.116 285.148 291.645 285.73 291.645C286.312 291.645 286.784 292.116 286.784 292.698Z" fill="#F5F5F5"/>
<path d="M308.025 292.698C308.025 293.28 307.553 293.752 306.971 293.752C306.389 293.752 305.917 293.28 305.917 292.698C305.917 292.116 306.389 291.645 306.971 291.645C307.553 291.645 308.025 292.116 308.025 292.698Z" fill="#F5F5F5"/>
<path d="M282.001 292.698C282.001 293.28 281.529 293.752 280.947 293.752C280.365 293.752 279.894 293.28 279.894 292.698C279.894 292.116 280.365 291.645 280.947 291.645C281.529 291.645 282.001 292.116 282.001 292.698Z" fill="#13C4A3"/>
<path d="M295.31 292.698C295.31 293.28 294.839 293.752 294.257 293.752C293.675 293.752 293.203 293.28 293.203 292.698C293.203 292.116 293.675 291.645 294.257 291.645C294.839 291.645 295.31 292.116 295.31 292.698Z" fill="#13C4A3"/>
<path d="M327.545 242.858L313.525 242.896V219.76L327.545 219.722V242.858Z" fill="#263238"/>
<path d="M327.545 214.727L313.525 214.764V191.627L327.545 191.589V214.727Z" fill="#263238"/>
<path d="M327.545 271.23L313.525 271.267V248.131L327.545 248.093V271.23Z" fill="#263238"/>
<path d="M327.545 299.962L313.525 300V276.862L327.545 276.825V299.962Z" fill="#263238"/>
<path d="M314.2 191.413H220.944V214.55H314.2V191.413Z" fill="#455A64"/>
<path d="M243.446 196.178H225.085V199.003H243.446V196.178Z" fill="#263238"/>
<path d="M243.446 201.039H225.085V203.864H243.446V201.039Z" fill="#263238"/>
<path d="M243.446 206.066H225.085V208.891H243.446V206.066Z" fill="#263238"/>
<path d="M250.708 197.885C250.708 198.467 250.236 198.939 249.654 198.939C249.073 198.939 248.601 198.467 248.601 197.885C248.601 197.303 249.072 196.832 249.654 196.832C250.236 196.832 250.708 197.304 250.708 197.885Z" fill="#263238"/>
<path d="M255.356 197.885C255.356 198.467 254.885 198.939 254.303 198.939C253.721 198.939 253.249 198.467 253.249 197.885C253.249 197.303 253.721 196.832 254.303 196.832C254.885 196.832 255.356 197.304 255.356 197.885Z" fill="#263238"/>
<path d="M260.004 197.885C260.004 198.467 259.532 198.939 258.95 198.939C258.369 198.939 257.897 198.467 257.897 197.885C257.897 197.303 258.368 196.832 258.95 196.832C259.532 196.832 260.004 197.304 260.004 197.885Z" fill="#263238"/>
<path d="M264.652 197.885C264.652 198.467 264.181 198.939 263.599 198.939C263.017 198.939 262.545 198.467 262.545 197.885C262.545 197.303 263.016 196.832 263.599 196.832C264.181 196.832 264.652 197.304 264.652 197.885Z" fill="#263238"/>
<path d="M300.672 197.885C300.672 198.467 300.201 198.939 299.619 198.939C299.037 198.939 298.565 198.467 298.565 197.885C298.565 197.303 299.037 196.832 299.619 196.832C300.201 196.832 300.672 197.304 300.672 197.885Z" fill="#263238"/>
<path d="M305.412 197.885C305.412 198.467 304.941 198.939 304.359 198.939C303.777 198.939 303.305 198.467 303.305 197.885C303.305 197.303 303.777 196.832 304.359 196.832C304.94 196.832 305.412 197.304 305.412 197.885Z" fill="#263238"/>
<path d="M269.3 197.885C269.3 198.467 268.829 198.939 268.247 198.939C267.665 198.939 267.193 198.467 267.193 197.885C267.193 197.303 267.665 196.832 268.247 196.832C268.829 196.832 269.3 197.304 269.3 197.885Z" fill="#263238"/>
<path d="M292.128 197.885C292.128 198.467 291.657 198.939 291.075 198.939C290.493 198.939 290.021 198.467 290.021 197.885C290.021 197.303 290.493 196.832 291.075 196.832C291.657 196.832 292.128 197.304 292.128 197.885Z" fill="#263238"/>
<path d="M273.949 197.885C273.949 198.467 273.478 198.939 272.896 198.939C272.314 198.939 271.842 198.467 271.842 197.885C271.842 197.303 272.314 196.832 272.896 196.832C273.477 196.832 273.949 197.304 273.949 197.885Z" fill="#F5F5F5"/>
<path d="M278.597 197.885C278.597 198.467 278.126 198.939 277.544 198.939C276.962 198.939 276.49 198.467 276.49 197.885C276.49 197.303 276.962 196.832 277.544 196.832C278.126 196.832 278.597 197.304 278.597 197.885Z" fill="#F5F5F5"/>
<path d="M288.028 197.885C288.028 198.467 287.556 198.939 286.974 198.939C286.393 198.939 285.92 198.467 285.92 197.885C285.92 197.303 286.392 196.832 286.974 196.832C287.556 196.832 288.028 197.304 288.028 197.885Z" fill="#F5F5F5"/>
<path d="M309.269 197.885C309.269 198.467 308.798 198.939 308.215 198.939C307.634 198.939 307.162 198.467 307.162 197.885C307.162 197.303 307.633 196.832 308.215 196.832C308.798 196.832 309.269 197.304 309.269 197.885Z" fill="#F5F5F5"/>
<path d="M283.245 197.885C283.245 198.467 282.774 198.939 282.192 198.939C281.609 198.939 281.138 198.467 281.138 197.885C281.138 197.303 281.609 196.832 282.192 196.832C282.774 196.832 283.245 197.304 283.245 197.885Z" fill="#13C4A3"/>
<path d="M296.554 197.885C296.554 198.467 296.082 198.939 295.5 198.939C294.919 198.939 294.447 198.467 294.447 197.885C294.447 197.303 294.918 196.832 295.5 196.832C296.082 196.832 296.554 197.304 296.554 197.885Z" fill="#13C4A3"/>
<path d="M307.163 202.962C307.163 202.38 307.634 201.909 308.216 201.909C308.798 201.909 309.27 202.38 309.27 202.962C309.27 203.544 308.798 204.016 308.216 204.016C307.634 204.016 307.163 203.544 307.163 202.962Z" fill="#263238"/>
<path d="M302.514 202.962C302.514 202.38 302.985 201.909 303.567 201.909C304.149 201.909 304.621 202.38 304.621 202.962C304.621 203.544 304.149 204.016 303.567 204.016C302.986 204.016 302.514 203.544 302.514 202.962Z" fill="#263238"/>
<path d="M297.865 202.962C297.865 202.38 298.337 201.909 298.919 201.909C299.501 201.909 299.973 202.38 299.973 202.962C299.973 203.544 299.501 204.016 298.919 204.016C298.337 204.016 297.865 203.544 297.865 202.962Z" fill="#263238"/>
<path d="M293.217 202.962C293.217 202.38 293.689 201.909 294.271 201.909C294.853 201.909 295.324 202.38 295.324 202.962C295.324 203.544 294.853 204.016 294.271 204.016C293.689 204.016 293.217 203.544 293.217 202.962Z" fill="#263238"/>
<path d="M257.198 202.962C257.198 202.38 257.669 201.909 258.251 201.909C258.833 201.909 259.305 202.38 259.305 202.962C259.305 203.544 258.833 204.016 258.251 204.016C257.669 204.016 257.198 203.544 257.198 202.962Z" fill="#263238"/>
<path d="M252.458 202.962C252.458 202.38 252.93 201.909 253.512 201.909C254.094 201.909 254.565 202.38 254.565 202.962C254.565 203.544 254.094 204.016 253.512 204.016C252.93 204.016 252.458 203.544 252.458 202.962Z" fill="#263238"/>
<path d="M288.57 202.962C288.57 202.38 289.041 201.909 289.623 201.909C290.205 201.909 290.677 202.38 290.677 202.962C290.677 203.544 290.205 204.016 289.623 204.016C289.041 204.016 288.57 203.544 288.57 202.962Z" fill="#263238"/>
<path d="M265.741 202.962C265.741 202.38 266.213 201.909 266.795 201.909C267.377 201.909 267.849 202.38 267.849 202.962C267.849 203.544 267.377 204.016 266.795 204.016C266.213 204.016 265.741 203.544 265.741 202.962Z" fill="#263238"/>
<path d="M283.921 202.962C283.921 202.38 284.393 201.909 284.975 201.909C285.557 201.909 286.029 202.38 286.029 202.962C286.029 203.544 285.557 204.016 284.975 204.016C284.393 204.016 283.921 203.544 283.921 202.962Z" fill="#F5F5F5"/>
<path d="M279.272 202.962C279.272 202.38 279.744 201.909 280.326 201.909C280.908 201.909 281.38 202.38 281.38 202.962C281.38 203.544 280.908 204.016 280.326 204.016C279.744 204.016 279.272 203.544 279.272 202.962Z" fill="#F5F5F5"/>
<path d="M269.842 202.962C269.842 202.38 270.314 201.909 270.896 201.909C271.478 201.909 271.949 202.38 271.949 202.962C271.949 203.544 271.478 204.016 270.896 204.016C270.314 204.016 269.842 203.544 269.842 202.962Z" fill="#F5F5F5"/>
<path d="M248.601 202.962C248.601 202.38 249.072 201.909 249.654 201.909C250.236 201.909 250.708 202.38 250.708 202.962C250.708 203.544 250.236 204.016 249.654 204.016C249.072 204.016 248.601 203.544 248.601 202.962Z" fill="#F5F5F5"/>
<path d="M274.624 202.962C274.624 202.38 275.096 201.909 275.678 201.909C276.26 201.909 276.731 202.38 276.731 202.962C276.731 203.544 276.26 204.016 275.678 204.016C275.096 204.016 274.624 203.544 274.624 202.962Z" fill="#13C4A3"/>
<path d="M261.316 202.962C261.316 202.38 261.787 201.909 262.369 201.909C262.951 201.909 263.423 202.38 263.423 202.962C263.423 203.544 262.951 204.016 262.369 204.016C261.787 204.016 261.316 203.544 261.316 202.962Z" fill="#13C4A3"/>
<path d="M250.708 207.478C250.708 208.06 250.236 208.532 249.654 208.532C249.073 208.532 248.601 208.06 248.601 207.478C248.601 206.896 249.072 206.424 249.654 206.424C250.236 206.424 250.708 206.896 250.708 207.478Z" fill="#263238"/>
<path d="M255.356 207.478C255.356 208.06 254.885 208.532 254.303 208.532C253.721 208.532 253.249 208.06 253.249 207.478C253.249 206.896 253.721 206.424 254.303 206.424C254.885 206.424 255.356 206.896 255.356 207.478Z" fill="#263238"/>
<path d="M260.004 207.478C260.004 208.06 259.532 208.532 258.95 208.532C258.369 208.532 257.897 208.06 257.897 207.478C257.897 206.896 258.368 206.424 258.95 206.424C259.532 206.424 260.004 206.896 260.004 207.478Z" fill="#263238"/>
<path d="M264.652 207.478C264.652 208.06 264.181 208.532 263.599 208.532C263.017 208.532 262.545 208.06 262.545 207.478C262.545 206.896 263.016 206.424 263.599 206.424C264.181 206.424 264.652 206.896 264.652 207.478Z" fill="#263238"/>
<path d="M300.672 207.478C300.672 208.06 300.201 208.532 299.619 208.532C299.037 208.532 298.565 208.06 298.565 207.478C298.565 206.896 299.037 206.424 299.619 206.424C300.201 206.424 300.672 206.896 300.672 207.478Z" fill="#263238"/>
<path d="M305.412 207.478C305.412 208.06 304.941 208.532 304.359 208.532C303.777 208.532 303.305 208.06 303.305 207.478C303.305 206.896 303.777 206.424 304.359 206.424C304.94 206.424 305.412 206.896 305.412 207.478Z" fill="#263238"/>
<path d="M269.3 207.478C269.3 208.06 268.829 208.532 268.247 208.532C267.665 208.532 267.193 208.06 267.193 207.478C267.193 206.896 267.665 206.424 268.247 206.424C268.829 206.424 269.3 206.896 269.3 207.478Z" fill="#263238"/>
<path d="M292.128 207.478C292.128 208.06 291.657 208.532 291.075 208.532C290.493 208.532 290.021 208.06 290.021 207.478C290.021 206.896 290.493 206.424 291.075 206.424C291.657 206.424 292.128 206.896 292.128 207.478Z" fill="#263238"/>
<path d="M273.949 207.478C273.949 208.06 273.478 208.532 272.896 208.532C272.314 208.532 271.842 208.06 271.842 207.478C271.842 206.896 272.314 206.424 272.896 206.424C273.477 206.424 273.949 206.896 273.949 207.478Z" fill="#F5F5F5"/>
<path d="M278.597 207.478C278.597 208.06 278.126 208.532 277.544 208.532C276.962 208.532 276.49 208.06 276.49 207.478C276.49 206.896 276.962 206.424 277.544 206.424C278.126 206.424 278.597 206.896 278.597 207.478Z" fill="#F5F5F5"/>
<path d="M288.028 207.478C288.028 208.06 287.556 208.532 286.974 208.532C286.393 208.532 285.92 208.06 285.92 207.478C285.92 206.896 286.392 206.424 286.974 206.424C287.556 206.424 288.028 206.896 288.028 207.478Z" fill="#F5F5F5"/>
<path d="M309.269 207.478C309.269 208.06 308.798 208.532 308.215 208.532C307.634 208.532 307.162 208.06 307.162 207.478C307.162 206.896 307.633 206.424 308.215 206.424C308.798 206.424 309.269 206.896 309.269 207.478Z" fill="#F5F5F5"/>
<path d="M283.245 207.478C283.245 208.06 282.774 208.532 282.192 208.532C281.609 208.532 281.138 208.06 281.138 207.478C281.138 206.896 281.609 206.424 282.192 206.424C282.774 206.424 283.245 206.896 283.245 207.478Z" fill="#13C4A3"/>
<path d="M296.554 207.478C296.554 208.06 296.082 208.532 295.5 208.532C294.919 208.532 294.447 208.06 294.447 207.478C294.447 206.896 294.918 206.424 295.5 206.424C296.082 206.424 296.554 206.896 296.554 207.478Z" fill="#13C4A3"/>
<path d="M157.464 75.5811H84.3389V299.584H157.464V75.5811Z" fill="#EBEBEB"/>
<path d="M215.153 299.584H157.464L157.359 75.5811H215.153V299.584Z" fill="#E0E0E0"/>
<path d="M150.418 111.432H88.3875V128.896H150.418V111.432Z" fill="#263238"/>
<path d="M93.5925 113.627H90.1184V126.992H93.5925V113.627Z" fill="#455A64"/>
<path d="M97.6844 116.439C97.6844 117.049 97.1902 117.543 96.5801 117.543C95.97 117.543 95.4766 117.049 95.4766 116.439C95.4766 115.829 95.9708 115.334 96.5801 115.334C97.1902 115.334 97.6844 115.829 97.6844 116.439Z" fill="white"/>
<path d="M97.6844 121.161C97.6844 121.771 97.1902 122.265 96.5801 122.265C95.97 122.265 95.4766 121.771 95.4766 121.161C95.4766 120.552 95.9708 120.058 96.5801 120.058C97.1902 120.057 97.6844 120.551 97.6844 121.161Z" fill="white"/>
<path d="M105.511 115.334H102.097V125.601H105.511V115.334Z" fill="#455A64"/>
<path d="M110.441 115.334H107.028V125.601H110.441V115.334Z" fill="#455A64"/>
<path d="M115.371 115.334H111.957V125.601H115.371V115.334Z" fill="#455A64"/>
<path d="M120.301 115.334H116.888V125.601H120.301V115.334Z" fill="#455A64"/>
<path d="M125.232 115.334H121.818V125.601H125.232V115.334Z" fill="#455A64"/>
<path d="M130.162 115.334H126.748V125.601H130.162V115.334Z" fill="#455A64"/>
<path d="M135.093 115.334H131.679V125.601H135.093V115.334Z" fill="#455A64"/>
<path d="M140.023 115.334H136.609V125.601H140.023V115.334Z" fill="#455A64"/>
<path d="M144.953 115.334H141.54V125.601H144.953V115.334Z" fill="#455A64"/>
<path d="M149.884 115.334H146.47V125.601H149.884V115.334Z" fill="#455A64"/>
<path d="M150.418 136.52H88.3875V153.983H150.418V136.52Z" fill="#263238"/>
<path d="M93.5925 138.715H90.1184V152.081H93.5925V138.715Z" fill="#455A64"/>
<path d="M97.6844 141.527C97.6844 142.136 97.1902 142.631 96.5801 142.631C95.97 142.631 95.4766 142.137 95.4766 141.527C95.4766 140.917 95.9708 140.423 96.5801 140.423C97.1902 140.423 97.6844 140.917 97.6844 141.527Z" fill="white"/>
<path d="M97.6844 146.249C97.6844 146.859 97.1902 147.353 96.5801 147.353C95.97 147.353 95.4766 146.859 95.4766 146.249C95.4766 145.639 95.9708 145.145 96.5801 145.145C97.1902 145.145 97.6844 145.639 97.6844 146.249Z" fill="white"/>
<path d="M105.511 140.423H102.097V150.689H105.511V140.423Z" fill="#455A64"/>
<path d="M110.441 140.423H107.028V150.689H110.441V140.423Z" fill="#455A64"/>
<path d="M115.371 140.423H111.957V150.689H115.371V140.423Z" fill="#455A64"/>
<path d="M120.301 140.423H116.888V150.689H120.301V140.423Z" fill="#455A64"/>
<path d="M125.232 140.423H121.818V150.689H125.232V140.423Z" fill="#455A64"/>
<path d="M130.162 140.423H126.748V150.689H130.162V140.423Z" fill="#455A64"/>
<path d="M135.093 140.423H131.679V150.689H135.093V140.423Z" fill="#455A64"/>
<path d="M140.023 140.423H136.609V150.689H140.023V140.423Z" fill="#455A64"/>
<path d="M144.953 140.423H141.54V150.689H144.953V140.423Z" fill="#455A64"/>
<path d="M149.884 140.423H146.47V150.689H149.884V140.423Z" fill="#455A64"/>
<path d="M150.418 161.809H88.3875V179.272H150.418V161.809Z" fill="#263238"/>
<path d="M93.5925 164.003H90.1184V177.369H93.5925V164.003Z" fill="#455A64"/>
<path d="M97.6844 166.815C97.6844 167.426 97.1902 167.92 96.5801 167.92C95.97 167.92 95.4766 167.426 95.4766 166.815C95.4766 166.206 95.9708 165.712 96.5801 165.712C97.1902 165.711 97.6844 166.205 97.6844 166.815Z" fill="white"/>
<path d="M97.6844 171.537C97.6844 172.147 97.1902 172.641 96.5801 172.641C95.97 172.641 95.4766 172.147 95.4766 171.537C95.4766 170.927 95.9708 170.433 96.5801 170.433C97.1902 170.433 97.6844 170.927 97.6844 171.537Z" fill="white"/>
<path d="M105.511 165.711H102.097V175.977H105.511V165.711Z" fill="#455A64"/>
<path d="M110.441 165.711H107.028V175.977H110.441V165.711Z" fill="#455A64"/>
<path d="M115.371 165.711H111.957V175.977H115.371V165.711Z" fill="#455A64"/>
<path d="M120.301 165.711H116.888V175.977H120.301V165.711Z" fill="#455A64"/>
<path d="M125.232 165.711H121.818V175.977H125.232V165.711Z" fill="#455A64"/>
<path d="M130.162 165.711H126.748V175.977H130.162V165.711Z" fill="#455A64"/>
<path d="M135.093 165.711H131.679V175.977H135.093V165.711Z" fill="#455A64"/>
<path d="M140.023 165.711H136.609V175.977H140.023V165.711Z" fill="#455A64"/>
<path d="M144.953 165.711H141.54V175.977H144.953V165.711Z" fill="#455A64"/>
<path d="M149.884 165.711H146.47V175.977H149.884V165.711Z" fill="#455A64"/>
<path d="M150.418 189.126H88.3875V206.59H150.418V189.126Z" fill="#263238"/>
<path d="M93.5925 191.322H90.1184V204.687H93.5925V191.322Z" fill="#455A64"/>
<path d="M97.6844 194.133C97.6844 194.743 97.1902 195.238 96.5801 195.238C95.97 195.238 95.4766 194.743 95.4766 194.133C95.4766 193.524 95.9708 193.03 96.5801 193.03C97.1902 193.03 97.6844 193.524 97.6844 194.133Z" fill="white"/>
<path d="M97.6844 198.855C97.6844 199.465 97.1902 199.96 96.5801 199.96C95.97 199.96 95.4766 199.465 95.4766 198.855C95.4766 198.245 95.9708 197.751 96.5801 197.751C97.1902 197.752 97.6844 198.246 97.6844 198.855Z" fill="white"/>
<path d="M105.511 193.03H102.097V203.296H105.511V193.03Z" fill="#455A64"/>
<path d="M110.441 193.03H107.028V203.296H110.441V193.03Z" fill="#455A64"/>
<path d="M115.371 193.03H111.957V203.296H115.371V193.03Z" fill="#455A64"/>
<path d="M120.301 193.03H116.888V203.296H120.301V193.03Z" fill="#455A64"/>
<path d="M125.232 193.03H121.818V203.296H125.232V193.03Z" fill="#455A64"/>
<path d="M130.162 193.03H126.748V203.296H130.162V193.03Z" fill="#455A64"/>
<path d="M135.093 193.03H131.679V203.296H135.093V193.03Z" fill="#455A64"/>
<path d="M140.023 193.03H136.609V203.296H140.023V193.03Z" fill="#455A64"/>
<path d="M144.953 193.03H141.54V203.296H144.953V193.03Z" fill="#455A64"/>
<path d="M149.884 193.03H146.47V203.296H149.884V193.03Z" fill="#455A64"/>
<path d="M150.418 216.714H88.3875V234.178H150.418V216.714Z" fill="#263238"/>
<path d="M93.5925 218.91H90.1184V232.275H93.5925V218.91Z" fill="#455A64"/>
<path d="M97.6844 221.721C97.6844 222.33 97.1902 222.825 96.5801 222.825C95.97 222.825 95.4766 222.33 95.4766 221.721C95.4766 221.111 95.9708 220.617 96.5801 220.617C97.1902 220.617 97.6844 221.112 97.6844 221.721Z" fill="white"/>
<path d="M97.6844 226.444C97.6844 227.054 97.1902 227.549 96.5801 227.549C95.97 227.549 95.4766 227.054 95.4766 226.444C95.4766 225.834 95.9708 225.341 96.5801 225.341C97.1902 225.34 97.6844 225.834 97.6844 226.444Z" fill="white"/>
<path d="M105.511 220.618H102.097V230.884H105.511V220.618Z" fill="#455A64"/>
<path d="M110.441 220.618H107.028V230.884H110.441V220.618Z" fill="#455A64"/>
<path d="M115.371 220.618H111.957V230.884H115.371V220.618Z" fill="#455A64"/>
<path d="M120.301 220.618H116.888V230.884H120.301V220.618Z" fill="#455A64"/>
<path d="M125.232 220.618H121.818V230.884H125.232V220.618Z" fill="#455A64"/>
<path d="M130.162 220.618H126.748V230.884H130.162V220.618Z" fill="#455A64"/>
<path d="M135.093 220.618H131.679V230.884H135.093V220.618Z" fill="#455A64"/>
<path d="M140.023 220.618H136.609V230.884H140.023V220.618Z" fill="#455A64"/>
<path d="M144.953 220.618H141.54V230.884H144.953V220.618Z" fill="#455A64"/>
<path d="M149.884 220.618H146.47V230.884H149.884V220.618Z" fill="#455A64"/>
<path d="M150.418 271.621H88.3875V289.085H150.418V271.621Z" fill="#263238"/>
<path d="M93.5925 273.816H90.1184V287.181H93.5925V273.816Z" fill="#455A64"/>
<path d="M97.6844 276.628C97.6844 277.238 97.1902 277.732 96.5801 277.732C95.97 277.732 95.4766 277.238 95.4766 276.628C95.4766 276.019 95.9708 275.524 96.5801 275.524C97.1902 275.524 97.6844 276.018 97.6844 276.628Z" fill="white"/>
<path d="M97.6844 281.35C97.6844 281.96 97.1902 282.454 96.5801 282.454C95.97 282.454 95.4766 281.96 95.4766 281.35C95.4766 280.74 95.9708 280.247 96.5801 280.247C97.1902 280.247 97.6844 280.741 97.6844 281.35Z" fill="white"/>
<path d="M105.511 275.524H102.097V285.79H105.511V275.524Z" fill="#455A64"/>
<path d="M110.441 275.524H107.028V285.79H110.441V275.524Z" fill="#455A64"/>
<path d="M115.371 275.524H111.957V285.79H115.371V275.524Z" fill="#455A64"/>
<path d="M120.301 275.524H116.888V285.79H120.301V275.524Z" fill="#455A64"/>
<path d="M125.232 275.524H121.818V285.79H125.232V275.524Z" fill="#455A64"/>
<path d="M130.162 275.524H126.748V285.79H130.162V275.524Z" fill="#455A64"/>
<path d="M135.093 275.524H131.679V285.79H135.093V275.524Z" fill="#455A64"/>
<path d="M140.023 275.524H136.609V285.79H140.023V275.524Z" fill="#455A64"/>
<path d="M144.953 275.524H141.54V285.79H144.953V275.524Z" fill="#455A64"/>
<path d="M149.884 275.524H146.47V285.79H149.884V275.524Z" fill="#455A64"/>
<path d="M150.418 244.191H88.3875V261.655H150.418V244.191Z" fill="#263238"/>
<path d="M93.5925 246.387H90.1184V259.752H93.5925V246.387Z" fill="#455A64"/>
<path d="M97.6844 249.198C97.6844 249.808 97.1902 250.303 96.5801 250.303C95.97 250.303 95.4766 249.808 95.4766 249.198C95.4766 248.589 95.9708 248.095 96.5801 248.095C97.1902 248.095 97.6844 248.589 97.6844 249.198Z" fill="white"/>
<path d="M97.6844 253.921C97.6844 254.53 97.1902 255.026 96.5801 255.026C95.97 255.026 95.4766 254.531 95.4766 253.921C95.4766 253.311 95.9708 252.817 96.5801 252.817C97.1902 252.817 97.6844 253.311 97.6844 253.921Z" fill="white"/>
<path d="M105.511 248.095H102.097V258.361H105.511V248.095Z" fill="#455A64"/>
<path d="M110.441 248.095H107.028V258.361H110.441V248.095Z" fill="#455A64"/>
<path d="M115.371 248.095H111.957V258.361H115.371V248.095Z" fill="#455A64"/>
<path d="M120.301 248.095H116.888V258.361H120.301V248.095Z" fill="#455A64"/>
<path d="M125.232 248.095H121.818V258.361H125.232V248.095Z" fill="#455A64"/>
<path d="M130.162 248.095H126.748V258.361H130.162V248.095Z" fill="#455A64"/>
<path d="M135.093 248.095H131.679V258.361H135.093V248.095Z" fill="#455A64"/>
<path d="M140.023 248.095H136.609V258.361H140.023V248.095Z" fill="#455A64"/>
<path d="M144.953 248.095H141.54V258.361H144.953V248.095Z" fill="#455A64"/>
<path d="M149.884 248.095H146.47V258.361H149.884V248.095Z" fill="#455A64"/>
<path d="M126.748 111.432C126.735 111.433 126.711 111.247 126.686 110.893C126.661 110.539 126.642 110.015 126.625 109.341C126.608 108.668 126.596 107.844 126.551 106.891C126.495 105.942 126.433 104.849 126.127 103.704C125.799 102.565 125.282 101.344 124.47 100.211C123.668 99.0757 122.521 98.0599 121.069 97.4756C119.624 96.8739 117.964 96.6499 116.248 96.4954C114.522 96.3463 112.735 96.1912 110.906 96.033C103.584 95.398 96.9442 94.9923 92.1311 94.9052C89.7249 94.8537 87.7774 94.8696 86.4317 94.8772C85.7898 94.8848 85.2751 94.8908 84.8815 94.8954C84.5266 94.8954 84.3404 94.8893 84.3396 94.8757C84.3388 94.8621 84.5243 94.8416 84.8785 94.8159C85.2721 94.7924 85.7868 94.7622 86.4279 94.7236C87.7744 94.6691 89.7249 94.6108 92.1356 94.6267C96.9578 94.6426 103.613 95.0051 110.939 95.6402C112.769 95.8014 114.557 95.9588 116.284 96.111C118.008 96.2714 119.706 96.5045 121.209 97.1403C122.722 97.758 123.922 98.8403 124.737 100.021C125.565 101.203 126.076 102.456 126.396 103.631C126.695 104.823 126.735 105.924 126.771 106.882C126.795 107.841 126.785 108.666 126.779 109.339C126.773 109.981 126.77 110.496 126.766 110.889C126.765 111.244 126.763 111.43 126.748 111.432Z" fill="#263238"/>
<path d="M107.931 111.432C107.918 111.432 107.905 111.256 107.895 110.922C107.891 110.548 107.886 110.063 107.879 109.462C107.874 108.83 107.876 108.055 107.807 107.163C107.724 106.281 107.585 105.249 107.045 104.285C106.504 103.328 105.443 102.615 104.241 102.128C103.03 101.654 101.598 101.464 100.155 101.712C99.4366 101.837 98.7115 102.067 98.0447 102.429C97.3854 102.794 96.7655 103.304 96.4052 103.98C96.0268 104.649 96.0162 105.486 96.4113 106.172C96.795 106.855 97.4883 107.392 98.271 107.57C99.0559 107.762 99.8824 107.488 100.449 106.94C101.022 106.398 101.37 105.633 101.426 104.868C101.501 104.095 101.217 103.365 100.776 102.747C100.343 102.13 99.7719 101.628 99.1346 101.298C98.5048 100.945 97.7903 100.887 97.0834 100.769C96.3833 100.666 95.7028 100.574 95.0428 100.501C93.7228 100.352 92.4883 100.268 91.359 100.221C89.1004 100.134 87.2665 100.169 85.9995 100.17C85.3985 100.169 84.9141 100.169 84.5402 100.168C84.2064 100.164 84.0308 100.155 84.0308 100.141C84.0308 100.128 84.2048 100.11 84.5386 100.089C84.9125 100.07 85.3962 100.047 85.9964 100.016C87.2627 99.9687 89.0974 99.89 91.3689 99.9429C92.5042 99.9709 93.7485 100.041 95.0784 100.175C95.7437 100.243 96.4294 100.328 97.1349 100.427C97.4891 100.483 97.8395 100.527 98.2104 100.595C98.5858 100.667 98.9537 100.797 99.3011 100.975C99.9959 101.33 100.614 101.866 101.084 102.531C101.557 103.178 101.896 104.028 101.812 104.898C101.749 105.757 101.369 106.607 100.72 107.226C100.083 107.851 99.0967 108.182 98.1847 107.955C97.2809 107.746 96.5104 107.146 96.0692 106.363C95.6097 105.58 95.6279 104.55 96.0654 103.799C96.4817 103.03 97.1606 102.487 97.8653 102.099C98.5798 101.716 99.3397 101.482 100.096 101.355C101.612 101.105 103.104 101.317 104.363 101.825C105.605 102.342 106.715 103.104 107.289 104.149C107.848 105.187 107.963 106.252 108.028 107.149C108.077 108.055 108.053 108.832 108.034 109.465C108.01 110.066 107.991 110.55 107.976 110.924C107.959 111.256 107.945 111.432 107.931 111.432Z" fill="#263238"/>
<path d="M131.812 111.432C131.798 111.434 131.756 111.234 131.686 110.854C131.619 110.473 131.513 109.913 131.36 109.195C131.048 107.766 130.556 105.688 129.534 103.279C128.522 100.888 126.908 98.1092 124.136 96.0323C122.785 94.9757 121.039 94.3966 119.187 94.1476C117.334 93.8789 115.374 93.8918 113.37 93.8358C105.354 93.6844 98.0879 93.7162 92.832 93.5118C90.2041 93.421 88.0795 93.2984 86.6126 93.1947C85.9095 93.1364 85.3478 93.0895 84.9247 93.0547C84.5395 93.0176 84.3374 92.9918 84.3381 92.9782C84.3389 92.9646 84.5425 92.9638 84.9293 92.9752C85.3531 92.9918 85.9155 93.0138 86.6202 93.041C88.0885 93.0978 90.2124 93.178 92.8388 93.2325C98.0909 93.3658 105.352 93.2893 113.378 93.4414C115.379 93.4982 117.348 93.4869 119.242 93.7654C121.124 94.0212 122.957 94.6358 124.354 95.7424C125.739 96.8248 126.901 98.0509 127.767 99.352C128.644 100.644 129.289 101.95 129.79 103.171C130.789 105.621 131.243 107.72 131.51 109.166C131.641 109.891 131.723 110.456 131.764 110.842C131.809 111.227 131.826 111.43 131.812 111.432Z" fill="#263238"/>
<path d="M149.564 78.3672H89.2405V87.1237H149.564V78.3672Z" fill="#263238"/>
<path d="M135.35 82.7461H102.507V87.1247H135.35V82.7461Z" fill="#455A64"/>
<path d="M174.175 259.985C174.181 260.027 173.51 260.094 172.351 260.43C171.201 260.776 169.554 261.421 167.794 262.663C166.921 263.285 166.022 264.061 165.236 265.041C164.834 265.524 164.489 266.074 164.185 266.664C163.91 267.261 163.696 267.922 163.527 268.608C162.838 271.374 163.046 274.542 163.183 277.843C163.321 281.138 163.104 284.423 161.801 287.063C161.181 288.381 160.308 289.498 159.339 290.355C158.365 291.209 157.319 291.83 156.318 292.272C155.314 292.716 154.35 292.975 153.492 293.118C152.63 293.238 151.879 293.263 151.269 293.212C150.66 293.163 150.191 293.083 149.883 292.993C149.573 292.912 149.412 292.864 149.415 292.85C149.425 292.802 150.074 293.007 151.277 293.058C151.878 293.085 152.614 293.038 153.455 292.9C154.292 292.739 155.23 292.467 156.204 292.018C157.175 291.569 158.186 290.949 159.122 290.111C160.052 289.268 160.879 288.19 161.474 286.906C162.718 284.343 162.927 281.135 162.789 277.856C162.655 274.57 162.449 271.354 163.175 268.52C163.354 267.816 163.575 267.144 163.874 266.509C164.196 265.894 164.562 265.326 164.982 264.833C165.805 263.832 166.734 263.053 167.634 262.433C169.447 261.197 171.134 260.585 172.31 260.28C172.903 260.136 173.368 260.046 173.688 260.018C174.006 259.984 174.173 259.971 174.175 259.985Z" fill="#263238"/>
<path d="M151.323 290.144H146.369V296.168H151.323V290.144Z" fill="#263238"/>
<path d="M201.945 244.772H174.176V275.198H201.945V244.772Z" fill="#455A64"/>
<path d="M196.964 262.075C198.054 257.146 194.941 252.267 190.012 251.178C185.083 250.089 180.205 253.201 179.115 258.13C178.026 263.059 181.138 267.938 186.067 269.027C190.996 270.117 195.875 267.004 196.964 262.075Z" fill="#263238"/>
<path d="M192.63 260.104C192.63 262.629 190.584 264.674 188.06 264.674C185.536 264.674 183.49 262.629 183.49 260.104C183.49 257.58 185.536 255.534 188.06 255.534C190.584 255.534 192.63 257.581 192.63 260.104Z" fill="#455A64"/>
<path d="M177.931 250.344C178.4 250.344 178.781 249.963 178.781 249.494C178.781 249.025 178.4 248.645 177.931 248.645C177.462 248.645 177.082 249.025 177.082 249.494C177.082 249.963 177.462 250.344 177.931 250.344Z" fill="#263238"/>
<path d="M197.697 250.344C198.166 250.344 198.547 249.963 198.547 249.494C198.547 249.025 198.166 248.645 197.697 248.645C197.228 248.645 196.848 249.025 196.848 249.494C196.848 249.963 197.228 250.344 197.697 250.344Z" fill="#263238"/>
<path d="M198.728 271.962C198.728 272.431 198.348 272.812 197.878 272.812C197.41 272.812 197.029 272.432 197.029 271.962C197.029 271.493 197.409 271.113 197.878 271.113C198.348 271.113 198.728 271.494 198.728 271.962Z" fill="#263238"/>
<path d="M177.931 273.161C178.4 273.161 178.781 272.781 178.781 272.312C178.781 271.843 178.4 271.462 177.931 271.462C177.462 271.462 177.082 271.843 177.082 272.312C177.082 272.781 177.462 273.161 177.931 273.161Z" fill="#263238"/>
<path d="M204.185 244.772H201.944V275.198H204.185V244.772Z" fill="#263238"/>
<path d="M168.144 41.8516C170.883 35.4498 169.221 28.774 164.717 23.4636C160.214 18.1533 152.61 15.6881 145.847 17.3449C144.646 10.6108 139.952 4.59807 133.71 1.79983C127.468 -0.999163 119.857 -0.504153 114.03 3.07974C108.203 6.66287 104.327 13.2327 104.008 20.0659C99.3761 20.841 95.1587 23.802 92.8547 27.8945C90.5507 31.987 90.2086 37.1286 91.9487 41.4906L168.144 41.8516Z" fill="#13C4A3"/>
<path d="M124.034 41.6294V30.9012H118.657L126.748 19.4819L134.84 30.8232H129.57V41.6294H124.034Z" fill="white"/>
<path d="M308.064 180.697L313.776 188.161L324.656 183.347L317.697 172.181L308.064 180.697Z" fill="#E0E0E0"/>
<path d="M311.451 181.578L311.625 185.269L315.223 186.957L315.039 183.174L311.451 181.578Z" fill="#455A64"/>
<path d="M314.864 179.513L315.039 183.205L318.636 184.893L318.453 181.11L314.864 179.513Z" fill="#455A64"/>
<path d="M318.336 177.449L318.512 181.141L322.109 182.828L321.925 179.046L318.336 177.449Z" fill="#455A64"/>
<path d="M325.089 183.199L323.847 181.301L313.186 188.047L315.699 192.258L316.4 191.909C319.499 190.33 332.047 183.662 333.7 181.887C335.544 179.906 325.089 183.199 325.089 183.199Z" fill="#13C4A3"/>
<g opacity="0.5">
<path d="M319.595 189.878C318.911 189.059 317.945 188.399 316.888 188.256C315.831 188.113 314.973 188.182 313.798 189.072L315.62 192.095L319.595 189.878Z" fill="white"/>
</g>
<path opacity="0.5" d="M330.291 181.752C330.291 181.752 334.075 180.802 333.981 181.571C333.887 182.339 321.46 189.554 315.7 192.258L315.575 192.004L330.143 183.712C330.143 183.712 329.673 182.146 330.291 181.752Z" fill="white"/>
<path d="M315.4 192.096C315.402 192.101 315.471 192.071 315.599 192.008C315.767 191.924 315.949 191.832 316.156 191.728C316.707 191.439 317.384 191.084 318.183 190.664C319.889 189.755 322.229 188.466 324.781 186.987C327.334 185.506 329.615 184.117 331.253 183.089C332.014 182.603 332.659 182.193 333.183 181.858C333.376 181.73 333.547 181.617 333.703 181.514C333.821 181.434 333.881 181.39 333.878 181.386C333.876 181.381 333.809 181.417 333.687 181.489C333.526 181.585 333.351 181.689 333.152 181.808C332.621 182.131 331.968 182.529 331.197 182.997C329.545 184.001 327.256 185.375 324.705 186.855C322.153 188.333 319.824 189.636 318.131 190.57C317.341 191.006 316.672 191.375 316.127 191.676C315.926 191.788 315.747 191.889 315.584 191.981C315.462 192.053 315.398 192.092 315.4 192.096Z" fill="#263238"/>
<path d="M330.238 183.882C330.281 183.864 330.038 183.374 330.059 182.723C330.069 182.073 330.336 181.595 330.294 181.574C330.268 181.546 329.92 182.022 329.907 182.72C329.886 183.417 330.21 183.909 330.238 183.882Z" fill="#263238"/>
<path d="M326.08 184.118C326.123 184.119 326.167 183.843 326.181 183.501C326.195 183.159 326.171 182.879 326.129 182.878C326.087 182.876 326.042 183.153 326.029 183.495C326.015 183.838 326.039 184.116 326.08 184.118Z" fill="#263238"/>
<path d="M324.928 184.164C324.968 184.177 325.074 183.963 325.163 183.685C325.253 183.407 325.293 183.172 325.253 183.159C325.213 183.146 325.108 183.36 325.018 183.638C324.929 183.916 324.888 184.15 324.928 184.164Z" fill="#263238"/>
<path d="M323.775 183.46C323.795 183.497 324.068 183.381 324.385 183.202C324.701 183.024 324.94 182.849 324.919 182.812C324.899 182.776 324.625 182.891 324.309 183.069C323.993 183.249 323.754 183.423 323.775 183.46Z" fill="#263238"/>
<path d="M323.163 182.846C323.17 182.885 323.52 182.85 323.904 182.662C324.29 182.477 324.535 182.224 324.508 182.195C324.48 182.161 324.205 182.349 323.838 182.525C323.472 182.704 323.153 182.803 323.163 182.846Z" fill="#263238"/>
<path d="M325.899 182.953C325.906 182.969 326.194 182.846 326.596 182.543C326.796 182.393 327.021 182.194 327.245 181.947C327.353 181.819 327.475 181.7 327.569 181.524C327.612 181.437 327.651 181.328 327.616 181.206C327.584 181.084 327.459 180.999 327.347 180.988C326.478 181.029 326.027 181.795 325.979 182.284C325.945 182.539 325.982 182.748 326.022 182.883C326.064 183.019 326.105 183.086 326.114 183.082C326.144 183.077 326.001 182.779 326.086 182.3C326.128 182.065 326.242 181.794 326.457 181.565C326.662 181.349 327.002 181.125 327.324 181.138C327.483 181.155 327.515 181.311 327.434 181.456C327.363 181.597 327.24 181.729 327.138 181.852C326.927 182.097 326.715 182.299 326.527 182.458C326.152 182.777 325.886 182.932 325.899 182.953Z" fill="#263238"/>
<path d="M326.1 182.883C326.114 182.885 326.114 182.646 325.899 182.351C325.792 182.206 325.629 182.057 325.411 181.951C325.198 181.867 324.915 181.745 324.622 181.932C324.472 182.047 324.5 182.278 324.594 182.381C324.678 182.496 324.794 182.569 324.894 182.624C325.099 182.739 325.299 182.812 325.47 182.856C325.814 182.943 326.035 182.924 326.035 182.907C326.037 182.882 325.823 182.862 325.501 182.753C325.341 182.698 325.155 182.618 324.965 182.503C324.783 182.411 324.563 182.184 324.72 182.05C324.886 181.932 325.165 182.002 325.353 182.079C325.55 182.167 325.706 182.294 325.815 182.419C326.033 182.672 326.073 182.891 326.1 182.883Z" fill="#263238"/>
<path d="M313.893 188.99C313.91 189.013 314.188 188.779 314.714 188.551C315.232 188.323 316.026 188.129 316.888 188.256C317.75 188.384 318.454 188.8 318.884 189.169C319.321 189.539 319.519 189.843 319.542 189.826C319.55 189.821 319.508 189.74 319.415 189.607C319.322 189.473 319.17 189.289 318.955 189.088C318.532 188.688 317.81 188.239 316.91 188.106C316.012 187.973 315.19 188.193 314.669 188.454C314.406 188.583 314.207 188.715 314.08 188.816C313.951 188.918 313.888 188.983 313.893 188.99Z" fill="#263238"/>
<path d="M320.348 188.022C320.363 188.059 321.141 187.764 322.029 187.258C322.919 186.754 323.57 186.238 323.546 186.206C323.52 186.169 322.835 186.626 321.953 187.125C321.073 187.626 320.33 187.981 320.348 188.022Z" fill="#263238"/>
<path d="M318.213 189.258C318.202 189.3 318.358 189.374 318.526 189.495C318.694 189.614 318.816 189.738 318.853 189.713C318.887 189.693 318.809 189.509 318.614 189.371C318.421 189.232 318.221 189.218 318.213 189.258Z" fill="#263238"/>
<path d="M316.829 188.724C316.817 188.765 316.953 188.838 317.132 188.886C317.311 188.934 317.465 188.941 317.476 188.9C317.487 188.86 317.351 188.788 317.172 188.738C316.994 188.69 316.839 188.683 316.829 188.724Z" fill="#263238"/>
<path d="M315.412 188.935C315.442 188.967 315.586 188.882 315.778 188.845C315.969 188.804 316.135 188.827 316.15 188.786C316.167 188.748 315.985 188.647 315.748 188.695C315.51 188.743 315.382 188.907 315.412 188.935Z" fill="#263238"/>
<path d="M314.469 189.194C314.475 189.236 314.57 189.255 314.681 189.238C314.792 189.221 314.877 189.173 314.87 189.131C314.864 189.09 314.768 189.07 314.657 189.087C314.546 189.105 314.462 189.152 314.469 189.194Z" fill="#263238"/>
<path d="M235.865 175.173L278.429 135.036C281.062 132.342 284.669 130.824 288.436 130.824C293.455 130.824 298.09 133.512 300.582 137.87L322.359 175.289L308.542 183.261L287.569 156.59L266.552 175.58L235.865 175.173Z" fill="#263238"/>
<path d="M223.334 177.186C223.154 177.727 221.891 191.44 240.295 191.44H289.47C295.695 191.44 300.74 186.394 300.74 180.17C300.74 173.945 295.695 168.9 289.47 168.9H243.683C242.045 168.9 240.427 169.257 238.941 169.946L223.334 177.186Z" fill="#263238"/>
<path d="M293.818 168.9C293.818 169.009 283.661 169.097 271.135 169.097C258.605 169.097 248.45 169.009 248.45 168.9C248.45 168.791 258.605 168.703 271.135 168.703C283.661 168.703 293.818 168.791 293.818 168.9Z" fill="#455A64"/>
<path d="M286.227 147.209C286.345 147.211 286.35 149.337 286.736 151.916C287.11 154.499 287.718 156.535 287.605 156.571C287.513 156.607 286.726 154.596 286.346 151.974C285.954 149.354 286.127 147.201 286.227 147.209Z" fill="#455A64"/>
<path d="M288.315 146.903C288.419 146.901 288.528 149.075 288.295 151.744C288.07 154.414 287.592 156.536 287.491 156.517C287.379 156.497 287.679 154.359 287.903 151.71C288.134 149.062 288.201 146.903 288.315 146.903Z" fill="#455A64"/>
<path d="M250.19 86.5372C250.248 87.0935 249.946 87.6711 249.457 87.942C248.967 88.213 248.319 88.1623 247.877 87.8187C247.038 87.1655 247.17 85.8583 247.554 84.8668C247.937 83.8752 248.5 82.8466 248.255 81.8127C248.067 81.021 247.443 80.4215 246.998 79.7403C246.222 78.5543 245.989 77.0004 246.492 75.6758C246.995 74.3513 248.263 73.3196 249.676 73.2061C251.118 73.0903 252.721 73.8388 253.932 73.0479C254.81 72.4742 255.084 71.3078 255.822 70.563C256.967 69.4065 258.882 69.5609 260.423 70.0862C261.964 70.6114 263.476 71.4334 265.102 71.3502C266.46 71.2805 267.699 70.5834 269.02 70.2648C271.885 69.5745 275.12 70.8816 276.701 73.3688C278.282 75.8552 278.094 79.3392 276.253 81.6409C275.592 82.4674 274.104 84.9394 271.142 84.3241" fill="#263238"/>
<path d="M251.876 75.333L251.477 77.4652L245.301 109.348C244.584 113.049 247.195 116.613 251.164 117.351C255.173 118.096 259.057 115.68 259.842 111.953C260.667 108.041 261.607 103.938 261.607 103.938C261.607 103.938 266.824 104.147 269.235 97.7855C270.434 94.6217 271.384 89.2228 272.018 84.7798C272.589 80.7811 269.72 77.1117 265.701 76.7113L251.876 75.333Z" fill="#FFBE9D"/>
<path d="M269.032 87.9447C268.955 88.3936 268.512 88.6986 268.041 88.6275C267.572 88.5563 267.252 88.1347 267.329 87.6859C267.406 87.237 267.849 86.9312 268.319 87.0032C268.789 87.0743 269.108 87.4959 269.032 87.9447Z" fill="#263238"/>
<path d="M270.274 87.3288C270.147 87.4173 269.606 86.8111 268.698 86.6249C267.793 86.4258 267.03 86.7543 266.955 86.6226C266.916 86.5636 267.064 86.3872 267.398 86.2358C267.727 86.0844 268.257 85.9815 268.822 86.1011C269.387 86.2214 269.82 86.5287 270.049 86.7982C270.283 87.0714 270.337 87.2902 270.274 87.3288Z" fill="#263238"/>
<path d="M260.35 86.1791C260.274 86.6279 259.83 86.933 259.36 86.8618C258.891 86.7907 258.571 86.3691 258.648 85.9202C258.725 85.4714 259.169 85.1656 259.638 85.2375C260.108 85.3087 260.426 85.731 260.35 86.1791Z" fill="#263238"/>
<path d="M261.314 85.6447C261.186 85.7332 260.645 85.127 259.737 84.9408C258.833 84.7417 258.069 85.0702 257.993 84.9385C257.955 84.8795 258.102 84.7024 258.437 84.5517C258.767 84.4004 259.296 84.2974 259.861 84.417C260.426 84.5374 260.859 84.8447 261.088 85.1149C261.322 85.3873 261.376 85.6061 261.314 85.6447Z" fill="#263238"/>
<path d="M263.211 93.0634C263.218 93.0112 263.802 93.0309 264.742 93.1035C264.979 93.1278 265.207 93.127 265.28 92.9771C265.369 92.8212 265.324 92.551 265.268 92.2573C265.166 91.6511 265.06 91.0153 264.948 90.3492C264.518 87.638 264.258 85.4279 264.368 85.4112C264.478 85.3946 264.915 87.579 265.345 90.2909C265.446 90.9585 265.542 91.5943 265.633 92.2036C265.667 92.4852 265.755 92.8152 265.564 93.1384C265.466 93.2988 265.27 93.3889 265.113 93.398C264.954 93.4123 264.823 93.3881 264.708 93.3707C263.776 93.2299 263.204 93.1156 263.211 93.0634Z" fill="#263238"/>
<path d="M261.607 103.938C261.607 103.938 257.122 103.304 253.285 99.7573C253.285 99.7573 254.484 104.721 261.196 105.473L261.607 103.938Z" fill="#EB996E"/>
<path d="M260.408 93.136C260.558 93.1579 260.355 94.1442 261.053 95.0184C261.75 95.8948 262.824 96.0023 262.803 96.1416C262.803 96.2059 262.529 96.2846 262.083 96.2044C261.644 96.1287 261.038 95.857 260.611 95.3219C260.186 94.786 260.083 94.1676 260.134 93.7566C260.181 93.3381 260.343 93.1163 260.408 93.136Z" fill="#263238"/>
<path d="M262.288 82.1353C262.147 82.3639 261.264 82.0581 260.173 81.9658C259.083 81.8508 258.159 81.9847 258.063 81.7334C258.023 81.6146 258.22 81.4133 258.617 81.246C259.011 81.0787 259.607 80.9659 260.262 81.028C260.916 81.0908 261.481 81.3141 261.836 81.5525C262.194 81.7917 262.35 82.0264 262.288 82.1353Z" fill="#263238"/>
<path d="M270.486 84.6319C270.284 84.8053 269.703 84.4609 268.953 84.2951C268.209 84.1021 267.535 84.1452 267.433 83.8993C267.391 83.7812 267.534 83.595 267.852 83.458C268.167 83.3202 268.658 83.2567 269.172 83.3793C269.686 83.5026 270.095 83.7827 270.312 84.0484C270.535 84.3148 270.578 84.5456 270.486 84.6319Z" fill="#263238"/>
<path d="M272.843 81.9067C272.843 81.9067 269.117 82.9686 265.038 79.9562C262.361 77.9792 259.067 76.666 258.21 77.1239C257.353 77.5818 256.665 80.5761 253.606 80.95C253.606 80.95 252.796 86.7516 250.533 86.1438C248.27 85.536 251.001 74.1221 251.001 74.1221L257.374 75.0932L263.715 75.0069L269.355 76.834L273.616 78.8421L272.843 81.9067Z" fill="#263238"/>
<path d="M251.187 72.4544C251.173 72.3613 251.754 72.2705 252.339 72.6315C252.926 72.988 253.109 73.5474 253.02 73.5777C252.93 73.6246 252.649 73.2257 252.155 72.9313C251.669 72.6255 251.185 72.5558 251.187 72.4544Z" fill="#263238"/>
<path d="M253.486 70.9126C253.59 70.9428 253.415 71.6074 253.373 72.4082C253.325 73.2113 253.547 73.844 253.453 73.8856C253.376 73.9371 252.972 73.29 253.022 72.3923C253.071 71.5098 253.407 70.8838 253.486 70.9126Z" fill="#263238"/>
<path d="M251.157 83.8111C251.073 83.746 247.624 81.719 246.788 85.5481C245.951 89.3773 249.968 89.4272 249.999 89.319C250.029 89.2107 251.157 83.8111 251.157 83.8111Z" fill="#FFBE9D"/>
<path d="M249.145 87.6132C249.131 87.5974 249.068 87.6458 248.945 87.6723C248.824 87.6988 248.627 87.692 248.444 87.5739C248.071 87.337 247.872 86.6202 248.003 85.9261C248.07 85.5757 248.215 85.2593 248.398 85.0118C248.576 84.7575 248.8 84.6008 249.012 84.6091C249.225 84.6069 249.343 84.7598 249.366 84.8778C249.394 84.9959 249.353 85.0671 249.372 85.0784C249.38 85.0905 249.468 85.0322 249.472 84.8672C249.472 84.7878 249.447 84.6878 249.373 84.5947C249.298 84.5001 249.171 84.432 249.026 84.4169C248.726 84.373 248.401 84.5864 248.199 84.8582C247.981 85.1284 247.809 85.4811 247.735 85.8747C247.591 86.6512 247.828 87.4596 248.346 87.7412C248.6 87.8706 248.843 87.838 248.978 87.7729C249.119 87.7048 249.158 87.6231 249.145 87.6132Z" fill="#EB996E"/>
<path d="M263.848 86.05C263.808 86.0523 263.817 85.6875 263.646 85.0752C263.477 84.4742 263.062 83.5969 262.156 82.9256C261.279 82.2519 259.841 81.878 258.452 82.398C257.075 82.8749 255.888 84.3402 255.903 86.05C255.887 87.7606 257.075 89.226 258.452 89.7036C259.841 90.2236 261.279 89.8497 262.156 89.176C263.062 88.5047 263.477 87.6274 263.646 87.0264C263.817 86.4126 263.808 86.0478 263.848 86.05C263.862 86.05 263.871 86.1394 263.874 86.3119C263.882 86.4837 263.864 86.7403 263.795 87.0628C263.666 87.6978 263.273 88.6469 262.325 89.397C261.409 90.1471 259.856 90.5937 258.329 90.0449C257.576 89.7823 256.857 89.2767 256.343 88.5713C255.817 87.8757 255.517 86.9757 255.509 86.05C255.517 85.1251 255.817 84.2259 256.343 83.5303C256.857 82.8249 257.576 82.3193 258.329 82.0567C259.856 81.5079 261.409 81.9537 262.325 82.7038C263.273 83.4531 263.666 84.403 263.796 85.0381C263.865 85.3598 263.883 85.6171 263.875 85.7889C263.87 85.9607 263.862 86.05 263.848 86.05Z" fill="#455A64"/>
<path d="M273.616 87.8152C273.575 87.8175 273.585 87.4526 273.414 86.8403C273.245 86.2393 272.831 85.3621 271.924 84.6907C271.047 84.0171 269.609 83.6432 268.22 84.1632C266.844 84.64 265.656 86.1054 265.671 87.8152C265.655 89.5258 266.843 90.9911 268.22 91.4687C269.609 91.9887 271.047 91.6148 271.924 90.9412C272.831 90.2698 273.245 89.3925 273.414 88.7916C273.585 88.1777 273.576 87.8137 273.616 87.8152C273.629 87.8152 273.638 87.9045 273.642 88.0771C273.65 88.2489 273.631 88.5055 273.563 88.8279C273.433 89.4629 273.04 90.4121 272.093 91.1622C271.177 91.9122 269.624 92.3588 268.096 91.8101C267.344 91.5474 266.624 91.0418 266.111 90.3364C265.584 89.6408 265.284 88.7409 265.277 87.8152C265.284 86.8903 265.584 85.9911 266.111 85.2955C266.624 84.5901 267.344 84.0845 268.096 83.8218C269.624 83.2731 271.177 83.7189 272.093 84.4689C273.041 85.2183 273.434 86.1682 273.563 86.8032C273.632 87.1249 273.65 87.3815 273.643 87.5541C273.638 87.7259 273.629 87.8152 273.616 87.8152Z" fill="#455A64"/>
<path d="M256.171 83.7953C256.171 83.9043 255.075 83.9959 253.721 84.0004C252.368 84.005 251.271 83.9202 251.271 83.8112C251.271 83.7022 252.367 83.6106 253.72 83.6061C255.073 83.6023 256.171 83.6863 256.171 83.7953Z" fill="#455A64"/>
<path d="M265.473 87.037C265.374 87.0794 265.134 86.7107 264.686 86.5843C264.239 86.4496 263.839 86.6313 263.778 86.542C263.748 86.5003 263.814 86.3823 263.997 86.2816C264.175 86.1809 264.478 86.1136 264.796 86.2059C265.114 86.299 265.333 86.5185 265.43 86.6994C265.529 86.8833 265.522 87.018 265.473 87.037Z" fill="#455A64"/>
<path d="M256.472 168.576V166.051L292.425 166.786L313.126 133.711L315.026 135.083L293.818 168.9L256.472 168.576Z" fill="#E0E0E0"/>
<path d="M281.344 157.553L283.154 160.237V165.762C283.154 165.762 282.218 165.979 281.843 165.23C281.468 164.48 280.969 161.922 280.969 161.922L280.094 164.184C279.738 165.102 278.755 165.611 277.8 165.372L271.133 163.7L273.857 155.91L281.344 157.553Z" fill="#FFBE9D"/>
<path d="M244.531 104.196C244.531 104.196 234.58 106.684 231.595 111.161C228.61 115.639 225.21 123.07 221.547 137.484C218.351 150.062 215.886 170.149 219.346 174.862C221.729 178.108 223.249 178.934 223.249 178.934L230.927 176.183C238.324 173.534 245.121 169.443 250.924 164.148L262.708 153.397L256.471 148.477C256.471 148.477 261.216 122.847 259.954 113.892C258.853 106.062 244.531 104.196 244.531 104.196Z" fill="#13C4A3"/>
<path d="M247.104 111.919C243.275 112.87 239.591 114.424 234.357 114.863C233.13 114.965 231.871 114.739 230.824 114.093C227.52 112.054 228.665 108.277 230.47 105.734C232.384 103.039 235.397 100.72 238.686 101.051C238.059 99.4151 239.03 97.4615 240.565 96.6191C242.101 95.7767 244.017 95.888 245.656 96.5041C247.296 97.1202 248.719 98.1897 250.117 99.2448C251.992 100.66 253.868 102.076 255.743 103.492C257.005 104.444 258.308 105.444 259.036 106.847C259.764 108.25 262.458 113.757 261.261 114.79C261.261 114.79 259.731 115.236 258.991 114.79C258.95 114.765 258.903 114.732 258.853 114.693C255.499 112.082 251.229 110.894 247.104 111.919Z" fill="#13C4A3"/>
<path d="M241.448 116.585L234.869 147.333C233.72 152.704 236.707 158.101 241.869 159.98L270.456 165.462L274.02 154.807L250.822 147.57L257.625 117.865L241.448 116.585Z" fill="#13C4A3"/>
<path d="M234.625 153.179C234.629 153.179 234.644 153.239 234.67 153.359C234.697 153.491 234.732 153.666 234.778 153.891C234.802 154.01 234.828 154.141 234.856 154.284C234.906 154.424 234.962 154.577 235.022 154.742C235.083 154.907 235.148 155.086 235.217 155.277C235.316 155.455 235.42 155.646 235.531 155.848C235.99 156.642 236.735 157.536 237.842 158.292C238.943 159.051 240.363 159.702 242.035 160.122C248.876 161.373 258.624 163.156 270.318 165.296L270.128 165.406C271.305 162.031 272.55 158.462 273.846 154.747L273.964 154.982C266.808 152.754 258.961 150.311 250.762 147.758L250.585 147.703L250.631 147.52C251.035 145.937 251.467 144.241 251.903 142.533C253.251 137.148 254.515 131.878 255.615 126.764C256.153 124.206 256.664 121.685 257.016 119.202C257.12 118.581 257.117 117.966 257.173 117.354C257.148 116.746 257.126 116.14 256.97 115.557C256.7 114.388 256.146 113.303 255.387 112.407C253.872 110.594 251.542 109.632 249.326 109.693C247.079 109.756 245.072 110.961 243.698 112.541C242.294 114.124 241.402 116.015 240.797 117.885C240.189 119.764 239.834 121.637 239.483 123.42C238.077 130.547 236.938 136.319 236.148 140.326C235.748 142.307 235.436 143.852 235.221 144.919C235.114 145.431 235.03 145.828 234.971 146.111C234.912 146.379 234.872 146.514 234.872 146.514C234.872 146.514 234.886 146.373 234.931 146.102C234.982 145.817 235.052 145.418 235.143 144.903C235.342 143.834 235.628 142.284 235.997 140.296C236.758 136.283 237.855 130.504 239.209 123.367C239.551 121.582 239.899 119.697 240.507 117.792C241.112 115.894 242.014 113.958 243.452 112.324C244.856 110.695 246.955 109.417 249.313 109.346C251.637 109.277 254.07 110.277 255.662 112.171C256.459 113.108 257.044 114.246 257.329 115.473C257.493 116.086 257.519 116.723 257.545 117.358C257.49 117.985 257.49 118.629 257.388 119.252C257.036 121.757 256.528 124.28 255.991 126.845C254.895 131.968 253.633 137.242 252.284 142.63C251.848 144.34 251.414 146.036 251.01 147.621L250.878 147.383C259.075 149.945 266.918 152.397 274.073 154.633L274.254 154.69L274.191 154.869C272.886 158.581 271.632 162.147 270.447 165.519L270.399 165.657L270.256 165.63C258.554 163.441 248.813 161.655 241.986 160.315C240.295 159.876 238.862 159.202 237.753 158.419C236.637 157.638 235.89 156.716 235.438 155.901C235.33 155.695 235.228 155.499 235.132 155.315C235.065 155.121 235.003 154.938 234.946 154.769C234.89 154.601 234.837 154.446 234.79 154.303C234.766 154.157 234.744 154.023 234.725 153.902C234.69 153.674 234.663 153.497 234.642 153.363C234.626 153.241 234.62 153.18 234.625 153.179Z" fill="#263238"/>
<path d="M246.834 151.598C246.79 151.596 246.75 151.237 246.895 150.679C247.036 150.123 247.408 149.388 248.046 148.772C248.687 148.159 249.437 147.817 249.998 147.699C250.562 147.576 250.919 147.631 250.919 147.676C250.922 147.739 250.581 147.785 250.075 147.966C249.57 148.144 248.908 148.494 248.319 149.056C247.734 149.622 247.357 150.269 247.159 150.767C246.957 151.265 246.897 151.604 246.834 151.598Z" fill="#263238"/>
<g opacity="0.2">
<path d="M240.777 116.176C237.337 126.835 235.259 137.897 233.892 149.014C233.576 151.581 233.299 154.192 233.74 156.74C234.182 159.288 235.439 161.803 237.609 163.209C239.634 164.522 242.223 164.723 244.594 164.273C246.966 163.824 250.802 163.299 252.984 162.268L240.194 159.631C240.194 159.631 231.947 159.118 235.489 143.326C239.032 127.534 240.777 116.176 240.777 116.176Z" fill="black"/>
</g>
<g opacity="0.2">
<path d="M229.872 113.552C229.821 114.813 229.939 116.369 231.086 116.898C232.264 117.44 233.542 116.457 234.496 115.576C238.373 112.001 242.768 108.988 247.503 106.663C241.077 107.077 234.805 109.612 229.896 113.779" fill="black"/>
</g>
<path d="M254.925 109.697C254.873 109.778 253.706 108.715 251.4 107.815C250.251 107.377 248.823 106.983 247.201 106.861C245.583 106.73 243.779 106.872 241.986 107.428C240.186 107.964 238.573 108.783 237.129 109.554C235.687 110.337 234.405 111.082 233.3 111.662C232.197 112.245 231.278 112.666 230.63 112.927C229.979 113.18 229.61 113.294 229.601 113.271C229.591 113.243 229.94 113.081 230.568 112.787C231.193 112.485 232.086 112.029 233.166 111.417C234.266 110.784 235.545 110.047 236.954 109.236C238.397 108.443 240.027 107.601 241.872 107.051C243.711 106.48 245.576 106.344 247.232 106.5C248.893 106.645 250.346 107.077 251.504 107.557C252.665 108.039 253.529 108.588 254.093 109.001C254.383 109.197 254.584 109.381 254.726 109.499C254.864 109.618 254.933 109.686 254.925 109.697Z" fill="#263238"/>
<path d="M258.926 111.291C258.877 111.341 257.972 110.439 256.373 109.15C254.779 107.861 252.444 106.23 249.644 104.83C246.839 103.437 244.132 102.554 242.142 102.058C240.15 101.557 238.886 101.378 238.896 101.309C238.9 101.282 239.218 101.305 239.793 101.371C240.368 101.43 241.195 101.569 242.206 101.787C244.228 102.217 246.983 103.069 249.82 104.478C252.653 105.894 254.99 107.581 256.552 108.937C257.335 109.614 257.943 110.19 258.337 110.613C258.734 111.031 258.945 111.272 258.926 111.291Z" fill="#263238"/>
<path d="M260.837 136.174C260.816 136.177 260.762 135.953 260.685 135.534C260.61 135.116 260.505 134.503 260.435 133.719C260.379 132.934 260.316 131.984 260.565 130.894C260.695 130.362 261.103 129.737 261.807 129.622C262.139 129.554 262.57 129.688 262.778 130.018C262.981 130.312 263.055 130.798 262.722 131.126L262.684 131.164L262.626 131.174C262.207 131.246 261.802 131.037 261.539 130.748C261.262 130.451 261.134 130.054 261.075 129.68C260.983 128.922 260.981 128.196 260.93 127.426C260.742 123.798 260.593 120.512 260.505 118.133C260.472 117.002 260.444 116.057 260.422 115.315C260.412 114.648 260.418 114.28 260.445 114.278C260.472 114.277 260.517 114.643 260.575 115.307C260.63 116.047 260.7 116.991 260.784 118.119C260.943 120.494 261.135 123.777 261.324 127.406C261.373 128.161 261.379 128.936 261.459 129.619C261.511 129.957 261.617 130.269 261.821 130.49C262.022 130.716 262.308 130.851 262.564 130.807L262.468 130.854C262.626 130.717 262.613 130.421 262.477 130.219C262.348 130.01 262.109 129.93 261.859 129.966C261.344 130.041 260.997 130.503 260.867 130.982C260.614 131.974 260.638 132.939 260.664 133.704C260.754 135.254 260.892 136.168 260.837 136.174Z" fill="#E0E0E0"/>
<path d="M248.408 161.203C248.425 161.223 248.096 161.532 247.484 162.073C246.875 162.618 245.967 163.375 244.822 164.284C242.533 166.098 239.251 168.468 235.401 170.726C231.55 172.988 227.879 174.697 225.17 175.791C223.817 176.341 222.709 176.755 221.934 177.013C221.16 177.276 220.729 177.409 220.72 177.384C220.711 177.358 221.125 177.176 221.88 176.87C222.637 176.568 223.727 176.115 225.062 175.534C227.735 174.376 231.369 172.636 235.202 170.385C239.034 168.137 242.326 165.814 244.653 164.063C245.815 163.185 246.749 162.463 247.386 161.955C248.027 161.452 248.39 161.182 248.408 161.203Z" fill="#263238"/>
<path d="M225.355 178.409C225.268 178.474 224.816 178.02 224.345 177.395C223.874 176.769 223.562 176.209 223.649 176.144C223.736 176.078 224.188 176.532 224.66 177.158C225.131 177.783 225.442 178.343 225.355 178.409Z" fill="#263238"/>
<path d="M229.924 176.478C229.862 176.564 229.238 176.212 228.652 175.565C228.063 174.921 227.772 174.266 227.864 174.213C227.959 174.155 228.384 174.688 228.944 175.3C229.5 175.915 229.991 176.388 229.924 176.478Z" fill="#263238"/>
<path d="M235.664 174.585C235.582 174.657 234.949 174.073 234.248 173.28C233.547 172.487 233.046 171.785 233.128 171.713C233.21 171.641 233.843 172.225 234.544 173.019C235.244 173.812 235.745 174.513 235.664 174.585Z" fill="#263238"/>
<path d="M241.824 171.314C241.74 171.383 241.064 170.704 240.314 169.798C239.564 168.891 239.023 168.1 239.107 168.03C239.191 167.961 239.867 168.64 240.617 169.546C241.367 170.452 241.908 171.244 241.824 171.314Z" fill="#263238"/>
<path d="M247.545 167.035C247.472 167.116 246.749 166.58 245.929 165.84C245.109 165.099 244.504 164.433 244.577 164.352C244.65 164.271 245.374 164.806 246.193 165.548C247.012 166.288 247.618 166.954 247.545 167.035Z" fill="#263238"/>
<path d="M302.452 105.618C302.447 106.588 301.657 107.371 300.686 107.367C299.716 107.363 298.933 106.573 298.937 105.602C298.942 104.632 299.732 103.849 300.702 103.853C301.673 103.857 302.456 104.648 302.452 105.618Z" fill="#455A64"/>
<path d="M297.183 103.36C299.113 101.334 302.249 101.272 304.228 103.267C305.125 104.17 306.529 102.78 305.632 101.875C302.917 99.1385 298.46 99.1552 295.792 101.956C294.915 102.876 296.304 104.283 297.183 103.36Z" fill="#455A64"/>
<path d="M291.215 95.1808C293.887 92.8707 297.077 91.4175 300.648 91.4084C304.188 91.3993 307.679 92.6565 310.271 95.0915C311.198 95.9611 312.605 94.5738 311.676 93.7003C308.705 90.9112 304.723 89.4223 300.657 89.4322C296.547 89.4428 292.895 91.1223 289.824 93.7768C288.86 94.6101 290.256 96.0096 291.215 95.1808Z" fill="#455A64"/>
<path d="M293.57 99.713C295.362 97.7769 297.872 96.5643 300.525 96.5038C303.25 96.4417 305.881 97.5642 307.776 99.5101C308.664 100.423 310.068 99.0318 309.18 98.119C306.938 95.8157 303.761 94.4533 300.534 94.5267C297.378 94.5987 294.32 95.9944 292.179 98.309C291.317 99.2414 292.705 100.649 293.57 99.713Z" fill="#455A64"/>
</svg>
