<svg width="175" height="120" viewBox="0 0 175 120" fill="none" xmlns="http://www.w3.org/2000/svg">
<path d="M172.326 0H2.44186C1.79446 0.000718343 1.17378 0.258214 0.715996 0.715996C0.258214 1.17378 0.000718343 1.79446 0 2.44186V117.558C0.000718343 118.206 0.258214 118.826 0.715996 119.284C1.17378 119.742 1.79446 119.999 2.44186 120H172.326C172.973 119.999 173.594 119.742 174.051 119.284C174.509 118.826 174.767 118.206 174.767 117.558V2.44186C174.767 1.79446 174.509 1.17378 174.051 0.715996C173.594 0.258214 172.973 0.000718343 172.326 0ZM174.07 117.558C174.07 118.021 173.886 118.464 173.559 118.791C173.232 119.118 172.788 119.302 172.326 119.302H2.44186C1.97933 119.302 1.53579 119.118 1.20873 118.791C0.881672 118.464 0.697859 118.021 0.697674 117.558V2.44186C0.697859 1.97933 0.881672 1.5358 1.20873 1.20874C1.53579 0.881683 1.97933 0.697859 2.44186 0.697674H172.326C172.788 0.697859 173.232 0.881683 173.559 1.20874C173.886 1.5358 174.07 1.97933 174.07 2.44186V117.558Z" fill="white"/>
<path d="M174.419 9.78143H0.348877V10.4791H174.419V9.78143Z" fill="white"/>
<path d="M6.27906 7.32551C7.435 7.32551 8.37208 6.38843 8.37208 5.23249C8.37208 4.07654 7.435 3.13947 6.27906 3.13947C5.12311 3.13947 4.18604 4.07654 4.18604 5.23249C4.18604 6.38843 5.12311 7.32551 6.27906 7.32551Z" fill="white"/>
<path d="M12.2965 7.32551C13.4525 7.32551 14.3895 6.38843 14.3895 5.23249C14.3895 4.07654 13.4525 3.13947 12.2965 3.13947C11.1406 3.13947 10.2035 4.07654 10.2035 5.23249C10.2035 6.38843 11.1406 7.32551 12.2965 7.32551Z" fill="white"/>
<path d="M18.314 7.32551C19.4699 7.32551 20.407 6.38843 20.407 5.23249C20.407 4.07654 19.4699 3.13947 18.314 3.13947C17.158 3.13947 16.2209 4.07654 16.2209 5.23249C16.2209 6.38843 17.158 7.32551 18.314 7.32551Z" fill="white"/>
<path d="M47.7907 24.0697H17.093C16.4456 24.0704 15.8249 24.3279 15.3671 24.7857C14.9093 25.2435 14.6518 25.8642 14.6511 26.5116V57.2092C14.6518 57.8566 14.9093 58.4773 15.3671 58.9351C15.8249 59.3929 16.4456 59.6504 17.093 59.6511H47.7907C48.4381 59.6504 49.0587 59.3929 49.5165 58.9351C49.9743 58.4773 50.2318 57.8566 50.2325 57.2092V26.5116C50.2318 25.8642 49.9743 25.2435 49.5165 24.7857C49.0587 24.3279 48.4381 24.0704 47.7907 24.0697ZM49.5348 57.2092C49.5347 57.6718 49.3508 58.1153 49.0238 58.4424C48.6967 58.7694 48.2532 58.9532 47.7907 58.9534H17.093C16.6305 58.9532 16.1869 58.7694 15.8599 58.4424C15.5328 58.1153 15.349 57.6718 15.3488 57.2092V26.5116C15.349 26.049 15.5328 25.6055 15.8599 25.2784C16.1869 24.9514 16.6305 24.7676 17.093 24.7674H47.7907C48.2532 24.7676 48.6967 24.9514 49.0238 25.2784C49.3508 25.6055 49.5347 26.049 49.5348 26.5116V57.2092Z" fill="white"/>
<path d="M102.907 24.2441H72.2093C71.6083 24.2453 71.0323 24.4846 70.6073 24.9095C70.1823 25.3345 69.9431 25.9106 69.9419 26.5116V57.2093C69.9431 57.8103 70.1823 58.3863 70.6073 58.8113C71.0323 59.2363 71.6083 59.4755 72.2093 59.4767H102.907C103.508 59.4755 104.084 59.2363 104.509 58.8113C104.934 58.3863 105.173 57.8103 105.174 57.2093V26.5116C105.173 25.9106 104.934 25.3345 104.509 24.9095C104.084 24.4846 103.508 24.2453 102.907 24.2441Z" fill="#13C4A3"/>
<path d="M158.023 24.2441H127.326C126.725 24.2453 126.148 24.4846 125.724 24.9095C125.299 25.3345 125.059 25.9106 125.058 26.5116V57.2093C125.059 57.8103 125.299 58.3863 125.724 58.8113C126.148 59.2363 126.725 59.4755 127.326 59.4767H158.023C158.624 59.4755 159.2 59.2363 159.625 58.8113C160.05 58.3863 160.29 57.8103 160.291 57.2093V26.5116C160.29 25.9106 160.05 25.3345 159.625 24.9095C159.2 24.4846 158.624 24.2453 158.023 24.2441Z" fill="white"/>
<path d="M47.7907 70.2906H17.093C16.492 70.2918 15.9159 70.5311 15.491 70.9561C15.066 71.381 14.8267 71.9571 14.8256 72.5581V103.256C14.8267 103.857 15.066 104.433 15.491 104.858C15.9159 105.283 16.492 105.522 17.093 105.523H47.7907C48.3917 105.522 48.9677 105.283 49.3927 104.858C49.8177 104.433 50.057 103.857 50.0581 103.256V72.5581C50.057 71.9571 49.8177 71.381 49.3927 70.9561C48.9677 70.5311 48.3917 70.2918 47.7907 70.2906Z" fill="white"/>
<path d="M102.907 70.2906H72.2093C71.6083 70.2918 71.0323 70.5311 70.6073 70.9561C70.1823 71.381 69.9431 71.9571 69.9419 72.5581V103.256C69.9431 103.857 70.1823 104.433 70.6073 104.858C71.0323 105.283 71.6083 105.522 72.2093 105.523H102.907C103.508 105.522 104.084 105.283 104.509 104.858C104.934 104.433 105.173 103.857 105.174 103.256V72.5581C105.173 71.9571 104.934 71.381 104.509 70.9561C104.084 70.5311 103.508 70.2918 102.907 70.2906Z" fill="#13C4A3"/>
<path d="M158.023 70.2906H127.326C126.725 70.2918 126.148 70.5311 125.724 70.9561C125.299 71.381 125.059 71.9571 125.058 72.5581V103.256C125.059 103.857 125.299 104.433 125.724 104.858C126.148 105.283 126.725 105.522 127.326 105.523H158.023C158.624 105.522 159.2 105.283 159.625 104.858C160.05 104.433 160.29 103.857 160.291 103.256V72.5581C160.29 71.9571 160.05 71.381 159.625 70.9561C159.2 70.5311 158.624 70.2918 158.023 70.2906Z" fill="white"/>
<path d="M40.2907 75.3488H9.593C8.99185 75.3481 8.41552 75.109 7.99044 74.6839C7.56536 74.2588 7.32625 73.6825 7.32556 73.0813V42.3837C7.32625 41.7825 7.56536 41.2062 7.99044 40.7811C8.41552 40.356 8.99185 40.1169 9.593 40.1162H40.2907C40.8918 40.1169 41.4682 40.356 41.8932 40.7811C42.3183 41.2062 42.5574 41.7825 42.5581 42.3837V73.0813C42.5574 73.6825 42.3183 74.2588 41.8932 74.6839C41.4682 75.109 40.8918 75.3481 40.2907 75.3488Z" fill="#13C4A3"/>
</svg>
